<svg id="Layer_1" data-name="Layer 1" xmlns="http://www.w3.org/2000/svg" width="173.35" height="169.72" viewBox="0 0 173.35 169.72">
  <defs>
    <style>
      .cls-1 {
        fill: #ff6b00;
      }
    </style>
  </defs>
  <g id="Grupo_941" data-name="Grupo 941">
    <path id="SENA_LOGO" data-name="SENA LOGO" class="cls-1" d="M87,0A19.2,19.2,0,0,0,68.18,18.86a18.86,18.86,0,0,0,37.72,0h0A18.73,18.73,0,0,0,87,0ZM25.39,43.52a38.58,38.58,0,0,0-9.43.72,11.64,11.64,0,0,0-5.08,2.91,4.39,4.39,0,0,0-.73,5.8c.73,2.17,2.9,2.9,5.08,3.62a103.54,103.54,0,0,0,14.51,2.91c.72,0,1.45.72,2.17.72.73.73,0,1.45-.72,2.18h0c-1.45.72-3.63.72-5.81.72a12.39,12.39,0,0,1-5.07-.72c-.73-.73-1.45-1.45-.73-2.18H8.7a13.56,13.56,0,0,0,1.45,5.08,6.26,6.26,0,0,0,4.35,2.17c2.9.73,5.81,1.45,8.71.73a69.92,69.92,0,0,0,12.33-.73c2.17-.72,4.35-1.45,5.8-2.9a5.69,5.69,0,0,0,0-8c-.73-.72-.73-.72-1.45-.72-2.18-.73-3.63-1.45-5.8-2.18-2.9-.72-6.53-.72-9.43-1.45-1.45,0-2.18-.72-2.9-.72S21,50.77,21,50.05a.71.71,0,0,1,.73-.73,9.25,9.25,0,0,1,4.35-.72,14.28,14.28,0,0,1,5.08.72c.72,0,.72.73.72,1.45H42.07a5.54,5.54,0,0,0-1.45-3.62,11.74,11.74,0,0,0-5.08-2.91,48.24,48.24,0,0,0-10.15-.72Zm22.48.72V68.9H77.61V63.83H58.75V58.75H75.43V53.67H58.75V50.05H76.88V45Zm49.32,0H83.41V68.9H93.56V52.22L108.07,68.9h14.51V44.24H112.42v16Zm43.52,0L124,68.9h10.88l2.9-4.35h16.68l2.18,4.35H169L153,44.24Zm5.8,5.81,5.08,8.7H140.71ZM0,75.43V88.49H50.05c2.17.72,4.35,2.17,3.62,5.8L23.21,148l10.15,9.43,47.15-82Zm94.29,0,46.42,81.24,10.15-9.43L119.67,93.56c-.72-3.62.73-5.8,3.63-5.8h50.05V74.71ZM87,89.21,43.52,163.92l11.6,5.8,29-49.32A5.5,5.5,0,0,1,87,119a3.79,3.79,0,0,1,2.9,1.45l29,49.32,12.33-6.53Z"/>
  </g>
</svg>
