<svg xmlns="http://www.w3.org/2000/svg" xmlns:xlink="http://www.w3.org/1999/xlink" width="236.877" height="178.667" viewBox="0 0 236.877 178.667">
  <defs>
    <clipPath id="clip-path">
      <path id="Path_102035" data-name="Path 102035" d="M856.7,772.908l-8.915,5.958,52.082,29,8.128-4.26,10.942,5.851s22.113,8.927,11.232-7.717l21.54-15.194s7.286,5.771,11.415,3.1-2.922-7.229-2.922-7.229l-37.5-17.581Z" transform="translate(-847.786 -764.838)" fill="none"/>
    </clipPath>
  </defs>
  <g id="t1-i7" transform="translate(-371.474 -2488.666)">
    <path id="Path_134317" data-name="Path 134317" d="M31.518,0H69.457a31.518,31.518,0,0,1,31.518,31.518V60.7A31.518,31.518,0,0,1,69.457,92.22H31.518A31.518,31.518,0,0,1,0,60.7V31.518A31.518,31.518,0,0,1,31.518,0Z" transform="translate(436.683 2500.314) rotate(45)" fill="#fff5d4"/>
    <path id="Path_134318" data-name="Path 134318" d="M19.624,0H43.246A19.624,19.624,0,0,1,62.87,19.624V37.795A19.624,19.624,0,0,1,43.246,57.419H19.624A19.624,19.624,0,0,1,0,37.795V19.624A19.624,19.624,0,0,1,19.624,0Z" transform="translate(563.895 2488.666) rotate(45)" fill="#fff5d4"/>
    <g id="Group_59065" data-name="Group 59065" transform="translate(454.832 2417.338)">
      <g id="Group_58975" data-name="Group 58975" transform="translate(0 202.984)">
        <g id="Group_58974" data-name="Group 58974" clip-path="url(#clip-path)">
          <g id="Group_58973" data-name="Group 58973" transform="translate(-5.15 -19.694)">
            <g id="Group_58946" data-name="Group 58946" transform="translate(11.308 6.238)">
              <rect id="Rectangle_7507" data-name="Rectangle 7507" width="73.279" height="1.067" transform="translate(0 36.604) rotate(-29.968)" fill="#150035"/>
            </g>
            <g id="Group_58947" data-name="Group 58947" transform="translate(14.21 7.788)">
              <rect id="Rectangle_7508" data-name="Rectangle 7508" width="73.279" height="1.067" transform="translate(0 36.598) rotate(-29.962)" fill="#150035"/>
            </g>
            <g id="Group_58948" data-name="Group 58948" transform="translate(16.845 9.438)">
              <rect id="Rectangle_7509" data-name="Rectangle 7509" width="73.279" height="1.067" transform="translate(0 36.598) rotate(-29.962)" fill="#150035"/>
            </g>
            <g id="Group_58949" data-name="Group 58949" transform="translate(19.804 10.958)">
              <path id="Path_102033" data-name="Path 102033" d="M857.123,797.1l-.531-.924,63.49-36.591.531.924Z" transform="translate(-856.592 -759.589)" fill="#150035"/>
            </g>
            <g id="Group_58950" data-name="Group 58950" transform="translate(22.229 12.689)">
              <rect id="Rectangle_7510" data-name="Rectangle 7510" width="73.279" height="1.066" transform="translate(0 36.529) rotate(-29.901)" fill="#150035"/>
            </g>
            <g id="Group_58951" data-name="Group 58951" transform="translate(25.152 14.203)">
              <rect id="Rectangle_7511" data-name="Rectangle 7511" width="73.28" height="1.067" transform="translate(0 36.598) rotate(-29.962)" fill="#150035"/>
            </g>
            <g id="Group_58952" data-name="Group 58952" transform="translate(27.79 15.848)">
              <rect id="Rectangle_7512" data-name="Rectangle 7512" width="73.279" height="1.067" transform="translate(0 36.608) rotate(-29.972)" fill="#150035"/>
            </g>
            <g id="Group_58953" data-name="Group 58953" transform="translate(30.75 17.363)">
              <rect id="Rectangle_7513" data-name="Rectangle 7513" width="73.28" height="1.067" transform="translate(0 36.609) rotate(-29.972)" fill="#150035"/>
            </g>
            <g id="Group_58954" data-name="Group 58954" transform="translate(33.382 19.018)">
              <rect id="Rectangle_7514" data-name="Rectangle 7514" width="73.28" height="1.067" transform="translate(0 36.598) rotate(-29.962)" fill="#150035"/>
            </g>
            <g id="Group_58955" data-name="Group 58955" transform="translate(36.334 20.562)">
              <rect id="Rectangle_7515" data-name="Rectangle 7515" width="73.28" height="1.067" transform="translate(0 36.598) rotate(-29.962)" fill="#150035"/>
            </g>
            <g id="Group_58956" data-name="Group 58956" transform="translate(38.971 22.206)">
              <rect id="Rectangle_7516" data-name="Rectangle 7516" width="73.28" height="1.067" transform="translate(0 36.609) rotate(-29.972)" fill="#150035"/>
            </g>
            <g id="Group_58957" data-name="Group 58957" transform="translate(41.929 23.727)">
              <rect id="Rectangle_7517" data-name="Rectangle 7517" width="73.279" height="1.067" transform="translate(0 36.598) rotate(-29.962)" fill="#150035"/>
            </g>
            <g id="Group_58958" data-name="Group 58958" transform="translate(44.353 25.462)">
              <rect id="Rectangle_7518" data-name="Rectangle 7518" width="73.279" height="1.066" transform="translate(0 36.53) rotate(-29.901)" fill="#150035"/>
            </g>
            <g id="Group_58959" data-name="Group 58959" transform="translate(47.255 27.013)">
              <rect id="Rectangle_7519" data-name="Rectangle 7519" width="73.279" height="1.066" transform="translate(0 36.524) rotate(-29.895)" fill="#150035"/>
            </g>
            <g id="Group_58960" data-name="Group 58960" transform="translate(49.889 28.663)">
              <rect id="Rectangle_7520" data-name="Rectangle 7520" width="73.279" height="1.067" transform="matrix(0.867, -0.498, 0.498, 0.867, 0, 36.524)" fill="#150035"/>
            </g>
            <g id="Group_58961" data-name="Group 58961" transform="translate(52.859 30.162)">
              <rect id="Rectangle_7521" data-name="Rectangle 7521" width="73.279" height="1.067" transform="translate(0 36.556) rotate(-29.925)" fill="#150035"/>
            </g>
            <g id="Group_58962" data-name="Group 58962" transform="translate(55.485 31.828)">
              <rect id="Rectangle_7522" data-name="Rectangle 7522" width="73.279" height="1.067" transform="translate(0 36.524) rotate(-29.895)" fill="#150035"/>
            </g>
            <g id="Group_58963" data-name="Group 58963" transform="translate(56.761 34.165)">
              <rect id="Rectangle_7523" data-name="Rectangle 7523" width="73.279" height="1.066" transform="translate(0 36.53) rotate(-29.901)" fill="#150035"/>
            </g>
            <g id="Group_58964" data-name="Group 58964" transform="translate(59.683 35.681)">
              <path id="Path_102034" data-name="Path 102034" d="M881.085,811.96l-.531-.924,63.49-36.591.531.924Z" transform="translate(-880.554 -774.444)" fill="#150035"/>
            </g>
            <g id="Group_58965" data-name="Group 58965" transform="translate(62.298 37.365)">
              <rect id="Rectangle_7524" data-name="Rectangle 7524" width="73.279" height="1.067" transform="translate(0 36.524) rotate(-29.895)" fill="#150035"/>
            </g>
            <g id="Group_58966" data-name="Group 58966" transform="translate(65.271 38.86)">
              <rect id="Rectangle_7525" data-name="Rectangle 7525" width="73.279" height="1.067" transform="translate(0 36.566) rotate(-29.934)" fill="#150035"/>
            </g>
            <g id="Group_58967" data-name="Group 58967" transform="translate(67.894 40.531)">
              <rect id="Rectangle_7526" data-name="Rectangle 7526" width="73.279" height="1.067" transform="translate(0 36.524) rotate(-29.895)" fill="#150035"/>
            </g>
            <g id="Group_58968" data-name="Group 58968" transform="translate(0 0)">
              <rect id="Rectangle_7527" data-name="Rectangle 7527" width="73.279" height="1.066" transform="translate(0 36.53) rotate(-29.901)" fill="#150035"/>
            </g>
            <g id="Group_58969" data-name="Group 58969" transform="translate(2.927 1.506)">
              <rect id="Rectangle_7528" data-name="Rectangle 7528" width="73.28" height="1.067" transform="translate(0 36.615) rotate(-29.977)" fill="#150035"/>
            </g>
            <g id="Group_58970" data-name="Group 58970" transform="translate(5.559 3.161)">
              <rect id="Rectangle_7529" data-name="Rectangle 7529" width="73.279" height="1.067" transform="translate(0 36.604) rotate(-29.968)" fill="#150035"/>
            </g>
            <g id="Group_58971" data-name="Group 58971" transform="translate(8.52 4.677)">
              <rect id="Rectangle_7530" data-name="Rectangle 7530" width="73.279" height="1.067" transform="translate(0 36.603) rotate(-29.967)" fill="#150035"/>
            </g>
            <g id="Group_58972" data-name="Group 58972" transform="translate(11.154 6.327)">
              <rect id="Rectangle_7531" data-name="Rectangle 7531" width="73.28" height="1.067" transform="translate(0 36.604) rotate(-29.968)" fill="#150035"/>
            </g>
          </g>
        </g>
      </g>
      <g id="Group_58998" data-name="Group 58998" transform="translate(24.098 174.989)">
        <g id="Group_58996" data-name="Group 58996" transform="translate(0.05 3.108)">
          <path id="Path_102048" data-name="Path 102048" d="M872.947,750.363a.481.481,0,0,1,.478.528l-1.416,7.118c0,.854-.834,1.706-2.5,2.119a5.913,5.913,0,0,1-2.812,0c-1.669-.413-2.5-1.265-2.5-2.119l-1.415-7.118a.479.479,0,0,1,.478-.528Z" transform="translate(-861.978 -749.566)" fill="#150035"/>
          <path id="Path_102049" data-name="Path 102049" d="M866.821,761.217c-1.9-.469-3.057-1.513-3.105-2.806l-1.413-7.125a1.274,1.274,0,0,1,1.27-1.4h9.693a1.285,1.285,0,0,1,.947.419,1.318,1.318,0,0,1,.313,1.06l-1.4,7.048c-.048,1.292-1.2,2.337-3.105,2.806a6.652,6.652,0,0,1-3.2,0Zm-2.859-9.739,1.33,6.692.015.155c0,.438.588,1.023,1.9,1.346a5.142,5.142,0,0,0,2.433,0c1.31-.325,1.9-.909,1.9-1.346l1.348-6.847Z" transform="translate(-862.296 -749.884)" fill="#150035"/>
        </g>
        <g id="Group_58997" data-name="Group 58997">
          <path id="Path_102050" data-name="Path 102050" d="M864.32,749.408c-2.1,1.212-2.1,3.177,0,4.388a8.4,8.4,0,0,0,7.6,0c2.1-1.212,2.1-3.177,0-4.388A8.393,8.393,0,0,0,864.32,749.408Z" transform="translate(-861.948 -747.697)" fill="#39a1ff"/>
          <path id="Path_102051" data-name="Path 102051" d="M864.24,754.807a3.1,3.1,0,0,1,0-5.77,9.148,9.148,0,0,1,8.4,0,3.1,3.1,0,0,1,0,5.77,9.168,9.168,0,0,1-8.4,0Zm.8-4.39a1.55,1.55,0,0,0,0,3.009,7.632,7.632,0,0,0,6.8,0,1.55,1.55,0,0,0,0-3.009,7.643,7.643,0,0,0-6.8,0Z" transform="translate(-862.266 -748.017)" fill="#150035"/>
        </g>
      </g>
      <g id="Group_59006" data-name="Group 59006" transform="translate(3.079 131.347)">
        <g id="Group_59005" data-name="Group 59005">
          <g id="Group_59002" data-name="Group 59002">
            <g id="Group_58999" data-name="Group 58999" transform="translate(0.032 8.903)">
              <path id="Path_102052" data-name="Path 102052" d="M899.892,822.255l45.476-24.67a1.024,1.024,0,0,0,.651-.937h0c0-.021,0-.042,0-.063l-.083-51.686a.38.38,0,0,0-.389-.363l-30.685-8.659a.406.406,0,0,1-.193-.048l-14.407-7.6a4.49,4.49,0,0,0-3.8-.16l-30.915,16.892a.418.418,0,0,1-.2.05l-14.678-.115a.38.38,0,0,0-.4.37l.062,51.724a1.519,1.519,0,0,0,.917,1.093L896.1,822.1A4.488,4.488,0,0,0,899.892,822.255Z" transform="translate(-849.243 -726.756)" fill="#ffca28"/>
              <path id="Path_102053" data-name="Path 102053" d="M896,823.319,851.145,799.3a2.438,2.438,0,0,1-1.43-1.919l-.06-51.724a1.277,1.277,0,0,1,.418-.952,1.626,1.626,0,0,1,1.019-.388l14.5.113,30.77-16.812a5.516,5.516,0,0,1,4.816.156l14.287,7.532,30.693,8.661a1.373,1.373,0,0,1,1.22,1.3l.083,51.7A1.952,1.952,0,0,1,946.3,798.8l-45.475,24.67h-.006a4.644,4.644,0,0,1-2.157.479A5.7,5.7,0,0,1,896,823.319Zm49.271-26.185c.1-.05.138-.093.131-.155l-.078-51.23-30.249-8.536a1.475,1.475,0,0,1-.5-.16l-14.419-7.6a3.447,3.447,0,0,0-2.753-.16l-30.931,16.9a1.522,1.522,0,0,1-.712.173l-14.029-.108.052,51.04a.9.9,0,0,0,.4.34L897.03,821.65a3.447,3.447,0,0,0,2.759.156Z" transform="translate(-849.655 -727.142)" fill="#150035"/>
            </g>
            <g id="Group_59000" data-name="Group 59000" transform="translate(0.032 26.077)">
              <path id="Path_102054" data-name="Path 102054" d="M863.668,738.047c-.033-.012-12.876,0-12.876,0a.494.494,0,0,0-.516.479l.06,51.612a1.52,1.52,0,0,0,.917,1.094l44.664,23.913a.119.119,0,0,0,.178-.1l-.081-52L896,763.03h0C897.134,760.271,863.668,738.047,863.668,738.047Z" transform="translate(-849.243 -737.076)" fill="#150035"/>
              <path id="Path_102055" data-name="Path 102055" d="M851.146,792.45a2.434,2.434,0,0,1-1.431-1.919l-.06-51.611a1.378,1.378,0,0,1,.453-1.03,1.553,1.553,0,0,1,1.1-.421c13.024-.015,13.028-.011,13.231.058l.245.12c.085.055,8.478,5.633,16.624,11.478,15.833,11.358,16.462,13.417,16.159,14.417l.078,51.882a1.065,1.065,0,0,1-.569.938l-.636.281Zm44.132-28.959.108-.264c-.919-2.367-16.641-13.86-31.642-23.832-1.554-.008-8.607,0-12.019,0l.052,51.045a.887.887,0,0,0,.4.34l43.28,23.173-.063-50.266Z" transform="translate(-849.655 -737.462)" fill="#150035"/>
            </g>
            <g id="Group_59001" data-name="Group 59001">
              <path id="Path_102056" data-name="Path 102056" d="M850.918,747.392l45.475-24.67a4.5,4.5,0,0,1,3.8.158l44.844,24.011c1.12.609,1.24,1.524.265,2.045l-45.476,24.67a4.486,4.486,0,0,1-3.794-.16l-44.844-24.01C850.061,748.829,849.942,747.913,850.918,747.392Z" transform="translate(-849.223 -721.407)" fill="#fff"/>
              <path id="Path_102057" data-name="Path 102057" d="M895.925,774.67l-44.849-24.013a2.387,2.387,0,0,1-1.439-2,2,2,0,0,1,1.178-1.718l45.478-24.672a5.538,5.538,0,0,1,4.823.16l44.849,24.015a2.383,2.383,0,0,1,1.44,2,2,2,0,0,1-1.175,1.716L900.748,774.83a4.669,4.669,0,0,1-2.157.478A5.708,5.708,0,0,1,895.925,774.67Zm49.006-26.558L900.082,724.1a3.437,3.437,0,0,0-2.757-.158L851.849,748.61l-.005,0a.7.7,0,0,1-.125.065,1.125,1.125,0,0,0,.39.308L896.96,773a3.442,3.442,0,0,0,2.756.158L945.2,748.487a.6.6,0,0,1,.121-.065A1.115,1.115,0,0,0,944.931,748.113Z" transform="translate(-849.636 -721.793)" fill="#150035"/>
            </g>
          </g>
          <g id="Group_59003" data-name="Group 59003" transform="translate(89.445 30.632)">
            <path id="Path_102058" data-name="Path 102058" d="M903.661,792.215l2.067-.058-.279-51.958-2.067.058Z" transform="translate(-903.382 -740.199)" fill="#150035"/>
          </g>
          <g id="Group_59004" data-name="Group 59004" transform="translate(8.455 32.761)">
            <path id="Path_102059" data-name="Path 102059" d="M854.837,792.355l1.59-.022-.12-50.855-1.59.021Z" transform="translate(-854.717 -741.478)" fill="#ffca28"/>
          </g>
        </g>
      </g>
      <g id="Group_59064" data-name="Group 59064" transform="translate(24.507 71.328)">
        <g id="Group_59007" data-name="Group 59007" transform="translate(71.317 127.981)">
          <path id="Path_102060" data-name="Path 102060" d="M914.786,766.768a14.091,14.091,0,0,0,.831,6.3c1.227,2.708-.306,5.364-4.8,4.139l-4.853-2.759a24.841,24.841,0,0,0,1.474-7.823c.058-4.232,3.277-3.465,3.277-3.465Z" transform="translate(-904.969 -762.313)" fill="#fff"/>
          <path id="Path_102061" data-name="Path 102061" d="M911,778.294l-5.637-3.175.253-.642a24.273,24.273,0,0,0,1.418-7.544,4.424,4.424,0,0,1,1.44-3.63,3.579,3.579,0,0,1,2.819-.6l.195.047,4.53,4.011-.045.411a13.3,13.3,0,0,0,.765,5.888,3.988,3.988,0,0,1-.306,4.312,3.942,3.942,0,0,1-3.157,1.26A8.606,8.606,0,0,1,911,778.294Zm-.245-14.063a1.91,1.91,0,0,0-1.3.328,3.15,3.15,0,0,0-.825,2.4,25.681,25.681,0,0,1-1.3,7.451l4.182,2.378c1.731.451,3.077.293,3.7-.446a2.461,2.461,0,0,0,.067-2.62,14.337,14.337,0,0,1-.932-6.3Z" transform="translate(-905.365 -762.63)" fill="#150035"/>
        </g>
        <g id="Group_59008" data-name="Group 59008" transform="translate(41.45 148.443)">
          <path id="Path_102062" data-name="Path 102062" d="M896.146,778.782a13.013,13.013,0,0,0,.767,5.822c1.133,2.5-.459,5.647-4.61,4.513L888,785.877a22.964,22.964,0,0,0,1.36-7.226c.055-3.908,3.027-3.2,3.027-3.2Z" transform="translate(-887.033 -774.609)" fill="#fff"/>
          <path id="Path_102063" data-name="Path 102063" d="M892.479,790.2l-5.061-3.736.223-.564a22.272,22.272,0,0,0,1.306-6.945,4.14,4.14,0,0,1,1.353-3.4,3.382,3.382,0,0,1,2.654-.564l.195.046,4.22,3.734-.046.411a12.191,12.191,0,0,0,.7,5.407,4.268,4.268,0,0,1-.491,4.52,4.1,4.1,0,0,1-3.224,1.351A6.988,6.988,0,0,1,892.479,790.2Zm-.058-13.68a1.654,1.654,0,0,0-1.152.3,2.867,2.867,0,0,0-.729,2.157,23.85,23.85,0,0,1-1.21,6.932l3.711,2.792c1.463.365,2.624.146,3.28-.626a2.673,2.673,0,0,0,.251-2.829,13.255,13.255,0,0,1-.867-5.816Z" transform="translate(-887.418 -774.925)" fill="#150035"/>
        </g>
        <g id="Group_59014" data-name="Group 59014" transform="translate(69.401 135.311)">
          <g id="Group_59009" data-name="Group 59009">
            <path id="Path_102064" data-name="Path 102064" d="M914.968,768.625a1.88,1.88,0,0,1,2.173.965c.939,1.812,3.56,6.309,7.389,8.334,4.856,2.566,2.062,5.48-.275,5.991-1.431.315-4.1-.691-6.187-1.641a18.41,18.41,0,0,1-3.974-2.568,6.387,6.387,0,0,0-3.2-1.395,17.351,17.351,0,0,1-5.75-2.31.937.937,0,0,1-.451-.877c.116-1.679.524-6.527,1.343-7.151.992-.755,2.125-.747,2.305,1.29s3.435,2.931,3.841,1.584A4.445,4.445,0,0,1,914.968,768.625Z" transform="translate(-903.895 -766.716)" fill="#ffca28"/>
            <path id="Path_102065" data-name="Path 102065" d="M918.056,783.319a18.931,18.931,0,0,1-4.147-2.678,5.549,5.549,0,0,0-2.8-1.22A17.822,17.822,0,0,1,905.055,777a1.732,1.732,0,0,1-.837-1.614c.479-6.835,1.335-7.486,1.656-7.73a2.271,2.271,0,0,1,2.307-.478,2.541,2.541,0,0,1,1.275,2.332,1.819,1.819,0,0,0,1.3,1.378,1.24,1.24,0,0,0,.982.045,5.159,5.159,0,0,1,3.323-2.756,2.668,2.668,0,0,1,3.105,1.363c.914,1.766,3.432,6.081,7.052,7.995,2.809,1.486,3.222,3.092,3.074,4.179-.231,1.7-1.961,2.949-3.548,3.3a3.529,3.529,0,0,1-.757.075A16.036,16.036,0,0,1,918.056,783.319Zm-2.545-13.61h0a3.788,3.788,0,0,0-2.247,1.689,1.889,1.889,0,0,1-2.187,1.19,3.538,3.538,0,0,1-3.21-2.936c-.065-.741-.261-.984-.331-1.015s-.321,0-.662.258c-.265.318-.767,2.338-1.067,6.605a.142.142,0,0,0,.068.137,16.616,16.616,0,0,0,5.449,2.2,7.232,7.232,0,0,1,3.594,1.566,17.346,17.346,0,0,0,3.8,2.46c3.786,1.727,5.237,1.687,5.687,1.589,1.013-.223,2.185-1.034,2.31-1.956.113-.824-.682-1.732-2.239-2.554-4.019-2.125-6.74-6.772-7.724-8.672a1.117,1.117,0,0,0-.972-.6A.927.927,0,0,0,915.511,769.709Z" transform="translate(-904.213 -767.034)" fill="#150035"/>
          </g>
          <g id="Group_59010" data-name="Group 59010" transform="translate(0.007)">
            <path id="Path_102066" data-name="Path 102066" d="M908.345,769.264a2.069,2.069,0,0,0,.4,1.03h0c-.542,2.6.083,4.959,1,5.164a17.955,17.955,0,0,1,5.515,1.94c1.636,1.125,6.334,4.292,8.684,4.5,2.326.2,2.578-.844,2.917-1.418.769,1.8-.945,3.077-2.6,3.44-1.431.315-4.1-.691-6.187-1.641a18.4,18.4,0,0,1-3.974-2.568,6.388,6.388,0,0,0-3.2-1.395,17.353,17.353,0,0,1-5.75-2.31.938.938,0,0,1-.451-.877c.117-1.679.524-6.527,1.343-7.151C907.034,767.219,908.167,767.227,908.345,769.264Z" transform="translate(-903.899 -766.716)" fill="#150035"/>
            <path id="Path_102067" data-name="Path 102067" d="M918.06,783.319a18.975,18.975,0,0,1-4.147-2.678,5.551,5.551,0,0,0-2.8-1.22A17.821,17.821,0,0,1,905.059,777a1.732,1.732,0,0,1-.837-1.614c.478-6.833,1.333-7.484,1.656-7.73a2.27,2.27,0,0,1,2.307-.478,2.536,2.536,0,0,1,1.273,2.332h0a1.268,1.268,0,0,0,.248.632l.206.286-.072.344c-.481,2.307.088,4.036.394,4.224l.151.032a18.083,18.083,0,0,1,5.645,2.03c5.269,3.621,7.462,4.284,8.3,4.357,1.553.131,1.781-.316,2.03-.792.045-.083.087-.165.132-.238l.8-1.353.619,1.445a2.76,2.76,0,0,1-.05,2.418,4.641,4.641,0,0,1-3.112,2.115,3.517,3.517,0,0,1-.757.075A16.037,16.037,0,0,1,918.06,783.319Zm6.134-.313c-1.767-.153-4.818-1.712-9.067-4.631a16.741,16.741,0,0,0-5.084-1.786l-.153-.035c-1.581-.351-2.12-3.207-1.671-5.781a2.75,2.75,0,0,1-.348-1.12h0c-.067-.741-.261-.984-.331-1.015s-.321,0-.662.258c-.266.318-.769,2.34-1.067,6.605a.142.142,0,0,0,.068.137,16.619,16.619,0,0,0,5.449,2.2,7.234,7.234,0,0,1,3.595,1.566,17.32,17.32,0,0,0,3.8,2.46c3.788,1.727,5.239,1.687,5.688,1.589a4.028,4.028,0,0,0,1.233-.489A5.527,5.527,0,0,1,924.194,783.006Z" transform="translate(-904.217 -767.034)" fill="#150035"/>
          </g>
          <g id="Group_59011" data-name="Group 59011" transform="translate(10.404 4.628)">
            <path id="Path_102068" data-name="Path 102068" d="M911.359,772.867a6.362,6.362,0,0,1,3.41-1.836l-.161-1.217a7.593,7.593,0,0,0-4.142,2.212Z" transform="translate(-910.465 -769.815)" fill="#150035"/>
          </g>
          <g id="Group_59012" data-name="Group 59012" transform="translate(11.922 6.254)">
            <path id="Path_102069" data-name="Path 102069" d="M912.271,773.844a6.387,6.387,0,0,1,3.41-1.837l-.163-1.215A7.6,7.6,0,0,0,911.377,773Z" transform="translate(-911.377 -770.792)" fill="#150035"/>
          </g>
          <g id="Group_59013" data-name="Group 59013" transform="translate(1.905 3.151)">
            <path id="Path_102070" data-name="Path 102070" d="M905.786,775.273l1.155-.409a9.663,9.663,0,0,1,.165-5.53l-1.157-.406A10.746,10.746,0,0,0,905.786,775.273Z" transform="translate(-905.358 -768.927)" fill="#ffca28"/>
          </g>
        </g>
        <g id="Group_59021" data-name="Group 59021" transform="translate(39.526 154.411)">
          <g id="Group_59015" data-name="Group 59015">
            <path id="Path_102071" data-name="Path 102071" d="M894.947,781.556a3.709,3.709,0,0,0-2.09,3.094.9.9,0,0,1-1.543.456c-1.009-1.087-2.145-2.5-1.971-3.2.306-1.225.554-2.493.554-2.493s-1.273-1.438-2.453,1.015-.519,5.284-.519,6.464,2.548,2.829,4.53,4.339,3.676,4.548,6.164,6.846c2.433,2.25,9.356,1.5,6.762-3.779s-3.4-5.991-3.774-7.69-1.584-6.617-3.5-6.634a5.577,5.577,0,0,0,.731,2.461A2.23,2.23,0,0,0,894.947,781.556Z" transform="translate(-885.944 -778.192)" fill="#ffca28"/>
            <path id="Path_102072" data-name="Path 102072" d="M897.4,798.978a31.257,31.257,0,0,1-3.23-3.653,18.687,18.687,0,0,0-2.876-3.144c-.321-.246-.659-.5-1-.746-2.062-1.524-3.844-2.842-3.844-4.229,0-.24-.031-.551-.065-.917a10.941,10.941,0,0,1,.662-5.893c.543-1.127,1.223-1.756,2.026-1.867a2.06,2.06,0,0,1,1.742.671l.261.295-.077.386s-.251,1.29-.557,2.495c0,.006.027.62,1.777,2.508l.17-.047a4.382,4.382,0,0,1,2.6-3.71,3.48,3.48,0,0,1,1.691-.225,4,4,0,0,1-.055-.626l.012-.792.792.007c.661.007,2.671.023,4.276,7.258a10.053,10.053,0,0,0,1.246,2.782c.569,1.037,1.349,2.458,2.466,4.73,1.511,3.077.017,4.647-.7,5.177a5.488,5.488,0,0,1-3.245.937A6.148,6.148,0,0,1,897.4,798.978Zm.055-15.849a1.432,1.432,0,0,0-1.909-.508,2.871,2.871,0,0,0-1.583,2.478,1.694,1.694,0,0,1-2.912.867c-2.2-2.368-2.307-3.349-2.159-3.939.178-.715.338-1.446.438-1.922a.144.144,0,0,0-.04,0c-.06.008-.384.1-.806.979a9.615,9.615,0,0,0-.513,5.054c.04.424.072.787.072,1.065,0,.584,2.082,2.122,3.2,2.947.345.254.687.509,1.015.759a19.6,19.6,0,0,1,3.157,3.422,30.52,30.52,0,0,0,3.064,3.473,4.866,4.866,0,0,0,5.291.354c.867-.649.94-1.724.216-3.2-1.1-2.24-1.869-3.641-2.432-4.667a11.288,11.288,0,0,1-1.4-3.2,20.012,20.012,0,0,0-1.491-4.611Z" transform="translate(-886.262 -778.511)" fill="#150035"/>
          </g>
          <g id="Group_59016" data-name="Group 59016" transform="translate(0 0.003)">
            <path id="Path_102073" data-name="Path 102073" d="M889.9,779.411s-.248,1.268-.554,2.493a.888.888,0,0,0,0,.116,6.2,6.2,0,0,0-.214.654,5.264,5.264,0,0,0-.15,1.215,6.729,6.729,0,0,0,2.64,5.286,31.6,31.6,0,0,1,6.487,6.755c2.821,4.285,6.193,2.064,6.193,2.064,0,1.113-4.964,1.663-6.675.082-2.488-2.3-4.182-5.337-6.164-6.847s-4.53-3.162-4.53-4.34-.659-4.011.519-6.464S889.9,779.411,889.9,779.411Z" transform="translate(-885.944 -778.195)" fill="#150035"/>
            <path id="Path_102074" data-name="Path 102074" d="M897.4,798.978a31.132,31.132,0,0,1-3.232-3.653,18.728,18.728,0,0,0-2.874-3.144c-.323-.246-.661-.5-1-.746-2.064-1.525-3.844-2.841-3.844-4.229,0-.24-.031-.551-.065-.917a10.942,10.942,0,0,1,.662-5.893c.543-1.127,1.223-1.756,2.026-1.867a2.069,2.069,0,0,1,1.742.671l.261.295-.077.388s-.241,1.232-.541,2.445v.018l-.058.292a5.042,5.042,0,0,0-.183.547,4.648,4.648,0,0,0-.125,1.035,5.962,5.962,0,0,0,2.338,4.651,32.084,32.084,0,0,1,6.657,6.94c2.292,3.48,4.813,2.012,5.088,1.836l1.236-.814v1.479c0,.4-.195.965-1.12,1.371a7.574,7.574,0,0,1-2.856.491A6.174,6.174,0,0,1,897.4,798.978Zm-8.538-16.835.03-.115c.178-.716.338-1.446.438-1.921l-.037,0c-.166.023-.479.293-.809.98a9.609,9.609,0,0,0-.513,5.053c.04.424.072.787.072,1.065,0,.584,2.08,2.12,3.2,2.948.345.255.689.507,1.017.759a19.693,19.693,0,0,1,3.157,3.42,30.117,30.117,0,0,0,3.064,3.475,2.027,2.027,0,0,0,.428.295,8.6,8.6,0,0,1-1.15-1.416,30.457,30.457,0,0,0-6.319-6.569A7.561,7.561,0,0,1,888.5,784.2a6.3,6.3,0,0,1,.173-1.395,6.027,6.027,0,0,1,.191-.6Z" transform="translate(-886.262 -778.513)" fill="#150035"/>
          </g>
          <g id="Group_59017" data-name="Group 59017" transform="translate(8.184 7.131)">
            <path id="Path_102075" data-name="Path 102075" d="M891.929,785.86c1.994-1.538,5.588-1.839,5.623-1.842l-.1-1.221c-.161.013-4,.336-6.276,2.093Z" transform="translate(-891.18 -782.796)" fill="#150035"/>
          </g>
          <g id="Group_59018" data-name="Group 59018" transform="translate(9.379 9.345)">
            <path id="Path_102076" data-name="Path 102076" d="M892.645,787.088a10.882,10.882,0,0,1,5.131-1.739l-.075-1.223a11.951,11.951,0,0,0-5.8,1.992Z" transform="translate(-891.898 -784.126)" fill="#150035"/>
          </g>
          <g id="Group_59019" data-name="Group 59019" transform="translate(11.243 3.78)">
            <rect id="Rectangle_7538" data-name="Rectangle 7538" width="1.226" height="2.171" transform="translate(0 0.496) rotate(-23.843)" fill="#150035"/>
          </g>
          <g id="Group_59020" data-name="Group 59020" transform="translate(1.352 4.114)">
            <path id="Path_102077" data-name="Path 102077" d="M887.477,786.4l1.168-.37a12.678,12.678,0,0,1-.188-4.85l-1.212-.2A13.777,13.777,0,0,0,887.477,786.4Z" transform="translate(-887.074 -780.983)" fill="#ffca28"/>
          </g>
        </g>
        <g id="Group_59028" data-name="Group 59028" transform="translate(19.176 78.891)">
          <g id="Group_59022" data-name="Group 59022">
            <path id="Path_102078" data-name="Path 102078" d="M906.776,806.347a183.529,183.529,0,0,1,.117-25.943c.5-5.538.76-9.537.892-12.267a13.594,13.594,0,0,0-2.456-8.473l-8.16-11.6a.185.185,0,0,1,.225-.276c2.428,1.062,11.675,4.8,21.146,4.626l7.96.884a.205.205,0,0,1,.161.3c-.523.965-2.162,4.538-1.558,10.41.716,6.948,2.3,12.413,2.53,21.71a6.932,6.932,0,0,0,9.3-.306s-.306-22.068,0-30.853.2-10.829-6.64-15.018-22.477-5.823-29.729-5.926-20.229,4.6-20.229,4.6l-5.107,3.473s-4.6,10.422,9.3,18.9c0,0,8.093,6.218,11.184,8.564a.207.207,0,0,1,.053.28c-.453.744-2.233,4.13-2.144,11.18.1,8.07,2.451,14.3,3.167,22.68l.2,2.861S900.851,809.311,906.776,806.347Z" transform="translate(-873.729 -732.814)" fill="#150035"/>
            <path id="Path_102079" data-name="Path 102079" d="M896.784,807.085l-.268-.218-.226-3.194a94.02,94.02,0,0,0-1.554-10.078,68.542,68.542,0,0,1-1.616-12.658c-.08-6.272,1.288-9.759,2-11.142-3.322-2.528-10.718-8.21-10.713-8.213-14.326-8.74-9.659-19.791-9.611-19.9l.092-.209,5.3-3.6.177-.092c.536-.193,13.184-4.738,20.511-4.645,8.017.113,23.287,1.854,30.134,6.045,7.138,4.367,7.336,6.67,7.02,15.724-.3,8.667,0,30.595,0,30.815l0,.358-.263.241c-5.162,4.713-10.3.365-10.356.321l-.266-.231-.008-.351a99.34,99.34,0,0,0-1.513-14.43c-.386-2.415-.752-4.695-1.012-7.218a20.189,20.189,0,0,1,1.275-10.093l-7.031-.787c-7.9.138-15.6-2.363-19.528-3.889l6.953,9.887a14.458,14.458,0,0,1,2.6,8.97c-.167,3.466-.468,7.605-.894,12.3a183.9,183.9,0,0,0-.115,25.812l.04.532-.479.238a11.891,11.891,0,0,1-5.352,1.361A8.783,8.783,0,0,1,896.784,807.085ZM906.4,780.65c.424-4.675.724-8.79.889-12.234a12.858,12.858,0,0,0-2.312-7.975l-8.158-11.6a.982.982,0,0,1,1.2-1.466c2.545,1.113,11.566,4.706,20.914,4.565l7.962.884a1,1,0,0,1,.772,1.473c-.491.907-2.045,4.307-1.464,9.949.255,2.478.616,4.738,1,7.129a101.772,101.772,0,0,1,1.521,14.264,6.026,6.026,0,0,0,7.709-.266c-.038-2.924-.276-22.44.005-30.523.308-8.8.175-10.373-6.26-14.311-6.82-4.172-22.7-5.715-29.325-5.808-6.688-.1-18.676,4.1-19.853,4.516l-4.818,3.277c-.511,1.43-3.049,10.313,9.127,17.749,0,0,8.093,6.217,11.179,8.561a1,1,0,0,1,.255,1.328c-.354.584-2.115,3.844-2.029,10.757a67.432,67.432,0,0,0,1.588,12.377,94.873,94.873,0,0,1,1.578,10.255l.178,2.486c.882.571,3.869,2.1,8.195.145A184.133,184.133,0,0,1,906.4,780.65Z" transform="translate(-874.034 -733.132)" fill="#150035"/>
          </g>
          <g id="Group_59023" data-name="Group 59023" transform="translate(52.629 17.096)">
            <path id="Path_102080" data-name="Path 102080" d="M906.672,746.966a7.606,7.606,0,0,1,2.831-2.441l-.5-1.12a8.835,8.835,0,0,0-3.345,2.871Z" transform="translate(-905.658 -743.405)" fill="#ffca28"/>
          </g>
          <g id="Group_59024" data-name="Group 59024" transform="translate(22.003 33.943)">
            <path id="Path_102081" data-name="Path 102081" d="M888.207,756.068a3.811,3.811,0,0,1,3.077-1.308l.111-1.221a5.045,5.045,0,0,0-4.141,1.757Z" transform="translate(-887.255 -753.528)" fill="#ffca28"/>
          </g>
          <g id="Group_59025" data-name="Group 59025" transform="translate(54.432 50.569)">
            <path id="Path_102082" data-name="Path 102082" d="M910.526,765.389a13.282,13.282,0,0,0,4.277-.724l-.429-1.147c-.038.015-3.911,1.425-7.141.012l-.491,1.123A9.462,9.462,0,0,0,910.526,765.389Z" transform="translate(-906.741 -763.518)" fill="#ffca28"/>
          </g>
          <g id="Group_59026" data-name="Group 59026" transform="translate(7.302 14.906)">
            <path id="Path_102083" data-name="Path 102083" d="M879.026,751.452c5.841-3.3,3.277-9.3,3.25-9.363l-1.122.494a6.052,6.052,0,0,1-2.733,7.8Z" transform="translate(-878.422 -742.089)" fill="#ffca28"/>
          </g>
          <g id="Group_59027" data-name="Group 59027" transform="translate(24.036 71.152)">
            <path id="Path_102084" data-name="Path 102084" d="M892.261,777.758a13.358,13.358,0,0,0,4.279-.724l-.429-1.148c-.04.015-3.911,1.426-7.143.013l-.491,1.123A9.465,9.465,0,0,0,892.261,777.758Z" transform="translate(-888.477 -775.886)" fill="#ffca28"/>
          </g>
        </g>
        <g id="Group_59031" data-name="Group 59031" transform="translate(28.649 30.117)">
          <g id="Group_59029" data-name="Group 59029" transform="translate(2.241 13.682)">
            <path id="Path_102085" data-name="Path 102085" d="M892.977,713.343s.14.4.364,1.082a63.122,63.122,0,0,1,3.014,16.121l.085,1.483a.341.341,0,0,0,.261.321,22.974,22.974,0,0,1,6.419,3.238c2.683,1.839,9.731,8.276,9.731,8.276l-8.734,3.7-19.078-9.907-3.448-12.873,4.917-7.662,4.507-4.52Z" transform="translate(-880.73 -711.676)" fill="#fff"/>
            <path id="Path_102086" data-name="Path 102086" d="M884.7,738.574l-3.629-13.552,5.107-7.958,4.976-5.018,2.789,1.052.125.348s.143.4.371,1.1a64.052,64.052,0,0,1,3.052,16.324l.067,1.165a25.231,25.231,0,0,1,6.354,3.265c2.7,1.849,9.528,8.08,9.817,8.344l.919.837-10.225,4.332Zm18.311-1.957a22.612,22.612,0,0,0-6.156-3.12,1.137,1.137,0,0,1-.87-1.052l-.085-1.483a62.471,62.471,0,0,0-2.976-15.92c-.1-.3-.178-.537-.238-.714l-1.132-.428-4.082,4.1-4.681,7.294,3.267,12.194,18.434,9.571,7.24-3.067C909.741,742.19,905.048,738.011,903.014,736.617Z" transform="translate(-881.073 -712.046)" fill="#150035"/>
          </g>
          <g id="Group_59030" data-name="Group 59030">
            <path id="Path_102087" data-name="Path 102087" d="M888.972,722.33c.306.256,3.39-1.787,5.678-4.239,0,0-4.28-13.334-10.753-13.768s-2.471,6.454-2.471,6.454Z" transform="translate(-879.408 -703.507)" fill="#fff"/>
            <path id="Path_102088" data-name="Path 102088" d="M888.781,723.26l-7.725-11.766c-.231-.4-2.22-3.954-.854-6.154.7-1.125,2.062-1.629,4.069-1.493,6.932.463,11.275,13.751,11.456,14.317l.143.446-.319.341c-.047.052-4.377,4.475-6.256,4.475A.774.774,0,0,1,888.781,723.26Zm-4.616-17.824c-1.366-.092-2.245.158-2.608.742-.734,1.178.418,3.72.856,4.48l7.226,11.065a21.877,21.877,0,0,0,4.424-3.52C892.747,714.364,888.837,705.749,884.164,705.436Z" transform="translate(-879.726 -703.825)" fill="#150035"/>
          </g>
        </g>
        <g id="Group_59052" data-name="Group 59052" transform="translate(4.043)">
          <g id="Group_59032" data-name="Group 59032" transform="translate(0 29.188)">
            <path id="Path_102089" data-name="Path 102089" d="M893.013,705.153s5.109,1.674,6.181,10.716,5.312,28.285,9.681,34.721c0,0,2.3,3.678-4.062,5.823s-10.719,2.688-16.828,7.714c-6.053,4.979-9.4,6.922-10.551.716s-5.49-20.919-8.095-26.513-3.907-25.063-3.907-25.063,3.318-5.023,12.259-8.574C883.646,702.325,893.013,705.153,893.013,705.153Z" transform="translate(-864.616 -702.947)" fill="#ffca28"/>
            <path id="Path_102090" data-name="Path 102090" d="M879.594,769.678c-1.325-.483-2.157-1.872-2.619-4.372-1.152-6.219-5.5-20.881-8.037-26.32-2.636-5.663-3.926-24.546-3.979-25.348l-.018-.268.148-.225c.141-.213,3.563-5.274,12.63-8.875,6.144-2.441,15.456.321,15.85.439l.017.005c.228.075,5.605,1.94,6.725,11.378,1.017,8.584,5.194,27.954,9.564,34.393a3.992,3.992,0,0,1,.3,3.264c-.573,1.6-2.184,2.859-4.785,3.738-1.286.433-2.49.8-3.641,1.155-4.57,1.4-8.177,2.5-12.938,6.417-3.756,3.092-6.229,4.8-8.178,4.8A3,3,0,0,1,879.594,769.678Zm-1.286-63.926c-7.551,3-11.006,7.1-11.74,8.068.175,2.425,1.471,19.46,3.816,24.492,2.645,5.682,6.977,20.325,8.156,26.7.341,1.837.879,2.9,1.6,3.166,1.511.544,4.751-1.957,7.662-4.352,5-4.117,8.932-5.32,13.482-6.712,1.14-.349,2.33-.712,3.6-1.142,2.074-.7,3.383-1.648,3.786-2.741a2.361,2.361,0,0,0-.13-1.879c-4.558-6.72-8.747-26.109-9.811-35.075-.978-8.246-5.335-9.944-5.635-10.05C892.687,706.11,883.833,703.557,878.308,705.752Z" transform="translate(-864.941 -703.267)" fill="#150035"/>
          </g>
          <g id="Group_59046" data-name="Group 59046" transform="translate(8.99)">
            <g id="Group_59033" data-name="Group 59033" transform="translate(0.782 10.16)">
              <path id="Path_102091" data-name="Path 102091" d="M880.06,711.889c2.5,1.875,6.324,2.037,8.351,1.972a2.334,2.334,0,0,0,2-1.242,25.23,25.23,0,0,0,1.957-18.919l-13.412-1.363-3.012,4.375a5.246,5.246,0,0,0-.814,4.157c.323,1.4.291,3.635-1.365,6.712-4.64,8.616-2.432,10.493,3.866,15.464,4.47,3.53,11.934.81,7.075-9.4Z" transform="translate(-870.498 -691.497)" fill="#fff"/>
              <path id="Path_102092" data-name="Path 102092" d="M877.45,724.007c-6.236-4.923-9.082-7.169-4.074-16.467,1.568-2.911,1.566-4.954,1.29-6.156a6.071,6.071,0,0,1,.935-4.788l3.28-4.763,14.379,1.461.17.468a25.818,25.818,0,0,1-2,19.56,3.124,3.124,0,0,1-2.681,1.671,21.773,21.773,0,0,1-2.443-.053c2.426,6.018.225,8.679-.9,9.574a5.433,5.433,0,0,1-3.418,1.132A7.407,7.407,0,0,1,877.45,724.007Zm2.446-11.143.957-1.276c2.3,1.724,5.9,1.88,7.845,1.812a1.529,1.529,0,0,0,1.318-.812,24.957,24.957,0,0,0,2.06-17.812l-12.419-1.261-2.744,3.986a4.468,4.468,0,0,0-.7,3.526c.338,1.47.365,3.921-1.44,7.269-4.372,8.12-2.511,9.591,3.658,14.461,1.929,1.521,4.442,1.737,5.98.511,1.849-1.476,1.864-4.585.055-8.566A10.9,10.9,0,0,1,879.9,712.864Z" transform="translate(-870.813 -691.833)" fill="#150035"/>
            </g>
            <g id="Group_59034" data-name="Group 59034">
              <path id="Path_102093" data-name="Path 102093" d="M874.349,691.412c5.55-4.723,14-.664,15.74-1.658,1.45-.829.887-2.749.657-3.367a.131.131,0,0,1,.14-.178,7.633,7.633,0,0,1,6.99,6.693c.912,6.46-4.2,8.491-4.2,8.491a13.24,13.24,0,0,1-6.7,1,4.9,4.9,0,0,0-2.714.622,4.072,4.072,0,0,0-1.864,2.373,1.408,1.408,0,0,1-1.43,1.045l-2.17-.151-2.187-.656a2.851,2.851,0,0,0-.6,1.541v2.308a10.267,10.267,0,0,1-5.136-9.4A9.317,9.317,0,0,1,874.349,691.412Z" transform="translate(-870.026 -685.409)" fill="#150035"/>
              <path id="Path_102094" data-name="Path 102094" d="M875.962,710.5a10.921,10.921,0,0,1-5.569-10.054,10.056,10.056,0,0,1,3.756-9.325h0c4.041-3.436,9.389-2.565,12.928-1.989a9.513,9.513,0,0,0,2.936.246c.914-.522.464-1.967.3-2.4a.924.924,0,0,1,.137-.892.913.913,0,0,1,.832-.356,8.444,8.444,0,0,1,7.7,7.376c.987,6.993-4.626,9.315-4.635,9.315h0a14.032,14.032,0,0,1-7.088,1.08,4.085,4.085,0,0,0-2.273.509,3.29,3.29,0,0,0-1.511,1.92,2.218,2.218,0,0,1-2.247,1.609l-2.172-.153-1.766-.509a1.4,1.4,0,0,0-.172.6v3.606Zm3.3-4.693,2.084.146a.612.612,0,0,0,.609-.483,4.909,4.909,0,0,1,2.222-2.828,5.719,5.719,0,0,1,3.152-.732,12.738,12.738,0,0,0,6.37-.938c.185-.077,4.52-1.907,3.711-7.641a6.621,6.621,0,0,0-5.3-5.846,2.937,2.937,0,0,1-1.3,3.279c-.806.459-2.07.253-3.983-.058-3.445-.561-8.16-1.33-11.638,1.629h0c-2.545,2.165-3.473,4.48-3.2,8.081a9.381,9.381,0,0,0,3.543,7.88v-.816a3.54,3.54,0,0,1,.747-2l.331-.473Z" transform="translate(-870.343 -685.728)" fill="#150035"/>
            </g>
            <g id="Group_59035" data-name="Group 59035" transform="translate(7.072 13.049)">
              <path id="Path_102095" data-name="Path 102095" d="M884.794,696.791l.722-.99c-.213-.156-5.309-3.8-10.924-1.431l.476,1.128C880.034,693.4,884.747,696.758,884.794,696.791Z" transform="translate(-874.592 -693.569)" fill="#ffca28"/>
            </g>
            <g id="Group_59036" data-name="Group 59036" transform="translate(4.429 14.956)">
              <path id="Path_102096" data-name="Path 102096" d="M873.5,699.273l1.043-.644c-.9-1.455.469-3.107.483-3.124l-.937-.791C874.006,694.812,872.139,697.073,873.5,699.273Z" transform="translate(-873.004 -694.715)" fill="#ffca28"/>
            </g>
            <g id="Group_59037" data-name="Group 59037" transform="translate(3.452 9.146)">
              <path id="Path_102097" data-name="Path 102097" d="M873.5,696.037c2.114-3.941,7.531-3.578,7.589-3.575l.092-1.223c-.255-.017-6.274-.416-8.76,4.219Z" transform="translate(-872.417 -691.224)" fill="#ffca28"/>
            </g>
            <g id="Group_59038" data-name="Group 59038" transform="translate(13.843 9.389)">
              <path id="Path_102098" data-name="Path 102098" d="M881.292,693.385l.637-1.049a8.822,8.822,0,0,0-3.089-.967l-.18,1.213A7.769,7.769,0,0,1,881.292,693.385Z" transform="translate(-878.661 -691.37)" fill="#ffca28"/>
            </g>
            <g id="Group_59039" data-name="Group 59039" transform="translate(4.483 18.671)">
              <path id="Path_102099" data-name="Path 102099" d="M877.364,703.76h0a4.465,4.465,0,0,1-3-2.045,4.376,4.376,0,0,1-.811-2.884c.373-2.07,2.4-1.574,3.272-.289l.746,1.16Z" transform="translate(-872.719 -696.629)" fill="#fff"/>
              <path id="Path_102100" data-name="Path 102100" d="M877.537,704.862l.29-1.566a3.684,3.684,0,0,1-2.466-1.683,3.568,3.568,0,0,1-.706-2.323c.08-.438.24-.686.479-.736a1.537,1.537,0,0,1,1.35.752l.734,1.143,1.341-.862-.746-1.16a3.066,3.066,0,0,0-3.009-1.433,2.292,2.292,0,0,0-1.717,2.012A4.978,4.978,0,0,0,874,702.45,5.276,5.276,0,0,0,877.537,704.862Z" transform="translate(-873.037 -696.947)" fill="#150035"/>
            </g>
            <g id="Group_59040" data-name="Group 59040" transform="translate(17.516 22.846)">
              <path id="Path_102101" data-name="Path 102101" d="M883.428,703.948l.306-.181a.75.75,0,0,0,.285-.5,29.753,29.753,0,0,0-.042-3.808l-1.223.083c0,.021.126,1.9.083,3.076a4.682,4.682,0,0,1-1.346-.478l-.623,1.055a6.578,6.578,0,0,0,2.307.722Z" transform="translate(-880.868 -699.456)" fill="#150035"/>
            </g>
            <g id="Group_59041" data-name="Group 59041" transform="translate(16.069 20.271)">
              <path id="Path_102102" data-name="Path 102102" d="M880.006,699.485c-.072.915.349,1.694.94,1.739s1.123-.659,1.195-1.574-.351-1.694-.94-1.739S880.076,698.57,880.006,699.485Z" transform="translate(-879.998 -697.909)" fill="#150035"/>
            </g>
            <g id="Group_59042" data-name="Group 59042" transform="translate(21.594 20.478)">
              <path id="Path_102103" data-name="Path 102103" d="M883.326,699.611c-.07.914.351,1.693.94,1.739s1.125-.661,1.2-1.576-.351-1.693-.94-1.739S883.4,698.7,883.326,699.611Z" transform="translate(-883.318 -698.033)" fill="#150035"/>
            </g>
            <g id="Group_59043" data-name="Group 59043" transform="translate(16.346 28.107)">
              <path id="Path_102104" data-name="Path 102104" d="M882.312,704.315a2.838,2.838,0,0,0,.547-.047l-.251-1.2.125.6-.122-.6a2.129,2.129,0,0,1-1.661-.449l-.786.942A3.336,3.336,0,0,0,882.312,704.315Z" transform="translate(-880.165 -702.617)" fill="#150035"/>
            </g>
            <g id="Group_59045" data-name="Group 59045" transform="translate(21.559 2.737)">
              <g id="Group_59044" data-name="Group 59044">
                <path id="Path_102105" data-name="Path 102105" d="M886.6,691.286l1.162-.393c-.047-.136-1.162-3.332-4.4-3.52L883.3,688.6C885.715,688.738,886.592,691.259,886.6,691.286Z" transform="translate(-883.297 -687.373)" fill="#ffca28"/>
              </g>
            </g>
          </g>
          <g id="Group_59047" data-name="Group 59047" transform="translate(6.866 26.772)">
            <path id="Path_102106" data-name="Path 102106" d="M881.835,717.633l-1.946,3.232a.487.487,0,0,1-.656.182,23.582,23.582,0,0,1-7.353-6.266c-2.8-3.984-3.926-9.095,1.49-12.107a14.407,14.407,0,0,0,1.5,7.511C876.755,713.452,881.835,717.633,881.835,717.633Z" transform="translate(-868.75 -701.245)" fill="#fff"/>
            <path id="Path_102107" data-name="Path 102107" d="M879.163,722.311a24.058,24.058,0,0,1-7.615-6.5c-2.05-2.918-2.869-5.873-2.308-8.323a7.621,7.621,0,0,1,4.062-4.938l1.316-.732-.136,1.5a13.682,13.682,0,0,0,1.391,7.038c1.8,3.105,6.737,7.191,6.787,7.233l.531.436-2.3,3.821a1.279,1.279,0,0,1-1.727.468Zm-4.67-11.16a13.991,13.991,0,0,1-1.631-6.41,5.5,5.5,0,0,0-2.069,3.1c-.459,2,.271,4.507,2.057,7.05a22.562,22.562,0,0,0,6.827,5.88l1.443-2.4C879.747,717.192,876.087,713.909,874.493,711.151Z" transform="translate(-869.067 -701.815)" fill="#150035"/>
          </g>
          <g id="Group_59048" data-name="Group 59048" transform="translate(21.377 30.809)">
            <path id="Path_102108" data-name="Path 102108" d="M883.463,714.668a9.868,9.868,0,0,0-2.867-1.093s1.087-5.207-1.515-8.476a12.584,12.584,0,0,0,3.919.408,12.02,12.02,0,0,1,.912,8.975A.316.316,0,0,1,883.463,714.668Z" transform="translate(-876.926 -703.671)" fill="#fff"/>
            <path id="Path_102109" data-name="Path 102109" d="M883.944,715.939a9.3,9.3,0,0,0-2.6-1.005l-.842-.118.171-.832c.01-.048.975-4.888-1.358-7.818l-1.531-1.924,2.368.659a11.764,11.764,0,0,0,3.626.383l.5-.052.26.436a12.742,12.742,0,0,1,.99,9.616,1.123,1.123,0,0,1-1.067.791A1.084,1.084,0,0,1,883.944,715.939ZM881.55,706.8a13.088,13.088,0,0,1,.809,6.737,11.454,11.454,0,0,1,1.8.726,11.434,11.434,0,0,0-.772-7.354A12.058,12.058,0,0,1,881.55,706.8Z" transform="translate(-877.786 -704.241)" fill="#150035"/>
          </g>
          <g id="Group_59049" data-name="Group 59049" transform="translate(23.534 41.557)">
            <path id="Path_102110" data-name="Path 102110" d="M881.573,721.292l1.583-.188a48.258,48.258,0,0,0-2.586-10.4l-1.488.574A47.44,47.44,0,0,1,881.573,721.292Z" transform="translate(-879.082 -710.699)" fill="#150035"/>
          </g>
          <g id="Group_59050" data-name="Group 59050" transform="translate(21.771 46.365)">
            <circle id="Ellipse_4053" data-name="Ellipse 4053" cx="0.966" cy="0.966" r="0.966" fill="#150035"/>
          </g>
          <g id="Group_59051" data-name="Group 59051" transform="translate(22.345 49.531)">
            <circle id="Ellipse_4054" data-name="Ellipse 4054" cx="0.966" cy="0.966" r="0.966" fill="#150035"/>
          </g>
        </g>
        <g id="Group_59055" data-name="Group 59055" transform="translate(18.646 68.013)">
          <g id="Group_59053" data-name="Group 59053">
            <path id="Path_102111" data-name="Path 102111" d="M923,739.41l-28.768,16.607a.185.185,0,0,1-.19,0L874.287,744.25a.187.187,0,0,1,0-.323l28.55-16.825a.187.187,0,0,1,.191,0L923,739.086A.189.189,0,0,1,923,739.41Z" transform="translate(-873.398 -726.278)" fill="#fff"/>
            <path id="Path_102112" data-name="Path 102112" d="M893.951,757.02,874.2,745.254a.986.986,0,0,1,0-1.7l28.546-16.824a.982.982,0,0,1,1.01,0l19.971,11.982a.985.985,0,0,1-.012,1.7l-28.769,16.609a.972.972,0,0,1-.491.132A.983.983,0,0,1,893.951,757.02Zm9.3-28.729-27.353,16.12,18.566,11.059,27.561-15.913Z" transform="translate(-873.716 -726.596)" fill="#150035"/>
          </g>
          <g id="Group_59054" data-name="Group 59054" transform="translate(7.895 12.74)">
            <path id="Path_102113" data-name="Path 102113" d="M889.244,746.164l.819-1.368-9.511-5.687,5.93-3.483-.806-1.375-6.683,3.924a1.063,1.063,0,0,0-.533.922,1.08,1.08,0,0,0,.524.93Z" transform="translate(-878.46 -734.251)" fill="#150035"/>
          </g>
        </g>
        <g id="Group_59060" data-name="Group 59060" transform="translate(0 36.59)">
          <g id="Group_59056" data-name="Group 59056" transform="translate(1.527 14.066)">
            <path id="Path_102114" data-name="Path 102114" d="M874.23,723.995a51.908,51.908,0,0,1,1.957,9.656,78.038,78.038,0,0,1,.521,9.2l0,0c.092-.017,6.294-1.16,11.661.506,5.4,1.679,12.7.862,12.7.862s3.736-2.764,5.37-2.608.817,1.746.817,1.746,7.764,2.655,4.9,5.129-11.092.857-11.092.857-19.3,2.085-29.509.624a1.383,1.383,0,0,1-1.025-.724c-1.128-2.115-5.3-9.984-6.5-24.213-1.443-17.023,10.225-2.879,10.225-2.879Z" transform="translate(-863.111 -715.851)" fill="#fff"/>
            <path id="Path_102115" data-name="Path 102115" d="M871.763,751.075a2.191,2.191,0,0,1-1.614-1.138c-3.565-6.685-5.783-14.935-6.6-24.521-.446-5.274.3-8.233,2.295-9.045,3.445-1.4,8.745,4.871,9.339,5.592l.186.226-.028,2a53.9,53.9,0,0,1,1.951,9.686,80.246,80.246,0,0,1,.524,8.369,27.808,27.808,0,0,1,11.1.672c4.68,1.453,10.957.964,12.171.85.955-.691,4.034-2.786,5.74-2.629a1.821,1.821,0,0,1,1.541.89,1.85,1.85,0,0,1,.18,1.16c1.621.627,4.939,2.135,5.317,4.076a2.2,2.2,0,0,1-.871,2.147c-2.957,2.556-10.335,1.307-11.648,1.058-1.3.138-11.075,1.14-20.124,1.139A70.026,70.026,0,0,1,871.763,751.075Zm29.775-2.2c2.183.429,8.311,1.145,10.416-.677.4-.35.365-.557.349-.636-.2-1.043-3.1-2.488-4.989-3.135l-.856-.3.4-.812a1.081,1.081,0,0,0,.12-.516.618.618,0,0,0-.3-.08c-.925-.073-3.37,1.385-4.821,2.456l-.171.127-.213.025c-.3.035-7.527.815-13.026-.892a26.9,26.9,0,0,0-11.277-.486l-.965.173.023-.982a77.987,77.987,0,0,0-.514-9.083,51.469,51.469,0,0,0-1.922-9.493l-.043-.132.023-1.681c-2.129-2.508-5.682-5.58-7.321-4.908-.562.23-1.819,1.414-1.309,7.436.546,6.44,2.1,15.815,6.414,23.9a.579.579,0,0,0,.433.308c10,1.433,29.119-.606,29.31-.626l.121-.013Z" transform="translate(-863.429 -716.166)" fill="#150035"/>
          </g>
          <g id="Group_59057" data-name="Group 59057">
            <path id="Path_102116" data-name="Path 102116" d="M875.871,729.6a4.342,4.342,0,0,0,.9-2.871c-.135-3.937-.957-16.058-5.991-18.276-6.028-2.656-8.071,15.432-7.764,19.976s10.5,2.44,11.813,1.989A2.449,2.449,0,0,0,875.871,729.6Z" transform="translate(-862.196 -707.397)" fill="#fff"/>
            <path id="Path_102117" data-name="Path 102117" d="M864.045,731.366a3.25,3.25,0,0,1-1.508-2.562c-.219-3.26.936-17.3,5.4-20.433a3.393,3.393,0,0,1,3.477-.325c5.33,2.348,6.3,14.054,6.467,18.977a5.136,5.136,0,0,1-1.077,3.4,3.165,3.165,0,0,1-1.4,1.072,26.189,26.189,0,0,1-6.614.929A8.843,8.843,0,0,1,864.045,731.366Zm4.811-21.69c-3.485,2.443-4.989,15.166-4.728,19.022a1.645,1.645,0,0,0,.8,1.341c2.3,1.529,8.6.411,9.96-.053a1.593,1.593,0,0,0,.677-.563h0a3.538,3.538,0,0,0,.727-2.345c-.255-7.432-1.837-15.953-5.517-17.574a2.093,2.093,0,0,0-.849-.2A1.832,1.832,0,0,0,868.856,709.676Z" transform="translate(-862.512 -707.714)" fill="#150035"/>
          </g>
          <g id="Group_59058" data-name="Group 59058" transform="translate(9.751 43.94)">
            <path id="Path_102118" data-name="Path 102118" d="M871.047,736.549a3.558,3.558,0,0,0,.827-.095l-.395-1.545a1.7,1.7,0,0,1-1.128-.118,1.021,1.021,0,0,1-.431-.674l-1.55.371a2.586,2.586,0,0,0,1.165,1.672A2.938,2.938,0,0,0,871.047,736.549Z" transform="translate(-868.371 -734.117)" fill="#150035"/>
          </g>
          <g id="Group_59059" data-name="Group 59059" transform="translate(0.328 17.87)">
            <path id="Path_102119" data-name="Path 102119" d="M869.324,721.464a20.212,20.212,0,0,0,3.743-.345l-.321-1.561c-.06.012-5.913,1.177-9.111-1.107l-.925,1.3A11.581,11.581,0,0,0,869.324,721.464Z" transform="translate(-862.709 -718.452)" fill="#150035"/>
          </g>
        </g>
        <g id="Group_59063" data-name="Group 59063" transform="translate(38.527 56.83)">
          <g id="Group_59061" data-name="Group 59061">
            <path id="Path_102120" data-name="Path 102120" d="M886.243,760.3l9.781-22.354a.074.074,0,0,1,.035-.04l29.555-17.534a.085.085,0,0,1,.121.108l-10.446,23.211a.09.09,0,0,1-.035.04l-28.887,16.679A.087.087,0,0,1,886.243,760.3Z" transform="translate(-885.281 -719.559)" fill="#ffca28"/>
            <path id="Path_102121" data-name="Path 102121" d="M885.662,760.822l10.015-22.886.136-.271L925.587,720a.884.884,0,0,1,1.037.1l.461.489-10.7,23.763-.141.261-29.1,16.8-.6.281Zm38.8-38.3-27.423,16.269-8.822,20.164,26.816-15.482Z" transform="translate(-885.662 -719.877)" fill="#150035"/>
          </g>
          <g id="Group_59062" data-name="Group 59062" transform="translate(17.655 17.514)">
            <path id="Path_102122" data-name="Path 102122" d="M900.623,734.917c-1.237,1.568-2.816,2.385-3.528,1.824s-.288-2.288.948-3.856,2.814-2.385,3.526-1.824S901.858,733.349,900.623,734.917Z" transform="translate(-895.952 -730.079)" fill="#fff"/>
            <path id="Path_102123" data-name="Path 102123" d="M896.921,737.687a2.126,2.126,0,0,1-.538-2.366,7.174,7.174,0,0,1,1.353-2.61c1.358-1.721,3.387-2.949,4.645-1.955s.543,3.253-.814,4.974a7.182,7.182,0,0,1-2.22,1.926,2.981,2.981,0,0,1-1.366.379A1.682,1.682,0,0,1,896.921,737.687Zm2.067-3.989c-1.068,1.358-1.238,2.536-1.085,2.733.235.108,1.341-.328,2.411-1.687h0c1.07-1.356,1.24-2.536,1.087-2.733a.238.238,0,0,0-.092-.015A4.094,4.094,0,0,0,898.987,733.7Z" transform="translate(-896.27 -730.4)" fill="#150035"/>
          </g>
        </g>
      </g>
    </g>
  </g>
</svg>
