<svg xmlns="http://www.w3.org/2000/svg" width="193.64" height="99.999" viewBox="0 0 193.64 99.999">
  <g id="t1-i1" transform="translate(0 -0.003)">
    <path id="Path_134312" data-name="Path 134312" d="M0,94.6H6.379V69.421l9.876,21.961c1.165,2.647,2.761,3.6,5.889,3.6s4.661-.941,5.828-3.6l9.877-21.961V94.613h6.38V69.462c0-2.454-.983-3.64-3.007-4.253-4.846-1.513-8.1-.2-9.569,3.067L21.962,89.951,12.575,68.267C11.165,65,7.852,63.687,3.007,65.2.981,65.814,0,67,0,69.453ZM49.532,74.1h6.377v13.88c-.06.755.242,2.525,3.737,2.578,1.783.028,13.761,0,13.873,0V74.03H79.91c.028,0-.007,22.535-.006,22.632.035,5.558-6.9,6.765-10.091,6.859H49.671V99.228H69.85c4.105-.435,3.621-2.474,3.621-3.162V94.392H59.912c-6.308-.057-10.325-2.811-10.375-5.978,0-.284.136-14.178,0-14.315Z" transform="translate(0 -3.518)" fill="#12263f"/>
    <path id="Path_134313" data-name="Path 134313" d="M89.716,94.637h18.341a14.148,14.148,0,0,0,5.891-1.227c2.761-1.267,4.11-2.985,4.11-5.234V83.514c0-1.841-1.534-3.558-4.538-4.7a15.667,15.667,0,0,0-5.459-.941h-7.73c-2.576,0-3.8-.777-4.109-2.494a1.852,1.852,0,0,1-.061-.573V71.9a1.7,1.7,0,0,1,.061-.532c.306-1.309.981-1.677,3.251-1.891.184,0,.429-.042.615-.042H118.3V65.183H100.393a17.208,17.208,0,0,0-5.153.531c-3.807,1.187-5.463,3.078-5.463,6.349v3.722c0,2.863,3.253,5.317,8.71,5.889.615.041,1.227.081,1.84.081h6.625a3.355,3.355,0,0,1,.675.042c2.023.164,2.884.531,3.5,1.267a1.5,1.5,0,0,1,.492,1.135V87.92a2.127,2.127,0,0,1-.92,1.513,4.52,4.52,0,0,1-2.7.9c-.246,0-.429.041-.674.041H89.716v4.253Zm68.137-7.4c0,4.376,3.251,6.829,9.814,7.32q.918.071,1.84.081h16.624V90.384H169.385c-3.741,0-5.153-.941-5.153-3.19v-22h-6.379V87.233Zm-35.726.221V72.3c0-3.852,2.7-6.188,8.052-6.926a12.232,12.232,0,0,1,1.722-.123H144.01a13.119,13.119,0,0,1,1.783.123c5.348.737,8.052,3.073,8.052,6.926V87.456c0,3.125-1.149,4.8-3.8,5.888l6.284,5.673h-7.407l-5.084-4.59-5.118.324H131.9a14.14,14.14,0,0,1-3.75-.533c-4.066-1.106-6.023-3.237-6.023-6.762Zm6.886-.378a2.816,2.816,0,0,0,.123.656c.378,1.762,2.028,2.746,4.538,2.746h5.8l-5.323-4.806h7.407l4.633,4.191a2.989,2.989,0,0,0,1.607-2.049,2.088,2.088,0,0,0,.061-.615V72.665a1.931,1.931,0,0,0-.061-.574c-.378-1.639-2.029-2.581-4.487-2.581h-9.622c-2.837,0-4.671,1.229-4.671,3.155V87.09Z" transform="translate(-4.888 -3.551)" fill="#12263f"/>
    <g id="Group_90630" data-name="Group 90630" transform="translate(120.655 0.003)">
      <path id="Path_134314" data-name="Path 134314" d="M193.809,54.585a22.455,22.455,0,0,0-9.478,1.338c-.728.307-1.888.315-2.007,1.227.4.419.463,1.045.78,1.56a12.3,12.3,0,0,0,2.565,3.011c1.006.759,2.042,1.572,3.123,2.231,1.919,1.171,4.062,1.839,5.909,3.011,1.089.69,2.171,1.56,3.234,2.341.525.386.879.985,1.56,1.226v-.112c-.359-.457-.451-1.085-.78-1.56l-1.449-1.449a23.609,23.609,0,0,0-5.129-4.907c-1.525-1.095-4.939-2.574-5.576-4.349l-.112-.112a24.847,24.847,0,0,0,3.347-.78c1.676-.449,3.175-.334,4.907-.78l2.342-.669v-.446c-.876-.9-1.5-2.087-2.454-2.9a71.643,71.643,0,0,0-8.027-6.023c-1.556-.983-3.48-1.621-5.129-2.454-.555-.28-1.53-.425-1.9-.893a23.985,23.985,0,0,1-2.006-3.782c-1.4-2.695-2.774-5.639-4.015-8.475a45.944,45.944,0,0,0-2.453-5.576C166,16.94,160.552,11.916,152.11,6.978a22.741,22.741,0,0,0-6.245-2.007l-3.68-.223a19.5,19.5,0,0,1-2.231-1.674c-2.8-1.768-9.97-5.61-12.042-.567-1.308,3.189,1.954,6.3,3.122,7.918a23.907,23.907,0,0,1,2.453,3.68c.385.838.452,1.678.781,2.565a59.69,59.69,0,0,0,2.564,6.579,23.208,23.208,0,0,0,1.784,3.011c.411.561,1.116.807,1.226,1.674-.688.964-.728,2.458-1.116,3.68-1.743,5.5-1.085,12.325,1.449,16.392.778,1.248,2.61,3.926,5.129,2.9,2.2-.9,1.7-3.678,2.342-6.133.142-.558.055-.964.335-1.338v.112l2.007,4.014a27.334,27.334,0,0,0,6.356,6.581c1.158.875,2.08,2.387,3.568,2.9v-.112H159.8c-.29-.454-.744-.64-1.116-1a25.6,25.6,0,0,1-2.565-2.9,67.69,67.69,0,0,1-5.463-8.921c-.781-1.5-1.461-3.156-2.118-4.683-.253-.589-.251-1.479-.78-1.784a22.274,22.274,0,0,0-2.342,3.345c-.893,2.112-1.008,4.688-1.338,7.36-.2.07-.109.022-.223.112-1.553-.374-2.1-1.973-2.676-3.345a21.085,21.085,0,0,1-.446-13.046c.331-1.032,1.834-4.287,1.226-5.241-.29-.952-1.248-1.513-1.784-2.231a17.572,17.572,0,0,1-1.784-3.122c-1.2-2.7-1.753-5.739-3.011-8.475a24.236,24.236,0,0,0-2.453-3.782,22.322,22.322,0,0,1-2.676-3.782c-.255-.553-.6-1.437-.223-2.007a.879.879,0,0,1,.669-.669c.647-.5,2.449.165,3.122.446a27.267,27.267,0,0,1,4.8,2.454c.728.473,1.463,1.414,2.341,1.674h1c1.57.361,3.328.113,4.794.558a29.026,29.026,0,0,1,7.025,3.345,43.449,43.449,0,0,1,15.277,16.736c.579,1.109.828,2.169,1.338,3.345,1.028,2.364,2.322,4.815,3.345,7.136a33.3,33.3,0,0,0,3.457,6.579c.758,1.012,3.688,1.556,5.018,2.118a29.572,29.572,0,0,1,3.345,1.338c1.688,1.018,3.324,2.231,4.907,3.347.791.558,3.224,1.78,3.345,2.787Z" transform="translate(-127.607 -0.003)" fill="#12263f"/>
      <path id="Path_134315" data-name="Path 134315" d="M144.794,12.8a7.934,7.934,0,0,0-2.007.223v.112h.112a15.235,15.235,0,0,0,1.56,2.007l1.116,2.341.112-.112a2.72,2.72,0,0,0,1-2.454c-.277-.291-.318-.656-.558-1-.319-.463-.946-.726-1.338-1.116Z" transform="translate(-128.434 -0.7)" fill="#12263f" fill-rule="evenodd"/>
    </g>
    <path id="Path_134316" data-name="Path 134316" d="M194.855,91.437a4.7,4.7,0,1,0,4.7-4.7A4.638,4.638,0,0,0,194.855,91.437Zm8.349,0a3.65,3.65,0,1,1-3.65-3.723A3.637,3.637,0,0,1,203.2,91.437Zm-2.383,2.683h1.052l-1.541-2.356c.827-.088,1.453-.49,1.453-1.467,0-1.091-.69-1.541-2.018-1.541h-2.094v5.366h.9V91.8h.84l1.4,2.319Zm-2.245-3.073V89.506h1.04c.539,0,1.191.1,1.191.728,0,.752-.589.815-1.267.815h-.964Z" transform="translate(-10.617 -4.726)" fill="#12263f" fill-rule="evenodd"/>
  </g>
</svg>
