<svg xmlns="http://www.w3.org/2000/svg" width="181" height="182" viewBox="0 0 181 182">
  <g id="t1-x2" transform="translate(-1028 -3589)">
    <ellipse id="Ellipse_4214" data-name="Ellipse 4214" cx="90.5" cy="91" rx="90.5" ry="91" transform="translate(1028 3589)" fill="#fff"/>
    <path id="Feature_One" data-name="Feature One" d="M75.664,53.465V11.25H88.421a13.545,13.545,0,0,1,10.728,4.914q4.233,4.914,4.233,12.656v7.1q0,7.741-4.233,12.641a13.562,13.562,0,0,1-10.728,4.9Zm8.263-35.634V46.884h4.03a5.925,5.925,0,0,0,5.32-3,14.929,14.929,0,0,0,1.87-7.967V28.744a14.788,14.788,0,0,0-1.87-7.923,5.931,5.931,0,0,0-5.32-2.989ZM119.59,11.25l7.567,30.994h.174l7.654-30.994h10.757V53.465h-8.205V41.2l.7-16.411-.174-.029L130,53.465h-5.48l-7.973-28.472-.174.029L117.1,41.2V53.465h-8.205V11.25Zm40.649,35.634h15.425v6.582H151.976V11.25h8.263Z" transform="translate(993.336 3647.75)" fill="#12263f"/>
  </g>
</svg>
