<svg xmlns="http://www.w3.org/2000/svg" width="181" height="182" viewBox="0 0 181 182">
  <g id="t1-x1" transform="translate(-395 -3594)">
    <ellipse id="Ellipse_4064" data-name="Ellipse 4064" cx="90.5" cy="91" rx="90.5" ry="91" transform="translate(395 3594)" fill="#fff"/>
    <path id="Feature_One" data-name="Feature One" d="M78.242,57.932V11.25H92.349a14.978,14.978,0,0,1,11.863,5.434q4.681,5.434,4.681,13.995v7.855q0,8.56-4.681,13.979a15,15,0,0,1-11.863,5.418Zm9.138-39.4V50.654h4.457a6.552,6.552,0,0,0,5.883-3.322,16.508,16.508,0,0,0,2.068-8.81V30.6a16.353,16.353,0,0,0-2.068-8.762,6.559,6.559,0,0,0-5.883-3.306Zm27.765,39.4V11.25h14.107a14.978,14.978,0,0,1,11.863,5.434q4.681,5.434,4.681,13.995v7.855q0,8.56-4.681,13.979a15,15,0,0,1-11.863,5.418Zm9.138-39.4V50.654h4.457a6.552,6.552,0,0,0,5.883-3.322,16.508,16.508,0,0,0,2.068-8.81V30.6a16.353,16.353,0,0,0-2.068-8.762,6.559,6.559,0,0,0-5.883-3.306Zm36.9,32.126h17.057v7.278H152.048V11.25h9.138Z" transform="translate(357.758 3650.75)" fill="#12263f"/>
  </g>
</svg>
