<svg xmlns="http://www.w3.org/2000/svg" xmlns:xlink="http://www.w3.org/1999/xlink" width="505" height="500" viewBox="0 0 505 500">
  <defs>
    <linearGradient id="linear-gradient" x1="0.5" y1="-0.24" x2="0.5" y2="0.969" gradientUnits="objectBoundingBox">
      <stop offset="0.19" stop-color="#fff" stop-opacity="0"/>
      <stop offset="1" stop-color="#12263f" stop-opacity="0.302"/>
    </linearGradient>
    <linearGradient id="linear-gradient-2" y1="0.5" x2="1" y2="0.5" gradientUnits="objectBoundingBox">
      <stop offset="0" stop-color="#fff"/>
      <stop offset="1"/>
    </linearGradient>
    <linearGradient id="linear-gradient-3" x1="0.5" y1="1.335" x2="0.5" y2="-0.215" xlink:href="#linear-gradient-2"/>
    <linearGradient id="linear-gradient-5" x1="0.5" y1="1.076" x2="0.5" y2="0.017" gradientUnits="objectBoundingBox">
      <stop offset="0"/>
      <stop offset="1" stop-color="#fff"/>
    </linearGradient>
    <linearGradient id="linear-gradient-6" x1="0.5" y1="1" x2="0.5" y2="0.167" gradientUnits="objectBoundingBox">
      <stop offset="0.217" stop-color="#024d73" stop-opacity="0"/>
      <stop offset="0.841" stop-color="#024d73" stop-opacity="0.898"/>
    </linearGradient>
    <linearGradient id="linear-gradient-7" x1="0.5" y1="0.006" x2="0.5" y2="1.088" gradientUnits="objectBoundingBox">
      <stop offset="0.018" stop-color="#fff" stop-opacity="0"/>
      <stop offset="0.927" stop-color="#12263f" stop-opacity="0.302"/>
    </linearGradient>
    <linearGradient id="linear-gradient-8" x1="0.5" y1="0.957" x2="0.5" y2="-0.195" gradientUnits="objectBoundingBox">
      <stop offset="0" stop-color="#12263f" stop-opacity="0.302"/>
      <stop offset="0.81" stop-color="#fff" stop-opacity="0"/>
    </linearGradient>
    <linearGradient id="linear-gradient-9" x1="0.5" y1="1.077" x2="0.5" y2="0.198" gradientUnits="objectBoundingBox">
      <stop offset="0.073" stop-color="#12263f" stop-opacity="0.302"/>
      <stop offset="0.982" stop-color="#fff" stop-opacity="0"/>
    </linearGradient>
    <linearGradient id="linear-gradient-10" x1="0.995" y1="0.975" x2="0.409" y2="0.127" gradientUnits="objectBoundingBox">
      <stop offset="0" stop-color="#024d73" stop-opacity="0"/>
      <stop offset="1" stop-color="#024d73" stop-opacity="0.302"/>
    </linearGradient>
    <linearGradient id="linear-gradient-11" x1="0.5" y1="-0.201" x2="0.5" y2="1.239" xlink:href="#linear-gradient-2"/>
    <linearGradient id="linear-gradient-12" x1="0.5" y1="0.965" x2="0.5" y2="0.248" gradientUnits="objectBoundingBox">
      <stop offset="0" stop-color="#fff" stop-opacity="0"/>
      <stop offset="0.749" stop-color="#ffa726"/>
    </linearGradient>
    <linearGradient id="linear-gradient-13" x1="0.996" y1="0.5" x2="0.123" y2="0.5" xlink:href="#linear-gradient-12"/>
    <linearGradient id="linear-gradient-14" x1="0.856" y1="1.064" x2="0.382" y2="0.14" xlink:href="#linear-gradient-10"/>
    <linearGradient id="linear-gradient-15" x1="0" y1="0.5" x2="1" y2="0.5" xlink:href="#linear-gradient-10"/>
    <linearGradient id="linear-gradient-16" x1="0.5" y1="1.175" x2="0.5" y2="0.041" xlink:href="#linear-gradient-2"/>
    <linearGradient id="linear-gradient-17" x1="0.5" y1="0.896" x2="0.5" y2="-0.308" xlink:href="#linear-gradient-8"/>
    <linearGradient id="linear-gradient-18" x1="0.5" y1="0.902" x2="0.5" y2="-0.01" xlink:href="#linear-gradient-8"/>
  </defs>
  <g id="t2-i1" transform="translate(-830.013 1060.698)">
    <ellipse id="Ellipse_4215" data-name="Ellipse 4215" cx="57.864" cy="57.961" rx="57.864" ry="57.961" transform="translate(918.97 -861.175)" fill="#bcf4fa"/>
    <ellipse id="Ellipse_4216" data-name="Ellipse 4216" cx="53.686" cy="53.775" rx="53.686" ry="53.775" transform="translate(1114.141 -934.373)" fill="#bcf4fa"/>
    <g id="Group_90635" data-name="Group 90635">
      <rect id="Rectangle_7990" data-name="Rectangle 7990" width="140.457" height="104.326" rx="2.772" transform="translate(928.415 -1024.25)" fill="url(#linear-gradient)"/>
    </g>
    <g id="Group_90640" data-name="Group 90640">
      <rect id="Rectangle_7991" data-name="Rectangle 7991" width="140.457" height="104.326" rx="2.772" transform="translate(922.26 -1019.021)" fill="#ffefbf"/>
      <g id="Group_90636" data-name="Group 90636">
        <rect id="Rectangle_7992" data-name="Rectangle 7992" width="145.297" height="0.937" transform="translate(919.841 -1003.128)" fill="#12263f"/>
      </g>
      <g id="Group_90637" data-name="Group 90637">
        <path id="Path_136062" data-name="Path 136062" d="M939.042-1010.011h-4.766a.829.829,0,0,1-.828-.829.829.829,0,0,1,.828-.829h4.766a.829.829,0,0,1,.829.829A.829.829,0,0,1,939.042-1010.011Z" fill="#12263f"/>
      </g>
      <g id="Group_90638" data-name="Group 90638">
        <path id="Path_136063" data-name="Path 136063" d="M955.6-1010.011h-4.766a.829.829,0,0,1-.829-.829.829.829,0,0,1,.829-.829H955.6a.829.829,0,0,1,.828.829A.829.829,0,0,1,955.6-1010.011Z" fill="#12263f"/>
      </g>
      <g id="Group_90639" data-name="Group 90639">
        <path id="Path_136064" data-name="Path 136064" d="M972.155-1010.011h-4.766a.829.829,0,0,1-.829-.829.829.829,0,0,1,.829-.829h4.766a.829.829,0,0,1,.828.829A.829.829,0,0,1,972.155-1010.011Z" fill="#12263f"/>
      </g>
    </g>
    <g id="Group_90641" data-name="Group 90641">
      <path id="Path_136065" data-name="Path 136065" d="M1275.542-863.663a34.979,34.979,0,0,1-11.552-2.026,25.235,25.235,0,0,1-9.07-5.655,24.88,24.88,0,0,1-5.9-9.29,37.107,37.107,0,0,1-2.074-13.024q0-8.82-5.594-11.726L1240-905.9a5.746,5.746,0,0,1-2.278-1.765,4.436,4.436,0,0,1-.623-2.49V-914.1a4.434,4.434,0,0,1,.623-2.49,5.791,5.791,0,0,1,2.278-1.765l1.347-.622q5.594-2.8,5.594-11.624a36.8,36.8,0,0,1,2.074-12.923,25.393,25.393,0,0,1,5.9-9.338,24.941,24.941,0,0,1,9.07-5.709,34.786,34.786,0,0,1,11.447-2.025h.624a2.2,2.2,0,0,1,1.6.677,2.2,2.2,0,0,1,.673,1.608v9.963a2.038,2.038,0,0,1-.673,1.556,2.6,2.6,0,0,1-1.4.726h-.309q-6.629.523-9.478,4.308t-2.853,12.61a25.715,25.715,0,0,1-1.914,10.378,13.381,13.381,0,0,1-4.926,6.228.5.5,0,0,0-.359.414c-.038.208.083.382.359.52a13.628,13.628,0,0,1,4.821,6.28,25.5,25.5,0,0,1,1.915,10.22q0,8.721,2.852,12.558t9.373,4.36h.519a2.631,2.631,0,0,1,1.4.727,2.037,2.037,0,0,1,.673,1.558v9.963a2.017,2.017,0,0,1-2.278,2.283Z" fill="#ffca28"/>
      <path id="Path_136066" data-name="Path 136066" d="M1296.577-960.6a35.67,35.67,0,0,1,11.448,1.973,24.25,24.25,0,0,1,9.014,5.606,26.278,26.278,0,0,1,5.959,9.339,36.007,36.007,0,0,1,2.173,13.077q0,8.823,5.7,11.729l1.346.622a7.724,7.724,0,0,1,2.074,1.765,3.794,3.794,0,0,1,.723,2.385v4.047a3.8,3.8,0,0,1-.723,2.388,7.686,7.686,0,0,1-2.074,1.765l-1.346.622q-5.7,2.8-5.7,11.624A35.581,35.581,0,0,1,1323-880.634a26.371,26.371,0,0,1-5.959,9.29,24.866,24.866,0,0,1-8.964,5.655,33.921,33.921,0,0,1-11.293,2.026h-.723a2.243,2.243,0,0,1-1.661-.622,2.255,2.255,0,0,1-.617-1.661v-9.963a2.211,2.211,0,0,1,.568-1.558,2.284,2.284,0,0,1,1.5-.727h.414q6.53-.518,9.428-4.36t2.9-12.558a26.96,26.96,0,0,1,1.815-10.378,12.548,12.548,0,0,1,4.921-6.227.517.517,0,0,0,.26-.415.5.5,0,0,0-.26-.519,13.068,13.068,0,0,1-4.871-6.33,25.923,25.923,0,0,1-1.865-10.068q0-8.716-2.951-12.558t-9.379-4.357l-.519-.106a2.425,2.425,0,0,1-1.451-.726,2.115,2.115,0,0,1-.617-1.556v-9.963a2.29,2.29,0,0,1,.617-1.608,2.159,2.159,0,0,1,1.661-.677Z" fill="#ffca28"/>
    </g>
    <rect id="Rectangle_7993" data-name="Rectangle 7993" width="246.417" height="27.843" transform="translate(949.584 -764.123)" fill="#828282"/>
    <g id="Group_90642" data-name="Group 90642">
      <rect id="Rectangle_7994" data-name="Rectangle 7994" width="298.331" height="12.973" transform="translate(925.551 -777.095)" fill="#5c5c5c"/>
      <rect id="Rectangle_7995" data-name="Rectangle 7995" width="74.474" height="12.973" transform="translate(925.551 -777.095)" opacity="0.3" fill="url(#linear-gradient-2)" style="mix-blend-mode: multiply;isolation: isolate"/>
    </g>
    <g id="Group_90643" data-name="Group 90643">
      <path id="Path_136067" data-name="Path 136067" d="M955.207-752.333a14.355,14.355,0,0,1,6.161-11.79h-26.6a14.355,14.355,0,0,1,6.161,11.79v179.062a14.355,14.355,0,0,1-6.161,11.79h26.6a14.355,14.355,0,0,1-6.161-11.79Z" fill="#ccc"/>
      <path id="Path_136068" data-name="Path 136068" d="M1020.46-752.333a14.355,14.355,0,0,1,6.161-11.79h-26.6a14.355,14.355,0,0,1,6.161,11.79v179.062a14.355,14.355,0,0,1-6.161,11.79h26.6a14.355,14.355,0,0,1-6.161-11.79Z" fill="#ccc"/>
      <path id="Path_136069" data-name="Path 136069" d="M1006.185-752.333v24.559l14.275,4.029v-28.588a14.355,14.355,0,0,1,6.161-11.79h-26.6A14.355,14.355,0,0,1,1006.185-752.333Z" opacity="0.3" fill="url(#linear-gradient-3)" style="mix-blend-mode: multiply;isolation: isolate"/>
      <path id="Path_136070" data-name="Path 136070" d="M940.932-752.333v24.559l14.275,4.029v-28.588a14.355,14.355,0,0,1,6.161-11.79h-26.6A14.355,14.355,0,0,1,940.932-752.333Z" opacity="0.3" fill="url(#linear-gradient-3)" style="mix-blend-mode: multiply;isolation: isolate"/>
    </g>
    <g id="Group_90644" data-name="Group 90644">
      <path id="Path_136071" data-name="Path 136071" d="M1137.978-752.333a14.355,14.355,0,0,1,6.161-11.79h-26.6a14.355,14.355,0,0,1,6.161,11.79v179.062a14.355,14.355,0,0,1-6.161,11.79h26.6a14.355,14.355,0,0,1-6.161-11.79Z" fill="#a1a1a1"/>
      <path id="Path_136072" data-name="Path 136072" d="M1203.231-752.333a14.355,14.355,0,0,1,6.161-11.79h-26.6a14.355,14.355,0,0,1,6.161,11.79v179.062a14.355,14.355,0,0,1-6.161,11.79h26.6a14.355,14.355,0,0,1-6.161-11.79Z" fill="#a1a1a1"/>
    </g>
    <g id="Group_90645" data-name="Group 90645">
      <rect id="Rectangle_7996" data-name="Rectangle 7996" width="205.291" height="0.783" transform="translate(925.55 -764.515)" fill="#3b3b3b"/>
    </g>
    <path id="Path_136073" data-name="Path 136073" d="M1319.141-820.337h7.052a37.024,37.024,0,0,0,.667-6.9,37.028,37.028,0,0,0-.667-6.894h-7.052a5.168,5.168,0,0,1-3.648-8.82l5-5.005a37.01,37.01,0,0,0-9.734-9.75l-5,5.005a5.157,5.157,0,0,1-8.805-3.654v-7.064a36.824,36.824,0,0,0-6.883-.668,36.834,36.834,0,0,0-6.884.668v7.064a5.157,5.157,0,0,1-8.805,3.654l-5-5.005a37.01,37.01,0,0,0-9.734,9.75l5,5.005a5.168,5.168,0,0,1-3.648,8.82h-7.052a37.028,37.028,0,0,0-.667,6.894,37.024,37.024,0,0,0,.667,6.9H1261a5.168,5.168,0,0,1,3.648,8.82l-5,5.005a37.009,37.009,0,0,0,9.734,9.75l5-5.005a5.157,5.157,0,0,1,8.805,3.654v7.064a36.834,36.834,0,0,0,6.884.668,36.824,36.824,0,0,0,6.883-.668v-7.064a5.157,5.157,0,0,1,8.805-3.654l5,5.005a37.009,37.009,0,0,0,9.734-9.75l-5-5.005A5.168,5.168,0,0,1,1319.141-820.337Zm-29.07,4.458a11.343,11.343,0,0,1-11.334-11.353,11.343,11.343,0,0,1,11.334-11.352,11.343,11.343,0,0,1,11.333,11.352A11.343,11.343,0,0,1,1290.071-815.879Z" opacity="0.3" fill="url(#linear-gradient-5)" style="mix-blend-mode: multiply;isolation: isolate"/>
    <path id="Path_136074" data-name="Path 136074" d="M1315.813-823.141h7.053a37.032,37.032,0,0,0,.666-6.9,37.012,37.012,0,0,0-.666-6.894h-7.053a5.168,5.168,0,0,1-3.647-8.821l5-5.005a37.039,37.039,0,0,0-9.734-9.75l-5,5.005a5.157,5.157,0,0,1-8.806-3.653v-7.065a36.815,36.815,0,0,0-6.883-.667,36.816,36.816,0,0,0-6.883.667v7.065a5.157,5.157,0,0,1-8.806,3.653l-5-5.005a37.039,37.039,0,0,0-9.734,9.75l5,5.005a5.168,5.168,0,0,1-3.647,8.821h-7.053a37.012,37.012,0,0,0-.666,6.894,37.032,37.032,0,0,0,.666,6.9h7.053a5.167,5.167,0,0,1,3.647,8.82l-5,5.005a37.011,37.011,0,0,0,9.734,9.75l5-5.005a5.157,5.157,0,0,1,8.806,3.654v7.064a36.816,36.816,0,0,0,6.883.667,36.815,36.815,0,0,0,6.883-.667v-7.064a5.157,5.157,0,0,1,8.806-3.654l5,5.005a37.011,37.011,0,0,0,9.734-9.75l-5-5.005A5.168,5.168,0,0,1,1315.813-823.141Zm-29.07,4.458a11.343,11.343,0,0,1-11.333-11.353,11.343,11.343,0,0,1,11.333-11.353,11.343,11.343,0,0,1,11.334,11.353A11.343,11.343,0,0,1,1286.743-818.683Z" fill="#039be5"/>
    <g id="Group_90646" data-name="Group 90646">
      <path id="Path_136075" data-name="Path 136075" d="M1049.947-744.717a5.487,5.487,0,0,1-5.476-5.485,5.486,5.486,0,0,1,5.476-5.484,5.486,5.486,0,0,1,5.476,5.484A5.487,5.487,0,0,1,1049.947-744.717Zm0-10.185a4.7,4.7,0,0,0-4.694,4.7,4.7,4.7,0,0,0,4.694,4.7,4.7,4.7,0,0,0,4.694-4.7A4.7,4.7,0,0,0,1049.947-754.9Z" fill="#fff"/>
    </g>
    <g id="Group_90681" data-name="Group 90681">
      <path id="Path_136076" data-name="Path 136076" d="M1088.7-777.1h-22.568l4.85-24.637h22.568Z" fill="#00689c"/>
      <path id="Path_136077" data-name="Path 136077" d="M1088.7-777.1h-22.568l4.85-24.637h22.568Z" fill="url(#linear-gradient-6)"/>
      <path id="Path_136078" data-name="Path 136078" d="M1149.811-793.654h-133.33a9.822,9.822,0,0,1-9.316-8l-14.2-85.568a6.6,6.6,0,0,1,6.66-8h133.33a9.823,9.823,0,0,1,9.317,8l14.2,85.568A6.6,6.6,0,0,1,1149.811-793.654Z" fill="#039be5"/>
      <path id="Path_136079" data-name="Path 136079" d="M1143.791-815.149H1015.366a4.57,4.57,0,0,1-4.334-3.723L999.937-885.71a3.069,3.069,0,0,1,3.1-3.722H1131.46a4.569,4.569,0,0,1,4.334,3.722l11.1,66.838A3.07,3.07,0,0,1,1143.791-815.149Z" fill="#343947"/>
      <path id="Path_136080" data-name="Path 136080" d="M1005.811-809.811l1.354,8.155a9.822,9.822,0,0,0,9.316,8h133.33a6.6,6.6,0,0,0,6.661-8l-1.354-8.155Z" fill="#00689c"/>
      <g id="Group_90647" data-name="Group 90647">
        <rect id="Rectangle_7997" data-name="Rectangle 7997" width="0.936" height="56.162" transform="translate(1067.74 -883.602) rotate(-9.425)" fill="#3834e0"/>
      </g>
      <path id="Path_136081" data-name="Path 136081" d="M1010.346-879.005a1.313,1.313,0,0,1-1.325,1.592,1.956,1.956,0,0,1-1.855-1.592,1.314,1.314,0,0,1,1.326-1.593A1.955,1.955,0,0,1,1010.346-879.005Z" fill="#969696"/>
      <path id="Path_136082" data-name="Path 136082" d="M1011.788-870.319a1.313,1.313,0,0,1-1.325,1.592,1.956,1.956,0,0,1-1.855-1.592,1.314,1.314,0,0,1,1.326-1.593A1.955,1.955,0,0,1,1011.788-870.319Z" fill="#fff5db"/>
      <path id="Path_136083" data-name="Path 136083" d="M1013.23-861.633a1.313,1.313,0,0,1-1.325,1.593,1.955,1.955,0,0,1-1.855-1.593,1.314,1.314,0,0,1,1.326-1.593A1.955,1.955,0,0,1,1013.23-861.633Z" fill="#969696"/>
      <path id="Path_136084" data-name="Path 136084" d="M1014.672-852.947a1.313,1.313,0,0,1-1.326,1.593,1.955,1.955,0,0,1-1.854-1.593,1.313,1.313,0,0,1,1.326-1.592A1.955,1.955,0,0,1,1014.672-852.947Z" fill="#fff5db"/>
      <path id="Path_136085" data-name="Path 136085" d="M1016.114-844.26a1.313,1.313,0,0,1-1.326,1.592,1.955,1.955,0,0,1-1.854-1.592,1.313,1.313,0,0,1,1.325-1.593A1.955,1.955,0,0,1,1016.114-844.26Z" fill="#969696"/>
      <path id="Path_136086" data-name="Path 136086" d="M1017.556-835.574a1.314,1.314,0,0,1-1.326,1.593,1.956,1.956,0,0,1-1.854-1.593,1.313,1.313,0,0,1,1.325-1.593A1.955,1.955,0,0,1,1017.556-835.574Z" fill="#fff5db"/>
      <g id="Group_90648" data-name="Group 90648">
        <rect id="Rectangle_7998" data-name="Rectangle 7998" width="7.875" height="0.937" transform="translate(1013.513 -879.474)" fill="#ff005d"/>
      </g>
      <g id="Group_90649" data-name="Group 90649">
        <rect id="Rectangle_7999" data-name="Rectangle 7999" width="27.063" height="0.937" transform="translate(1023.482 -879.474)" fill="#6582db"/>
      </g>
      <g id="Group_90650" data-name="Group 90650">
        <rect id="Rectangle_8000" data-name="Rectangle 8000" width="18.601" height="0.937" transform="translate(1014.117 -875.825)" fill="#3834e0"/>
      </g>
      <g id="Group_90651" data-name="Group 90651">
        <rect id="Rectangle_8001" data-name="Rectangle 8001" width="26.141" height="0.937" transform="translate(1014.953 -870.788)" fill="#6582db"/>
      </g>
      <g id="Group_90652" data-name="Group 90652">
        <rect id="Rectangle_8002" data-name="Rectangle 8002" width="5.614" height="0.937" transform="translate(1046.373 -870.788)" fill="#ff005d"/>
      </g>
      <g id="Group_90653" data-name="Group 90653">
        <rect id="Rectangle_8003" data-name="Rectangle 8003" width="37.034" height="0.937" transform="translate(1015.559 -867.139)" fill="#3834e0"/>
      </g>
      <g id="Group_90654" data-name="Group 90654">
        <rect id="Rectangle_8004" data-name="Rectangle 8004" width="24.716" height="0.937" transform="translate(1016.396 -862.102)" fill="#ff005d"/>
      </g>
      <g id="Group_90655" data-name="Group 90655">
        <rect id="Rectangle_8005" data-name="Rectangle 8005" width="11.143" height="0.937" transform="translate(1017.002 -858.453)" fill="#3834e0"/>
      </g>
      <g id="Group_90656" data-name="Group 90656">
        <rect id="Rectangle_8006" data-name="Rectangle 8006" width="37.034" height="0.937" transform="translate(1017.838 -853.415)" fill="#3834e0"/>
      </g>
      <g id="Group_90657" data-name="Group 90657">
        <rect id="Rectangle_8007" data-name="Rectangle 8007" width="18.599" height="0.937" transform="translate(1018.444 -849.767)" fill="#ff005d"/>
      </g>
      <g id="Group_90658" data-name="Group 90658">
        <rect id="Rectangle_8008" data-name="Rectangle 8008" width="4.526" height="0.937" transform="translate(1039.724 -849.767)" fill="#6582db"/>
      </g>
      <g id="Group_90659" data-name="Group 90659">
        <rect id="Rectangle_8009" data-name="Rectangle 8009" width="7.875" height="0.937" transform="translate(1019.28 -844.729)" fill="#ff005d"/>
      </g>
      <g id="Group_90660" data-name="Group 90660">
        <rect id="Rectangle_8010" data-name="Rectangle 8010" width="27.063" height="0.937" transform="translate(1029.25 -844.729)" fill="#3834e0"/>
      </g>
      <g id="Group_90661" data-name="Group 90661">
        <rect id="Rectangle_8011" data-name="Rectangle 8011" width="18.601" height="0.937" transform="translate(1019.885 -841.081)" fill="#6582db"/>
      </g>
      <g id="Group_90662" data-name="Group 90662">
        <rect id="Rectangle_8012" data-name="Rectangle 8012" width="7.877" height="0.937" transform="translate(1020.721 -836.043)" fill="#ff005d"/>
      </g>
      <g id="Group_90663" data-name="Group 90663">
        <rect id="Rectangle_8013" data-name="Rectangle 8013" width="27.063" height="0.937" transform="translate(1030.692 -836.043)" fill="#3834e0"/>
      </g>
      <path id="Path_136087" data-name="Path 136087" d="M1080.475-879.005a1.312,1.312,0,0,1-1.325,1.592,1.955,1.955,0,0,1-1.855-1.592,1.314,1.314,0,0,1,1.326-1.593A1.955,1.955,0,0,1,1080.475-879.005Z" fill="#969696"/>
      <path id="Path_136088" data-name="Path 136088" d="M1081.917-870.319a1.313,1.313,0,0,1-1.325,1.592,1.956,1.956,0,0,1-1.855-1.592,1.314,1.314,0,0,1,1.326-1.593A1.955,1.955,0,0,1,1081.917-870.319Z" fill="#969696"/>
      <path id="Path_136089" data-name="Path 136089" d="M1083.359-861.633a1.313,1.313,0,0,1-1.325,1.593,1.955,1.955,0,0,1-1.855-1.593,1.314,1.314,0,0,1,1.326-1.593A1.955,1.955,0,0,1,1083.359-861.633Z" fill="#969696"/>
      <path id="Path_136090" data-name="Path 136090" d="M1084.8-852.947a1.313,1.313,0,0,1-1.326,1.593,1.955,1.955,0,0,1-1.854-1.593,1.313,1.313,0,0,1,1.326-1.592A1.955,1.955,0,0,1,1084.8-852.947Z" fill="#969696"/>
      <path id="Path_136091" data-name="Path 136091" d="M1086.243-844.26a1.313,1.313,0,0,1-1.326,1.592,1.955,1.955,0,0,1-1.854-1.592,1.313,1.313,0,0,1,1.325-1.593A1.955,1.955,0,0,1,1086.243-844.26Z" fill="#969696"/>
      <path id="Path_136092" data-name="Path 136092" d="M1087.685-835.574a1.314,1.314,0,0,1-1.326,1.593,1.956,1.956,0,0,1-1.854-1.593,1.313,1.313,0,0,1,1.325-1.593A1.956,1.956,0,0,1,1087.685-835.574Z" fill="#969696"/>
      <g id="Group_90664" data-name="Group 90664">
        <rect id="Rectangle_8014" data-name="Rectangle 8014" width="7.877" height="0.937" transform="translate(1083.641 -879.474)" fill="#ff005d"/>
      </g>
      <g id="Group_90665" data-name="Group 90665">
        <rect id="Rectangle_8015" data-name="Rectangle 8015" width="27.063" height="0.937" transform="translate(1093.612 -879.474)" fill="#6582db"/>
      </g>
      <g id="Group_90666" data-name="Group 90666">
        <rect id="Rectangle_8016" data-name="Rectangle 8016" width="18.601" height="0.937" transform="translate(1084.247 -875.825)" fill="#3834e0"/>
      </g>
      <g id="Group_90667" data-name="Group 90667">
        <rect id="Rectangle_8017" data-name="Rectangle 8017" width="26.141" height="0.937" transform="translate(1085.083 -870.788)" fill="#6582db"/>
      </g>
      <g id="Group_90668" data-name="Group 90668">
        <rect id="Rectangle_8018" data-name="Rectangle 8018" width="5.614" height="0.937" transform="translate(1116.503 -870.788)" fill="#ff005d"/>
      </g>
      <g id="Group_90669" data-name="Group 90669">
        <rect id="Rectangle_8019" data-name="Rectangle 8019" width="37.032" height="0.937" transform="translate(1085.689 -867.139)" fill="#3834e0"/>
      </g>
      <g id="Group_90670" data-name="Group 90670">
        <rect id="Rectangle_8020" data-name="Rectangle 8020" width="24.718" height="0.937" transform="translate(1086.524 -862.102)" fill="#ff005d"/>
      </g>
      <g id="Group_90671" data-name="Group 90671">
        <rect id="Rectangle_8021" data-name="Rectangle 8021" width="11.144" height="0.937" transform="translate(1087.13 -858.453)" fill="#3834e0"/>
      </g>
      <g id="Group_90672" data-name="Group 90672">
        <rect id="Rectangle_8022" data-name="Rectangle 8022" width="37.034" height="0.937" transform="translate(1087.966 -853.415)" fill="#3834e0"/>
      </g>
      <g id="Group_90673" data-name="Group 90673">
        <rect id="Rectangle_8023" data-name="Rectangle 8023" width="18.601" height="0.937" transform="translate(1088.572 -849.767)" fill="#ff005d"/>
      </g>
      <g id="Group_90674" data-name="Group 90674">
        <rect id="Rectangle_8024" data-name="Rectangle 8024" width="4.524" height="0.937" transform="translate(1109.854 -849.767)" fill="#6582db"/>
      </g>
      <g id="Group_90675" data-name="Group 90675">
        <rect id="Rectangle_8025" data-name="Rectangle 8025" width="7.877" height="0.937" transform="translate(1089.409 -844.729)" fill="#ff005d"/>
      </g>
      <g id="Group_90676" data-name="Group 90676">
        <rect id="Rectangle_8026" data-name="Rectangle 8026" width="27.064" height="0.937" transform="translate(1099.378 -844.729)" fill="#3834e0"/>
      </g>
      <g id="Group_90677" data-name="Group 90677">
        <rect id="Rectangle_8027" data-name="Rectangle 8027" width="18.601" height="0.937" transform="translate(1090.015 -841.081)" fill="#6582db"/>
      </g>
      <g id="Group_90678" data-name="Group 90678">
        <rect id="Rectangle_8028" data-name="Rectangle 8028" width="7.875" height="0.937" transform="translate(1090.851 -836.043)" fill="#ff005d"/>
      </g>
      <g id="Group_90679" data-name="Group 90679">
        <rect id="Rectangle_8029" data-name="Rectangle 8029" width="27.064" height="0.937" transform="translate(1100.821 -836.043)" fill="#3834e0"/>
      </g>
      <g id="Group_90680" data-name="Group 90680">
        <path id="Path_136093" data-name="Path 136093" d="M1137.818-822.892H1018.612a.468.468,0,0,1-.468-.469.468.468,0,0,1,.468-.468h119.206a.467.467,0,0,1,.467.468A.467.467,0,0,1,1137.818-822.892Z" fill="#fff5db"/>
      </g>
    </g>
    <path id="Path_136094" data-name="Path 136094" d="M1235.881-1056.291a62.3,62.3,0,0,0-62.252,62.356,62.2,62.2,0,0,0,18.063,43.9l-9.3,22.074,24.559-10.792a61.839,61.839,0,0,0,28.933,7.17,62.305,62.305,0,0,0,62.254-62.357A62.3,62.3,0,0,0,1235.881-1056.291Z" fill="url(#linear-gradient-7)"/>
    <path id="Path_136095" data-name="Path 136095" d="M1230.408-1060.7a62.3,62.3,0,0,0-62.253,62.356,62.2,62.2,0,0,0,18.063,43.9l-9.3,22.074,24.559-10.791a61.848,61.848,0,0,0,28.933,7.169,62.3,62.3,0,0,0,62.253-62.357A62.3,62.3,0,0,0,1230.408-1060.7Z" fill="#039be5"/>
    <g id="Group_90688" data-name="Group 90688">
      <g id="Group_90682" data-name="Group 90682">
        <path id="Path_136096" data-name="Path 136096" d="M987.87-777.1H965.8l-3.633-30.727H991.5Z" fill="#ffca28"/>
      </g>
      <g id="Group_90687" data-name="Group 90687">
        <g id="Group_90683" data-name="Group 90683">
          <rect id="Rectangle_8030" data-name="Rectangle 8030" width="1.045" height="13.482" transform="translate(966.458 -826.06)" fill="#ffca28"/>
        </g>
        <g id="Group_90684" data-name="Group 90684">
          <rect id="Rectangle_8031" data-name="Rectangle 8031" width="1.045" height="18.456" transform="translate(973.027 -831.034)" fill="#ffca28"/>
        </g>
        <g id="Group_90685" data-name="Group 90685">
          <rect id="Rectangle_8032" data-name="Rectangle 8032" width="1.045" height="18.456" transform="translate(979.597 -831.034)" fill="#ffca28"/>
        </g>
        <g id="Group_90686" data-name="Group 90686">
          <rect id="Rectangle_8033" data-name="Rectangle 8033" width="1.045" height="13.482" transform="translate(986.164 -826.06)" fill="#ffca28"/>
        </g>
      </g>
    </g>
    <g id="Group_90690" data-name="Group 90690">
      <path id="Path_136097" data-name="Path 136097" d="M979.576-938.771a1.148,1.148,0,0,1-.829-.374,1.149,1.149,0,0,1-.373-.83,1.528,1.528,0,0,1,.11-.574l19.357-46.69a2.172,2.172,0,0,1,2.12-1.435h5.441a1.109,1.109,0,0,1,.857.373,1.207,1.207,0,0,1,.345.834,1.538,1.538,0,0,1-.117.571L987.02-940.2a2.106,2.106,0,0,1-2.12,1.432Z" fill="#ffca28"/>
      <g id="Group_90689" data-name="Group 90689">
        <path id="Path_136098" data-name="Path 136098" d="M968.427-945.712a1.953,1.953,0,0,1-.912-.343l-20.9-14.225a4.6,4.6,0,0,1-1.257-1.148,2.325,2.325,0,0,1-.407-1.376v-1.837a2.193,2.193,0,0,1,.373-1.318,5.267,5.267,0,0,1,1.291-1.148l20.9-14.225a1.949,1.949,0,0,1,.912-.342,1.224,1.224,0,0,1,.863.315,1.151,1.151,0,0,1,.345.888v6.482a1.953,1.953,0,0,1-.435,1.348,5.008,5.008,0,0,1-1.174.945l-12.2,7.975,12.2,8.031a7.594,7.594,0,0,1,1.2,1,1.735,1.735,0,0,1,.407,1.231v6.54a1.17,1.17,0,0,1-.345.861A1.174,1.174,0,0,1,968.427-945.712Z" fill="#ffca28"/>
        <path id="Path_136099" data-name="Path 136099" d="M1016.551-945.712a1.168,1.168,0,0,1-.856-.343,1.171,1.171,0,0,1-.346-.861v-6.54a1.761,1.761,0,0,1,.4-1.231,8.338,8.338,0,0,1,1.2-1l12.2-8.031-12.2-7.975a5.365,5.365,0,0,1-1.174-.945,1.985,1.985,0,0,1-.428-1.348v-6.482a1.152,1.152,0,0,1,.346-.888,1.217,1.217,0,0,1,.856-.315,1.941,1.941,0,0,1,.918.342l20.9,14.225a5.367,5.367,0,0,1,1.284,1.148,2.193,2.193,0,0,1,.373,1.318v1.837a2.314,2.314,0,0,1-.4,1.376,4.684,4.684,0,0,1-1.256,1.148l-20.9,14.225A1.945,1.945,0,0,1,1016.551-945.712Z" fill="#ffca28"/>
      </g>
    </g>
    <g id="Group_90696" data-name="Group 90696">
      <g id="Group_90691" data-name="Group 90691">
        <path id="Path_136100" data-name="Path 136100" d="M892.493-830.571a1.381,1.381,0,0,1-.444-.082,1.177,1.177,0,0,1-.377-.263,1.1,1.1,0,0,1-.344-.822,1.137,1.137,0,0,1,.344-.838,1,1,0,0,1,.377-.247,1.232,1.232,0,0,1,.9,0,1.374,1.374,0,0,1,.378.247,1.212,1.212,0,0,1,.345.838,1.026,1.026,0,0,1-.1.444.818.818,0,0,1-.245.378,1.417,1.417,0,0,1-.378.263A1.4,1.4,0,0,1,892.493-830.571Z" fill="#bcf4fa"/>
      </g>
      <g id="Group_90692" data-name="Group 90692">
        <path id="Path_136101" data-name="Path 136101" d="M891.328-704.478a1.174,1.174,0,0,1,1.165-1.184h0a1.178,1.178,0,0,1,1.181,1.184h0a1.175,1.175,0,0,1-1.181,1.167h0A1.17,1.17,0,0,1,891.328-704.478Zm0-6.707a1.185,1.185,0,0,1,1.165-1.184h0a1.189,1.189,0,0,1,1.181,1.184h0a1.164,1.164,0,0,1-1.181,1.167h0A1.16,1.16,0,0,1,891.328-711.185Zm0-6.69a1.174,1.174,0,0,1,1.165-1.184h0a1.178,1.178,0,0,1,1.181,1.184h0a1.175,1.175,0,0,1-1.181,1.167h0A1.17,1.17,0,0,1,891.328-717.875Zm0-6.706a1.169,1.169,0,0,1,1.165-1.167h0a1.174,1.174,0,0,1,1.181,1.167h0a1.178,1.178,0,0,1-1.181,1.183h0A1.173,1.173,0,0,1,891.328-724.581Zm0-6.691a1.173,1.173,0,0,1,1.165-1.183h0a1.178,1.178,0,0,1,1.181,1.183h0a1.175,1.175,0,0,1-1.181,1.168h0A1.171,1.171,0,0,1,891.328-731.272Zm0-6.706a1.17,1.17,0,0,1,1.165-1.167h0a1.175,1.175,0,0,1,1.181,1.167h0a1.177,1.177,0,0,1-1.181,1.183h0A1.173,1.173,0,0,1,891.328-737.978Zm0-6.69a1.173,1.173,0,0,1,1.165-1.183h0a1.177,1.177,0,0,1,1.181,1.183h0a1.175,1.175,0,0,1-1.181,1.167h0A1.17,1.17,0,0,1,891.328-744.668Zm0-6.707a1.17,1.17,0,0,1,1.165-1.167h0a1.175,1.175,0,0,1,1.181,1.167h0a1.178,1.178,0,0,1-1.181,1.184h0A1.174,1.174,0,0,1,891.328-751.375Zm0-6.69a1.173,1.173,0,0,1,1.165-1.183h0a1.178,1.178,0,0,1,1.181,1.183h0a1.174,1.174,0,0,1-1.181,1.167h0A1.169,1.169,0,0,1,891.328-758.065Zm0-6.706a1.17,1.17,0,0,1,1.165-1.167h0a1.175,1.175,0,0,1,1.181,1.167h0a1.178,1.178,0,0,1-1.181,1.183h0A1.173,1.173,0,0,1,891.328-764.771Zm0-6.69a1.174,1.174,0,0,1,1.165-1.184h0a1.178,1.178,0,0,1,1.181,1.184h0a1.175,1.175,0,0,1-1.181,1.167h0A1.17,1.17,0,0,1,891.328-771.461Zm0-6.707a1.17,1.17,0,0,1,1.165-1.167h0a1.175,1.175,0,0,1,1.181,1.167h0a1.178,1.178,0,0,1-1.181,1.184h0A1.174,1.174,0,0,1,891.328-778.168Zm0-6.69a1.17,1.17,0,0,1,1.165-1.167h0a1.175,1.175,0,0,1,1.181,1.167h0a1.175,1.175,0,0,1-1.181,1.167h0A1.17,1.17,0,0,1,891.328-784.858Zm0-6.706a1.169,1.169,0,0,1,1.165-1.167h0a1.174,1.174,0,0,1,1.181,1.167h0a1.178,1.178,0,0,1-1.181,1.183h0A1.173,1.173,0,0,1,891.328-791.564Zm0-6.69a1.171,1.171,0,0,1,1.165-1.168h0a1.175,1.175,0,0,1,1.181,1.168h0a1.175,1.175,0,0,1-1.181,1.167h0A1.17,1.17,0,0,1,891.328-798.254Zm0-6.691a1.173,1.173,0,0,1,1.165-1.183h0a1.178,1.178,0,0,1,1.181,1.183h0a1.174,1.174,0,0,1-1.181,1.167h0A1.169,1.169,0,0,1,891.328-804.945Zm0-6.706a1.17,1.17,0,0,1,1.165-1.167h0a1.175,1.175,0,0,1,1.181,1.167h0a1.178,1.178,0,0,1-1.181,1.184h0A1.174,1.174,0,0,1,891.328-811.651Zm0-6.69a1.174,1.174,0,0,1,1.165-1.184h0a1.179,1.179,0,0,1,1.181,1.184h0a1.175,1.175,0,0,1-1.181,1.167h0A1.17,1.17,0,0,1,891.328-818.341Zm0-6.707a1.17,1.17,0,0,1,1.165-1.167h0a1.175,1.175,0,0,1,1.181,1.167h0a1.178,1.178,0,0,1-1.181,1.184h0A1.174,1.174,0,0,1,891.328-825.048Z" fill="#bcf4fa"/>
      </g>
      <g id="Group_90693" data-name="Group 90693">
        <path id="Path_136102" data-name="Path 136102" d="M892.493-696.621a1.053,1.053,0,0,1-.444-.082,1.147,1.147,0,0,1-.377-.247,1.163,1.163,0,0,1-.344-.838,1.334,1.334,0,0,1,.081-.444,1.265,1.265,0,0,1,.263-.394,1.23,1.23,0,0,1,1.657,0,1.2,1.2,0,0,1,.245.394,1.026,1.026,0,0,1,.1.444.972.972,0,0,1-.1.443.965.965,0,0,1-.245.395,1.374,1.374,0,0,1-.378.247A1.077,1.077,0,0,1,892.493-696.621Z" fill="#bcf4fa"/>
      </g>
      <g id="Group_90694" data-name="Group 90694">
        <path id="Path_136103" data-name="Path 136103" d="M989.921-697.788a1.163,1.163,0,0,1,1.181-1.167h0a1.16,1.16,0,0,1,1.165,1.167h0A1.185,1.185,0,0,1,991.1-696.6h0A1.187,1.187,0,0,1,989.921-697.788Zm-6.582,0a1.164,1.164,0,0,1,1.183-1.167h0a1.16,1.16,0,0,1,1.165,1.167h0a1.185,1.185,0,0,1-1.165,1.183h0A1.189,1.189,0,0,1,983.339-697.788Zm-6.564,0a1.16,1.16,0,0,1,1.165-1.167h0a1.164,1.164,0,0,1,1.183,1.167h0a1.189,1.189,0,0,1-1.183,1.183h0A1.185,1.185,0,0,1,976.775-697.788Zm-6.58,0a1.163,1.163,0,0,1,1.181-1.167h0a1.159,1.159,0,0,1,1.165,1.167h0a1.184,1.184,0,0,1-1.165,1.183h0A1.188,1.188,0,0,1,970.2-697.788Zm-6.564,0a1.16,1.16,0,0,1,1.165-1.167h0a1.163,1.163,0,0,1,1.181,1.167h0A1.187,1.187,0,0,1,964.8-696.6h0A1.184,1.184,0,0,1,963.631-697.788Zm-6.58,0a1.163,1.163,0,0,1,1.181-1.167h0a1.16,1.16,0,0,1,1.165,1.167h0a1.185,1.185,0,0,1-1.165,1.183h0A1.187,1.187,0,0,1,957.051-697.788Zm-6.565,0a1.159,1.159,0,0,1,1.166-1.167h0a1.164,1.164,0,0,1,1.181,1.167h0a1.188,1.188,0,0,1-1.181,1.183h0A1.184,1.184,0,0,1,950.486-697.788Zm-6.58,0a1.163,1.163,0,0,1,1.181-1.167h0a1.16,1.16,0,0,1,1.165,1.167h0a1.184,1.184,0,0,1-1.165,1.183h0A1.187,1.187,0,0,1,943.906-697.788Zm-6.564,0a1.159,1.159,0,0,1,1.165-1.167h0a1.15,1.15,0,0,1,1.165,1.167h0a1.174,1.174,0,0,1-1.165,1.183h0A1.184,1.184,0,0,1,937.342-697.788Zm-6.582,0a1.164,1.164,0,0,1,1.183-1.167h0a1.16,1.16,0,0,1,1.165,1.167h0a1.184,1.184,0,0,1-1.165,1.183h0A1.189,1.189,0,0,1,930.76-697.788Zm-6.564,0a1.15,1.15,0,0,1,1.165-1.167h0a1.159,1.159,0,0,1,1.165,1.167h0a1.184,1.184,0,0,1-1.165,1.183h0A1.175,1.175,0,0,1,924.2-697.788Zm-6.58,0a1.16,1.16,0,0,1,1.165-1.167h0a1.163,1.163,0,0,1,1.181,1.167h0a1.187,1.187,0,0,1-1.181,1.183h0A1.185,1.185,0,0,1,917.616-697.788Zm-6.58,0a1.164,1.164,0,0,1,1.181-1.167h0a1.16,1.16,0,0,1,1.165,1.167h0a1.184,1.184,0,0,1-1.165,1.183h0A1.188,1.188,0,0,1,911.036-697.788Zm-6.564,0a1.16,1.16,0,0,1,1.165-1.167h0a1.164,1.164,0,0,1,1.181,1.167h0a1.188,1.188,0,0,1-1.181,1.183h0A1.185,1.185,0,0,1,904.472-697.788Zm-6.58,0a1.163,1.163,0,0,1,1.181-1.167h0a1.16,1.16,0,0,1,1.165,1.167h0a1.185,1.185,0,0,1-1.165,1.183h0A1.187,1.187,0,0,1,897.892-697.788Z" fill="#bcf4fa"/>
      </g>
      <g id="Group_90695" data-name="Group 90695">
        <path id="Path_136104" data-name="Path 136104" d="M997.666-696.621a.971.971,0,0,1-.444-.082,1.587,1.587,0,0,1-.393-.247,1.549,1.549,0,0,1-.246-.395,1.008,1.008,0,0,1-.082-.443,1.217,1.217,0,0,1,.328-.838,1.252,1.252,0,0,1,1.674,0,1.6,1.6,0,0,1,.246.394,1.025,1.025,0,0,1,.1.444,1.021,1.021,0,0,1-.1.443,1.241,1.241,0,0,1-.246.395A1.221,1.221,0,0,1,997.666-696.621Z" fill="#bcf4fa"/>
      </g>
    </g>
    <rect id="Rectangle_8034" data-name="Rectangle 8034" width="88.169" height="46.588" rx="2.987" transform="translate(834.251 -725.09)" fill="url(#linear-gradient-8)"/>
    <rect id="Rectangle_8035" data-name="Rectangle 8035" width="88.169" height="46.588" rx="2.987" transform="translate(830.013 -721.082)" fill="#ffefbf"/>
    <rect id="Rectangle_8036" data-name="Rectangle 8036" width="78.694" height="46.588" rx="2.987" transform="translate(1252.562 -753.483)" fill="url(#linear-gradient-9)"/>
    <rect id="Rectangle_8037" data-name="Rectangle 8037" width="78.694" height="46.587" rx="2.987" transform="translate(1248.166 -758.031)" fill="#ffefbf"/>
    <g id="Group_90702" data-name="Group 90702">
      <g id="Group_90697" data-name="Group 90697">
        <path id="Path_136105" data-name="Path 136105" d="M1071.086-938.664a1.17,1.17,0,0,1-.838-.345,1.184,1.184,0,0,1-.345-.838,1.2,1.2,0,0,1,.345-.822,1.216,1.216,0,0,1,1.659,0,1.133,1.133,0,0,1,.344.822,1.12,1.12,0,0,1-.344.838A1.107,1.107,0,0,1,1071.086-938.664Z" fill="#bcf4fa"/>
      </g>
      <g id="Group_90698" data-name="Group 90698">
        <path id="Path_136106" data-name="Path 136106" d="M1103.431-939.831a1.176,1.176,0,0,1,1.181-1.183h0a1.174,1.174,0,0,1,1.165,1.183h0a1.171,1.171,0,0,1-1.165,1.167h0A1.173,1.173,0,0,1,1103.431-939.831Zm-6.7,0a1.173,1.173,0,0,1,1.165-1.183h0a1.163,1.163,0,0,1,1.165,1.183h0a1.16,1.16,0,0,1-1.165,1.167h0A1.17,1.17,0,0,1,1096.735-939.831Zm-6.711,0a1.176,1.176,0,0,1,1.181-1.183h0a1.174,1.174,0,0,1,1.165,1.183h0a1.171,1.171,0,0,1-1.165,1.167h0A1.173,1.173,0,0,1,1090.024-939.831Zm-6.714,0a1.178,1.178,0,0,1,1.183-1.183h0a1.173,1.173,0,0,1,1.165,1.183h0a1.17,1.17,0,0,1-1.165,1.167h0A1.175,1.175,0,0,1,1083.31-939.831Zm-6.7,0a1.174,1.174,0,0,1,1.165-1.183h0a1.178,1.178,0,0,1,1.183,1.183h0a1.175,1.175,0,0,1-1.183,1.167h0A1.171,1.171,0,0,1,1076.615-939.831Z" fill="#bcf4fa"/>
      </g>
      <g id="Group_90699" data-name="Group 90699">
        <path id="Path_136107" data-name="Path 136107" d="M1111.307-938.664a1.345,1.345,0,0,1-.444-.082,1.04,1.04,0,0,1-.376-.263,1.192,1.192,0,0,1-.263-.378,1.389,1.389,0,0,1-.082-.444,1.136,1.136,0,0,1,.345-.838,1.23,1.23,0,0,1,1.657,0,1.21,1.21,0,0,1,.344.838,1.094,1.094,0,0,1-.1.444.952.952,0,0,1-.247.378A1.166,1.166,0,0,1,1111.307-938.664Z" fill="#bcf4fa"/>
      </g>
      <g id="Group_90700" data-name="Group 90700">
        <path id="Path_136108" data-name="Path 136108" d="M1110.142-907.679a1.169,1.169,0,0,1,1.165-1.167h0a1.173,1.173,0,0,1,1.181,1.167h0a1.178,1.178,0,0,1-1.181,1.184h0A1.174,1.174,0,0,1,1110.142-907.679Zm0-6.428a1.184,1.184,0,0,1,1.165-1.183h0a1.188,1.188,0,0,1,1.181,1.183h0a1.174,1.174,0,0,1-1.181,1.168h0A1.17,1.17,0,0,1,1110.142-914.107Zm0-6.426a1.174,1.174,0,0,1,1.165-1.184h0a1.178,1.178,0,0,1,1.181,1.184h0a1.174,1.174,0,0,1-1.181,1.167h0A1.17,1.17,0,0,1,1110.142-920.533Zm0-6.444a1.17,1.17,0,0,1,1.165-1.167h0a1.174,1.174,0,0,1,1.181,1.167h0a1.177,1.177,0,0,1-1.181,1.184h0A1.174,1.174,0,0,1,1110.142-926.977Zm0-6.427a1.16,1.16,0,0,1,1.165-1.167h0a1.164,1.164,0,0,1,1.181,1.167h0a1.174,1.174,0,0,1-1.181,1.167h0A1.17,1.17,0,0,1,1110.142-933.4Z" fill="#bcf4fa"/>
      </g>
      <g id="Group_90701" data-name="Group 90701">
        <path id="Path_136109" data-name="Path 136109" d="M1111.307-900.069a1.344,1.344,0,0,1-.444-.082,1.027,1.027,0,0,1-.376-.263,1.1,1.1,0,0,1-.345-.822,1.138,1.138,0,0,1,.345-.838,1.179,1.179,0,0,1,1.28-.246,1.084,1.084,0,0,1,.377.246,1.211,1.211,0,0,1,.344.838,1.172,1.172,0,0,1-.344.822A1.166,1.166,0,0,1,1111.307-900.069Z" fill="#bcf4fa"/>
      </g>
    </g>
    <g id="Group_90708" data-name="Group 90708">
      <g id="Group_90703" data-name="Group 90703">
        <path id="Path_136110" data-name="Path 136110" d="M892.493-895.006a1.408,1.408,0,0,1-.444-.082,1.192,1.192,0,0,1-.377-.263,1.048,1.048,0,0,1-.263-.378,1.417,1.417,0,0,1-.081-.444,1.429,1.429,0,0,1,.081-.46,1.424,1.424,0,0,1,.263-.378,1,1,0,0,1,.377-.247,1.188,1.188,0,0,1,1.28.247,1.328,1.328,0,0,1,.245.378,1.1,1.1,0,0,1,.1.46,1.083,1.083,0,0,1-.1.444.823.823,0,0,1-.245.378A1.163,1.163,0,0,1,892.493-895.006Z" fill="#bcf4fa"/>
      </g>
      <g id="Group_90704" data-name="Group 90704">
        <path id="Path_136111" data-name="Path 136111" d="M891.328-902.419a1.17,1.17,0,0,1,1.165-1.167h0a1.175,1.175,0,0,1,1.181,1.167h0a1.178,1.178,0,0,1-1.181,1.183h0A1.173,1.173,0,0,1,891.328-902.419Zm0-6.23a1.174,1.174,0,0,1,1.165-1.184h0a1.179,1.179,0,0,1,1.181,1.184h0a1.175,1.175,0,0,1-1.181,1.167h0A1.17,1.17,0,0,1,891.328-908.649Zm0-6.247a1.17,1.17,0,0,1,1.165-1.167h0a1.175,1.175,0,0,1,1.181,1.167h0a1.178,1.178,0,0,1-1.181,1.184h0A1.173,1.173,0,0,1,891.328-914.9Zm0-6.229a1.174,1.174,0,0,1,1.165-1.184h0a1.178,1.178,0,0,1,1.181,1.184h0a1.175,1.175,0,0,1-1.181,1.167h0A1.17,1.17,0,0,1,891.328-921.125Zm0-6.246a1.169,1.169,0,0,1,1.165-1.167h0a1.174,1.174,0,0,1,1.181,1.167h0a1.178,1.178,0,0,1-1.181,1.183h0A1.173,1.173,0,0,1,891.328-927.371Zm0-6.23a1.159,1.159,0,0,1,1.165-1.167h0a1.164,1.164,0,0,1,1.181,1.167h0a1.179,1.179,0,0,1-1.181,1.184h0A1.174,1.174,0,0,1,891.328-933.6Z" fill="#bcf4fa"/>
      </g>
      <g id="Group_90705" data-name="Group 90705">
        <path id="Path_136112" data-name="Path 136112" d="M892.493-938.664a1.41,1.41,0,0,1-.444-.082,1.193,1.193,0,0,1-.377-.263,1.208,1.208,0,0,1-.263-.378,1.416,1.416,0,0,1-.081-.444,1.429,1.429,0,0,1,.081-.46,1.207,1.207,0,0,1,.263-.378.991.991,0,0,1,.377-.247,1.188,1.188,0,0,1,1.28.247,1.139,1.139,0,0,1,.245.378,1.1,1.1,0,0,1,.1.46,1.083,1.083,0,0,1-.1.444.915.915,0,0,1-.245.378A1.164,1.164,0,0,1,892.493-938.664Z" fill="#bcf4fa"/>
      </g>
      <g id="Group_90706" data-name="Group 90706">
        <path id="Path_136113" data-name="Path 136113" d="M905.308-939.831a1.164,1.164,0,0,1,1.166-1.183h0a1.174,1.174,0,0,1,1.165,1.183h0a1.171,1.171,0,0,1-1.165,1.167h0A1.161,1.161,0,0,1,905.308-939.831Zm-6.99,0a1.174,1.174,0,0,1,1.165-1.183h0a1.177,1.177,0,0,1,1.181,1.183h0a1.174,1.174,0,0,1-1.181,1.167h0A1.171,1.171,0,0,1,898.318-939.831Z" fill="#bcf4fa"/>
      </g>
      <g id="Group_90707" data-name="Group 90707">
        <path id="Path_136114" data-name="Path 136114" d="M913.464-938.664a1.167,1.167,0,0,1-.837-.345,1.173,1.173,0,0,1-.344-.822,1.1,1.1,0,0,1,.1-.46,1.352,1.352,0,0,1,.245-.378,1.23,1.23,0,0,1,.395-.247,1.048,1.048,0,0,1,.886,0,.987.987,0,0,1,.376.247,1.379,1.379,0,0,1,.263.378,1.084,1.084,0,0,1,.082.46,1.1,1.1,0,0,1-.345.822A1.1,1.1,0,0,1,913.464-938.664Z" fill="#bcf4fa"/>
      </g>
    </g>
    <g id="Group_90710" data-name="Group 90710">
      <path id="Path_136115" data-name="Path 136115" d="M1245.04-611.81v-50.562a10.053,10.053,0,0,1,3.448-7.376,15.426,15.426,0,0,0,5.036-11.422,15.455,15.455,0,0,0-6.234-12.417,1.258,1.258,0,0,0-1.988,1.029v12.811a4.781,4.781,0,0,1-2.386,4.141l-2.461,1.423a4.768,4.768,0,0,1-4.774,0l-2.46-1.423a4.783,4.783,0,0,1-2.387-4.141v-12.814a1.255,1.255,0,0,0-1.981-1.031,15.456,15.456,0,0,0-6.229,11.825,15.5,15.5,0,0,0,5.128,11.99,9.89,9.89,0,0,1,3.345,7.276v50.82a9.89,9.89,0,0,1-3.345,7.276,15.5,15.5,0,0,0-5.128,11.99,15.454,15.454,0,0,0,6.229,11.825,1.255,1.255,0,0,0,1.981-1.031v-12.814a4.783,4.783,0,0,1,2.387-4.141l2.461-1.423a4.766,4.766,0,0,1,4.773,0l2.461,1.423a4.781,4.781,0,0,1,2.386,4.141v12.811a1.258,1.258,0,0,0,1.988,1.029,15.453,15.453,0,0,0,6.234-12.417,15.426,15.426,0,0,0-5.036-11.422A10.053,10.053,0,0,1,1245.04-611.81Z" fill="#fff"/>
      <g id="Group_90709" data-name="Group 90709">
        <path id="Path_136116" data-name="Path 136116" d="M1238.069-613.055a3.2,3.2,0,0,1-3.189-3.193v-41.686a3.2,3.2,0,0,1,3.189-3.193,3.194,3.194,0,0,1,3.188,3.193v41.686A3.194,3.194,0,0,1,1238.069-613.055Zm0-47.288a2.411,2.411,0,0,0-2.407,2.409v41.686a2.411,2.411,0,0,0,2.407,2.41,2.41,2.41,0,0,0,2.406-2.41v-41.686A2.41,2.41,0,0,0,1238.069-660.343Z" fill="#dedede"/>
      </g>
    </g>
    <g id="Group_90716" data-name="Group 90716">
      <g id="Group_90711" data-name="Group 90711">
        <path id="Path_136117" data-name="Path 136117" d="M1287.505-699.531a1.164,1.164,0,0,1-.821-.345,1.4,1.4,0,0,1-.262-.378,1.4,1.4,0,0,1-.082-.46,1.173,1.173,0,0,1,.344-.822,1.2,1.2,0,0,1,1.657,0,1.2,1.2,0,0,1,.345.822,1.168,1.168,0,0,1-.345.838A1.233,1.233,0,0,1,1287.505-699.531Z" fill="#bcf4fa"/>
      </g>
      <g id="Group_90712" data-name="Group 90712">
        <path id="Path_136118" data-name="Path 136118" d="M1286.34-646.092a1.17,1.17,0,0,1,1.165-1.167h0a1.175,1.175,0,0,1,1.181,1.167h0a1.178,1.178,0,0,1-1.181,1.183h0A1.173,1.173,0,0,1,1286.34-646.092Zm0-6.821a1.173,1.173,0,0,1,1.165-1.184h0a1.177,1.177,0,0,1,1.181,1.184h0a1.175,1.175,0,0,1-1.181,1.167h0A1.171,1.171,0,0,1,1286.34-652.913Zm0-6.823a1.173,1.173,0,0,1,1.165-1.183h0a1.178,1.178,0,0,1,1.181,1.183h0a1.175,1.175,0,0,1-1.181,1.168h0A1.17,1.17,0,0,1,1286.34-659.736Zm0-6.837a1.17,1.17,0,0,1,1.165-1.167h0a1.175,1.175,0,0,1,1.181,1.167h0a1.164,1.164,0,0,1-1.181,1.167h0A1.16,1.16,0,0,1,1286.34-666.573Zm0-6.822a1.173,1.173,0,0,1,1.165-1.183h0a1.177,1.177,0,0,1,1.181,1.183h0a1.175,1.175,0,0,1-1.181,1.167h0A1.17,1.17,0,0,1,1286.34-673.4Zm0-6.838a1.17,1.17,0,0,1,1.165-1.167h0a1.175,1.175,0,0,1,1.181,1.167h0a1.178,1.178,0,0,1-1.181,1.183h0A1.173,1.173,0,0,1,1286.34-680.233Zm0-6.821a1.184,1.184,0,0,1,1.165-1.184h0a1.188,1.188,0,0,1,1.181,1.184h0a1.164,1.164,0,0,1-1.181,1.167h0A1.16,1.16,0,0,1,1286.34-687.054Zm0-6.822a1.174,1.174,0,0,1,1.165-1.184h0a1.178,1.178,0,0,1,1.181,1.184h0a1.175,1.175,0,0,1-1.181,1.167h0A1.17,1.17,0,0,1,1286.34-693.876Z" fill="#bcf4fa"/>
      </g>
      <g id="Group_90713" data-name="Group 90713">
        <path id="Path_136119" data-name="Path 136119" d="M1287.505-638.087a1.1,1.1,0,0,1-.821-.345,1.183,1.183,0,0,1-.262-.379,1.379,1.379,0,0,1-.082-.443,1.212,1.212,0,0,1,.344-.839,1.234,1.234,0,0,1,1.657,0,1.208,1.208,0,0,1,.345.839,1.106,1.106,0,0,1-.345.822A1.163,1.163,0,0,1,1287.505-638.087Z" fill="#bcf4fa"/>
      </g>
      <g id="Group_90714" data-name="Group 90714">
        <path id="Path_136120" data-name="Path 136120" d="M1279.545-639.254a1.175,1.175,0,0,1,1.165-1.184h0a1.179,1.179,0,0,1,1.183,1.184h0a1.175,1.175,0,0,1-1.183,1.167h0A1.171,1.171,0,0,1,1279.545-639.254Zm-6.793,0a1.163,1.163,0,0,1,1.165-1.184h0a1.175,1.175,0,0,1,1.165,1.184h0a1.171,1.171,0,0,1-1.165,1.167h0A1.16,1.16,0,0,1,1272.752-639.254Zm-6.811,0a1.178,1.178,0,0,1,1.182-1.184h0a1.174,1.174,0,0,1,1.165,1.184h0a1.17,1.17,0,0,1-1.165,1.167h0A1.174,1.174,0,0,1,1265.941-639.254Zm-6.794,0a1.175,1.175,0,0,1,1.165-1.184h0a1.177,1.177,0,0,1,1.182,1.184h0a1.174,1.174,0,0,1-1.182,1.167h0A1.171,1.171,0,0,1,1259.147-639.254Z" fill="#bcf4fa"/>
      </g>
      <g id="Group_90715" data-name="Group 90715">
        <path id="Path_136121" data-name="Path 136121" d="M1253.519-638.087a1.1,1.1,0,0,1-.82-.345,1.1,1.1,0,0,1-.345-.822,1.4,1.4,0,0,1,.082-.46,1.2,1.2,0,0,1,.263-.379.839.839,0,0,1,.376-.246,1.079,1.079,0,0,1,.9,0,1.093,1.093,0,0,1,.378.246,1.212,1.212,0,0,1,.344.839,1.173,1.173,0,0,1-.344.822A1.166,1.166,0,0,1,1253.519-638.087Z" fill="#bcf4fa"/>
      </g>
    </g>
    <g id="Group_90723" data-name="Group 90723">
      <path id="Path_136122" data-name="Path 136122" d="M1107.621-588.229l10.041,26.748h-60.905l.459-3.245a9.518,9.518,0,0,1,8.542-8.146l10.589-.979a9.539,9.539,0,0,0,8.4-11.65l-.63-2.728Z" fill="#12263f"/>
      <path id="Path_136123" data-name="Path 136123" d="M1198.547-585.941l9.182,24.46h-55.694l.42-2.967a8.7,8.7,0,0,1,7.811-7.45l9.683-.9a8.723,8.723,0,0,0,7.686-10.653l-.576-2.495Z" fill="#12263f"/>
      <path id="Path_136124" data-name="Path 136124" d="M1141.481-692.338l28.637,108.4h34.63s-8.658-9-8.99-16.343,1-20.679-3.33-27.684-8.991-11.006-7.326-21.012-1.332-31.686-18.98-46.028Z" fill="#026799"/>
      <g id="Group_90717" data-name="Group 90717">
        <rect id="Rectangle_8038" data-name="Rectangle 8038" width="0.781" height="115.116" transform="translate(1149.245 -694.904) rotate(-15.24)" fill="#12263f"/>
      </g>
      <path id="Path_136125" data-name="Path 136125" d="M1185.453-656.179c-.464-11.134-5.185-27.332-19.331-38.827l-24.641,2.668,24.973,94.528Z" fill="url(#linear-gradient-10)" style="mix-blend-mode: multiply;isolation: isolate"/>
      <path id="Path_136126" data-name="Path 136126" d="M1150.454-902.463s1.922,13.267-3.312,17.868l3.657,1.926s-3.623,19.685,1.791,19.793c6.168.124,9.72.107,9.72.107v10.806h21.149l-1.122-17.974s10.949-17.975,3.686-28.567S1164.019-909.417,1150.454-902.463Z" fill="#ff9a87"/>
      <path id="Path_136127" data-name="Path 136127" d="M1171-857.984c6.658-4.424,11.338-11.953,11.338-11.953l-9.728-7.046s-12.8,13.235-20.019,14.107c6.168.124,9.72.107,9.72.107v5.783C1165.625-856.476,1168.915-856.6,1171-857.984Z" opacity="0.3" fill="url(#linear-gradient-11)" style="mix-blend-mode: multiply;isolation: isolate"/>
      <g id="Group_90718" data-name="Group 90718">
        <path id="Path_136128" data-name="Path 136128" d="M1151.89-885.533c-2.452,0-4.447-2.79-4.447-6.221s1.995-6.22,4.447-6.22,4.448,2.791,4.448,6.22S1154.343-885.533,1151.89-885.533Zm0-11.394c-1.877,0-3.4,2.321-3.4,5.173s1.526,5.175,3.4,5.175,3.4-2.322,3.4-5.175S1153.766-896.927,1151.89-896.927Z" fill="#fff"/>
      </g>
      <g id="Group_90719" data-name="Group 90719">
        <rect id="Rectangle_8039" data-name="Rectangle 8039" width="10.631" height="1.047" transform="translate(1155.59 -894.158)" fill="#fff"/>
      </g>
      <path id="Path_136129" data-name="Path 136129" d="M1187.518-845.814h-30.6v-7.272c17.79-3.137,30.6,0,30.6,0Z" fill="#ffca28"/>
      <path id="Path_136130" data-name="Path 136130" d="M1173.846-847.239a106.686,106.686,0,0,1,16.262,1.689,11.026,11.026,0,0,1,9.189,11.718,541.069,541.069,0,0,1-15.624,92.678h-61.739s13.4-58.333,19.092-95.34a10.845,10.845,0,0,1,9.129-9.093A163.337,163.337,0,0,1,1173.846-847.239Z" fill="#ffca28"/>
      <path id="Path_136131" data-name="Path 136131" d="M1125.266-756.044c29.445-13.865,31.65-73.621,31.65-73.621l-16.626-2.206C1136.24-807,1129.355-774.633,1125.266-756.044Z" opacity="0.6" fill="url(#linear-gradient-12)" style="mix-blend-mode: multiply;isolation: isolate"/>
      <path id="Path_136132" data-name="Path 136132" d="M1094.056-786.095h20.508l26.262-53.127a9.415,9.415,0,0,1,11.937-4.576h0a13.929,13.929,0,0,1,6.808,20.012l-27.3,46.257a21.807,21.807,0,0,1-21.931,10.5l-16.28-2.378Z" fill="#ffca28"/>
      <g id="Group_90720" data-name="Group 90720">
        <path id="Path_136133" data-name="Path 136133" d="M1131.495-775.453l-.673-.4,28.413-48.134a13.533,13.533,0,0,0,1.157-11.25,13.5,13.5,0,0,0-7.772-8.2,9.072,9.072,0,0,0-11.442,4.387l-.7-.348a9.861,9.861,0,0,1,12.432-4.766,14.276,14.276,0,0,1,8.225,8.674,14.312,14.312,0,0,1-1.225,11.9Z" fill="#12263f"/>
      </g>
      <path id="Path_136134" data-name="Path 136134" d="M1094.056-769.4l16.076,2.349-6.741-19.039h-9.335Z" opacity="0.6" fill="url(#linear-gradient-13)" style="mix-blend-mode: multiply;isolation: isolate"/>
      <path id="Path_136135" data-name="Path 136135" d="M1091.385-770.756l-37.7-6.339h-12.817s4.966-8.988,12.9-8.506h37.622Z" fill="#ff9a87"/>
      <path id="Path_136136" data-name="Path 136136" d="M1122.4-743.193s-57.5,15.126-64.552,40.162,22.431,118.119,22.431,118.119h35.889s-10.254-10.272-11.215-20.864,2.884-17.974-.321-24.715-8.011-11.555-7.37-23.752,2.884-26.32-3.525-36.591h54.913a36.539,36.539,0,0,0,36.2-41.263l-1.172-9.057Z" fill="#0279b3"/>
      <path id="Path_136137" data-name="Path 136137" d="M1178.215-911.985s-38.017-20.18-41.541.642c-3.2,18.938,27.719,10.271,27.719,10.271a34.95,34.95,0,0,0,1.97,13.682c.623-2.718,2.014-6.059,5.133-6.406,6.02-.67,6.125,13.694,1.113,16.813a30.969,30.969,0,0,0,9.728,7.046s5.74-9.6,9.774-14.123C1197.452-890.052,1200.689-913.108,1178.215-911.985Z" fill="#12263f"/>
      <path id="Path_136138" data-name="Path 136138" d="M1101.746-766.423q-5.692-.993-11.347-1.991a52.726,52.726,0,0,1,.372-19.354h10.975A52.736,52.736,0,0,0,1101.746-766.423Z" fill="#ffca28"/>
      <g id="Group_90721" data-name="Group 90721">
        <path id="Path_136139" data-name="Path 136139" d="M1156.923-846.026l-.013-.783,23.74-.431.013.783Z" fill="#12263f"/>
      </g>
      <g id="Group_90722" data-name="Group 90722">
        <path id="Path_136140" data-name="Path 136140" d="M1089.721-585.869l-18.7-100.561a17.286,17.286,0,0,1,7.823-17.736l62.047-38.489.41.666L1079.25-703.5a16.494,16.494,0,0,0-7.465,16.927l18.7,100.561Z" fill="#12263f"/>
      </g>
      <path id="Path_136141" data-name="Path 136141" d="M1105.689-627.039a12.879,12.879,0,0,0-1.059-3.452c-3.2-6.74-8.011-11.555-7.37-23.752s2.884-26.32-3.525-36.591h-16.863a10.158,10.158,0,0,0-9.7,13.126C1073.066-658.214,1086.233-624.178,1105.689-627.039Z" fill="url(#linear-gradient-14)" style="mix-blend-mode: multiply;isolation: isolate"/>
    </g>
    <g id="Group_90725" data-name="Group 90725">
      <g id="Group_90724" data-name="Group 90724">
        <path id="Path_136142" data-name="Path 136142" d="M1090.29-703.849l-7.971-38.331a16.749,16.749,0,0,1,3.406-14.026,16.692,16.692,0,0,1,13.017-6.2h64.223v7.7h-64.223a9.041,9.041,0,0,0-7.049,3.359,9.069,9.069,0,0,0-1.845,7.6l7.971,38.33Z" fill="#fff5db"/>
      </g>
      <path id="Path_136143" data-name="Path 136143" d="M1168.763-817.91l-21.327,93.358a18.587,18.587,0,0,1-18.112,14.46h-42a12.346,12.346,0,0,0-12.337,12.357h0a12.347,12.347,0,0,0,12.337,12.358H1193.92a30.706,30.706,0,0,0,29.921-23.888L1250.85-827.5a3.469,3.469,0,0,0-3.378-4.245h-61.383A17.78,17.78,0,0,0,1168.763-817.91Z" fill="#12263f"/>
      <path id="Path_136144" data-name="Path 136144" d="M1166.543-707.775l28.319-123.966h-8.773a17.78,17.78,0,0,0-17.326,13.831l-21.327,93.358a18.587,18.587,0,0,1-18.112,14.46h-41.467c-6.444,0-12.2,4.718-12.809,11.143a12.352,12.352,0,0,0,12.279,13.572h51.16A28.792,28.792,0,0,0,1166.543-707.775Z" fill="url(#linear-gradient-15)" style="mix-blend-mode: screen;isolation: isolate"/>
      <path id="Path_136145" data-name="Path 136145" d="M1167.7-579.09a11.03,11.03,0,0,1-9.085-10.782v-82.34c12.524-1.345,22.668-6.479,26.54-13.221h-66.111c3.873,6.742,14.016,11.876,26.54,13.221v82.34a11.03,11.03,0,0,1-9.085,10.782c-14.573,2.776-26.064,9.328-30.821,17.609h92.843C1193.763-569.762,1182.273-576.314,1167.7-579.09Z" fill="#bcf4fa"/>
      <path id="Path_136146" data-name="Path 136146" d="M1145.583-672.212v22.632l13.031,8.09v-30.722c12.524-1.345,22.668-6.479,26.54-13.221h-66.111C1122.916-678.691,1133.059-673.557,1145.583-672.212Z" opacity="0.3" fill="url(#linear-gradient-16)" style="mix-blend-mode: multiply;isolation: isolate"/>
    </g>
    <path id="Path_136147" data-name="Path 136147" d="M956.185-665.661l-23.034-4.012a1.778,1.778,0,0,0-2.054,2.058l4.006,23.072a1.775,1.775,0,0,0,3,.953l2.768-2.773a1.774,1.774,0,0,1,2.511,0L958.72-631a1.774,1.774,0,0,0,2.512,0l8.47-8.484a1.782,1.782,0,0,0,0-2.516l-15.333-15.359a1.779,1.779,0,0,1,0-2.515l2.767-2.773A1.779,1.779,0,0,0,956.185-665.661Z" fill="url(#linear-gradient-17)"/>
    <path id="Path_136148" data-name="Path 136148" d="M952.876-662.629l-23.034-4.012a1.778,1.778,0,0,0-2.054,2.057l4.005,23.072a1.776,1.776,0,0,0,3.006.953l2.768-2.772a1.773,1.773,0,0,1,2.511,0l15.333,15.359a1.776,1.776,0,0,0,2.512,0l8.47-8.485a1.781,1.781,0,0,0,0-2.515l-15.334-15.359a1.781,1.781,0,0,1,0-2.515l2.768-2.773A1.779,1.779,0,0,0,952.876-662.629Z" fill="#fff5db"/>
    <path id="Rectangle_8040" data-name="Rectangle 8040" d="M2.985,0h132.14a2.985,2.985,0,0,1,2.985,2.985V40.85a2.987,2.987,0,0,1-2.987,2.987H2.985A2.985,2.985,0,0,1,0,40.852V2.985A2.985,2.985,0,0,1,2.985,0Z" transform="translate(845.635 -888.765)" fill="url(#linear-gradient-18)"/>
    <path id="Rectangle_8041" data-name="Rectangle 8041" d="M2.985,0h132.14a2.985,2.985,0,0,1,2.985,2.985V40.85a2.987,2.987,0,0,1-2.987,2.987H2.985A2.985,2.985,0,0,1,0,40.852V2.985A2.985,2.985,0,0,1,2.985,0Z" transform="translate(841.407 -884.782)" fill="#ffefbf"/>
    <g id="Group_90726" data-name="Group 90726">
      <path id="Path_136149" data-name="Path 136149" d="M863.266-856.335a.7.7,0,0,1-.33-.124l-7.578-5.157a1.659,1.659,0,0,1-.455-.416.841.841,0,0,1-.148-.5v-.666a.794.794,0,0,1,.135-.477,1.893,1.893,0,0,1,.468-.417l7.578-5.156a.708.708,0,0,1,.33-.125.443.443,0,0,1,.313.114.42.42,0,0,1,.126.323v2.349a.71.71,0,0,1-.158.489,1.854,1.854,0,0,1-.426.343l-4.421,2.891,4.421,2.911a2.792,2.792,0,0,1,.436.364.627.627,0,0,1,.148.446v2.371a.424.424,0,0,1-.126.312A.422.422,0,0,1,863.266-856.335Z" fill="#039be5"/>
      <path id="Path_136150" data-name="Path 136150" d="M868.957-853.818a.417.417,0,0,1-.3-.136.416.416,0,0,1-.135-.3.565.565,0,0,1,.04-.208l7.017-16.926a.788.788,0,0,1,.769-.52h1.973a.4.4,0,0,1,.31.135.436.436,0,0,1,.125.3.567.567,0,0,1-.042.207l-7.057,16.928a.764.764,0,0,1-.769.519Z" fill="#039be5"/>
      <path id="Path_136151" data-name="Path 136151" d="M889.217-855.357a6.986,6.986,0,0,1-4.661-1.435,5.474,5.474,0,0,1-1.8-4.2q-.023-.561-.023-1.83,0-1.29.023-1.872a5.474,5.474,0,0,1,1.815-4.169,6.906,6.906,0,0,1,4.641-1.465,8.592,8.592,0,0,1,3.31.6,5.353,5.353,0,0,1,2.315,1.746,4.625,4.625,0,0,1,.894,2.7.417.417,0,0,1-.135.313.464.464,0,0,1-.323.124h-2.946a.646.646,0,0,1-.426-.114.965.965,0,0,1-.24-.427,2.472,2.472,0,0,0-.882-1.424,2.723,2.723,0,0,0-1.567-.406q-2.346,0-2.431,2.62c-.012.375-.02.951-.02,1.727s.008,1.365.02,1.767q.082,2.621,2.431,2.62a2.727,2.727,0,0,0,1.567-.416,2.385,2.385,0,0,0,.882-1.413.8.8,0,0,1,.228-.427.7.7,0,0,1,.438-.115h2.946a.465.465,0,0,1,.323.125.414.414,0,0,1,.135.313,4.622,4.622,0,0,1-.894,2.7,5.353,5.353,0,0,1-2.315,1.746A8.63,8.63,0,0,1,889.217-855.357Z" fill="#039be5"/>
      <path id="Path_136152" data-name="Path 136152" d="M906.987-855.357a7,7,0,0,1-4.652-1.435,5.49,5.49,0,0,1-1.8-4.221q-.023-.582-.022-1.789c0-.8.007-1.407.022-1.808a5.5,5.5,0,0,1,1.815-4.231,6.888,6.888,0,0,1,4.642-1.487,6.853,6.853,0,0,1,4.619,1.487,5.508,5.508,0,0,1,1.815,4.231q.04,1.206.042,1.808c0,.417-.015,1.013-.042,1.789a5.5,5.5,0,0,1-1.8,4.221A6.951,6.951,0,0,1,906.987-855.357Zm0-3.119a2.3,2.3,0,0,0,1.722-.655,2.912,2.912,0,0,0,.686-2.007q.04-1.206.04-1.725t-.04-1.685a2.909,2.909,0,0,0-.686-2.006,2.3,2.3,0,0,0-1.722-.656,2.333,2.333,0,0,0-1.745.656,2.9,2.9,0,0,0-.686,2.006q-.02.582-.02,1.685c0,.748.007,1.324.02,1.725a2.9,2.9,0,0,0,.686,2.007A2.332,2.332,0,0,0,906.987-858.476Z" fill="#039be5"/>
      <path id="Path_136153" data-name="Path 136153" d="M918.923-856.085v-12.164a1.691,1.691,0,0,1,.551-1.3,1.792,1.792,0,0,1,1.254-.51h4.153a9.689,9.689,0,0,1,2.564.322,5.649,5.649,0,0,1,2.045,1.02,4.84,4.84,0,0,1,1.37,1.768,6.452,6.452,0,0,1,.54,2.546c.013.194.021.427.021.7v1.778c0,.264-.008.493-.021.686q-.187,5.678-6.416,5.677h-5.543a.51.51,0,0,1-.373-.145A.507.507,0,0,1,918.923-856.085Zm5.958-2.578a2.531,2.531,0,0,0,1.95-.656,2.876,2.876,0,0,0,.624-1.964c.015-.2.025-.419.032-.676s.011-.544.011-.863-.005-.607-.011-.862-.017-.482-.032-.676a2.367,2.367,0,0,0-2.679-2.6h-3.114a1.089,1.089,0,0,1,.811.342,1.056,1.056,0,0,1,.333.738v6.571a.644.644,0,0,0,.175.458.615.615,0,0,0,.468.187Z" fill="#039be5"/>
      <path id="Path_136154" data-name="Path 136154" d="M936.983-856.127v-12.164a1.706,1.706,0,0,1,.541-1.3,1.78,1.78,0,0,1,1.266-.51h8.47a.515.515,0,0,1,.383.157.519.519,0,0,1,.158.383v2.059a.439.439,0,0,1-.148.353.524.524,0,0,1-.393.146H939.6a1.061,1.061,0,0,1,.821.354,1.126,1.126,0,0,1,.321.769v.873a.728.728,0,0,0,.155.438.551.551,0,0,0,.468.208h4.526a.519.519,0,0,1,.383.155.527.527,0,0,1,.156.385v1.871a.527.527,0,0,1-.156.385.521.521,0,0,1-.383.157H939.6a1.1,1.1,0,0,1,.809.332,1.03,1.03,0,0,1,.333.748v.978a.693.693,0,0,0,.165.436.559.559,0,0,0,.458.209h6.061a.478.478,0,0,1,.541.54v2.037a.49.49,0,0,1-.155.386.573.573,0,0,1-.386.135H937.5a.5.5,0,0,1-.363-.157A.5.5,0,0,1,936.983-856.127Z" fill="#039be5"/>
      <path id="Path_136155" data-name="Path 136155" d="M953.654-856.335a.424.424,0,0,1-.311-.124.427.427,0,0,1-.125-.312v-2.371a.64.64,0,0,1,.145-.446,3.052,3.052,0,0,1,.436-.364l4.423-2.911-4.423-2.891a1.945,1.945,0,0,1-.426-.343.719.719,0,0,1-.155-.489v-2.349a.423.423,0,0,1,.125-.323.445.445,0,0,1,.311-.114.7.7,0,0,1,.332.125l7.578,5.156a1.917,1.917,0,0,1,.466.417.794.794,0,0,1,.135.477v.666a.84.84,0,0,1-.145.5,1.712,1.712,0,0,1-.456.416l-7.578,5.157A.7.7,0,0,1,953.654-856.335Z" fill="#039be5"/>
    </g>
    <g id="Group_90727" data-name="Group 90727">
      <path id="Path_136156" data-name="Path 136156" d="M1286.34-764.048a1.17,1.17,0,0,1,1.165-1.167h0a1.175,1.175,0,0,1,1.181,1.167h0a1.178,1.178,0,0,1-1.181,1.184h0A1.174,1.174,0,0,1,1286.34-764.048Zm0-6.624a1.174,1.174,0,0,1,1.165-1.184h0a1.178,1.178,0,0,1,1.181,1.184h0a1.175,1.175,0,0,1-1.181,1.167h0A1.17,1.17,0,0,1,1286.34-770.672Zm0-6.641a1.17,1.17,0,0,1,1.165-1.167h0a1.175,1.175,0,0,1,1.181,1.167h0a1.179,1.179,0,0,1-1.181,1.184h0A1.174,1.174,0,0,1,1286.34-777.313Zm0-6.641a1.17,1.17,0,0,1,1.165-1.167h0a1.175,1.175,0,0,1,1.181,1.167h0a1.179,1.179,0,0,1-1.181,1.184h0A1.174,1.174,0,0,1,1286.34-783.954Z" fill="#bcf4fa"/>
    </g>
    <g id="Group_90728" data-name="Group 90728">
      <path id="Path_136157" data-name="Path 136157" d="M853.263-611.126a1.945,1.945,0,0,1-.908-.341l-20.7-14.086a4.608,4.608,0,0,1-1.249-1.136,2.32,2.32,0,0,1-.4-1.364v-1.819a2.188,2.188,0,0,1,.367-1.307,5.279,5.279,0,0,1,1.279-1.132l20.7-14.09a1.945,1.945,0,0,1,.908-.341,1.206,1.206,0,0,1,.851.315,1.128,1.128,0,0,1,.34.878v6.418a1.965,1.965,0,0,1-.423,1.338,5.118,5.118,0,0,1-1.166.935l-12.076,7.9,12.076,7.952a8.128,8.128,0,0,1,1.192,1,1.72,1.72,0,0,1,.4,1.22v6.475a1.156,1.156,0,0,1-.34.852A1.156,1.156,0,0,1,853.263-611.126Z" fill="#4dd0e1"/>
      <path id="Path_136158" data-name="Path 136158" d="M865.967-604.254a1.143,1.143,0,0,1-.824-.367,1.139,1.139,0,0,1-.367-.822,1.443,1.443,0,0,1,.114-.568l19.168-46.24a2.144,2.144,0,0,1,2.1-1.42h5.386a1.111,1.111,0,0,1,.851.367,1.2,1.2,0,0,1,.341.826,1.571,1.571,0,0,1-.114.568l-19.282,46.24a2.087,2.087,0,0,1-2.1,1.416Z" fill="#4dd0e1"/>
      <path id="Path_136159" data-name="Path 136159" d="M904.248-611.126a1.156,1.156,0,0,1-.851-.341,1.156,1.156,0,0,1-.34-.852v-6.475a1.716,1.716,0,0,1,.4-1.22,8.1,8.1,0,0,1,1.187-1l12.081-7.952-12.081-7.9a5.192,5.192,0,0,1-1.161-.935,1.96,1.96,0,0,1-.423-1.338v-6.418a1.128,1.128,0,0,1,.34-.878,1.206,1.206,0,0,1,.851-.315,1.931,1.931,0,0,1,.9.341l20.7,14.09a5.142,5.142,0,0,1,1.274,1.132,2.162,2.162,0,0,1,.371,1.307v1.819a2.348,2.348,0,0,1-.4,1.364,4.678,4.678,0,0,1-1.248,1.136l-20.7,14.086A1.931,1.931,0,0,1,904.248-611.126Z" fill="#4dd0e1"/>
    </g>
    <g id="Group_90729" data-name="Group 90729">
      <rect id="Rectangle_8042" data-name="Rectangle 8042" width="344.464" height="1.567" transform="translate(892.498 -562.265)" fill="#343947"/>
    </g>
    <g id="Group_90730" data-name="Group 90730">
      <rect id="Rectangle_8043" data-name="Rectangle 8043" width="49.265" height="1.567" transform="translate(1246.841 -562.265)" fill="#343947"/>
    </g>
    <g id="Group_90731" data-name="Group 90731">
      <rect id="Rectangle_8044" data-name="Rectangle 8044" width="17.317" height="1.567" transform="translate(1302.797 -562.265)" fill="#343947"/>
    </g>
    <g id="Group_90732" data-name="Group 90732">
      <rect id="Rectangle_8045" data-name="Rectangle 8045" width="17.319" height="1.567" transform="translate(862.819 -562.265)" fill="#343947"/>
    </g>
    <g id="Group_90733" data-name="Group 90733">
      <path id="Path_136160" data-name="Path 136160" d="M1047.838-697.9a1.179,1.179,0,0,1,1.183-1.184h0a1.175,1.175,0,0,1,1.165,1.184h0a1.171,1.171,0,0,1-1.165,1.167h0A1.175,1.175,0,0,1,1047.838-697.9Zm-6.612,0a1.174,1.174,0,0,1,1.165-1.184h0a1.178,1.178,0,0,1,1.181,1.184h0a1.175,1.175,0,0,1-1.181,1.167h0A1.17,1.17,0,0,1,1041.226-697.9Zm-6.63,0a1.174,1.174,0,0,1,1.165-1.184h0a1.177,1.177,0,0,1,1.181,1.184h0a1.174,1.174,0,0,1-1.181,1.167h0A1.17,1.17,0,0,1,1034.6-697.9Zm-6.63,0a1.177,1.177,0,0,1,1.181-1.184h0a1.174,1.174,0,0,1,1.165,1.184h0a1.17,1.17,0,0,1-1.165,1.167h0A1.173,1.173,0,0,1,1027.966-697.9Z" fill="#bcf4fa"/>
    </g>
    <g id="Group_90736" data-name="Group 90736">
      <g id="Group_90734" data-name="Group 90734">
        <rect id="Rectangle_8046" data-name="Rectangle 8046" width="1.173" height="24.159" transform="translate(858.692 -787.731)" fill="#fff"/>
      </g>
      <g id="Group_90735" data-name="Group 90735">
        <rect id="Rectangle_8047" data-name="Rectangle 8047" width="24.117" height="1.175" transform="translate(847.219 -776.239)" fill="#fff"/>
      </g>
    </g>
    <g id="mysql-official">
      <path id="Trazado_134312" data-name="Trazado 134312" d="M1185.445-985.555h2.963v-11.712l4.586,10.215a2.53,2.53,0,0,0,2.735,1.675,2.49,2.49,0,0,0,2.706-1.675l4.587-10.215v11.718h2.963v-11.7a1.783,1.783,0,0,0-1.4-1.979c-2.251-.7-3.762-.093-4.444,1.427l-4.5,10.083-4.359-10.087c-.655-1.52-2.193-2.131-4.443-1.427a1.784,1.784,0,0,0-1.4,1.979Zm23-9.536h2.961v6.457c-.027.351.113,1.174,1.736,1.2.828.013,6.391,0,6.443,0v-7.688h2.968c.013,0,0,10.482,0,10.527.016,2.586-3.2,3.147-4.686,3.191h-9.354v-2h9.371c1.906-.2,1.681-1.151,1.681-1.471v-.779h-6.3c-2.93-.026-4.8-1.307-4.819-2.78,0-.132.063-6.6,0-6.659Z" fill="#12263f"/>
      <path id="Trazado_134313" data-name="Trazado 134313" d="M1224.84-985.553h8.517a6.549,6.549,0,0,0,2.736-.571,2.691,2.691,0,0,0,1.909-2.434v-2.169c0-.856-.713-1.655-2.108-2.186a7.258,7.258,0,0,0-2.535-.438h-3.59c-1.2,0-1.765-.362-1.908-1.16a.86.86,0,0,1-.028-.267v-1.352a.792.792,0,0,1,.028-.247c.142-.609.456-.78,1.51-.88.085,0,.2-.019.285-.019h8.458v-1.978H1229.8a7.975,7.975,0,0,0-2.393.247c-1.768.552-2.537,1.432-2.537,2.953v1.732c0,1.331,1.511,2.473,4.045,2.739.285.019.57.038.854.038h3.077a1.555,1.555,0,0,1,.313.019c.94.077,1.34.247,1.626.59a.7.7,0,0,1,.228.528v1.731a.986.986,0,0,1-.427.7,2.1,2.1,0,0,1-1.254.419c-.114,0-.2.019-.313.019h-8.177v1.983Zm31.643-3.442c0,2.035,1.509,3.176,4.557,3.4.284.022.569.034.855.038h7.72v-1.979h-7.777c-1.737,0-2.393-.438-2.393-1.484v-10.234h-2.962v10.254Zm-16.592.1v-7.051c0-1.792,1.254-2.879,3.74-3.222a5.625,5.625,0,0,1,.8-.057h5.624a6.036,6.036,0,0,1,.828.057c2.483.343,3.739,1.429,3.739,3.222v7.05a2.574,2.574,0,0,1-1.765,2.739l2.919,2.639h-3.44l-2.361-2.136-2.377.151h-3.167a6.54,6.54,0,0,1-1.742-.248c-1.888-.514-2.8-1.506-2.8-3.145Zm3.2-.176a1.321,1.321,0,0,0,.057.3c.176.82.942,1.277,2.108,1.277h2.693l-2.472-2.235h3.44l2.152,1.949a1.39,1.39,0,0,0,.746-.953.948.948,0,0,0,.028-.286v-6.763a.886.886,0,0,0-.028-.267c-.176-.762-.942-1.2-2.084-1.2h-4.468c-1.318,0-2.17.571-2.17,1.467v6.71Z" fill="#12263f"/>
      <g id="Grupo_90630" data-name="Grupo 90630">
        <path id="Trazado_134314" data-name="Trazado 134314" d="M1272.222-1002.532a10.411,10.411,0,0,0-4.4.622c-.338.143-.876.147-.932.571.186.2.215.486.363.726a5.708,5.708,0,0,0,1.191,1.4c.467.353.948.732,1.45,1.038.891.545,1.887.856,2.744,1.4.506.321,1.009.725,1.5,1.089.244.179.408.458.725.57v-.052c-.167-.213-.21-.505-.363-.726l-.673-.674a10.949,10.949,0,0,0-2.381-2.282c-.709-.51-2.294-1.2-2.59-2.023l-.052-.053a11.484,11.484,0,0,0,1.554-.362c.779-.209,1.475-.156,2.279-.363l1.088-.311v-.208c-.407-.419-.7-.971-1.14-1.349a33.237,33.237,0,0,0-3.728-2.8c-.722-.457-1.616-.754-2.381-1.141-.258-.13-.711-.2-.883-.416a11.11,11.11,0,0,1-.931-1.759c-.651-1.253-1.289-2.623-1.865-3.942a21.447,21.447,0,0,0-1.139-2.594,22.881,22.881,0,0,0-8.8-8.506,10.548,10.548,0,0,0-2.9-.933l-1.709-.1a8.917,8.917,0,0,1-1.036-.779c-1.3-.822-4.63-2.609-5.593-.263-.607,1.483.908,2.93,1.45,3.683a11.075,11.075,0,0,1,1.139,1.712c.179.389.21.78.363,1.193a27.712,27.712,0,0,0,1.191,3.06,10.791,10.791,0,0,0,.828,1.4c.191.261.519.375.57.778a6.391,6.391,0,0,0-.519,1.712,9.954,9.954,0,0,0,.673,7.625c.362.581,1.212,1.827,2.382,1.349,1.022-.418.79-1.71,1.088-2.852.066-.26.025-.449.155-.623v.052l.932,1.867a12.725,12.725,0,0,0,2.952,3.062c.538.407.966,1.11,1.657,1.349v-.052h-.052c-.134-.212-.345-.3-.518-.466a11.661,11.661,0,0,1-1.191-1.349,31.349,31.349,0,0,1-2.537-4.149c-.363-.7-.679-1.468-.984-2.179-.117-.274-.116-.688-.362-.83a10.4,10.4,0,0,0-1.088,1.556,13.343,13.343,0,0,0-.621,3.424c-.093.033-.051.01-.1.052-.721-.174-.975-.918-1.242-1.556a9.823,9.823,0,0,1-.208-6.069c.154-.48.852-1.994.57-2.437-.135-.443-.58-.7-.829-1.038a8.19,8.19,0,0,1-.828-1.453c-.557-1.256-.814-2.669-1.4-3.942a11.261,11.261,0,0,0-1.139-1.759,10.376,10.376,0,0,1-1.242-1.759c-.119-.258-.279-.669-.1-.934a.406.406,0,0,1,.311-.311c.3-.233,1.137.076,1.45.207a12.676,12.676,0,0,1,2.229,1.142c.338.22.679.657,1.087.778h.464c.729.168,1.546.053,2.227.26a13.489,13.489,0,0,1,3.262,1.556,20.2,20.2,0,0,1,7.1,7.785c.269.516.384,1.009.621,1.556.477,1.1,1.078,2.24,1.554,3.32a15.447,15.447,0,0,0,1.6,3.06c.352.471,1.713.724,2.33.985a13.807,13.807,0,0,1,1.554.623c.784.473,1.543,1.037,2.279,1.557.367.259,1.5.828,1.553,1.3Z" fill="#12263f"/>
        <path id="Trazado_134315" data-name="Trazado 134315" d="M1249.075-1022.294a3.7,3.7,0,0,0-.932.1v.052h.052a7.118,7.118,0,0,0,.725.934l.518,1.089.052-.052a1.265,1.265,0,0,0,.464-1.142c-.128-.135-.147-.3-.259-.465-.148-.215-.439-.338-.621-.519Z" fill="#12263f" fill-rule="evenodd"/>
      </g>
      <path id="Trazado_134316" data-name="Trazado 134316" d="M1271.006-987.588a2.184,2.184,0,0,0,2.182,2.186,2.184,2.184,0,0,0,2.183-2.186,2.184,2.184,0,0,0-2.183-2.186h0a2.155,2.155,0,0,0-2.182,2.128Zm3.877,0a1.7,1.7,0,0,1-1.729,1.664,1.7,1.7,0,0,1-1.66-1.732,1.7,1.7,0,0,1,1.694-1.664,1.691,1.691,0,0,1,1.694,1.687c0,.015,0,.03,0,.045Zm-1.107,1.248h.489l-.716-1.1c.384-.041.675-.228.675-.682,0-.508-.32-.717-.937-.717h-.973v2.5h.418v-1.08h.391l.65,1.079Zm-1.042-1.429v-.717h.483c.25,0,.553.046.553.338,0,.35-.274.379-.588.379Z" fill="#12263f" fill-rule="evenodd"/>
    </g>
    <path id="Feature_One" data-name="Feature One" d="M1260.066-723.131v-23.211h7a7.431,7.431,0,0,1,5.889,2.7,10.291,10.291,0,0,1,2.323,6.958v3.9a10.264,10.264,0,0,1-2.323,6.951,7.441,7.441,0,0,1-5.889,2.694Zm4.536-19.593v15.975h2.212a3.252,3.252,0,0,0,2.92-1.65,8.216,8.216,0,0,0,1.027-4.38v-3.944a8.14,8.14,0,0,0-1.027-4.357,3.251,3.251,0,0,0-2.92-1.643Zm19.576-3.618,4.154,17.041h.1l4.2-17.041h5.905v23.211h-4.5v-6.744l.384-9.023-.095-.016-4.426,15.783h-3.008l-4.377-15.655-.1.016.4,8.9v6.744h-4.5v-23.211Zm22.314,19.593h8.467v3.619h-13v-23.212h4.536Z" fill="#039be5"/>
    <path id="Feature_One-2" data-name="Feature One-2" d="M849.28-686.183v-23.21h7a7.426,7.426,0,0,1,5.888,2.7,10.3,10.3,0,0,1,2.324,6.959v3.9a10.263,10.263,0,0,1-2.324,6.95,7.436,7.436,0,0,1-5.888,2.694Zm4.535-19.59V-689.8h2.213a3.251,3.251,0,0,0,2.92-1.652,8.213,8.213,0,0,0,1.026-4.38v-3.939a8.139,8.139,0,0,0-1.026-4.356,3.256,3.256,0,0,0-2.92-1.644Zm13.782,19.59v-23.21h7a7.43,7.43,0,0,1,5.889,2.7,10.3,10.3,0,0,1,2.323,6.959v3.9a10.263,10.263,0,0,1-2.323,6.95,7.437,7.437,0,0,1-5.889,2.694Zm4.536-19.59V-689.8h2.212a3.25,3.25,0,0,0,2.92-1.652,8.214,8.214,0,0,0,1.027-4.38v-3.939a8.14,8.14,0,0,0-1.027-4.356,3.254,3.254,0,0,0-2.92-1.644ZM890.449-689.8h8.467v3.619h-13v-23.212h4.535Z" fill="#12263f"/>
  </g>
</svg>
