<svg xmlns="http://www.w3.org/2000/svg" width="295.395" height="220.085" viewBox="0 0 295.395 220.085">
  <g id="t2-i2" transform="translate(-266.373 1466.467)">
    <rect id="Rectángulo_7588" data-name="Rectángulo 7588" width="295" height="220" transform="translate(266.768 -1466.382)" fill="none"/>
    <g id="Group_91377" data-name="Group 91377">
      <rect id="Rectangle_8179" data-name="Rectangle 8179" width="219.26" height="151.106" rx="13.665" transform="translate(289.931 -1464.966)" fill="#cecece"/>
    </g>
    <g id="Group_91379" data-name="Group 91379">
      <g id="Group_91378" data-name="Group 91378">
        <path id="Path_137202" data-name="Path 137202" d="M299.931-1327.525V-1451.3a13.68,13.68,0,0,1,13.664-13.664h-10a13.68,13.68,0,0,0-13.664,13.664v123.777a13.68,13.68,0,0,0,13.664,13.664h10A13.68,13.68,0,0,1,299.931-1327.525Z" fill="#afafaf"/>
      </g>
    </g>
    <g id="Group_91381" data-name="Group 91381">
      <g id="Group_91380" data-name="Group 91380">
        <path id="Path_137203" data-name="Path 137203" d="M499.191-1327.525V-1451.3a13.68,13.68,0,0,0-13.665-13.664h10a13.68,13.68,0,0,1,13.665,13.664v123.777a13.68,13.68,0,0,1-13.665,13.664h-10A13.68,13.68,0,0,0,499.191-1327.525Z" fill="#e2e2e2"/>
      </g>
    </g>
    <g id="Group_91382" data-name="Group 91382">
      <path id="Path_137204" data-name="Path 137204" d="M495.527-1312.361H303.6a15.181,15.181,0,0,1-15.164-15.164V-1451.3a15.183,15.183,0,0,1,15.164-15.165H495.527a15.183,15.183,0,0,1,15.164,15.165v123.777A15.181,15.181,0,0,1,495.527-1312.361ZM303.6-1463.467a12.178,12.178,0,0,0-12.164,12.165v123.777a12.178,12.178,0,0,0,12.164,12.164H495.527a12.178,12.178,0,0,0,12.164-12.164V-1451.3a12.178,12.178,0,0,0-12.164-12.165Z" fill="#12263f"/>
    </g>
    <g id="Group_91383" data-name="Group 91383">
      <rect id="Rectangle_8180" data-name="Rectangle 8180" width="202.442" height="122.288" rx="5.256" transform="translate(298.34 -1456.558)" fill="#63bce7"/>
    </g>
    <g id="Group_91385" data-name="Group 91385">
      <g id="Group_91384" data-name="Group 91384">
        <path id="Path_137205" data-name="Path 137205" d="M308.34-1339.525V-1451.3a5.271,5.271,0,0,1,5.256-5.256h-10a5.271,5.271,0,0,0-5.256,5.256v111.777a5.271,5.271,0,0,0,5.256,5.255h10A5.271,5.271,0,0,1,308.34-1339.525Z" fill="#039be5"/>
      </g>
    </g>
    <g id="Group_91387" data-name="Group 91387">
      <g id="Group_91386" data-name="Group 91386">
        <path id="Path_137206" data-name="Path 137206" d="M490.782-1339.525V-1451.3a5.271,5.271,0,0,0-5.256-5.256h10a5.271,5.271,0,0,1,5.256,5.256v111.777a5.271,5.271,0,0,1-5.256,5.255h-10A5.271,5.271,0,0,0,490.782-1339.525Z" fill="#7cd5e1"/>
      </g>
    </g>
    <g id="Group_91388" data-name="Group 91388">
      <path id="Path_137207" data-name="Path 137207" d="M495.526-1332.77H303.6a6.762,6.762,0,0,1-6.755-6.755V-1451.3a6.763,6.763,0,0,1,6.755-6.756H495.526a6.764,6.764,0,0,1,6.756,6.756v111.777A6.763,6.763,0,0,1,495.526-1332.77ZM303.6-1455.058a3.76,3.76,0,0,0-3.755,3.756v111.777a3.759,3.759,0,0,0,3.755,3.755H495.526a3.759,3.759,0,0,0,3.756-3.755V-1451.3a3.76,3.76,0,0,0-3.756-3.756Z" fill="#12263f"/>
    </g>
    <g id="Group_91389" data-name="Group 91389">
      <rect id="Rectangle_8181" data-name="Rectangle 8181" width="76.383" height="9.197" transform="translate(361.37 -1291.703)" fill="#9e9e9e"/>
    </g>
    <g id="Group_91391" data-name="Group 91391">
      <g id="Group_91390" data-name="Group 91390">
        <rect id="Rectangle_8182" data-name="Rectangle 8182" width="10" height="9.197" transform="translate(361.37 -1291.703)" fill="#12263f"/>
      </g>
    </g>
    <g id="Group_91392" data-name="Group 91392">
      <rect id="Rectangle_8183" data-name="Rectangle 8183" width="54.659" height="22.158" transform="translate(372.231 -1313.86)" fill="#cecece"/>
    </g>
    <g id="Group_91394" data-name="Group 91394">
      <g id="Group_91393" data-name="Group 91393">
        <rect id="Rectangle_8184" data-name="Rectangle 8184" width="10" height="22.158" transform="translate(372.231 -1313.861)" fill="#afafaf"/>
      </g>
    </g>
    <g id="Group_91395" data-name="Group 91395">
      <path id="Path_137208" data-name="Path 137208" d="M437.752-1281.005H361.37a1.5,1.5,0,0,1-1.5-1.5v-9.2a1.5,1.5,0,0,1,1.5-1.5h76.382a1.5,1.5,0,0,1,1.5,1.5v9.2A1.5,1.5,0,0,1,437.752-1281.005Zm-74.882-3h73.382v-6.2H362.87Z" fill="#12263f"/>
    </g>
    <g id="Group_91396" data-name="Group 91396">
      <path id="Path_137209" data-name="Path 137209" d="M426.89-1290.2H372.231a1.5,1.5,0,0,1-1.5-1.5v-22.159a1.5,1.5,0,0,1,1.5-1.5H426.89a1.5,1.5,0,0,1,1.5,1.5v22.159A1.5,1.5,0,0,1,426.89-1290.2Zm-53.159-3H425.39v-19.159H373.731Z" fill="#12263f"/>
    </g>
    <g id="Group_91399" data-name="Group 91399">
      <g id="Group_91397" data-name="Group 91397">
        <circle id="Ellipse_4244" data-name="Ellipse 4244" cx="4.5" cy="4.5" r="4.5" transform="translate(395.061 -1328.565)" fill="#9e9e9e"/>
      </g>
      <g id="Group_91398" data-name="Group 91398">
        <path id="Path_137210" data-name="Path 137210" d="M399.561-1318.065a6.007,6.007,0,0,1-6-6,6.006,6.006,0,0,1,6-6,6.007,6.007,0,0,1,6,6A6.007,6.007,0,0,1,399.561-1318.065Zm0-9a3,3,0,0,0-3,3,3,3,0,0,0,3,3,3,3,0,0,0,3-3A3,3,0,0,0,399.561-1327.065Z" fill="#12263f"/>
      </g>
    </g>
    <g id="Group_91405" data-name="Group 91405">
      <g id="Group_91402" data-name="Group 91402">
        <g id="Group_91400" data-name="Group 91400">
          <path id="Path_137211" data-name="Path 137211" d="M285.876-1246.382h-18a1.5,1.5,0,0,1-1.5-1.5,1.5,1.5,0,0,1,1.5-1.5h18a1.5,1.5,0,0,1,1.5,1.5A1.5,1.5,0,0,1,285.876-1246.382Z" fill="#12263f"/>
        </g>
        <g id="Group_91401" data-name="Group 91401">
          <path id="Path_137212" data-name="Path 137212" d="M560.268-1246.382h-18a1.5,1.5,0,0,1-1.5-1.5,1.5,1.5,0,0,1,1.5-1.5h18a1.5,1.5,0,0,1,1.5,1.5A1.5,1.5,0,0,1,560.268-1246.382Z" fill="#12263f"/>
        </g>
      </g>
      <g id="Group_91403" data-name="Group 91403">
        <path id="Path_137213" data-name="Path 137213" d="M532.067-1246.382H296.073a1.5,1.5,0,0,1-1.5-1.5,1.5,1.5,0,0,1,1.5-1.5H532.067a1.5,1.5,0,0,1,1.5,1.5A1.5,1.5,0,0,1,532.067-1246.382Z" fill="#12263f"/>
      </g>
      <g id="Group_91404" data-name="Group 91404">
        <path id="Path_137214" data-name="Path 137214" d="M560.268-1257.355h-292.4a1.5,1.5,0,0,1-1.5-1.5,1.5,1.5,0,0,1,1.5-1.5h292.4a1.5,1.5,0,0,1,1.5,1.5A1.5,1.5,0,0,1,560.268-1257.355Z" fill="#12263f"/>
      </g>
    </g>
    <g id="Group_91446" data-name="Group 91446">
      <g id="Group_91406" data-name="Group 91406">
        <rect id="Rectangle_8185" data-name="Rectangle 8185" width="30.993" height="96.521" transform="translate(308.283 -1443.674)" fill="#cecece"/>
      </g>
      <g id="Group_91407" data-name="Group 91407">
        <path id="Path_137215" data-name="Path 137215" d="M339.276-1345.653H308.283a1.5,1.5,0,0,1-1.5-1.5v-96.521a1.5,1.5,0,0,1,1.5-1.5h30.993a1.5,1.5,0,0,1,1.5,1.5v96.521A1.5,1.5,0,0,1,339.276-1345.653Zm-29.493-3h27.993v-93.521H309.783Z" fill="#12263f"/>
      </g>
      <g id="Group_91408" data-name="Group 91408">
        <rect id="Rectangle_8186" data-name="Rectangle 8186" width="68.139" height="96.521" transform="translate(346.918 -1443.674)" fill="#ffd34d"/>
      </g>
      <g id="Group_91409" data-name="Group 91409">
        <path id="Path_137216" data-name="Path 137216" d="M415.057-1345.653H346.918a1.5,1.5,0,0,1-1.5-1.5v-96.521a1.5,1.5,0,0,1,1.5-1.5h68.139a1.5,1.5,0,0,1,1.5,1.5v96.521A1.5,1.5,0,0,1,415.057-1345.653Zm-66.639-3h65.139v-93.521H348.418Z" fill="#12263f"/>
      </g>
      <g id="Group_91419" data-name="Group 91419">
        <g id="Group_91410" data-name="Group 91410">
          <path id="Path_137217" data-name="Path 137217" d="M327.919-1432.522H314.8a1.5,1.5,0,0,1-1.5-1.5,1.5,1.5,0,0,1,1.5-1.5h13.115a1.5,1.5,0,0,1,1.5,1.5A1.5,1.5,0,0,1,327.919-1432.522Z" fill="#12263f"/>
        </g>
        <g id="Group_91411" data-name="Group 91411">
          <path id="Path_137218" data-name="Path 137218" d="M327.919-1422.87H314.8a1.5,1.5,0,0,1-1.5-1.5,1.5,1.5,0,0,1,1.5-1.5h13.115a1.5,1.5,0,0,1,1.5,1.5A1.5,1.5,0,0,1,327.919-1422.87Z" fill="#12263f"/>
        </g>
        <g id="Group_91412" data-name="Group 91412">
          <path id="Path_137219" data-name="Path 137219" d="M327.919-1413.218H314.8a1.5,1.5,0,0,1-1.5-1.5,1.5,1.5,0,0,1,1.5-1.5h13.115a1.5,1.5,0,0,1,1.5,1.5A1.5,1.5,0,0,1,327.919-1413.218Z" fill="#12263f"/>
        </g>
        <g id="Group_91413" data-name="Group 91413">
          <path id="Path_137220" data-name="Path 137220" d="M327.919-1403.566H314.8a1.5,1.5,0,0,1-1.5-1.5,1.5,1.5,0,0,1,1.5-1.5h13.115a1.5,1.5,0,0,1,1.5,1.5A1.5,1.5,0,0,1,327.919-1403.566Z" fill="#12263f"/>
        </g>
        <g id="Group_91414" data-name="Group 91414">
          <path id="Path_137221" data-name="Path 137221" d="M327.919-1393.914H314.8a1.5,1.5,0,0,1-1.5-1.5,1.5,1.5,0,0,1,1.5-1.5h13.115a1.5,1.5,0,0,1,1.5,1.5A1.5,1.5,0,0,1,327.919-1393.914Z" fill="#12263f"/>
        </g>
        <g id="Group_91415" data-name="Group 91415">
          <path id="Path_137222" data-name="Path 137222" d="M327.919-1384.261H314.8a1.5,1.5,0,0,1-1.5-1.5,1.5,1.5,0,0,1,1.5-1.5h13.115a1.5,1.5,0,0,1,1.5,1.5A1.5,1.5,0,0,1,327.919-1384.261Z" fill="#12263f"/>
        </g>
        <g id="Group_91416" data-name="Group 91416">
          <path id="Path_137223" data-name="Path 137223" d="M327.919-1374.61H314.8a1.5,1.5,0,0,1-1.5-1.5,1.5,1.5,0,0,1,1.5-1.5h13.115a1.5,1.5,0,0,1,1.5,1.5A1.5,1.5,0,0,1,327.919-1374.61Z" fill="#12263f"/>
        </g>
        <g id="Group_91417" data-name="Group 91417">
          <path id="Path_137224" data-name="Path 137224" d="M327.919-1364.957H314.8a1.5,1.5,0,0,1-1.5-1.5,1.5,1.5,0,0,1,1.5-1.5h13.115a1.5,1.5,0,0,1,1.5,1.5A1.5,1.5,0,0,1,327.919-1364.957Z" fill="#12263f"/>
        </g>
        <g id="Group_91418" data-name="Group 91418">
          <path id="Path_137225" data-name="Path 137225" d="M327.919-1355.305H314.8a1.5,1.5,0,0,1-1.5-1.5,1.5,1.5,0,0,1,1.5-1.5h13.115a1.5,1.5,0,0,1,1.5,1.5A1.5,1.5,0,0,1,327.919-1355.305Z" fill="#12263f"/>
        </g>
      </g>
      <g id="Group_91431" data-name="Group 91431">
        <g id="Group_91420" data-name="Group 91420">
          <path id="Path_137226" data-name="Path 137226" d="M374.548-1435.421h-16.77a1.5,1.5,0,0,1-1.5-1.5,1.5,1.5,0,0,1,1.5-1.5h16.77a1.5,1.5,0,0,1,1.5,1.5A1.5,1.5,0,0,1,374.548-1435.421Z" fill="#12263f"/>
        </g>
        <g id="Group_91421" data-name="Group 91421">
          <path id="Path_137227" data-name="Path 137227" d="M404.865-1427.226h-38.59a1.5,1.5,0,0,1-1.5-1.5,1.5,1.5,0,0,1,1.5-1.5h38.59a1.5,1.5,0,0,1,1.5,1.5A1.5,1.5,0,0,1,404.865-1427.226Z" fill="#12263f"/>
        </g>
        <g id="Group_91422" data-name="Group 91422">
          <path id="Path_137228" data-name="Path 137228" d="M404.865-1419.031h-38.59a1.5,1.5,0,0,1-1.5-1.5,1.5,1.5,0,0,1,1.5-1.5h38.59a1.5,1.5,0,0,1,1.5,1.5A1.5,1.5,0,0,1,404.865-1419.031Z" fill="#12263f"/>
        </g>
        <g id="Group_91423" data-name="Group 91423">
          <path id="Path_137229" data-name="Path 137229" d="M404.865-1410.837h-38.59a1.5,1.5,0,0,1-1.5-1.5,1.5,1.5,0,0,1,1.5-1.5h38.59a1.5,1.5,0,0,1,1.5,1.5A1.5,1.5,0,0,1,404.865-1410.837Z" fill="#12263f"/>
        </g>
        <g id="Group_91424" data-name="Group 91424">
          <path id="Path_137230" data-name="Path 137230" d="M374.548-1402.092h-16.77a1.5,1.5,0,0,1-1.5-1.5,1.5,1.5,0,0,1,1.5-1.5h16.77a1.5,1.5,0,0,1,1.5,1.5A1.5,1.5,0,0,1,374.548-1402.092Z" fill="#12263f"/>
        </g>
        <g id="Group_91425" data-name="Group 91425">
          <path id="Path_137231" data-name="Path 137231" d="M404.865-1393.9h-38.59a1.5,1.5,0,0,1-1.5-1.5,1.5,1.5,0,0,1,1.5-1.5h38.59a1.5,1.5,0,0,1,1.5,1.5A1.5,1.5,0,0,1,404.865-1393.9Z" fill="#12263f"/>
        </g>
        <g id="Group_91426" data-name="Group 91426">
          <path id="Path_137232" data-name="Path 137232" d="M404.865-1385.7h-38.59a1.5,1.5,0,0,1-1.5-1.5,1.5,1.5,0,0,1,1.5-1.5h38.59a1.5,1.5,0,0,1,1.5,1.5A1.5,1.5,0,0,1,404.865-1385.7Z" fill="#12263f"/>
        </g>
        <g id="Group_91427" data-name="Group 91427">
          <path id="Path_137233" data-name="Path 137233" d="M374.548-1368.8h-16.77a1.5,1.5,0,0,1-1.5-1.5,1.5,1.5,0,0,1,1.5-1.5h16.77a1.5,1.5,0,0,1,1.5,1.5A1.5,1.5,0,0,1,374.548-1368.8Z" fill="#12263f"/>
        </g>
        <g id="Group_91428" data-name="Group 91428">
          <path id="Path_137234" data-name="Path 137234" d="M404.865-1360.6h-38.59a1.5,1.5,0,0,1-1.5-1.5,1.5,1.5,0,0,1,1.5-1.5h38.59a1.5,1.5,0,0,1,1.5,1.5A1.5,1.5,0,0,1,404.865-1360.6Z" fill="#12263f"/>
        </g>
        <g id="Group_91429" data-name="Group 91429">
          <path id="Path_137235" data-name="Path 137235" d="M404.865-1352.407h-38.59a1.5,1.5,0,0,1-1.5-1.5,1.5,1.5,0,0,1,1.5-1.5h38.59a1.5,1.5,0,0,1,1.5,1.5A1.5,1.5,0,0,1,404.865-1352.407Z" fill="#12263f"/>
        </g>
        <g id="Group_91430" data-name="Group 91430">
          <path id="Path_137236" data-name="Path 137236" d="M404.865-1377.508h-38.59a1.5,1.5,0,0,1-1.5-1.5,1.5,1.5,0,0,1,1.5-1.5h38.59a1.5,1.5,0,0,1,1.5,1.5A1.5,1.5,0,0,1,404.865-1377.508Z" fill="#12263f"/>
        </g>
      </g>
      <g id="Group_91432" data-name="Group 91432">
        <rect id="Rectangle_8187" data-name="Rectangle 8187" width="68.139" height="96.521" transform="translate(422.699 -1443.674)" fill="#ffd34d"/>
      </g>
      <g id="Group_91433" data-name="Group 91433">
        <path id="Path_137237" data-name="Path 137237" d="M490.839-1345.653H422.7a1.5,1.5,0,0,1-1.5-1.5v-96.521a1.5,1.5,0,0,1,1.5-1.5h68.14a1.5,1.5,0,0,1,1.5,1.5v96.521A1.5,1.5,0,0,1,490.839-1345.653Zm-66.64-3h65.14v-93.521H424.2Z" fill="#12263f"/>
      </g>
      <g id="Group_91445" data-name="Group 91445">
        <g id="Group_91434" data-name="Group 91434">
          <path id="Path_137238" data-name="Path 137238" d="M450.329-1435.421h-16.77a1.5,1.5,0,0,1-1.5-1.5,1.5,1.5,0,0,1,1.5-1.5h16.77a1.5,1.5,0,0,1,1.5,1.5A1.5,1.5,0,0,1,450.329-1435.421Z" fill="#12263f"/>
        </g>
        <g id="Group_91435" data-name="Group 91435">
          <path id="Path_137239" data-name="Path 137239" d="M480.647-1427.226H442.056a1.5,1.5,0,0,1-1.5-1.5,1.5,1.5,0,0,1,1.5-1.5h38.591a1.5,1.5,0,0,1,1.5,1.5A1.5,1.5,0,0,1,480.647-1427.226Z" fill="#12263f"/>
        </g>
        <g id="Group_91436" data-name="Group 91436">
          <path id="Path_137240" data-name="Path 137240" d="M480.647-1419.031H442.056a1.5,1.5,0,0,1-1.5-1.5,1.5,1.5,0,0,1,1.5-1.5h38.591a1.5,1.5,0,0,1,1.5,1.5A1.5,1.5,0,0,1,480.647-1419.031Z" fill="#12263f"/>
        </g>
        <g id="Group_91437" data-name="Group 91437">
          <path id="Path_137241" data-name="Path 137241" d="M480.647-1410.837H442.056a1.5,1.5,0,0,1-1.5-1.5,1.5,1.5,0,0,1,1.5-1.5h38.591a1.5,1.5,0,0,1,1.5,1.5A1.5,1.5,0,0,1,480.647-1410.837Z" fill="#12263f"/>
        </g>
        <g id="Group_91438" data-name="Group 91438">
          <path id="Path_137242" data-name="Path 137242" d="M450.329-1402.092h-16.77a1.5,1.5,0,0,1-1.5-1.5,1.5,1.5,0,0,1,1.5-1.5h16.77a1.5,1.5,0,0,1,1.5,1.5A1.5,1.5,0,0,1,450.329-1402.092Z" fill="#12263f"/>
        </g>
        <g id="Group_91439" data-name="Group 91439">
          <path id="Path_137243" data-name="Path 137243" d="M480.647-1393.9H442.056a1.5,1.5,0,0,1-1.5-1.5,1.5,1.5,0,0,1,1.5-1.5h38.591a1.5,1.5,0,0,1,1.5,1.5A1.5,1.5,0,0,1,480.647-1393.9Z" fill="#12263f"/>
        </g>
        <g id="Group_91440" data-name="Group 91440">
          <path id="Path_137244" data-name="Path 137244" d="M480.647-1385.7H442.056a1.5,1.5,0,0,1-1.5-1.5,1.5,1.5,0,0,1,1.5-1.5h38.591a1.5,1.5,0,0,1,1.5,1.5A1.5,1.5,0,0,1,480.647-1385.7Z" fill="#12263f"/>
        </g>
        <g id="Group_91441" data-name="Group 91441">
          <path id="Path_137245" data-name="Path 137245" d="M450.329-1368.8h-16.77a1.5,1.5,0,0,1-1.5-1.5,1.5,1.5,0,0,1,1.5-1.5h16.77a1.5,1.5,0,0,1,1.5,1.5A1.5,1.5,0,0,1,450.329-1368.8Z" fill="#12263f"/>
        </g>
        <g id="Group_91442" data-name="Group 91442">
          <path id="Path_137246" data-name="Path 137246" d="M480.647-1360.6H442.056a1.5,1.5,0,0,1-1.5-1.5,1.5,1.5,0,0,1,1.5-1.5h38.591a1.5,1.5,0,0,1,1.5,1.5A1.5,1.5,0,0,1,480.647-1360.6Z" fill="#12263f"/>
        </g>
        <g id="Group_91443" data-name="Group 91443">
          <path id="Path_137247" data-name="Path 137247" d="M480.647-1352.407H442.056a1.5,1.5,0,0,1-1.5-1.5,1.5,1.5,0,0,1,1.5-1.5h38.591a1.5,1.5,0,0,1,1.5,1.5A1.5,1.5,0,0,1,480.647-1352.407Z" fill="#12263f"/>
        </g>
        <g id="Group_91444" data-name="Group 91444">
          <path id="Path_137248" data-name="Path 137248" d="M480.647-1377.508H442.056a1.5,1.5,0,0,1-1.5-1.5,1.5,1.5,0,0,1,1.5-1.5h38.591a1.5,1.5,0,0,1,1.5,1.5A1.5,1.5,0,0,1,480.647-1377.508Z" fill="#12263f"/>
        </g>
      </g>
    </g>
    <g id="Group_91448" data-name="Group 91448">
      <g id="Group_91447" data-name="Group 91447">
        <rect id="Rectangle_8188" data-name="Rectangle 8188" width="86.554" height="29.514" rx="4.919" transform="translate(472.669 -1325.888)" fill="#9e9e9e"/>
      </g>
    </g>
    <g id="Group_91450" data-name="Group 91450">
      <g id="Group_91449" data-name="Group 91449">
        <rect id="Rectangle_8189" data-name="Rectangle 8189" width="86.554" height="29.514" rx="4.919" transform="translate(472.669 -1296.374)" fill="#9e9e9e"/>
      </g>
    </g>
    <g id="Group_91452" data-name="Group 91452">
      <g id="Group_91451" data-name="Group 91451">
        <rect id="Rectangle_8190" data-name="Rectangle 8190" width="86.554" height="29.514" rx="4.919" transform="translate(472.669 -1355.401)" fill="#9e9e9e"/>
      </g>
    </g>
    <g id="Group_91454" data-name="Group 91454">
      <g id="Group_91453" data-name="Group 91453">
        <path id="Path_137249" data-name="Path 137249" d="M554.3-1355.4h-10a4.919,4.919,0,0,1,4.919,4.918v19.677a4.919,4.919,0,0,1-4.919,4.918h10a4.919,4.919,0,0,0,4.919-4.918v-19.677A4.919,4.919,0,0,0,554.3-1355.4Z" fill="#cecece"/>
      </g>
    </g>
    <g id="Group_91456" data-name="Group 91456">
      <g id="Group_91455" data-name="Group 91455">
        <path id="Path_137250" data-name="Path 137250" d="M554.3-1325.887h-10a4.919,4.919,0,0,1,4.919,4.918v19.677a4.919,4.919,0,0,1-4.919,4.918h10a4.919,4.919,0,0,0,4.919-4.918v-19.677A4.919,4.919,0,0,0,554.3-1325.887Z" fill="#cecece"/>
      </g>
    </g>
    <g id="Group_91458" data-name="Group 91458">
      <g id="Group_91457" data-name="Group 91457">
        <path id="Path_137251" data-name="Path 137251" d="M554.3-1296.374h-10a4.92,4.92,0,0,1,4.919,4.919v19.676a4.919,4.919,0,0,1-4.919,4.919h10a4.919,4.919,0,0,0,4.919-4.919v-19.676A4.92,4.92,0,0,0,554.3-1296.374Z" fill="#cecece"/>
      </g>
    </g>
    <g id="Group_91460" data-name="Group 91460">
      <g id="Group_91459" data-name="Group 91459">
        <path id="Path_137252" data-name="Path 137252" d="M554.3-1324.388H477.588a6.426,6.426,0,0,1-6.419-6.419v-19.676a6.425,6.425,0,0,1,6.419-6.418H554.3a6.426,6.426,0,0,1,6.419,6.418v19.676A6.426,6.426,0,0,1,554.3-1324.388ZM477.588-1353.9a3.422,3.422,0,0,0-3.419,3.418v19.676a3.422,3.422,0,0,0,3.419,3.419H554.3a3.423,3.423,0,0,0,3.419-3.419v-19.676a3.422,3.422,0,0,0-3.419-3.418Z" fill="#12263f"/>
      </g>
    </g>
    <g id="Group_91462" data-name="Group 91462">
      <g id="Group_91461" data-name="Group 91461">
        <path id="Path_137253" data-name="Path 137253" d="M554.3-1294.874H477.588a6.425,6.425,0,0,1-6.419-6.418v-19.677a6.426,6.426,0,0,1,6.419-6.419H554.3a6.427,6.427,0,0,1,6.419,6.419v19.677A6.426,6.426,0,0,1,554.3-1294.874Zm-76.716-29.514a3.422,3.422,0,0,0-3.419,3.419v19.677a3.422,3.422,0,0,0,3.419,3.418H554.3a3.423,3.423,0,0,0,3.419-3.418v-19.677a3.423,3.423,0,0,0-3.419-3.419Z" fill="#12263f"/>
      </g>
    </g>
    <g id="Group_91464" data-name="Group 91464">
      <g id="Group_91463" data-name="Group 91463">
        <path id="Path_137254" data-name="Path 137254" d="M554.3-1265.36H477.588a6.426,6.426,0,0,1-6.419-6.419v-19.676a6.426,6.426,0,0,1,6.419-6.419H554.3a6.426,6.426,0,0,1,6.419,6.419v19.676A6.426,6.426,0,0,1,554.3-1265.36Zm-76.716-29.514a3.423,3.423,0,0,0-3.419,3.419v19.676a3.422,3.422,0,0,0,3.419,3.419H554.3a3.423,3.423,0,0,0,3.419-3.419v-19.676a3.423,3.423,0,0,0-3.419-3.419Z" fill="#12263f"/>
      </g>
    </g>
    <g id="Group_91465" data-name="Group 91465">
      <rect id="Rectangle_8191" data-name="Rectangle 8191" width="45.906" height="6.356" rx="2.415" transform="translate(481.618 -1343.823)" fill="#039be5"/>
    </g>
    <g id="Group_91466" data-name="Group 91466">
      <rect id="Rectangle_8192" data-name="Rectangle 8192" width="45.906" height="6.356" rx="2.415" transform="translate(481.618 -1314.309)" fill="#039be5"/>
    </g>
    <g id="Group_91467" data-name="Group 91467">
      <rect id="Rectangle_8193" data-name="Rectangle 8193" width="45.906" height="6.356" rx="2.415" transform="translate(481.618 -1284.795)" fill="#039be5"/>
    </g>
    <g id="Group_91468" data-name="Group 91468">
      <path id="Path_137255" data-name="Path 137255" d="M525.108-1335.966H484.032a3.92,3.92,0,0,1-3.915-3.915v-1.527a3.92,3.92,0,0,1,3.915-3.915h41.076a3.92,3.92,0,0,1,3.915,3.915v1.527A3.92,3.92,0,0,1,525.108-1335.966Zm-41.076-6.357a.927.927,0,0,0-.915.915v1.527a.927.927,0,0,0,.915.915h41.076a.927.927,0,0,0,.915-.915v-1.527a.927.927,0,0,0-.915-.915Z" fill="#12263f"/>
    </g>
    <g id="Group_91469" data-name="Group 91469">
      <path id="Path_137256" data-name="Path 137256" d="M525.108-1306.453H484.032a3.92,3.92,0,0,1-3.915-3.915v-1.526a3.92,3.92,0,0,1,3.915-3.915h41.076a3.919,3.919,0,0,1,3.915,3.915v1.526A3.919,3.919,0,0,1,525.108-1306.453Zm-41.076-6.356a.927.927,0,0,0-.915.915v1.526a.927.927,0,0,0,.915.915h41.076a.927.927,0,0,0,.915-.915v-1.526a.927.927,0,0,0-.915-.915Z" fill="#12263f"/>
    </g>
    <g id="Group_91470" data-name="Group 91470">
      <path id="Path_137257" data-name="Path 137257" d="M525.108-1276.939H484.032a3.92,3.92,0,0,1-3.915-3.915v-1.526a3.92,3.92,0,0,1,3.915-3.915h41.076a3.92,3.92,0,0,1,3.915,3.915v1.526A3.919,3.919,0,0,1,525.108-1276.939Zm-41.076-6.356a.927.927,0,0,0-.915.915v1.526a.927.927,0,0,0,.915.915h41.076a.927.927,0,0,0,.915-.915v-1.526a.927.927,0,0,0-.915-.915Z" fill="#12263f"/>
    </g>
    <g id="Group_91471" data-name="Group 91471">
      <rect id="Rectangle_8194" data-name="Rectangle 8194" width="6.356" height="6.356" rx="2.415" transform="translate(541.06 -1343.823)" fill="#ffca28"/>
    </g>
    <g id="Group_91472" data-name="Group 91472">
      <path id="Path_137258" data-name="Path 137258" d="M545-1335.966h-1.527a3.92,3.92,0,0,1-3.914-3.915v-1.527a3.919,3.919,0,0,1,3.914-3.915H545a3.92,3.92,0,0,1,3.915,3.915v1.527A3.92,3.92,0,0,1,545-1335.966Zm-1.527-6.357a.927.927,0,0,0-.914.915v1.527a.927.927,0,0,0,.914.915H545a.927.927,0,0,0,.915-.915v-1.527a.927.927,0,0,0-.915-.915Z" fill="#12263f"/>
    </g>
    <g id="Group_91473" data-name="Group 91473">
      <rect id="Rectangle_8195" data-name="Rectangle 8195" width="6.356" height="6.356" rx="2.415" transform="translate(541.06 -1314.309)" fill="#ffca28"/>
    </g>
    <g id="Group_91474" data-name="Group 91474">
      <path id="Path_137259" data-name="Path 137259" d="M545-1306.453h-1.527a3.919,3.919,0,0,1-3.914-3.915v-1.526a3.919,3.919,0,0,1,3.914-3.915H545a3.92,3.92,0,0,1,3.915,3.915v1.526A3.92,3.92,0,0,1,545-1306.453Zm-1.527-6.356a.927.927,0,0,0-.914.915v1.526a.926.926,0,0,0,.914.915H545a.927.927,0,0,0,.915-.915v-1.526a.927.927,0,0,0-.915-.915Z" fill="#12263f"/>
    </g>
    <g id="Group_91475" data-name="Group 91475">
      <rect id="Rectangle_8196" data-name="Rectangle 8196" width="6.356" height="6.356" rx="2.415" transform="translate(541.06 -1284.795)" fill="#ffca28"/>
    </g>
    <g id="Group_91476" data-name="Group 91476">
      <path id="Path_137260" data-name="Path 137260" d="M545-1276.939h-1.527a3.919,3.919,0,0,1-3.914-3.915v-1.526a3.92,3.92,0,0,1,3.914-3.915H545a3.92,3.92,0,0,1,3.915,3.915v1.526A3.92,3.92,0,0,1,545-1276.939Zm-1.527-6.356a.927.927,0,0,0-.914.915v1.526a.927.927,0,0,0,.914.915H545a.927.927,0,0,0,.915-.915v-1.526a.927.927,0,0,0-.915-.915Z" fill="#12263f"/>
    </g>
    <g id="Group_91479" data-name="Group 91479">
      <g id="Group_91477" data-name="Group 91477">
        <rect id="Rectangle_8197" data-name="Rectangle 8197" width="37.391" height="151.196" transform="translate(422.142 -1449.568) rotate(90)" fill="#ffca28"/>
      </g>
      <g id="Group_91478" data-name="Group 91478">
        <path id="Path_137261" data-name="Path 137261" d="M269.446-1412.178v-37.39a1.5,1.5,0,0,1,1.5-1.5h151.2a1.5,1.5,0,0,1,1.5,1.5v37.39a1.5,1.5,0,0,1-1.5,1.5h-151.2A1.5,1.5,0,0,1,269.446-1412.178Zm3-35.89v34.39h148.2v-34.39Z" fill="#12263f"/>
      </g>
    </g>
    <g id="Group_91491" data-name="Group 91491">
      <g id="Group_91480" data-name="Group 91480">
        <path id="Path_137262" data-name="Path 137262" d="M289.175-1424.4a10.779,10.779,0,0,1-1.812.56,8.969,8.969,0,0,1-1.823.182,7.468,7.468,0,0,1-2.683-.446,5.048,5.048,0,0,1-1.967-1.328,5.813,5.813,0,0,1-1.215-2.188,10.072,10.072,0,0,1-.414-3.038,10.147,10.147,0,0,1,.451-3.155,6.548,6.548,0,0,1,1.291-2.334,5.5,5.5,0,0,1,2.037-1.451,6.928,6.928,0,0,1,2.694-.5q.483,0,.908.021c.284.014.561.041.834.081s.548.091.828.156.57.147.871.247v2.624a8.349,8.349,0,0,0-1.742-.613,7.037,7.037,0,0,0-1.506-.183,3.741,3.741,0,0,0-1.709.36,3.145,3.145,0,0,0-1.167,1.011,4.473,4.473,0,0,0-.672,1.548,8.5,8.5,0,0,0-.215,1.973,8.578,8.578,0,0,0,.22,2.038,4.2,4.2,0,0,0,.683,1.521,2.99,2.99,0,0,0,1.183.952,4.09,4.09,0,0,0,1.71.328,4.591,4.591,0,0,0,.768-.07q.414-.069.839-.183t.839-.268q.414-.156.769-.318Z" fill="#12263f"/>
      </g>
      <g id="Group_91481" data-name="Group 91481">
        <path id="Path_137263" data-name="Path 137263" d="M298.959-1423.846l-1.978-4.516a2.132,2.132,0,0,0-.78-.973,2.092,2.092,0,0,0-1.177-.328h-.5v5.817h-2.645V-1437.9h4.1a10.257,10.257,0,0,1,2.108.2,4.393,4.393,0,0,1,1.613.661,3.089,3.089,0,0,1,1.027,1.205,4.135,4.135,0,0,1,.36,1.817,3.911,3.911,0,0,1-.226,1.376,3.09,3.09,0,0,1-.634,1.038,3.217,3.217,0,0,1-.974.7,4.489,4.489,0,0,1-1.231.376,1.757,1.757,0,0,1,.946.586,5.864,5.864,0,0,1,.861,1.382l2.247,4.71Zm-.655-9.914a1.673,1.673,0,0,0-.656-1.484,3.491,3.491,0,0,0-1.968-.452h-1.161v3.968h1.075a4.456,4.456,0,0,0,1.113-.129,2.506,2.506,0,0,0,.855-.387,1.775,1.775,0,0,0,.548-.64A1.908,1.908,0,0,0,298.3-1433.76Z" fill="#12263f"/>
      </g>
      <g id="Group_91482" data-name="Group 91482">
        <path id="Path_137264" data-name="Path 137264" d="M304.572-1423.846V-1437.9h8.463v2.237h-5.774v3.494h5.505v2.183h-5.505v3.9h5.774v2.237Z" fill="#12263f"/>
      </g>
      <g id="Group_91483" data-name="Group 91483">
        <path id="Path_137265" data-name="Path 137265" d="M323.841-1423.846l-.774-2.774h-4.9l-.8,2.774h-2.624l4.162-14.054h3.7l4.162,14.054Zm-3.193-11.473-1.85,6.537h3.677Z" fill="#12263f"/>
      </g>
      <g id="Group_91484" data-name="Group 91484">
        <path id="Path_137266" data-name="Path 137266" d="M334.217-1435.7v11.85h-2.709v-11.85h-3.85v-2.2h10.409v2.2Z" fill="#12263f"/>
      </g>
      <g id="Group_91485" data-name="Group 91485">
        <path id="Path_137267" data-name="Path 137267" d="M340.895-1423.846V-1437.9h8.462v2.237h-5.774v3.494h5.505v2.183h-5.505v3.9h5.774v2.237Z" fill="#12263f"/>
      </g>
      <g id="Group_91486" data-name="Group 91486">
        <path id="Path_137268" data-name="Path 137268" d="M362.365-1435.7v11.85h-2.709v-11.85h-3.85v-2.2h10.409v2.2Z" fill="#12263f"/>
      </g>
      <g id="Group_91487" data-name="Group 91487">
        <path id="Path_137269" data-name="Path 137269" d="M376.2-1423.846l-.774-2.774h-4.9l-.8,2.774h-2.624l4.162-14.054h3.7l4.162,14.054Zm-3.194-11.473-1.849,6.537h3.677Z" fill="#12263f"/>
      </g>
      <g id="Group_91488" data-name="Group 91488">
        <path id="Path_137270" data-name="Path 137270" d="M380.559-1423.846V-1437.9H385.1a6.294,6.294,0,0,1,3.6.839,2.89,2.89,0,0,1,1.2,2.537,4.228,4.228,0,0,1-.124,1.027,3.2,3.2,0,0,1-.381.92,3.035,3.035,0,0,1-.645.742,2.911,2.911,0,0,1-.914.505,3.243,3.243,0,0,1,1.005.339,2.971,2.971,0,0,1,.839.656,3.045,3.045,0,0,1,.57.951,3.428,3.428,0,0,1,.209,1.226,3.78,3.78,0,0,1-1.441,3.231,6.841,6.841,0,0,1-4.161,1.081Zm6.58-10.215a1.928,1.928,0,0,0-.129-.721,1.316,1.316,0,0,0-.414-.548,2.022,2.022,0,0,0-.731-.349,4.06,4.06,0,0,0-1.08-.124h-1.6v3.72h1.6a3.331,3.331,0,0,0,1.091-.156,1.979,1.979,0,0,0,.731-.43,1.6,1.6,0,0,0,.409-.629A2.312,2.312,0,0,0,387.139-1434.061Zm-2.107,8.054a3.474,3.474,0,0,0,1.113-.162,2.3,2.3,0,0,0,.8-.446,1.879,1.879,0,0,0,.489-.672,2.073,2.073,0,0,0,.167-.828,1.693,1.693,0,0,0-.683-1.43,3.461,3.461,0,0,0-2.091-.516h-1.646v4.054Z" fill="#12263f"/>
      </g>
      <g id="Group_91489" data-name="Group 91489">
        <path id="Path_137271" data-name="Path 137271" d="M393.4-1423.846V-1437.9h2.689v11.785h5.935v2.269Z" fill="#12263f"/>
      </g>
      <g id="Group_91490" data-name="Group 91490">
        <path id="Path_137272" data-name="Path 137272" d="M405.365-1423.846V-1437.9h8.462v2.237h-5.774v3.494h5.506v2.183h-5.506v3.9h5.774v2.237Z" fill="#12263f"/>
      </g>
    </g>
  </g>
</svg>
