<svg xmlns="http://www.w3.org/2000/svg" xmlns:xlink="http://www.w3.org/1999/xlink" width="540.148" height="363.187" viewBox="0 0 540.148 363.187">
  <defs>
    <linearGradient id="linear-gradient" y1="0.5" x2="1" y2="0.5" gradientUnits="objectBoundingBox">
      <stop offset="0" stop-color="#b4bbe1" stop-opacity="0.102"/>
      <stop offset="0.627" stop-color="#b4bbe1" stop-opacity="0.239"/>
      <stop offset="1" stop-color="#b4bbe1" stop-opacity="0.302"/>
    </linearGradient>
    <clipPath id="clip-path">
      <path id="Path_98621" data-name="Path 98621" d="M230.19,170.272c-11.815,0-20.049-5.316-20.049-10.087S204.8,85.673,240.519,88.078c11.789.793,9.72,67.336,9.72,72.107S242.006,170.272,230.19,170.272Z" fill="none"/>
    </clipPath>
    <linearGradient id="linear-gradient-2" x1="0.926" y1="0.075" x2="0.074" y2="0.927" xlink:href="#linear-gradient"/>
    <linearGradient id="linear-gradient-4" x1="-0.811" y1="0.513" x2="16.442" y2="0.338" gradientUnits="objectBoundingBox">
      <stop offset="0.035" stop-color="#ffa98c"/>
      <stop offset="0.317" stop-color="#feb892"/>
      <stop offset="0.86" stop-color="#fee0a3"/>
      <stop offset="1" stop-color="#feeca8"/>
    </linearGradient>
    <linearGradient id="linear-gradient-5" x1="-10.754" y1="0.585" x2="12.254" y2="0.411" xlink:href="#linear-gradient-4"/>
    <linearGradient id="linear-gradient-6" x1="1.018" y1="-1.204" x2="0.461" y2="0.63" xlink:href="#linear-gradient-4"/>
    <linearGradient id="linear-gradient-7" x1="0.297" y1="0.535" x2="2.967" y2="0.071" xlink:href="#linear-gradient-4"/>
    <linearGradient id="linear-gradient-8" x1="-0.893" y1="0.906" x2="1.955" y2="0.076" xlink:href="#linear-gradient-4"/>
    <linearGradient id="linear-gradient-9" x1="0.681" y1="-0.097" x2="0.486" y2="0.546" xlink:href="#linear-gradient-4"/>
    <linearGradient id="linear-gradient-25" x1="-0.811" y1="0.513" x2="16.44" y2="0.338" xlink:href="#linear-gradient-4"/>
    <linearGradient id="linear-gradient-26" x1="-10.752" y1="0.585" x2="12.252" y2="0.411" xlink:href="#linear-gradient-4"/>
    <radialGradient id="radial-gradient" cx="0.5" cy="0.5" r="0.31" gradientTransform="matrix(-1.221, -0.709, -1.221, 0.701, 644.198, 202.068)" gradientUnits="objectBoundingBox">
      <stop offset="0.056" stop-color="#92a3b0"/>
      <stop offset="1" stop-color="#fff"/>
    </radialGradient>
    <radialGradient id="radial-gradient-2" cx="0.5" cy="0.5" r="0.408" gradientTransform="matrix(1.495, 0.505, -0.874, 0.863, 0.189, -0.184)" gradientUnits="objectBoundingBox">
      <stop offset="0" stop-color="#fff"/>
      <stop offset="1"/>
    </radialGradient>
    <radialGradient id="radial-gradient-3" cx="0.5" cy="0.5" r="0.31" gradientTransform="matrix(-1.221, -0.709, -1.221, 0.701, 205.659, 64.486)" gradientUnits="objectBoundingBox">
      <stop offset="0" stop-color="#f5f6f8"/>
      <stop offset="0.137" stop-color="#f0f2f4"/>
      <stop offset="0.292" stop-color="#e2e6ea"/>
      <stop offset="0.455" stop-color="#ccd3da"/>
      <stop offset="0.623" stop-color="#acb9c3"/>
      <stop offset="0.712" stop-color="#99a9b5"/>
      <stop offset="0.762" stop-color="#a3b1bc"/>
      <stop offset="0.847" stop-color="#bec8d0"/>
      <stop offset="0.957" stop-color="#ebeef0"/>
      <stop offset="1" stop-color="#fff"/>
    </radialGradient>
  </defs>
  <g id="t2-i4" transform="translate(-144.852 -16025.813)">
    <g id="t2-i4-2" data-name="t2-i4" transform="translate(144.852 16025.813)">
      <g id="Group_53063" data-name="Group 53063">
        <g id="Group_53039" data-name="Group 53039">
          <path id="Path_98573" data-name="Path 98573" d="M142.115,67.595,146.3,65.16l55.93,33.719-4.189,2.434Z" fill="#c9c4d2"/>
        </g>
        <path id="Path_98574" data-name="Path 98574" d="M198.045,101.314l-.169,59.892c0,.194-.011.381-.027.561l-.005.048c-.017.165-.04.324-.07.477l-.012.061a4.387,4.387,0,0,1-.11.425c-.008.025-.017.05-.025.075a3.884,3.884,0,0,1-.143.367c-.006.012-.01.025-.016.037a3.253,3.253,0,0,1-.2.369,2.691,2.691,0,0,1-.354.438c-.031.032-.063.063-.1.093a2.472,2.472,0,0,1-.432.328h0l4.189-2.435a2.466,2.466,0,0,0,.431-.328q.049-.045.1-.093a2.788,2.788,0,0,0,.354-.438l.006-.007a3.433,3.433,0,0,0,.193-.35l.005-.012c.005-.012.01-.025.016-.038.035-.078.07-.157.1-.241.015-.04.028-.083.042-.125.008-.025.017-.05.025-.076s.016-.044.022-.068c.025-.084.048-.171.068-.261.008-.031.013-.064.02-.1l.012-.06c.006-.032.013-.062.019-.094.014-.08.026-.161.036-.244.006-.045.01-.092.015-.139l0-.049c0-.019,0-.038.006-.058.006-.079.011-.159.015-.241s0-.163,0-.247v-.014l.17-59.892Z" fill="#a8cff0"/>
        <path id="Path_98575" data-name="Path 98575" d="M142.115,67.6l55.93,33.719-.169,59.892c-.01,3.244-2.309,4.554-5.132,2.924l-45.7-27.815a11.232,11.232,0,0,1-5.094-8.828Z" fill="#fff"/>
        <path id="Path_98576" data-name="Path 98576" d="M202.248,92.541c0-.082-.006-.164-.011-.247l-.009-.114,0-.049c0-.028,0-.057-.007-.085-.008-.083-.017-.167-.028-.251s-.023-.17-.036-.256l0-.008,0-.011c-.012-.08-.026-.16-.041-.24s-.035-.177-.054-.266c-.007-.032-.015-.064-.023-.1l-.013-.056c-.009-.039-.017-.077-.027-.116-.022-.09-.046-.181-.071-.271-.018-.067-.038-.133-.058-.2l-.011-.038-.01-.034c-.027-.088-.055-.176-.085-.264s-.059-.174-.091-.261l-.018-.049-.015-.039c-.02-.055-.04-.109-.061-.163-.032-.083-.065-.166-.1-.249-.025-.059-.05-.118-.076-.177l-.014-.033-.014-.033c-.037-.083-.074-.166-.113-.248s-.086-.18-.131-.27l-.021-.041-.027-.052c-.036-.072-.073-.143-.11-.214-.048-.088-.1-.175-.148-.263-.025-.044-.049-.089-.075-.134-.01-.017-.019-.035-.03-.053-.045-.076-.094-.149-.141-.224-.067-.11-.134-.22-.205-.328-.012-.017-.022-.035-.033-.052-.1-.154-.208-.3-.317-.452l-.007-.01v0c-.075-.1-.151-.2-.228-.3-.062-.078-.125-.156-.188-.232l0-.006,0,0q-.1-.117-.2-.231c-.066-.075-.132-.149-.2-.221l-.033-.034-.034-.036c-.047-.05-.094-.1-.143-.15-.071-.072-.142-.143-.215-.213l-.066-.061-.052-.048-.107-.1c-.075-.067-.151-.133-.227-.2-.033-.028-.067-.054-.1-.081l-.052-.043-.075-.062c-.075-.058-.149-.115-.225-.171l-.162-.115-.032-.022-.028-.021c-.072-.049-.144-.1-.217-.143s-.143-.09-.216-.132l-.05-.029-45.7-27.816-.162-.091c-.07-.038-.14-.074-.209-.108l-.135-.064-.032-.015-.04-.018q-.1-.046-.2-.087c-.069-.028-.138-.054-.206-.078l-.036-.011-.031-.01c-.046-.016-.092-.032-.138-.045-.071-.022-.141-.041-.211-.059l-.1-.022-.043-.01-.065-.014c-.075-.015-.15-.027-.224-.037-.046-.006-.091-.01-.136-.014l-.046-.005-.045,0c-.081-.006-.161-.008-.24-.008-.035,0-.069,0-.1.005l-.079,0c-.027,0-.055,0-.082,0-.1.01-.2.024-.294.043l-.006,0c-.022,0-.043.013-.065.018a2.534,2.534,0,0,0-.287.079l-.022.01a2.491,2.491,0,0,0-.392.181L143.625,58.2a2.533,2.533,0,0,1,.392-.181,2.656,2.656,0,0,1,.308-.089c.023,0,.043-.013.066-.018a2.808,2.808,0,0,1,.382-.048l.08,0a3.169,3.169,0,0,1,.388.008l.047,0a4.117,4.117,0,0,1,.424.065l.043.01a4.482,4.482,0,0,1,.45.126l.032.01c.159.055.321.119.485.194l.032.016q.251.115.507.262l45.7,27.816c.173.1.343.208.511.325l.032.022q.235.165.462.348l.053.043c.147.121.291.247.434.379l.051.048c.144.136.286.278.425.424l.034.036c.147.158.292.321.432.49l.005.006q.215.259.417.533l.007.011c.121.164.237.332.35.5.072.108.139.22.207.331.057.091.115.181.169.274.026.045.05.09.076.135.089.158.176.316.257.476l.027.052q.148.294.279.592l.014.033q.128.292.237.589l.015.039q.113.3.2.609l.011.037c.059.195.111.391.157.586l.013.056c.046.2.086.4.118.6v.011c.033.2.056.4.073.6l0,.047c.016.2.024.4.024.592l-.018,6.108,4.189-2.434.017-6.109C202.252,92.695,202.251,92.618,202.248,92.541Z" fill="#0ba19f"/>
        <g id="Group_53040" data-name="Group 53040">
          <path id="Path_98577" data-name="Path 98577" d="M192.964,86.375a11.245,11.245,0,0,1,5.1,8.831l-.018,6.108L142.115,67.6l.018-6.109c.009-3.244,2.3-4.557,5.128-2.927Z" fill="#3ecfcd"/>
        </g>
        <g id="Group_53062" data-name="Group 53062">
          <g id="Group_53051" data-name="Group 53051">
            <g id="Group_53045" data-name="Group 53045">
              <g id="Group_53041" data-name="Group 53041">
                <path id="Path_98578" data-name="Path 98578" d="M165.066,110.967l-14.6-8.358v.9a.618.618,0,0,0,.057.047l14.543,8.325Z" fill="#2672ab"/>
              </g>
              <g id="Group_53042" data-name="Group 53042">
                <path id="Path_98579" data-name="Path 98579" d="M165.066,119.448l-14.6-8.358v.9c.019.013.037.035.057.047l14.543,8.325Z" fill="#2672ab"/>
              </g>
              <g id="Group_53043" data-name="Group 53043">
                <path id="Path_98580" data-name="Path 98580" d="M165.066,127.928l-14.6-8.358v.9a.618.618,0,0,0,.057.047l14.543,8.325Z" fill="#2672ab"/>
              </g>
              <g id="Group_53044" data-name="Group 53044">
                <path id="Path_98581" data-name="Path 98581" d="M158.2,132.429l-7.738-4.381v.9c.019.013.036.034.055.045l7.683,4.35Z" fill="#2672ab"/>
              </g>
            </g>
            <g id="Group_53050" data-name="Group 53050">
              <g id="Group_53046" data-name="Group 53046">
                <path id="Path_98582" data-name="Path 98582" d="M165.066,115.347l-14.6-8.358v.9a.617.617,0,0,0,.057.047l14.543,8.325Z" fill="#2672ab"/>
              </g>
              <g id="Group_53047" data-name="Group 53047">
                <path id="Path_98583" data-name="Path 98583" d="M165.066,123.828l-14.6-8.358v.9c.019.013.037.035.057.047l14.543,8.325Z" fill="#2672ab"/>
              </g>
              <g id="Group_53048" data-name="Group 53048">
                <path id="Path_98584" data-name="Path 98584" d="M150.466,123.95v.9a.618.618,0,0,0,.057.047l10.6,6.068h.657v.377l3.285,1.88v-.914Z" fill="#2672ab"/>
              </g>
              <g id="Group_53049" data-name="Group 53049">
                <path id="Path_98585" data-name="Path 98585" d="M153.678,134.254l-3.212-1.825v.9c.019.013.036.034.055.046l3.157,1.792Z" fill="#2672ab"/>
              </g>
            </g>
          </g>
          <g id="Group_53059" data-name="Group 53059">
            <g id="Group_53055" data-name="Group 53055">
              <g id="Group_53052" data-name="Group 53052">
                <path id="Path_98586" data-name="Path 98586" d="M187.453,121.869l-14.6-8.358v.9c.02.013.037.035.057.047l14.543,8.325Z" fill="#2672ab"/>
              </g>
              <g id="Group_53053" data-name="Group 53053">
                <path id="Path_98587" data-name="Path 98587" d="M187.453,130.349l-14.6-8.358v.9c.02.014.037.036.057.047l14.543,8.325Z" fill="#2672ab"/>
              </g>
              <g id="Group_53054" data-name="Group 53054">
                <path id="Path_98588" data-name="Path 98588" d="M180.908,135.088l-8.055-4.616v.9c.02.013.037.035.057.047l8,4.583Z" fill="#2672ab"/>
              </g>
            </g>
            <g id="Group_53058" data-name="Group 53058">
              <g id="Group_53056" data-name="Group 53056">
                <path id="Path_98589" data-name="Path 98589" d="M187.453,126.249l-14.6-8.358v.9c.02.013.037.035.057.047l14.543,8.325Z" fill="#2672ab"/>
              </g>
              <g id="Group_53057" data-name="Group 53057">
                <path id="Path_98590" data-name="Path 98590" d="M187.453,134.729l-14.6-8.358v.9c.02.014.037.036.057.047l14.543,8.325Z" fill="#2672ab"/>
              </g>
            </g>
          </g>
          <g id="Group_53060" data-name="Group 53060">
            <path id="Path_98591" data-name="Path 98591" d="M157.1,82.307l-.024,8.438-7.343-4.24c.007-2.33.834-3.968,2.169-4.723s3.17-.646,5.2.525" fill="#dae3f2"/>
            <path id="Path_98592" data-name="Path 98592" d="M150.572,87.962l5.654,3.265-.018,6.5a12.419,12.419,0,0,1-5.636-9.762" fill="#3ecfcd"/>
            <path id="Path_98593" data-name="Path 98593" d="M157.1,82.307a16.14,16.14,0,0,1,7.32,12.678c-.007,2.33-.834,3.963-2.169,4.723l-5.175-8.963.024-8.438" fill="#2672ab"/>
            <path id="Path_98594" data-name="Path 98594" d="M157.071,90.745l5.175,8.963c-1.33.758-3.17.641-5.2-.529l.023-8.434" fill="#b4bbe1"/>
          </g>
          <g id="Group_53061" data-name="Group 53061">
            <path id="Path_98595" data-name="Path 98595" d="M177.454,100.172l-4.028-2.325-.02,7.019,4.028,2.325.02-7.019" fill="#3ecfcd"/>
            <path id="Path_98596" data-name="Path 98596" d="M182.872,100.337l-4.031-2.327-.028,9.978,4.031,2.327.028-9.978" fill="#dae3f2"/>
            <path id="Path_98597" data-name="Path 98597" d="M188.6,100.871l-4.028-2.325-.036,12.743,4.028,2.325.036-12.743" fill="#2672ab"/>
          </g>
        </g>
      </g>
      <g id="Group_53156" data-name="Group 53156">
        <g id="Group_53087" data-name="Group 53087">
          <g id="Group_53065" data-name="Group 53065">
            <path id="Path_98598" data-name="Path 98598" d="M246.9,214c0,5.239-7.482,9.485-16.712,9.485s-16.711-4.246-16.711-9.485,7.482-9.484,16.711-9.484S246.9,208.761,246.9,214Z" fill="url(#linear-gradient)"/>
            <path id="Path_98599" data-name="Path 98599" d="M207.153,160.185l6.326,50.288.066,0c.672,4.889,7.859,8.739,16.645,8.739,9.23,0,16.712-4.246,16.712-9.484l6.326-49.541Z" fill="#347ee7"/>
            <path id="Path_98600" data-name="Path 98600" d="M253.225,160.19,246.9,209.731c0,3.839-4.012,7.141-9.789,8.631a6.163,6.163,0,0,0,1.387-3.783l6.316-49.541H207.765l-.608-4.848Z" fill="#206fce"/>
            <g id="Group_53064" data-name="Group 53064">
              <ellipse id="Ellipse_3936" data-name="Ellipse 3936" cx="23.037" cy="13.075" rx="23.037" ry="13.075" transform="translate(207.153 147.11)" fill="#d0dcfe"/>
              <ellipse id="Ellipse_3937" data-name="Ellipse 3937" cx="20.049" cy="10.087" rx="20.049" ry="10.087" transform="translate(210.141 150.098)" fill="#272c91"/>
              <ellipse id="Ellipse_3938" data-name="Ellipse 3938" cx="20.049" cy="10.087" rx="20.049" ry="10.087" transform="translate(210.141 150.098)" fill="#272c91"/>
            </g>
          </g>
          <g id="Group_53086" data-name="Group 53086">
            <g id="Group_53085" data-name="Group 53085" clip-path="url(#clip-path)">
              <g id="Group_53067" data-name="Group 53067">
                <rect id="Rectangle_5016" data-name="Rectangle 5016" width="1.521" height="8.837" rx="0.501" transform="translate(239.412 146.782) rotate(10.978)" fill="#fd9220"/>
                <g id="Group_53066" data-name="Group 53066">
                  <path id="Path_98601" data-name="Path 98601" d="M236.638,193.439c-.132.693-1.351.8-2.723.232s-2.378-1.586-2.247-2.28,1.351-.8,2.723-.232S236.769,192.745,236.638,193.439Z" fill="#9a98ed"/>
                  <path id="Path_98602" data-name="Path 98602" d="M242,136.921l-10.329,54.471,4.969,2.048,10.329-54.47Z" fill="#fbc006"/>
                  <path id="Path_98603" data-name="Path 98603" d="M246.967,138.968c-.132.694-1.351.8-2.723.232s-2.378-1.586-2.247-2.279,1.351-.8,2.723-.232S247.1,138.275,246.967,138.968Z" fill="#205ce1"/>
                </g>
              </g>
              <g id="Group_53084" data-name="Group 53084">
                <path id="Path_98604" data-name="Path 98604" d="M234.332,125.117l-.041,1.735-.02.707-.061,2.387-.01.707-.061,2.386-.02.708-.051,2.317-.02.708-.061,2.344-.02.708-.051,2.386-.02.694-.061,2.386-.021.708-.05,2.345-.021.693-.06,2.359-.011.707-.06,2.359-.021.694-.05,2.4-.021.708-.061,2.386-.02.694-.051,2.372-.02.694-.061,2.4-.02.694-.051,2.358-.02.708-.061,2.386-.01.694L232.9,183.4c-.051,2.233-1.654,3.787-3.216,3.121l-5.173-2.219a3.5,3.5,0,0,1-1.724-3.372l1.755-57.175c.06-2.026,1.409-3.524,2.87-3.191l4.849,1.1C233.49,121.94,234.372,123.411,234.332,125.117Z" fill="#205ce1"/>
                <g id="Group_53068" data-name="Group 53068">
                  <path id="Path_98605" data-name="Path 98605" d="M234.291,126.852l-.02.707a.062.062,0,0,1-.041-.014l-2.2-.568a.387.387,0,0,1-.2-.417c.031-.18.163-.319.3-.263Z" fill="#fff"/>
                </g>
                <g id="Group_53069" data-name="Group 53069">
                  <path id="Path_98606" data-name="Path 98606" d="M234.21,129.946l-.01.707a.071.071,0,0,1-.051-.014l-2.2-.582a.337.337,0,0,1-.2-.4c.031-.18.163-.319.294-.277Z" fill="#fff"/>
                </g>
                <g id="Group_53070" data-name="Group 53070">
                  <path id="Path_98607" data-name="Path 98607" d="M234.139,133.039l-.02.708c-.021,0-.031-.014-.051-.014l-2.2-.582a.345.345,0,0,1-.2-.4c.03-.194.152-.319.294-.277Z" fill="#fff"/>
                </g>
                <g id="Group_53071" data-name="Group 53071">
                  <path id="Path_98608" data-name="Path 98608" d="M234.068,136.064l-.02.708c-.021,0-.031,0-.041-.014l-2.2-.583a.336.336,0,0,1-.2-.4c.031-.194.152-.319.294-.278Z" fill="#fff"/>
                </g>
                <g id="Group_53072" data-name="Group 53072">
                  <path id="Path_98609" data-name="Path 98609" d="M233.987,139.116l-.02.708a.06.06,0,0,1-.041-.014l-2.2-.583c-.132-.027-.223-.208-.2-.4s.162-.319.3-.277Z" fill="#fff"/>
                </g>
                <g id="Group_53073" data-name="Group 53073">
                  <path id="Path_98610" data-name="Path 98610" d="M233.916,142.21l-.02.694h-.051l-2.2-.583a.385.385,0,0,1-.2-.416c.03-.18.162-.319.3-.264Z" fill="#fff"/>
                </g>
                <g id="Group_53074" data-name="Group 53074">
                  <path id="Path_98611" data-name="Path 98611" d="M233.835,145.29l-.021.708a.031.031,0,0,1-.03-.014l-2.2-.583c-.132-.027-.223-.208-.2-.4s.162-.319.3-.277Z" fill="#fff"/>
                </g>
                <g id="Group_53075" data-name="Group 53075">
                  <path id="Path_98612" data-name="Path 98612" d="M233.764,148.343l-.021.693h-.05l-2.2-.582a.352.352,0,0,1-.2-.4c.03-.194.162-.333.294-.277Z" fill="#fff"/>
                </g>
                <g id="Group_53076" data-name="Group 53076">
                  <path id="Path_98613" data-name="Path 98613" d="M233.683,151.4l-.011.707a.062.062,0,0,1-.04-.013l-2.2-.583a.336.336,0,0,1-.2-.4c.03-.2.152-.319.294-.278Z" fill="#fff"/>
                </g>
                <g id="Group_53077" data-name="Group 53077">
                  <path id="Path_98614" data-name="Path 98614" d="M233.612,154.461l-.021.694h-.04l-2.2-.583a.351.351,0,0,1-.2-.4c.03-.194.162-.333.294-.278Z" fill="#fff"/>
                </g>
                <g id="Group_53078" data-name="Group 53078">
                  <path id="Path_98615" data-name="Path 98615" d="M233.541,157.555l-.021.708a.069.069,0,0,1-.05-.014l-2.2-.583c-.131-.028-.223-.208-.2-.4s.152-.319.3-.278Z" fill="#fff"/>
                </g>
                <g id="Group_53079" data-name="Group 53079">
                  <path id="Path_98616" data-name="Path 98616" d="M233.459,160.649l-.02.694h-.01c-.01,0-.03-.014-.041-.014l-2.2-.583a.342.342,0,0,1-.2-.4c.02-.194.152-.319.294-.278Z" fill="#fff"/>
                </g>
                <g id="Group_53080" data-name="Group 53080">
                  <path id="Path_98617" data-name="Path 98617" d="M233.388,163.715l-.02.694h-.02a.071.071,0,0,1-.051-.014l-2.2-.583c-.142-.027-.223-.208-.2-.4s.163-.319.294-.277Z" fill="#fff"/>
                </g>
                <g id="Group_53081" data-name="Group 53081">
                  <path id="Path_98618" data-name="Path 98618" d="M233.307,166.809l-.02.694h-.03l-2.2-.583a.375.375,0,0,1-.2-.4c.03-.2.152-.319.3-.278Z" fill="#fff"/>
                </g>
                <g id="Group_53082" data-name="Group 53082">
                  <path id="Path_98619" data-name="Path 98619" d="M233.236,169.861l-.02.708a.031.031,0,0,1-.03-.014l-2.2-.583a.334.334,0,0,1-.2-.4c.02-.18.152-.319.294-.277Z" fill="#fff"/>
                </g>
                <g id="Group_53083" data-name="Group 53083">
                  <path id="Path_98620" data-name="Path 98620" d="M233.155,172.955l-.01.694h-.051l-2.2-.583a.352.352,0,0,1-.2-.4c.021-.194.163-.319.295-.278Z" fill="#fff"/>
                </g>
              </g>
            </g>
          </g>
        </g>
        <g id="Group_53089" data-name="Group 53089">
          <g id="Group_53088" data-name="Group 53088">
            <path id="Path_98622" data-name="Path 98622" d="M188.145,284.06l16.133,9.293L242.7,271.234l-16.009-9.346Z" fill="url(#linear-gradient-2)"/>
            <path id="Path_98623" data-name="Path 98623" d="M228,195.431l-35.9,20.678,12.178,7.007,25.741-20.969V196.6A1.348,1.348,0,0,0,228,195.431Z" fill="#b4bbe1"/>
            <path id="Path_98624" data-name="Path 98624" d="M192.094,218.032l35.7-20.562,12.851,7.415L204.954,225.44Z" fill="#dae3f2"/>
            <path id="Path_98625" data-name="Path 98625" d="M241.618,202.657a1.469,1.469,0,0,0-1.555-.148l-35.785,20.607L192.1,216.109,228,195.431a1.318,1.318,0,0,1,1.166-.075v-.008s-1.251-.613-1.745-.905a1.453,1.453,0,0,0-1.505-.108l-37.77,21.755v63.458l14.148-8.15v16.324l38.622-22.247a2.33,2.33,0,0,0,1.168-2.02l1.206-59.859S242.165,203,241.618,202.657Z" fill="#ced2ef"/>
            <path id="Path_98626" data-name="Path 98626" d="M204.278,225.4l-16.133-9.293v63.458l16.133,9.293Z" fill="#c5c8e8"/>
            <path id="Path_98627" data-name="Path 98627" d="M202.085,228.826l-12.438-7.164v4.854l12.438,7.164Z" fill="#fff"/>
            <path id="Path_98628" data-name="Path 98628" d="M202.085,235.233l-12.438-7.164v1.68l12.438,7.164Z" fill="#fff"/>
            <path id="Path_98629" data-name="Path 98629" d="M202.085,238.359l-12.438-7.164v1.68l12.438,7.164Z" fill="#fff"/>
            <path id="Path_98630" data-name="Path 98630" d="M202.085,280.6l-12.438-7.164v1.68l12.438,7.164Z" fill="#fff"/>
            <path id="Path_98631" data-name="Path 98631" d="M242.048,203.643,204.278,225.4v63.458L242.9,266.609a2.33,2.33,0,0,0,1.168-2.02V204.81A1.347,1.347,0,0,0,242.048,203.643Z" fill="#b4bbe1"/>
          </g>
        </g>
        <g id="Group_53091" data-name="Group 53091">
          <g id="Group_53090" data-name="Group 53090">
            <path id="Path_98632" data-name="Path 98632" d="M212.158,296.027l16.133,9.293L266.714,283.2,250.7,273.854Z" fill="url(#linear-gradient-2)"/>
            <path id="Path_98633" data-name="Path 98633" d="M252.012,207.4l-35.9,20.678,12.178,7.007,25.741-20.969v-5.548A1.347,1.347,0,0,0,252.012,207.4Z" fill="#b4bbe1"/>
            <path id="Path_98634" data-name="Path 98634" d="M216.107,230l35.7-20.562,12.851,7.415-35.687,20.556Z" fill="#dae3f2"/>
            <path id="Path_98635" data-name="Path 98635" d="M265.631,214.624a1.469,1.469,0,0,0-1.555-.149l-35.785,20.608-12.178-7.007,35.9-20.678a1.322,1.322,0,0,1,1.166-.076v-.007s-1.251-.614-1.745-.906a1.459,1.459,0,0,0-1.506-.108l-37.769,21.756v63.457l14.148-8.149v16.323l38.622-22.246a2.331,2.331,0,0,0,1.168-2.02l1.2-59.859S266.178,214.968,265.631,214.624Z" fill="#ced2ef"/>
            <path id="Path_98636" data-name="Path 98636" d="M228.291,237.365l-16.133-9.293V291.53l16.133,9.293Z" fill="#c5c8e8"/>
            <path id="Path_98637" data-name="Path 98637" d="M226.1,240.792l-12.438-7.164v4.854l12.438,7.164Z" fill="#fff"/>
            <path id="Path_98638" data-name="Path 98638" d="M226.1,247.2l-12.438-7.164v1.68L226.1,248.88Z" fill="#fff"/>
            <path id="Path_98639" data-name="Path 98639" d="M226.1,250.325l-12.438-7.164v1.68l12.438,7.164Z" fill="#fff"/>
            <path id="Path_98640" data-name="Path 98640" d="M226.1,292.568,213.66,285.4v1.68l12.438,7.164Z" fill="#fff"/>
            <path id="Path_98641" data-name="Path 98641" d="M266.061,215.609l-37.77,21.756v63.458l38.622-22.247a2.331,2.331,0,0,0,1.168-2.02V216.777A1.348,1.348,0,0,0,266.061,215.609Z" fill="#b4bbe1"/>
          </g>
        </g>
        <g id="Group_53100" data-name="Group 53100">
          <g id="Group_53092" data-name="Group 53092" opacity="0.9">
            <path id="Path_98642" data-name="Path 98642" d="M282.181,73.567v138.4l4.805-2.767V70.8Z" fill="url(#linear-gradient-4)"/>
            <path id="Path_98643" data-name="Path 98643" d="M282.194,73.567v138.4l-4.767-2.767V70.815Z" fill="url(#linear-gradient-5)"/>
            <path id="Path_98644" data-name="Path 98644" d="M277.427,70.815l4.767,2.752,4.792-2.767-4.792-2.767Z" fill="url(#linear-gradient-6)"/>
          </g>
          <g id="Group_53093" data-name="Group 53093" opacity="0.9">
            <path id="Path_98645" data-name="Path 98645" d="M310.936,101.3v5.51l4.806-2.767V98.53Z" fill="url(#linear-gradient-7)"/>
            <path id="Path_98646" data-name="Path 98646" d="M310.949,101.3v5.51L282.168,90.173v-5.5Z" fill="url(#linear-gradient-8)"/>
            <path id="Path_98647" data-name="Path 98647" d="M282.168,84.678,310.949,101.3l4.792-2.767L286.935,81.9Z" fill="url(#linear-gradient-9)"/>
          </g>
          <g id="Group_53094" data-name="Group 53094" opacity="0.9">
            <path id="Path_98648" data-name="Path 98648" d="M310.936,123.443v5.51l4.806-2.767v-5.51Z" fill="url(#linear-gradient-7)"/>
            <path id="Path_98649" data-name="Path 98649" d="M310.949,123.443v5.51L282.168,112.32v-5.5Z" fill="url(#linear-gradient-8)"/>
            <path id="Path_98650" data-name="Path 98650" d="M282.168,106.825l28.781,16.618,4.792-2.767-28.806-16.633Z" fill="url(#linear-gradient-9)"/>
          </g>
          <g id="Group_53095" data-name="Group 53095" opacity="0.9">
            <path id="Path_98651" data-name="Path 98651" d="M310.936,145.676v5.51l4.806-2.767v-5.51Z" fill="url(#linear-gradient-7)"/>
            <path id="Path_98652" data-name="Path 98652" d="M310.949,145.676v5.51l-28.781-16.633v-5.5Z" fill="url(#linear-gradient-8)"/>
            <path id="Path_98653" data-name="Path 98653" d="M282.168,129.058l28.781,16.618,4.792-2.767-28.806-16.633Z" fill="url(#linear-gradient-9)"/>
          </g>
          <g id="Group_53096" data-name="Group 53096" opacity="0.9">
            <path id="Path_98654" data-name="Path 98654" d="M310.936,167.823v5.51l4.806-2.767v-5.51Z" fill="url(#linear-gradient-7)"/>
            <path id="Path_98655" data-name="Path 98655" d="M310.949,167.823v5.51L282.168,156.7v-5.5Z" fill="url(#linear-gradient-8)"/>
            <path id="Path_98656" data-name="Path 98656" d="M282.168,151.2l28.781,16.618,4.792-2.767-28.806-16.633Z" fill="url(#linear-gradient-9)"/>
          </g>
          <g id="Group_53097" data-name="Group 53097" opacity="0.9">
            <path id="Path_98657" data-name="Path 98657" d="M310.936,189.883v5.51l4.806-2.767v-5.51Z" fill="url(#linear-gradient-7)"/>
            <path id="Path_98658" data-name="Path 98658" d="M310.949,189.883v5.51l-28.781-16.633v-5.5Z" fill="url(#linear-gradient-8)"/>
            <path id="Path_98659" data-name="Path 98659" d="M282.168,173.264l28.781,16.618,4.792-2.767-28.806-16.633Z" fill="url(#linear-gradient-9)"/>
          </g>
          <g id="Group_53098" data-name="Group 53098" opacity="0.9">
            <path id="Path_98660" data-name="Path 98660" d="M310.936,212.029v5.51l4.806-2.767v-5.51Z" fill="url(#linear-gradient-7)"/>
            <path id="Path_98661" data-name="Path 98661" d="M310.949,212.029v5.51l-28.781-16.633v-5.5Z" fill="url(#linear-gradient-8)"/>
            <path id="Path_98662" data-name="Path 98662" d="M282.168,195.411l28.781,16.618,4.792-2.767-28.806-16.633Z" fill="url(#linear-gradient-9)"/>
          </g>
          <g id="Group_53099" data-name="Group 53099" opacity="0.9">
            <path id="Path_98663" data-name="Path 98663" d="M315.75,92.974V231.35l4.805-2.767V90.207Z" fill="url(#linear-gradient-25)"/>
            <path id="Path_98664" data-name="Path 98664" d="M315.763,92.974V231.35L311,228.583V90.221Z" fill="url(#linear-gradient-26)"/>
            <path id="Path_98665" data-name="Path 98665" d="M311,90.221l4.767,2.752,4.792-2.767-4.792-2.767Z" fill="url(#linear-gradient-6)"/>
          </g>
        </g>
        <g id="Group_53115" data-name="Group 53115">
          <path id="Path_98666" data-name="Path 98666" d="M315.748,232.489V46.858c0-5.917,3.6-8.637,8.036-6.075l100.652,57.97c4.438,2.562,8.036,9.436,8.036,15.354V299.738Z" fill="#d1ebff"/>
          <path id="Path_98667" data-name="Path 98667" d="M433.7,299.105V113.474c0-5.917-3.6-12.791-8.036-15.354L325.015,40.151a5.433,5.433,0,0,0-4.7-.691c-.168.065-1.362.679-1.52.766l-.008,0a5.257,5.257,0,0,1,5,.552l100.652,57.97c4.438,2.562,8.036,9.436,8.036,15.354V299.738Z" fill="#a8cff0"/>
          <g id="Group_53101" data-name="Group 53101">
            <path id="Path_98668" data-name="Path 98668" d="M353.942,101.639,320.247,82.027V229.89L353.942,249.3Z" fill="#f0f8ff"/>
            <path id="Path_98669" data-name="Path 98669" d="M358.445,88.161V251.9l69.529,40.058V128.63Z" fill="#f0f8ff"/>
          </g>
          <path id="Path_98670" data-name="Path 98670" d="M433.7,125.385V113.474c0-5.917-3.6-12.791-8.036-15.354L325.015,40.151a5.433,5.433,0,0,0-4.7-.691c-.168.065-1.362.679-1.52.766l-.008,0a5.257,5.257,0,0,1,5,.552l100.652,57.97c4.438,2.562,8.036,9.436,8.036,15.354v11.911Z" fill="#d62d69"/>
          <path id="Path_98671" data-name="Path 98671" d="M424.436,98.753,323.784,40.783c-4.438-2.562-8.036.158-8.036,6.075V58.585l116.724,67.249V114.107C432.472,108.189,428.874,101.315,424.436,98.753Z" fill="#f76195"/>
          <g id="Group_53105" data-name="Group 53105">
            <g id="Group_53102" data-name="Group 53102">
              <path id="Path_98672" data-name="Path 98672" d="M408.391,139.233l-5.381-3.064v2.2l5.381,3.065Zm-6.952-3.971-12.487-7.184v2.2l12.487,7.185Zm-14.058-8.091-13-7.5v2.2l13,7.5Zm-14.569-8.408-7.766-4.592v2.2l7.766,4.593Z" fill="#2672ab"/>
              <path id="Path_98673" data-name="Path 98673" d="M404.286,132.833l6.676,3.854v-2.2l-6.676-3.854Zm-8.168-4.691,6.6,3.784v-2.2l-6.6-3.784Zm-20.066-11.581,18.5,10.674v-2.2l-18.5-10.675Zm-1.571-3.1-9.435-5.556v2.2l9.435,5.556Zm25.958,8.62-35.393-20.736v3.334l35.393,20.737Z" fill="#f76195"/>
              <path id="Path_98674" data-name="Path 98674" d="M399.365,141.388l15.048,8.625v-2.2l-15.048-8.625ZM391.2,136.7l6.6,3.784v-2.2l-6.6-3.784Zm-15.145-8.737,13.575,7.83v-2.2l-13.575-7.83Zm-1.571-3.1-9.435-5.556v2.2l9.435,5.557Z" fill="#2672ab"/>
              <path id="Path_98675" data-name="Path 98675" d="M411.861,151.725,395.8,142.5v2.2l16.056,9.228ZM394.234,141.59l-12.487-7.184v2.2l12.487,7.185ZM380.176,133.5l-11.506-6.69v2.2l11.506,6.689ZM367.1,125.9l-2.054-1.22v2.2l2.054,1.22Z" fill="#2672ab"/>
              <path id="Path_98676" data-name="Path 98676" d="M394.724,154.591l16.238,9.38v-2.2L394.724,152.4Zm-3.527-2.008,1.957,1.1v-2.2l-1.957-1.1Zm-15.145-8.738,13.575,7.831v-2.2l-13.575-7.831Zm-1.571-3.1-9.435-5.556v2.2l9.435,5.557Z" fill="#2672ab"/>
              <path id="Path_98677" data-name="Path 98677" d="M417.671,170.937l-12.6-7.3v2.2l12.6,7.3ZM403.5,162.73l-12.488-7.184v2.2l12.488,7.185Zm-14.058-8.091-9.538-5.574v2.2l9.538,5.574Zm-11.108-6.481-13.284-7.816v2.2l13.284,7.816Z" fill="#2672ab"/>
              <path id="Path_98678" data-name="Path 98678" d="M399.365,167.676l11.6,6.7v-2.2l-11.6-6.7Zm-8.168-4.69,6.6,3.783v-2.2l-6.6-3.783Zm-15.145-8.738,13.575,7.83v-2.2l-13.575-7.831Zm-1.571-3.1-9.435-5.556v2.2l9.435,5.557Z" fill="#2672ab"/>
            </g>
            <g id="Group_53103" data-name="Group 53103">
              <path id="Path_98679" data-name="Path 98679" d="M408.838,196.375l-5.828-3.225v2.2l5.828,3.224Zm-7.4-4.132-12.487-7.184v2.2l12.487,7.184Zm-14.058-8.091-13-7.5v2.2l13,7.5Zm-14.569-8.407-7.766-4.593v2.2l7.766,4.593Z" fill="#2672ab"/>
              <path id="Path_98680" data-name="Path 98680" d="M404.286,189.814l10.574,5.942v-2.2l-10.574-5.942Zm-8.168-4.69,6.6,3.783v-2.2l-6.6-3.783Zm-20.066-11.582,18.5,10.675v-2.2l-18.5-10.674Zm-1.571-3.1-9.435-5.556v2.2l9.435,5.557Zm25.958,8.62-35.393-20.736v3.334l35.393,20.736Z" fill="#f76195"/>
              <path id="Path_98681" data-name="Path 98681" d="M399.365,198.369l15.495,8.785v-2.2l-15.495-8.785Zm-8.168-4.69,6.6,3.783v-2.2l-6.6-3.783Zm-15.145-8.738,13.575,7.831v-2.2l-13.575-7.831Zm-1.571-3.1-9.435-5.556v2.2l9.435,5.557Z" fill="#2672ab"/>
              <path id="Path_98682" data-name="Path 98682" d="M412.308,208.866l-16.5-9.388v2.2l16.5,9.388Zm-18.074-10.294-12.487-7.185v2.2l12.487,7.184Zm-14.058-8.092-11.506-6.689v2.2l11.506,6.689Zm-13.076-7.6-2.054-1.221v2.2l2.054,1.221Z" fill="#2672ab"/>
            </g>
            <g id="Group_53104" data-name="Group 53104">
              <path id="Path_98683" data-name="Path 98683" d="M412.682,235.234l-9.672-5.458v2.2l9.672,5.458Zm-11.243-6.365-12.487-7.184v2.2l12.487,7.185Zm-14.058-8.091-15.337-8.871v2.2l15.337,8.871ZM370.474,211l-5.428-3.222v2.2l5.428,3.223Z" fill="#2672ab"/>
              <path id="Path_98684" data-name="Path 98684" d="M404.286,226.44l6.676,3.854v-2.2l-6.676-3.854Zm-8.168-4.691,6.6,3.784v-2.2l-6.6-3.784Zm-20.066-11.581,18.5,10.674v-2.2l-18.5-10.675Zm-1.571-3.1-9.435-5.556v2.2l9.435,5.557Zm25.958,7.5-35.393-20.736v3.334l35.393,20.736Z" fill="#f76195"/>
              <path id="Path_98685" data-name="Path 98685" d="M394.631,232.337l15.519,8.849v-2.2l-15.519-8.848ZM391.2,230.3l1.863,1.127v-2.2l-1.863-1.127Zm-15.145-8.737,13.575,7.83v-2.2l-13.575-7.83Zm-1.571-3.1-9.435-5.556v2.2l9.435,5.557Z" fill="#2672ab"/>
              <path id="Path_98686" data-name="Path 98686" d="M412.682,245.745,395.8,236.1v2.2l16.877,9.641ZM394.234,235.2l-12.487-7.184v2.2l12.487,7.185Zm-14.058-8.091-1.946-1.136v2.2l1.946,1.135Zm-3.517-2.043-11.613-6.774v2.2l11.613,6.774Z" fill="#2672ab"/>
              <path id="Path_98687" data-name="Path 98687" d="M394.234,261.345l-12.487-7.185v2.2l12.487,7.184Zm-14.058-8.092-1.946-1.135v2.2l1.946,1.135Zm-3.517-2.042-11.613-6.774v2.2l11.613,6.775Z" fill="#2672ab"/>
              <path id="Path_98688" data-name="Path 98688" d="M409.119,249.07l-6.109-3.409v2.2l6.109,3.408Zm-7.68-4.316-12.487-7.184v2.2l12.487,7.184Zm-14.058-8.091-13-7.5v2.2l13,7.5Zm-14.569-8.407-7.766-4.593v2.2l7.766,4.593Z" fill="#2672ab"/>
              <path id="Path_98689" data-name="Path 98689" d="M399.365,250.88l15.87,9.038v-2.2l-15.87-9.039Zm-8.168-4.69,6.6,3.783v-2.2l-6.6-3.783Zm-15.145-8.738,13.575,7.831v-2.2l-13.575-7.831Zm-1.571-3.1-9.435-5.556v2.2l9.435,5.557Z" fill="#2672ab"/>
              <path id="Path_98690" data-name="Path 98690" d="M410.525,260.128l-14.72-8.364v2.2l14.72,8.364Zm-16.291-9.27-12.487-7.185v2.2l12.487,7.184Zm-14.058-8.092L369.8,236.795v2.2l10.381,5.971Zm-11.952-6.878-3.178-1.939v2.2l3.178,1.939Z" fill="#2672ab"/>
              <path id="Path_98691" data-name="Path 98691" d="M396.974,260.026l18.261,10.3v-2.2l-18.261-10.295Zm-5.777-3.434,4.206,2.527v-2.2L391.2,254.4Zm-15.145-8.737,13.575,7.83v-2.2l-13.575-7.831Zm-1.571-3.1-9.435-5.556v2.2l9.435,5.557Z" fill="#2672ab"/>
            </g>
          </g>
          <g id="Group_53106" data-name="Group 53106">
            <path id="Path_98692" data-name="Path 98692" d="M392.709,95.225,390.5,93.982v2.2l2.213,1.243Zm-3.783-2.15-8.083-4.654v2.2l8.083,4.654Zm-9.654-5.561-5.008-2.962v2.2l5.008,2.962Zm-6.578-3.869-7.767-4.593v2.2l7.767,4.593Z" fill="#fff"/>
            <path id="Path_98693" data-name="Path 98693" d="M400.321,92.544,364.927,71.808v3.334l35.393,20.737Z" fill="#fff"/>
          </g>
          <g id="Group_53107" data-name="Group 53107">
            <path id="Path_98694" data-name="Path 98694" d="M346.077,170.2l-7.872-4.592v2.2l7.872,4.592Zm-9.443-5.5-2.856-1.706v2.2l2.856,1.706Zm-4.427-2.613-7.766-4.593v2.2l7.766,4.593Z" fill="#f76195"/>
            <path id="Path_98695" data-name="Path 98695" d="M350.2,165.314l-25.76-15.063v3.334l25.76,15.063Z" fill="#f76195"/>
          </g>
          <g id="Group_53108" data-name="Group 53108">
            <path id="Path_98696" data-name="Path 98696" d="M350.107,110.217l-18.075-10.6v2.292l18.075,10.6Z" fill="#2672ab"/>
          </g>
          <path id="Path_98697" data-name="Path 98697" d="M330.207,99.96c0,2.209-1.561,3.1-3.487,1.988a7.686,7.686,0,0,1-3.487-6.014c0-2.21,1.562-3.1,3.487-1.988A7.681,7.681,0,0,1,330.207,99.96Z" fill="#f76195"/>
          <g id="Group_53109" data-name="Group 53109">
            <path id="Path_98698" data-name="Path 98698" d="M350.107,120.246l-18.075-10.6v2.292l18.075,10.6Z" fill="#2672ab"/>
          </g>
          <path id="Path_98699" data-name="Path 98699" d="M330.207,109.988c0,2.209-1.561,3.1-3.487,1.988a7.686,7.686,0,0,1-3.487-6.014c0-2.21,1.562-3.1,3.487-1.988A7.681,7.681,0,0,1,330.207,109.988Z" fill="#f76195"/>
          <g id="Group_53110" data-name="Group 53110">
            <path id="Path_98700" data-name="Path 98700" d="M350.107,130.086l-18.075-10.6v2.292l18.075,10.6Z" fill="#2672ab"/>
          </g>
          <path id="Path_98701" data-name="Path 98701" d="M330.207,119.828c0,2.21-1.561,3.1-3.487,1.988a7.685,7.685,0,0,1-3.487-6.014c0-2.21,1.562-3.1,3.487-1.988A7.684,7.684,0,0,1,330.207,119.828Z" fill="#f76195"/>
          <g id="Group_53111" data-name="Group 53111">
            <path id="Path_98702" data-name="Path 98702" d="M350.107,139.927l-18.075-10.6v2.292l18.075,10.6Z" fill="#2672ab"/>
          </g>
          <path id="Path_98703" data-name="Path 98703" d="M330.207,129.669c0,2.209-1.561,3.1-3.487,1.988a7.686,7.686,0,0,1-3.487-6.014c0-2.21,1.562-3.1,3.487-1.988A7.681,7.681,0,0,1,330.207,129.669Z" fill="#f76195"/>
          <g id="Group_53112" data-name="Group 53112">
            <path id="Path_98704" data-name="Path 98704" d="M350.107,149.955l-18.075-10.6v2.292l18.075,10.6Z" fill="#2672ab"/>
          </g>
          <path id="Path_98705" data-name="Path 98705" d="M330.207,139.7c0,2.209-1.561,3.1-3.487,1.988a7.686,7.686,0,0,1-3.487-6.014c0-2.21,1.562-3.1,3.487-1.988A7.681,7.681,0,0,1,330.207,139.7Z" fill="#f76195"/>
          <g id="Group_53113" data-name="Group 53113">
            <path id="Path_98706" data-name="Path 98706" d="M350.2,182.464,324.441,167.4v3.334L350.2,185.8Z" fill="#a8cff0"/>
            <path id="Path_98707" data-name="Path 98707" d="M341.532,177.4,324.441,167.4v3.334l17.091,9.994Z" fill="#2672ab"/>
            <path id="Path_98708" data-name="Path 98708" d="M350.2,189.493l-25.76-15.063v3.334l25.76,15.063Z" fill="#a8cff0"/>
            <path id="Path_98709" data-name="Path 98709" d="M345.89,186.963,324.441,174.43v3.334L345.89,190.3Z" fill="#2672ab"/>
            <path id="Path_98710" data-name="Path 98710" d="M350.2,196.522l-25.76-15.063v3.334l25.76,15.063Z" fill="#a8cff0"/>
            <path id="Path_98711" data-name="Path 98711" d="M334.268,187.2l-9.828-5.745v3.334l9.828,5.746Z" fill="#2672ab"/>
            <path id="Path_98712" data-name="Path 98712" d="M350.2,203.551l-25.76-15.063v3.334l25.76,15.063Z" fill="#a8cff0"/>
            <path id="Path_98713" data-name="Path 98713" d="M341.532,198.482l-17.091-9.994v3.334l17.091,9.994Z" fill="#2672ab"/>
            <path id="Path_98714" data-name="Path 98714" d="M350.2,210.3l-25.76-15.063v3.334l25.76,15.063Z" fill="#a8cff0"/>
            <path id="Path_98715" data-name="Path 98715" d="M329.676,198.3l-5.236-3.067v3.334l5.236,3.067Z" fill="#2672ab"/>
            <path id="Path_98716" data-name="Path 98716" d="M350.2,217.328l-25.76-15.063V205.6l25.76,15.063Z" fill="#a8cff0"/>
            <path id="Path_98717" data-name="Path 98717" d="M345.234,214.423l-20.793-12.158V205.6l20.793,12.158Z" fill="#2672ab"/>
          </g>
          <g id="Group_53114" data-name="Group 53114">
            <path id="Path_98718" data-name="Path 98718" d="M327.573,220.009l-3.071-1.773v-3.524l3.071,1.773Z" fill="#f76195"/>
            <path id="Path_98719" data-name="Path 98719" d="M333.243,223.282l-3.071-1.773v-3.524l3.071,1.773Z" fill="#f76195"/>
            <path id="Path_98720" data-name="Path 98720" d="M338.912,226.555l-3.071-1.773v-3.524l3.071,1.773Z" fill="#f76195"/>
            <path id="Path_98721" data-name="Path 98721" d="M344.582,229.829l-3.071-1.773v-3.524l3.071,1.773Z" fill="#a8cff0"/>
            <path id="Path_98722" data-name="Path 98722" d="M350.252,233.1l-3.071-1.773V227.8l3.071,1.773Z" fill="#a8cff0"/>
            <path id="Path_98723" data-name="Path 98723" d="M327.573,226.013l-3.071-1.773v-3.524l3.071,1.773Z" fill="#f76195"/>
            <path id="Path_98724" data-name="Path 98724" d="M333.243,229.286l-3.071-1.773v-3.524l3.071,1.773Z" fill="#f76195"/>
            <path id="Path_98725" data-name="Path 98725" d="M338.912,232.559l-3.071-1.773v-3.524l3.071,1.773Z" fill="#f76195"/>
            <path id="Path_98726" data-name="Path 98726" d="M344.582,235.833l-3.071-1.773v-3.524l3.071,1.773Z" fill="#f76195"/>
            <path id="Path_98727" data-name="Path 98727" d="M350.252,239.106l-3.071-1.773v-3.524l3.071,1.773Z" fill="#a8cff0"/>
          </g>
          <path id="Path_98728" data-name="Path 98728" d="M411.528,115.67c0-5.918-3.6-12.792-8.036-15.354L315.748,49.78V232.489l95.78,55.183Z" fill="#084c94" opacity="0.2"/>
        </g>
        <g id="Group_53130" data-name="Group 53130">
          <path id="Path_98729" data-name="Path 98729" d="M283.437,243.572V47.424c0-6.252,3.8-9.126,8.491-6.419l106.354,61.254c4.689,2.708,8.491,9.971,8.491,16.224V314.63Z" fill="#d1ebff"/>
          <path id="Path_98730" data-name="Path 98730" d="M408.074,313.962V117.814c0-6.252-3.8-13.516-8.491-16.223L293.229,40.337a5.739,5.739,0,0,0-4.969-.729c-.177.068-1.439.716-1.606.809l-.008.005c1.446-.7,3.281-.572,5.282.583l106.354,61.254c4.689,2.708,8.491,9.971,8.491,16.224V314.63Z" fill="#a8cff0"/>
          <g id="Group_53116" data-name="Group 53116">
            <path id="Path_98731" data-name="Path 98731" d="M323.794,105.308l-35.6-20.723v156.24l35.6,20.512Z" fill="#f0f8ff"/>
            <path id="Path_98732" data-name="Path 98732" d="M328.552,91.067V264.079l73.468,42.327V133.829Z" fill="#f0f8ff"/>
          </g>
          <path id="Path_98733" data-name="Path 98733" d="M408.074,130.4V117.814c0-6.252-3.8-13.516-8.491-16.223L293.229,40.337a5.739,5.739,0,0,0-4.969-.729c-.177.068-1.439.716-1.606.809l-.008.005c1.446-.7,3.281-.572,5.282.583l106.354,61.254c4.689,2.708,8.491,9.971,8.491,16.224v12.585Z" fill="#fc0"/>
          <path id="Path_98734" data-name="Path 98734" d="M398.282,102.259,291.928,41.005c-4.69-2.707-8.491.167-8.491,6.419V59.815l123.336,71.059V118.483C406.773,112.23,402.971,104.967,398.282,102.259Z" fill="#ffde17"/>
          <g id="Group_53120" data-name="Group 53120">
            <g id="Group_53117" data-name="Group 53117">
              <path id="Path_98735" data-name="Path 98735" d="M381.328,145.033l-5.686-3.238v2.321l5.686,3.238Zm-7.346-4.2-13.194-7.592v2.321l13.194,7.592Zm-14.854-8.55-13.735-7.925v2.321l13.735,7.925ZM343.733,123.4l-8.206-4.853v2.321l8.206,4.854Z" fill="#2672ab"/>
              <path id="Path_98736" data-name="Path 98736" d="M376.99,138.269l7.054,4.073v-2.321l-7.054-4.073Zm-8.63-4.956,6.971,4V134.99l-6.971-4Zm-21.2-12.237L366.7,132.355v-2.321l-19.543-11.279ZM345.5,117.8l-9.97-5.871v2.32l9.97,5.872Zm27.429,9.108-37.4-21.911v3.523l37.4,21.911Z" fill="#ffde17"/>
              <path id="Path_98737" data-name="Path 98737" d="M371.79,147.309l15.9,9.114V154.1l-15.9-9.114Zm-8.63-4.956,6.971,4V144.03l-6.971-4Zm-16-9.233L361.5,141.4v-2.321L347.157,130.8Zm-1.66-3.279-9.97-5.871v2.321l9.97,5.871Z" fill="#2672ab"/>
              <path id="Path_98738" data-name="Path 98738" d="M384.994,158.232l-16.966-9.751V150.8l16.966,9.751Zm-18.626-10.709-13.194-7.591v2.321l13.194,7.591Zm-14.854-8.55L339.357,131.9v2.321l12.157,7.068ZM337.7,130.947l-2.17-1.29v2.321l2.17,1.29Z" fill="#2672ab"/>
              <path id="Path_98739" data-name="Path 98739" d="M366.887,161.261l17.157,9.911v-2.321l-17.157-9.911Zm-3.727-2.123,2.067,1.165v-2.321l-2.067-1.165Zm-16-9.232L361.5,158.18v-2.321l-14.343-8.274Zm-1.66-3.28-9.97-5.871v2.321l9.97,5.871Z" fill="#2672ab"/>
              <path id="Path_98740" data-name="Path 98740" d="M391.134,178.533l-13.319-7.714v2.321l13.319,7.714Zm-14.979-8.672-13.2-7.592v2.321l13.2,7.592Zm-14.854-8.55-10.078-5.89v2.321l10.078,5.89Zm-11.738-6.848-14.036-8.258v2.321l14.036,8.258Z" fill="#2672ab"/>
              <path id="Path_98741" data-name="Path 98741" d="M371.79,175.087l12.254,7.077v-2.321l-12.254-7.077Zm-8.63-4.957,6.971,4v-2.322l-6.971-4Zm-16-9.232,14.343,8.274v-2.321l-14.343-8.274Zm-1.66-3.28-9.97-5.871v2.321l9.97,5.872Z" fill="#2672ab"/>
            </g>
            <g id="Group_53118" data-name="Group 53118">
              <path id="Path_98742" data-name="Path 98742" d="M381.8,205.411,375.642,202v2.321l6.158,3.407Zm-7.818-4.365-13.194-7.592v2.322l13.194,7.591Zm-14.854-8.55-13.735-7.925v2.321l13.735,7.925Zm-15.395-8.883-8.206-4.853v2.321l8.206,4.853Z" fill="#2672ab"/>
              <path id="Path_98743" data-name="Path 98743" d="M376.99,198.479l11.173,6.278v-2.321l-11.173-6.278Zm-8.63-4.956,6.971,4V195.2l-6.971-4Zm-21.2-12.237L366.7,192.564v-2.321l-19.543-11.279Zm-1.66-3.28-9.97-5.871v2.321l9.97,5.871Zm27.429,9.108-37.4-21.91v3.523l37.4,21.911Z" fill="#ffde17"/>
              <path id="Path_98744" data-name="Path 98744" d="M371.79,207.518l16.373,9.283V214.48L371.79,205.2Zm-8.63-4.956,6.971,4v-2.321l-6.971-4Zm-16-9.232L361.5,201.6v-2.321l-14.343-8.274Zm-1.66-3.28-9.97-5.871V186.5l9.97,5.872Z" fill="#2672ab"/>
              <path id="Path_98745" data-name="Path 98745" d="M385.466,218.61l-17.438-9.919v2.321l17.438,9.919Zm-19.1-10.878-13.194-7.591v2.321l13.194,7.592Zm-14.854-8.549-12.157-7.069v2.322l12.157,7.068ZM337.7,191.156l-2.17-1.29v2.322l2.17,1.289Z" fill="#2672ab"/>
            </g>
            <g id="Group_53119" data-name="Group 53119">
              <path id="Path_98746" data-name="Path 98746" d="M385.862,246.471l-10.22-5.767v2.322l10.22,5.767Zm-11.88-6.725-13.194-7.591v2.321l13.194,7.591ZM359.128,231.2l-16.206-9.374v2.321l16.206,9.374Zm-17.866-10.332-5.735-3.4v2.321l5.735,3.4Z" fill="#2672ab"/>
              <path id="Path_98747" data-name="Path 98747" d="M376.99,237.179l7.054,4.073v-2.321l-7.054-4.073Zm-8.63-4.956,6.971,4V233.9l-6.971-4Zm-21.2-12.237L366.7,231.265v-2.321l-19.543-11.279Zm-1.66-3.28-9.97-5.871v2.321l9.97,5.872Zm27.429,7.92-37.4-21.91v3.523l37.4,21.911Z" fill="#ffde17"/>
              <path id="Path_98748" data-name="Path 98748" d="M366.788,243.411l16.4,9.35V250.44l-16.4-9.35Zm-3.628-2.148,1.968,1.19v-2.321l-1.968-1.191Zm-16-9.233L361.5,240.3v-2.321l-14.343-8.274Zm-1.66-3.279-9.97-5.871V225.2l9.97,5.871Z" fill="#2672ab"/>
              <path id="Path_98749" data-name="Path 98749" d="M385.862,257.578l-17.834-10.187v2.321L385.862,259.9Zm-19.494-11.145-13.194-7.591v2.321l13.194,7.591Zm-14.854-8.55-2.056-1.2v2.322l2.056,1.2Zm-3.716-2.158-12.271-7.158v2.321l12.271,7.158Z" fill="#2672ab"/>
              <path id="Path_98750" data-name="Path 98750" d="M366.368,274.062l-13.194-7.592v2.322l13.194,7.591Zm-14.854-8.55-2.056-1.2v2.321l2.056,1.2Zm-3.716-2.158L335.527,256.2v2.321l12.271,7.158Z" fill="#2672ab"/>
              <path id="Path_98751" data-name="Path 98751" d="M382.1,261.091l-6.455-3.6v2.321l6.455,3.6Zm-8.115-4.559-13.194-7.592v2.321l13.194,7.592Zm-14.854-8.55-13.735-7.925v2.321l13.735,7.925ZM343.733,239.1l-8.206-4.853v2.322l8.206,4.853Z" fill="#2672ab"/>
              <path id="Path_98752" data-name="Path 98752" d="M371.79,263l16.769,9.55v-2.321l-16.769-9.55Zm-8.63-4.956,6.971,4v-2.321l-6.971-4Zm-16-9.232L361.5,257.09v-2.321l-14.343-8.275Zm-1.66-3.28-9.97-5.871v2.321l9.97,5.871Z" fill="#2672ab"/>
              <path id="Path_98753" data-name="Path 98753" d="M383.582,272.777l-15.554-8.838v2.321l15.554,8.838Zm-17.214-9.8-13.194-7.592v2.321l13.194,7.592Zm-14.854-8.55-10.969-6.31v2.321l10.969,6.31Zm-12.628-7.268-3.359-2.049v2.322l3.359,2.048Z" fill="#2672ab"/>
              <path id="Path_98754" data-name="Path 98754" d="M369.264,272.668l19.295,10.879v-2.321l-19.295-10.879Zm-6.1-3.628,4.444,2.67v-2.321l-4.444-2.67Zm-16-9.232,14.343,8.274v-2.321l-14.343-8.274Zm-1.66-3.28-9.97-5.871v2.321l9.97,5.871Z" fill="#2672ab"/>
            </g>
          </g>
          <g id="Group_53121" data-name="Group 53121">
            <path id="Path_98755" data-name="Path 98755" d="M364.758,98.531l-2.339-1.313v2.321l2.339,1.313Zm-4-2.271-8.541-4.918v2.321l8.541,4.918Zm-10.2-5.876-5.292-3.13v2.321l5.292,3.13Zm-6.952-4.089L335.4,81.442v2.322l8.206,4.853Z" fill="#fff"/>
            <path id="Path_98756" data-name="Path 98756" d="M372.8,95.7,335.4,73.787V77.31l37.4,21.911Z" fill="#fff"/>
          </g>
          <g id="Group_53122" data-name="Group 53122">
            <path id="Path_98757" data-name="Path 98757" d="M315.484,177.754l-8.319-4.853v2.322l8.319,4.852Zm-9.979-5.811-3.018-1.8v2.321l3.018,1.8Zm-4.677-2.761-8.207-4.853v2.322l8.207,4.853Z" fill="#ffde17"/>
            <path id="Path_98758" data-name="Path 98758" d="M319.841,172.59l-27.22-15.916V160.2l27.22,15.917Z" fill="#ffde17"/>
          </g>
          <g id="Group_53123" data-name="Group 53123">
            <path id="Path_98759" data-name="Path 98759" d="M319.742,114.373l-19.1-11.2v2.422l19.1,11.2Z" fill="#2672ab"/>
          </g>
          <path id="Path_98760" data-name="Path 98760" d="M298.715,103.534c0,2.335-1.65,3.276-3.685,2.1a8.12,8.12,0,0,1-3.684-6.355c0-2.335,1.65-3.275,3.684-2.1A8.119,8.119,0,0,1,298.715,103.534Z" fill="#ffde17"/>
          <g id="Group_53124" data-name="Group 53124">
            <path id="Path_98761" data-name="Path 98761" d="M319.742,124.969l-19.1-11.2v2.422l19.1,11.2Z" fill="#2672ab"/>
          </g>
          <path id="Path_98762" data-name="Path 98762" d="M298.715,114.13c0,2.335-1.65,3.276-3.685,2.1a8.12,8.12,0,0,1-3.684-6.355c0-2.335,1.65-3.275,3.684-2.1A8.115,8.115,0,0,1,298.715,114.13Z" fill="#ffde17"/>
          <g id="Group_53125" data-name="Group 53125">
            <path id="Path_98763" data-name="Path 98763" d="M319.742,135.367l-19.1-11.2v2.422l19.1,11.2Z" fill="#2672ab"/>
          </g>
          <path id="Path_98764" data-name="Path 98764" d="M298.715,124.528c0,2.335-1.65,3.276-3.685,2.1a8.12,8.12,0,0,1-3.684-6.355c0-2.335,1.65-3.275,3.684-2.1A8.115,8.115,0,0,1,298.715,124.528Z" fill="#ffde17"/>
          <g id="Group_53126" data-name="Group 53126">
            <path id="Path_98765" data-name="Path 98765" d="M319.742,145.765l-19.1-11.2v2.422l19.1,11.2Z" fill="#2672ab"/>
          </g>
          <path id="Path_98766" data-name="Path 98766" d="M298.715,134.926c0,2.335-1.65,3.276-3.685,2.1a8.12,8.12,0,0,1-3.684-6.355c0-2.335,1.65-3.275,3.684-2.1A8.115,8.115,0,0,1,298.715,134.926Z" fill="#ffde17"/>
          <g id="Group_53127" data-name="Group 53127">
            <path id="Path_98767" data-name="Path 98767" d="M319.742,156.361l-19.1-11.2v2.422l19.1,11.2Z" fill="#2672ab"/>
          </g>
          <path id="Path_98768" data-name="Path 98768" d="M298.715,145.522c0,2.335-1.65,3.276-3.685,2.1a8.12,8.12,0,0,1-3.684-6.355c0-2.335,1.65-3.275,3.684-2.1A8.117,8.117,0,0,1,298.715,145.522Z" fill="#ffde17"/>
          <g id="Group_53128" data-name="Group 53128">
            <path id="Path_98769" data-name="Path 98769" d="M319.841,190.713,292.621,174.8v3.523l27.22,15.917Z" fill="#a8cff0"/>
            <path id="Path_98770" data-name="Path 98770" d="M310.681,185.357,292.621,174.8v3.523l18.059,10.561Z" fill="#2672ab"/>
            <path id="Path_98771" data-name="Path 98771" d="M319.841,198.14l-27.22-15.916v3.523l27.22,15.917Z" fill="#a8cff0"/>
            <path id="Path_98772" data-name="Path 98772" d="M315.286,195.466l-22.664-13.242v3.523l22.664,13.243Z" fill="#2672ab"/>
            <path id="Path_98773" data-name="Path 98773" d="M319.841,205.567l-27.22-15.916v3.523l27.22,15.917Z" fill="#a8cff0"/>
            <path id="Path_98774" data-name="Path 98774" d="M303.006,195.722l-10.385-6.071v3.523l10.385,6.071Z" fill="#2672ab"/>
            <path id="Path_98775" data-name="Path 98775" d="M319.841,212.994l-27.22-15.916V200.6l27.22,15.917Z" fill="#a8cff0"/>
            <path id="Path_98776" data-name="Path 98776" d="M310.681,207.638l-18.059-10.56V200.6l18.059,10.56Z" fill="#2672ab"/>
            <path id="Path_98777" data-name="Path 98777" d="M319.841,220.124l-27.22-15.916v3.523l27.22,15.917Z" fill="#a8cff0"/>
            <path id="Path_98778" data-name="Path 98778" d="M298.154,207.449l-5.532-3.241v3.523l5.532,3.241Z" fill="#2672ab"/>
            <path id="Path_98779" data-name="Path 98779" d="M319.841,227.551l-27.22-15.916v3.523l27.22,15.917Z" fill="#a8cff0"/>
            <path id="Path_98780" data-name="Path 98780" d="M314.592,224.482l-21.971-12.846v3.523L314.592,228Z" fill="#2672ab"/>
          </g>
          <g id="Group_53129" data-name="Group 53129">
            <path id="Path_98781" data-name="Path 98781" d="M295.931,230.384l-3.245-1.874v-3.724l3.245,1.874Z" fill="#ffde17"/>
            <path id="Path_98782" data-name="Path 98782" d="M301.922,233.843l-3.245-1.874v-3.724l3.245,1.874Z" fill="#ffde17"/>
            <path id="Path_98783" data-name="Path 98783" d="M307.913,237.3l-3.245-1.874V231.7l3.245,1.874Z" fill="#ffde17"/>
            <path id="Path_98784" data-name="Path 98784" d="M313.9,240.76l-3.245-1.874v-3.724l3.245,1.874Z" fill="#a8cff0"/>
            <path id="Path_98785" data-name="Path 98785" d="M319.895,244.219l-3.245-1.873v-3.724l3.245,1.874Z" fill="#a8cff0"/>
            <path id="Path_98786" data-name="Path 98786" d="M295.931,236.728l-3.245-1.874v-3.724L295.931,233Z" fill="#ffde17"/>
            <path id="Path_98787" data-name="Path 98787" d="M301.922,240.187l-3.245-1.874V234.59l3.245,1.874Z" fill="#ffde17"/>
            <path id="Path_98788" data-name="Path 98788" d="M307.913,243.646l-3.245-1.874v-3.724l3.245,1.874Z" fill="#ffde17"/>
            <path id="Path_98789" data-name="Path 98789" d="M313.9,247.1l-3.245-1.874v-3.724l3.245,1.874Z" fill="#ffde17"/>
            <path id="Path_98790" data-name="Path 98790" d="M319.895,250.563l-3.245-1.874v-3.724l3.245,1.874Z" fill="#a8cff0"/>
          </g>
          <path id="Path_98791" data-name="Path 98791" d="M384.579,121.922c0-6.253-3.8-13.517-8.492-16.224l-92.65-53.362V243.572l101.142,58.271Z" fill="#084c94" opacity="0.2"/>
        </g>
        <path id="Path_98792" data-name="Path 98792" d="M249.359,255.8V49.419c0-6.579,4-9.6,8.934-6.754L370.2,107.116c4.934,2.849,8.934,10.491,8.934,17.07V330.573Z" fill="#d1ebff"/>
        <path id="Path_98793" data-name="Path 98793" d="M380.5,329.869V123.483c0-6.579-4-14.222-8.934-17.071L259.662,41.961a6.037,6.037,0,0,0-5.228-.767c-.187.072-1.514.754-1.69.851l-.008.005c1.522-.739,3.453-.6,5.557.615L370.2,107.116c4.934,2.849,8.934,10.491,8.934,17.07V330.573Z" fill="#a8cff0"/>
        <g id="Group_53131" data-name="Group 53131">
          <path id="Path_98794" data-name="Path 98794" d="M291.823,110.324l-37.462-21.8v164.4L291.823,274.5Z" fill="#fff"/>
          <path id="Path_98795" data-name="Path 98795" d="M296.829,95.34V277.382l77.3,44.537V140.333Z" fill="#fff"/>
        </g>
        <path id="Path_98796" data-name="Path 98796" d="M380.5,136.725V123.483c0-6.579-4-14.222-8.934-17.071L259.662,41.961a6.037,6.037,0,0,0-5.228-.767c-.187.072-1.514.754-1.69.851l-.008.005c1.522-.739,3.453-.6,5.557.615L370.2,107.116c4.934,2.849,8.934,10.491,8.934,17.07v13.243Z" fill="#0ba19f"/>
        <path id="Path_98797" data-name="Path 98797" d="M370.2,107.116,258.293,42.665c-4.934-2.849-8.934.175-8.934,6.754V62.457l129.774,74.767V124.186C379.133,117.607,375.133,109.965,370.2,107.116Z" fill="#3ecfcd"/>
        <g id="Group_53135" data-name="Group 53135">
          <g id="Group_53132" data-name="Group 53132">
            <path id="Path_98798" data-name="Path 98798" d="M352.36,152.122l-5.983-3.407v2.442l5.983,3.408Zm-7.729-4.415-13.883-7.988v2.442l13.883,7.988Zm-15.63-9-14.451-8.339v2.442L329,141.153Zm-16.2-9.347-8.634-5.107V126.7l8.634,5.106Z" fill="#2672ab"/>
            <path id="Path_98799" data-name="Path 98799" d="M347.8,145.006l7.422,4.285v-2.442l-7.422-4.285Zm-9.081-5.215L346.05,144v-2.443l-7.335-4.207ZM316.4,126.915l20.564,11.868V136.34L316.4,124.473Zm-1.746-3.451-10.49-6.177v2.442l10.49,6.178Zm28.86,9.584-39.35-23.054V113.7l39.35,23.056Z" fill="#3ecfcd"/>
            <path id="Path_98800" data-name="Path 98800" d="M342.324,154.517l16.731,9.59v-2.442l-16.731-9.59Zm-9.08-5.215,7.334,4.207v-2.442l-7.334-4.207ZM316.4,139.588l15.092,8.706v-2.442L316.4,137.146Zm-1.746-3.451-10.49-6.177V132.4l10.49,6.178Z" fill="#2672ab"/>
            <path id="Path_98801" data-name="Path 98801" d="M356.218,166.01l-17.852-10.259v2.442l17.852,10.26Zm-19.6-11.267-13.884-7.988V149.2l13.884,7.988Zm-15.63-9L308.2,138.309v2.443l12.792,7.437ZM306.452,137.3l-2.283-1.357v2.442l2.283,1.357Z" fill="#2672ab"/>
            <path id="Path_98802" data-name="Path 98802" d="M337.165,169.2l18.053,10.428v-2.443l-18.053-10.428Zm-3.921-2.234,2.175,1.225v-2.442l-2.175-1.225ZM316.4,157.25l15.092,8.706v-2.443L316.4,154.807Zm-1.746-3.451-10.49-6.178v2.442l10.49,6.178Z" fill="#2672ab"/>
            <path id="Path_98803" data-name="Path 98803" d="M362.678,187.371l-14.014-8.117V181.7l14.014,8.117Zm-15.761-9.125-13.883-7.988V172.7l13.883,7.987Zm-15.63-9-10.6-6.2v2.442l10.6,6.2Zm-12.349-7.206-14.769-8.689V155.8l14.769,8.689Z" fill="#2672ab"/>
            <path id="Path_98804" data-name="Path 98804" d="M342.324,183.745l12.894,7.446v-2.442L342.324,181.3Zm-9.08-5.215,7.334,4.207v-2.443l-7.334-4.207ZM316.4,168.816l15.092,8.706v-2.443L316.4,166.373Zm-1.746-3.451-10.49-6.178v2.442l10.49,6.178Z" fill="#2672ab"/>
          </g>
          <g id="Group_53133" data-name="Group 53133">
            <path id="Path_98805" data-name="Path 98805" d="M352.857,215.652l-6.48-3.585v2.443l6.48,3.585Zm-8.226-4.593-13.883-7.988v2.443l13.883,7.987Zm-15.63-9-14.451-8.339v2.443L329,204.505Zm-16.2-9.347-8.634-5.106v2.442l8.634,5.106Z" fill="#2672ab"/>
            <path id="Path_98806" data-name="Path 98806" d="M347.8,208.358l11.756,6.606v-2.442L347.8,205.916Zm-9.081-5.215,7.335,4.207v-2.442l-7.335-4.207ZM316.4,190.267l20.564,11.868v-2.442L316.4,187.825Zm-1.746-3.45-10.49-6.178v2.442l10.49,6.178Zm28.86,9.583-39.35-23.054v3.707l39.35,23.055Z" fill="#3ecfcd"/>
            <path id="Path_98807" data-name="Path 98807" d="M342.324,217.87l17.228,9.767V225.2l-17.228-9.768Zm-9.08-5.215,7.334,4.207v-2.443l-7.334-4.207ZM316.4,202.94l15.092,8.706V209.2L316.4,200.5Zm-1.746-3.45-10.49-6.178v2.442l10.49,6.178Z" fill="#2672ab"/>
            <path id="Path_98808" data-name="Path 98808" d="M356.714,229.541,338.366,219.1v2.442l18.348,10.438ZM336.62,218.1l-13.884-7.988v2.442l13.884,7.988Zm-15.63-9L308.2,201.661V204.1l12.792,7.437Zm-14.538-8.446-2.283-1.357v2.442l2.283,1.358Z" fill="#2672ab"/>
          </g>
          <g id="Group_53134" data-name="Group 53134">
            <path id="Path_98809" data-name="Path 98809" d="M357.131,258.856l-10.754-6.068v2.442l10.754,6.068Zm-12.5-7.076-13.883-7.988v2.442l13.883,7.988Zm-15.63-9-17.052-9.863v2.442L329,245.226Zm-18.8-10.872-6.034-3.582v2.442l6.034,3.583Z" fill="#2672ab"/>
            <path id="Path_98810" data-name="Path 98810" d="M347.8,249.079l7.422,4.285v-2.442l-7.422-4.286Zm-9.081-5.215,7.335,4.207v-2.443l-7.335-4.207ZM316.4,230.988l20.564,11.867v-2.442L316.4,228.546Zm-1.746-3.451-10.49-6.177V223.8l10.49,6.177Zm28.86,8.334-39.35-23.055v3.707l39.35,23.055Z" fill="#3ecfcd"/>
            <path id="Path_98811" data-name="Path 98811" d="M337.061,255.636l17.254,9.837v-2.442l-17.254-9.837Zm-3.817-2.261,2.071,1.253v-2.443l-2.071-1.252ZM316.4,243.661l15.092,8.706v-2.442L316.4,241.219Zm-1.746-3.451-10.49-6.177v2.442l10.49,6.178Z" fill="#2672ab"/>
            <path id="Path_98812" data-name="Path 98812" d="M357.131,270.542l-18.765-10.718v2.442l18.765,10.719ZM336.62,258.815l-13.884-7.987v2.442l13.884,7.988Zm-15.63-9-2.163-1.262V251l2.163,1.263Zm-3.91-2.27-12.911-7.532v2.442l12.911,7.532Z" fill="#2672ab"/>
            <path id="Path_98813" data-name="Path 98813" d="M336.62,287.887,322.736,279.9v2.442l13.884,7.988Zm-15.63-9-2.163-1.262v2.442l2.163,1.263Zm-3.91-2.27-12.911-7.532v2.442l12.911,7.532Z" fill="#2672ab"/>
            <path id="Path_98814" data-name="Path 98814" d="M353.169,274.239l-6.792-3.79v2.443l6.792,3.789Zm-8.538-4.8-13.883-7.987V263.9l13.883,7.987Zm-15.63-9-14.451-8.338v2.442L329,262.887ZM312.8,251.1l-8.634-5.106v2.442l8.634,5.107Z" fill="#2672ab"/>
            <path id="Path_98815" data-name="Path 98815" d="M342.325,276.252,359.969,286.3v-2.442l-17.644-10.049Zm-9.081-5.215,7.334,4.207V272.8l-7.334-4.207ZM316.4,261.322l15.092,8.707v-2.443L316.4,258.88Zm-1.746-3.45-10.49-6.178v2.442l10.49,6.178Z" fill="#2672ab"/>
            <path id="Path_98816" data-name="Path 98816" d="M354.732,286.534l-16.366-9.3v2.442l16.366,9.3ZM336.62,276.227l-13.884-7.988v2.442l13.884,7.988Zm-15.63-9-11.541-6.639v2.442l11.541,6.639ZM307.7,259.583l-3.533-2.155v2.442l3.533,2.156Z" fill="#2672ab"/>
            <path id="Path_98817" data-name="Path 98817" d="M339.666,286.42l20.3,11.446v-2.442l-20.3-11.446Zm-6.422-3.817,4.676,2.809v-2.443l-4.676-2.809ZM316.4,272.888l15.092,8.706v-2.442L316.4,270.446Zm-1.746-3.45-10.49-6.178V265.7l10.49,6.178Z" fill="#2672ab"/>
          </g>
        </g>
        <g id="Group_53136" data-name="Group 53136">
          <path id="Path_98818" data-name="Path 98818" d="M334.925,103.193l-2.46-1.382v2.442l2.46,1.383Zm-4.207-2.39-8.986-5.174v2.442l8.986,5.174ZM319.986,94.62l-5.568-3.293v2.442l5.568,3.294Zm-7.315-4.3-8.634-5.106v2.442l8.634,5.106Z" fill="#fff"/>
          <path id="Path_98819" data-name="Path 98819" d="M343.387,100.212,304.037,77.158v3.707l39.351,23.055Z" fill="#fff"/>
        </g>
        <g id="Group_53137" data-name="Group 53137">
          <path id="Path_98820" data-name="Path 98820" d="M283.079,186.551l-8.753-5.1v2.442l8.753,5.106Zm-10.5-6.114-3.176-1.9v2.442l3.176,1.9Zm-4.922-2.9-8.635-5.106v2.442l8.635,5.107Z" fill="#3ecfcd"/>
          <path id="Path_98821" data-name="Path 98821" d="M287.664,181.118l-28.64-16.747v3.707l28.64,16.747Z" fill="#3ecfcd"/>
        </g>
        <g id="Group_53138" data-name="Group 53138">
          <path id="Path_98822" data-name="Path 98822" d="M287.559,119.862l-20.1-11.789v2.549l20.1,11.789Z" fill="#2672ab"/>
        </g>
        <g id="Group_53139" data-name="Group 53139">
          <ellipse id="Ellipse_3939" data-name="Ellipse 3939" cx="12.886" cy="22.321" rx="12.886" ry="22.321" transform="matrix(0.863, -0.505, 0.505, 0.863, 250.695, 63.391)" fill="#a8cff0"/>
        </g>
        <path id="Path_98823" data-name="Path 98823" d="M274.751,93.49c-8.744-5.048-15.832-17.274-15.832-27.308,0-4.777,1.62-8.176,4.247-9.9-3.6,1.249-5.914,5.012-5.914,10.735,0,10.033,7.088,22.26,15.832,27.308,4.581,2.644,8.694,2.774,11.585.875C281.955,96.14,278.508,95.659,274.751,93.49Z" fill="#72b5e8"/>
        <path id="Path_98824" data-name="Path 98824" d="M265.434,108.457c0,2.457-1.735,3.447-3.876,2.211a8.543,8.543,0,0,1-3.877-6.687c0-2.457,1.736-3.446,3.877-2.21A8.541,8.541,0,0,1,265.434,108.457Z" fill="#3ecfcd"/>
        <g id="Group_53140" data-name="Group 53140">
          <path id="Path_98825" data-name="Path 98825" d="M287.559,131.011l-20.1-11.789v2.549l20.1,11.789Z" fill="#2672ab"/>
        </g>
        <path id="Path_98826" data-name="Path 98826" d="M265.434,119.607c0,2.456-1.735,3.446-3.876,2.21a8.543,8.543,0,0,1-3.877-6.687c0-2.456,1.736-3.446,3.877-2.21A8.542,8.542,0,0,1,265.434,119.607Z" fill="#3ecfcd"/>
        <g id="Group_53141" data-name="Group 53141">
          <path id="Path_98827" data-name="Path 98827" d="M287.559,141.952l-20.1-11.789v2.549l20.1,11.789Z" fill="#2672ab"/>
        </g>
        <path id="Path_98828" data-name="Path 98828" d="M265.434,130.547c0,2.457-1.735,3.447-3.876,2.211a8.543,8.543,0,0,1-3.877-6.687c0-2.457,1.736-3.446,3.877-2.21A8.541,8.541,0,0,1,265.434,130.547Z" fill="#3ecfcd"/>
        <g id="Group_53142" data-name="Group 53142">
          <path id="Path_98829" data-name="Path 98829" d="M287.559,152.893l-20.1-11.789v2.549l20.1,11.789Z" fill="#2672ab"/>
        </g>
        <path id="Path_98830" data-name="Path 98830" d="M265.434,141.488c0,2.457-1.735,3.447-3.876,2.21a8.541,8.541,0,0,1-3.877-6.686c0-2.457,1.736-3.446,3.877-2.21A8.54,8.54,0,0,1,265.434,141.488Z" fill="#3ecfcd"/>
        <g id="Group_53143" data-name="Group 53143">
          <path id="Path_98831" data-name="Path 98831" d="M287.559,164.042l-20.1-11.789V154.8l20.1,11.789Z" fill="#2672ab"/>
        </g>
        <path id="Path_98832" data-name="Path 98832" d="M265.434,152.637c0,2.457-1.735,3.447-3.876,2.211a8.543,8.543,0,0,1-3.877-6.687c0-2.457,1.736-3.446,3.877-2.21A8.541,8.541,0,0,1,265.434,152.637Z" fill="#3ecfcd"/>
        <g id="Group_53144" data-name="Group 53144">
          <path id="Path_98833" data-name="Path 98833" d="M287.664,200.187l-28.64-16.747v3.707l28.64,16.747Z" fill="#a8cff0"/>
          <path id="Path_98834" data-name="Path 98834" d="M278.025,194.551l-19-11.111v3.707l19,11.112Z" fill="#2672ab"/>
          <path id="Path_98835" data-name="Path 98835" d="M287.664,208l-28.64-16.747v3.707l28.64,16.747Z" fill="#a8cff0"/>
          <path id="Path_98836" data-name="Path 98836" d="M282.87,205.188l-23.847-13.934v3.707L282.87,208.9Z" fill="#2672ab"/>
          <path id="Path_98837" data-name="Path 98837" d="M287.664,215.816l-28.64-16.747v3.707l28.64,16.747Z" fill="#a8cff0"/>
          <path id="Path_98838" data-name="Path 98838" d="M269.95,205.457l-10.927-6.387v3.707l10.927,6.388Z" fill="#2672ab"/>
          <path id="Path_98839" data-name="Path 98839" d="M287.664,223.631l-28.64-16.747v3.707l28.64,16.747Z" fill="#a8cff0"/>
          <path id="Path_98840" data-name="Path 98840" d="M278.025,218l-19-11.111v3.706l19,11.112Z" fill="#2672ab"/>
          <path id="Path_98841" data-name="Path 98841" d="M287.664,231.133l-28.64-16.747v3.707l28.64,16.747Z" fill="#a8cff0"/>
          <path id="Path_98842" data-name="Path 98842" d="M264.844,217.8l-5.821-3.41v3.707l5.821,3.41Z" fill="#2672ab"/>
          <path id="Path_98843" data-name="Path 98843" d="M287.664,238.948,259.023,222.2v3.707l28.64,16.747Z" fill="#a8cff0"/>
          <path id="Path_98844" data-name="Path 98844" d="M282.141,235.718,259.023,222.2v3.706l23.118,13.518Z" fill="#2672ab"/>
        </g>
        <g id="Group_53145" data-name="Group 53145">
          <path id="Path_98845" data-name="Path 98845" d="M262.506,241.929l-3.414-1.971v-3.918l3.414,1.971Z" fill="#3ecfcd"/>
          <path id="Path_98846" data-name="Path 98846" d="M268.809,245.568l-3.414-1.971v-3.918l3.414,1.971Z" fill="#3ecfcd"/>
          <path id="Path_98847" data-name="Path 98847" d="M275.113,249.207l-3.414-1.971v-3.918l3.414,1.971Z" fill="#3ecfcd"/>
          <path id="Path_98848" data-name="Path 98848" d="M281.417,252.847,278,250.875v-3.918l3.414,1.971Z" fill="#a8cff0"/>
          <path id="Path_98849" data-name="Path 98849" d="M287.72,256.486l-3.414-1.971V250.6l3.414,1.971Z" fill="#a8cff0"/>
          <path id="Path_98850" data-name="Path 98850" d="M262.506,248.6l-3.414-1.971v-3.918l3.414,1.971Z" fill="#3ecfcd"/>
          <path id="Path_98851" data-name="Path 98851" d="M268.809,252.243l-3.414-1.971v-3.918l3.414,1.971Z" fill="#3ecfcd"/>
          <path id="Path_98852" data-name="Path 98852" d="M275.113,255.883l-3.414-1.971v-3.918l3.414,1.971Z" fill="#3ecfcd"/>
          <path id="Path_98853" data-name="Path 98853" d="M281.417,259.522,278,257.551v-3.918l3.414,1.971Z" fill="#3ecfcd"/>
          <path id="Path_98854" data-name="Path 98854" d="M287.72,263.161l-3.414-1.971v-3.918l3.414,1.971Z" fill="#a8cff0"/>
        </g>
        <ellipse id="Ellipse_3940" data-name="Ellipse 3940" cx="15.938" cy="27.607" rx="15.938" ry="27.607" transform="translate(240.535 62.556) rotate(-30.311)" fill="url(#radial-gradient)" style="mix-blend-mode: multiply;isolation: isolate"/>
        <ellipse id="Ellipse_3941" data-name="Ellipse 3941" cx="36.007" cy="62.369" rx="36.007" ry="62.369" transform="translate(284.618 194.819) rotate(-30.311)" opacity="0.7" fill="url(#radial-gradient-2)" style="mix-blend-mode: screen;isolation: isolate"/>
        <ellipse id="Ellipse_3942" data-name="Ellipse 3942" cx="49.133" cy="85.104" rx="49.133" ry="85.104" transform="matrix(0.863, -0.505, 0.505, 0.863, 267.617, 180.501)" opacity="0.3" fill="url(#radial-gradient-3)" style="mix-blend-mode: multiply;isolation: isolate"/>
        <path id="Path_98855" data-name="Path 98855" d="M341.289,308.47c-9.561,2.1-16.193,6.7-16.193,12.038,0,7.324,12.5,13.261,27.918,13.261a56.233,56.233,0,0,0,9.159-.745l35.257,19.8c2.276,1.315,6.253,1.15,8.881-.368,2.911-1.478,6.37-4.309,2.876-6.371L376.446,327.7Z" fill="#92b4d1" opacity="0.2"/>
        <g id="Group_53146" data-name="Group 53146">
          <path id="Path_98856" data-name="Path 98856" d="M409.075,342.468a7.494,7.494,0,1,1-10.151-3.042A7.494,7.494,0,0,1,409.075,342.468Z" fill="#001a46"/>
          <path id="Path_98857" data-name="Path 98857" d="M385.362,295.348l-16.223,8.741,24.2,44.646,0,0c.011.022.021.045.032.067,1.406,2.609,6.177,2.767,10.657.353s6.973-6.486,5.567-9.1c-.012-.022-.026-.042-.038-.064h0Z" fill="#084c94"/>
          <path id="Path_98858" data-name="Path 98858" d="M385.38,295.38c1.406,2.609-1.087,6.681-5.567,9.1s-9.251,2.256-10.657-.353,1.087-6.681,5.567-9.1S383.974,292.771,385.38,295.38Z" fill="#2672ab"/>
          <path id="Path_98859" data-name="Path 98859" d="M385.38,295.38l-.016-.024c.963,2.61-1.492,6.392-5.744,8.683-4.465,2.406-9.218,2.256-10.641-.328a3.219,3.219,0,0,0,.177.411c1.406,2.609,6.177,2.767,10.657.353S386.786,297.989,385.38,295.38Z" fill="#3f92d1"/>
          <path id="Path_98860" data-name="Path 98860" d="M374.739,283.5l-9.65,5.2,6.862,12.734h0l.013.027c.843,1.564,3.681,1.658,6.345.222s4.148-3.857,3.311-5.409c-.007-.013-.015-.025-.015-.025l-.006-.014Z" fill="#001a46"/>
        </g>
        <path id="Path_98861" data-name="Path 98861" d="M378.516,232.58l7.318-1.447,3.762-2.069-4.046,1.7Z" fill="#a8cff0"/>
        <g id="Group_53148" data-name="Group 53148">
          <path id="Path_98862" data-name="Path 98862" d="M278.551,94.038c0-13.343-9.426-29.6-21.054-36.315-5.606-3.237-10.7-3.663-14.473-1.741l-.012-.02-5.288,2.9,1.515,2.6a21.282,21.282,0,0,0-1.088,7.056c0,13.343,9.426,29.6,21.053,36.315a21.657,21.657,0,0,0,6.823,2.641l1.545,2.654,4.208-2.252C275.943,105.866,278.551,101.054,278.551,94.038Z" fill="#0ba19f"/>
          <ellipse id="Ellipse_3943" data-name="Ellipse 3943" cx="17.136" cy="29.682" rx="17.136" ry="29.682" transform="matrix(0.863, -0.505, 0.505, 0.863, 223.234, 67.327)" fill="#fff"/>
          <ellipse id="Ellipse_3944" data-name="Ellipse 3944" cx="17.136" cy="29.682" rx="17.136" ry="29.682" transform="translate(222.766 67.582) rotate(-30.311)" fill="#3ecfcd"/>
          <g id="Group_53147" data-name="Group 53147">
            <ellipse id="Ellipse_3945" data-name="Ellipse 3945" cx="14.88" cy="25.773" rx="14.88" ry="25.773" transform="translate(226.795 70.021) rotate(-30.311)" fill="#fff"/>
          </g>
        </g>
        <g id="Group_53149" data-name="Group 53149">
          <path id="Path_98863" data-name="Path 98863" d="M252.032,116.2c-15.8-9.124-28.662-31.3-28.662-49.439,0-8.873,3.032-15.51,8.537-18.689,5.552-3.208,12.907-2.492,20.705,2.011a46.383,46.383,0,0,1,7.669,5.614l-.774.865a45.226,45.226,0,0,0-7.475-5.473c-7.425-4.288-14.369-5-19.544-2.011-5.131,2.962-7.957,9.242-7.957,17.683,0,17.767,12.6,39.494,28.081,48.433Z" fill="#f76195"/>
        </g>
        <g id="Group_53150" data-name="Group 53150">
          <path id="Path_98864" data-name="Path 98864" d="M261.422,57.34l-4.393-1.1a.58.58,0,1,1,.281-1.126l2.26.565-.807-2.177a.581.581,0,0,1,1.089-.4Z" fill="#f76195"/>
        </g>
        <path id="Path_98865" data-name="Path 98865" d="M255.037,117.081c0,1.309-.925,1.837-2.066,1.178A4.552,4.552,0,0,1,250.9,114.7c0-1.31.925-1.837,2.066-1.178A4.551,4.551,0,0,1,255.037,117.081Z" fill="#f76195"/>
        <g id="Group_53151" data-name="Group 53151">
          <path id="Path_98866" data-name="Path 98866" d="M341.9,275.379c6.365,3.674,12.278,4.912,17.24,4.067a48.061,48.061,0,0,1-4.75-2.379c-21.789-12.58-39.452-43.046-39.452-68.049a47.635,47.635,0,0,1,.259-4.776c-3.109,3.824-4.935,9.416-4.935,16.565C310.266,240.858,324.431,265.291,341.9,275.379Z" fill="#3f92d1"/>
          <path id="Path_98867" data-name="Path 98867" d="M351.194,188.789c-10.506-6.065-20.051-6.863-27.121-3.263l-.022-.037-9.617,5.269c7.1-3.818,16.783-3.125,27.47,3.045,21.789,12.58,39.453,43.046,39.453,68.048,0,12.269-4.27,20.914-11.176,25.08l7.778-4.162c7.8-3.767,12.687-12.782,12.687-25.931C390.646,231.835,372.983,201.369,351.194,188.789Z" fill="#3f92d1"/>
          <path id="Path_98868" data-name="Path 98868" d="M341.9,193.8c-10.687-6.17-20.366-6.863-27.47-3.045l-.293.16.013.022c-7.209,4.04-11.7,12.786-11.7,25.356,0,25,17.664,55.469,39.452,68.049,11.044,6.376,21.006,6.9,28.167,2.641l0,0,.108-.058c6.906-4.166,11.176-12.811,11.176-25.08C381.357,236.849,363.693,206.383,341.9,193.8Zm17.24,85.643c-4.962.845-10.875-.393-17.24-4.067-17.473-10.088-31.638-34.521-31.638-54.572,0-7.149,1.826-12.741,4.935-16.565,5.612-6.9,15.46-7.965,26.7-1.473,17.474,10.088,31.639,34.521,31.639,54.571C373.543,270.088,367.8,277.969,359.144,279.446Z" fill="#a8cff0"/>
        </g>
        <g id="Group_53155" data-name="Group 53155">
          <g id="Group_53152" data-name="Group 53152">
            <path id="Path_98869" data-name="Path 98869" d="M182.8,227.212l.618-1a2.716,2.716,0,0,1,1.37,0,5.642,5.642,0,0,1,1.955,1.828l-1.576,3.537" fill="#eee"/>
            <path id="Path_98870" data-name="Path 98870" d="M157.537,241.293s7.616.243,9.246-.981,16.161-13.568,16.161-13.568a1.936,1.936,0,0,1,1.918.122,8.208,8.208,0,0,1,1.8,2.336s-11.285,16.474-12.833,17.472S157.853,249,157.853,249" fill="#f99c08"/>
            <path id="Path_98871" data-name="Path 98871" d="M172.146,244.426c-1.281.826-9.286,1.294-14.609,1.877l.316,2.7s14.426-1.33,15.974-2.328S186.66,229.2,186.66,229.2s-.247-.468-.611-1C184.8,229.73,173.607,243.484,172.146,244.426Z" fill="#e58a07"/>
          </g>
          <path id="Path_98872" data-name="Path 98872" d="M192.381,337.365a39.221,39.221,0,0,0,.73-6.819c.1-3.921-.879-8.1-5.253-8.8-6.842-1.09-14.107-.2-20.906.872-5.627.884-12.964.878-17.546,4.706-7.037,5.879,2.07,13.359,6.972,16.725,9.391,6.448,23,14.647,31.944,2.807A23.274,23.274,0,0,0,192.381,337.365Z" fill="#92b4d1" opacity="0.2"/>
          <path id="Path_98873" data-name="Path 98873" d="M158.547,337.345v.061a.331.331,0,0,0,.01.071.25.25,0,0,1,.021.092,2.6,2.6,0,0,0,2.3,1.726,3.17,3.17,0,0,0,.325.04.6.6,0,0,0,.131.021,10.906,10.906,0,0,0,1.3.02c.142-.01.284-.02.427-.041a10.2,10.2,0,0,0,4.1-2.234c.081-.071.122-.111.122-.111v-.356s1.249-.832,1.706-1.106c1.391-.823,3.391-1.523,5.3-2.468a5.6,5.6,0,0,0,1.34-.9c.061-.06.122-.132.183-.182a1.181,1.181,0,0,0,.112-.112c.04-.051.071-.112.112-.162.081-.112.152-.214.213-.305.03-.061.061-.112.081-.152l.071-.143a.877.877,0,0,0,.051-.152v-.01a2.489,2.489,0,0,0,.112-.721v-1.249l-11.627,4.762-6.356,2.376Z" fill="#190b05"/>
          <path id="Path_98874" data-name="Path 98874" d="M165.469,328.67a46.011,46.011,0,0,0,5.121-.631c3.173-.543,5.362-.7,5.773.291.4.96.489,1.988-2.346,3.928s-5.028,2.142-7.3,3.97a7.936,7.936,0,0,1-4.889,1.792c-1.692.117-2.834-.532-3.2-1.222-.857-1.6.03-4.636.03-4.636" fill="#7f391b"/>
          <path id="Path_98875" data-name="Path 98875" d="M169.986,339.192l-.011,1.576a1.479,1.479,0,0,0,.8,1.362,2.212,2.212,0,0,0,.686.193,24.075,24.075,0,0,0,5-.244V341.5s1.078-.12,4.254-.515a18.946,18.946,0,0,0,6.578-1.959,1.428,1.428,0,0,0,.76-1.264l-.006-1.153-12.49,2.2Z" fill="#190b05"/>
          <path id="Path_98876" data-name="Path 98876" d="M178.748,333.66a5.082,5.082,0,0,0,3.025,1.308c1.636,0,4.825-.041,5.643.532a1.342,1.342,0,0,1,.639,1.022,2.072,2.072,0,0,1-.435,1.267c-.613.9-4.743,2.249-7.85,2.495a45.909,45.909,0,0,0-4.743.449,7.233,7.233,0,0,1-3.929-.1c-1.6-.794-1.713-3.214-.732-4.809S178.748,333.66,178.748,333.66Z" fill="#7f391b"/>
          <path id="Path_98877" data-name="Path 98877" d="M161.786,218l-.254.589.386,1.95,6.214,3.127.366-.051.995-.122,1.564-.2v-2.152a2.824,2.824,0,0,1,1.614-2.62.647.647,0,0,1,.071-.03,3.018,3.018,0,0,0,1.056-.711l.092-.092c1.2-1.269,2.264-4.122,1.96-10.367a12,12,0,0,0-.8-3.94c-.9-1.736-2.822-2.883-6.782-1.8-6.6,1.828-9.484,4.823-9.819,7.413S161.786,218,161.786,218Z" fill="#ffd0a3"/>
          <path id="Path_98878" data-name="Path 98878" d="M171.057,223.288v-2.152a2.824,2.824,0,0,1,1.614-2.62c-.325.142-1.326.623-2.66,1.337-.534.286-.518,2-.518,3.638Z" fill="#f1b987"/>
          <g id="Group_53154" data-name="Group 53154">
            <g id="Group_53153" data-name="Group 53153">
              <path id="Path_98879" data-name="Path 98879" d="M181.931,234.847l11.1,5.705a1.146,1.146,0,0,0,1.618-.678l5.6-17.932a1.455,1.455,0,0,0-.7-1.712l-11.017-5.656a1.046,1.046,0,0,0-1.478.662l-5.7,18.25A1.146,1.146,0,0,0,181.931,234.847Z" fill="#0a2982"/>
              <path id="Path_98880" data-name="Path 98880" d="M182.721,234.4l9.827,5.078a1.06,1.06,0,0,0,1.5-.625l5.216-16.657c.219-.815.181-1.171-.644-1.58l-10.279-5.311a.462.462,0,0,0-.655.293L182.2,233.144A1.06,1.06,0,0,0,182.721,234.4Z" fill="#205ce1"/>
              <path id="Path_98881" data-name="Path 98881" d="M192.423,223.953l3.637,1.877a.175.175,0,0,0,.248-.11l1-3.324a.19.19,0,0,0-.091-.223l-3.638-1.877a.175.175,0,0,0-.248.11l-1,3.324A.188.188,0,0,0,192.423,223.953Zm-2.673,8.409,2.818,1.454a.135.135,0,0,0,.191-.086l2.209-7.064a.148.148,0,0,0-.071-.173l-2.817-1.454a.136.136,0,0,0-.192.086l-2.208,7.064A.146.146,0,0,0,189.75,232.362Zm-1.643-6.331,2.159,1.114a.1.1,0,0,0,.147-.066l.034-.139a.111.111,0,0,0-.054-.132l-2.16-1.114a.1.1,0,0,0-.147.066l-.033.138A.113.113,0,0,0,188.107,226.031Zm1.785,1.829a.185.185,0,0,0,.261-.117l.059-.245a.2.2,0,0,0-.1-.235l-3.825-1.974a.184.184,0,0,0-.261.117l-.059.245a.2.2,0,0,0,.1.235m-.216.713,3.825,1.974a.185.185,0,0,0,.261-.116l.059-.246a.2.2,0,0,0-.1-.235L186.075,226a.186.186,0,0,0-.261.117l-.059.245A.2.2,0,0,0,185.851,226.6Zm-.217.713,3.826,1.974a.185.185,0,0,0,.261-.116l.059-.246a.2.2,0,0,0-.1-.234l-3.825-1.974a.184.184,0,0,0-.261.116l-.059.246A.2.2,0,0,0,185.634,227.312Zm-.216.714L189.244,230a.184.184,0,0,0,.26-.117l.059-.245a.2.2,0,0,0-.1-.235l-3.826-1.974a.184.184,0,0,0-.26.116l-.059.246A.2.2,0,0,0,185.418,228.026Zm-.216.713,3.826,1.974a.184.184,0,0,0,.26-.117l.059-.245a.2.2,0,0,0-.1-.235l-3.826-1.974a.184.184,0,0,0-.26.117l-.059.245A.2.2,0,0,0,185.2,228.739Zm2.137-6.99,3.989,2.058a.192.192,0,0,0,.272-.121l1.1-3.645a.208.208,0,0,0-.1-.245l-3.99-2.059a.193.193,0,0,0-.272.122l-1.1,3.645A.208.208,0,0,0,187.339,221.749Z" fill="#fff" opacity="0.55"/>
            </g>
            <path id="Path_98882" data-name="Path 98882" d="M191.43,237.285l2.125,1.769.4.335a6.944,6.944,0,0,1,1.346-2.81,5.542,5.542,0,0,1,1.645-.742,1.315,1.315,0,0,0,.706-.474,5.239,5.239,0,0,0,.706-3.974,2.4,2.4,0,0,0-.276-.9.023.023,0,0,1-.007-.015c-.262-.451-.59-.436-.59-.436s-1.434,1.019-1.849,1.324c-.342.255-.779.75-1.114.379-.181-.189.867-1.514,1.158-2.118s-.27-1.26-.517-1.027a14.631,14.631,0,0,0-2.307,3.654C192.26,233.813,191.43,237.285,191.43,237.285Z" fill="#ffd0a3"/>
            <path id="Path_98883" data-name="Path 98883" d="M193.068,237.54l.487,1.514.4.335a6.944,6.944,0,0,1,1.346-2.81,5.542,5.542,0,0,1,1.645-.742,1.315,1.315,0,0,0,.706-.474,5.239,5.239,0,0,0,.706-3.974,2.4,2.4,0,0,0-.276-.9.023.023,0,0,1-.007-.015s-.015.372-.605.9a14.808,14.808,0,0,1-1.87,1.259,5.641,5.641,0,0,0-1.441,2.169C193.759,235.764,193.068,237.54,193.068,237.54Z" fill="#f1b987"/>
            <path id="Path_98884" data-name="Path 98884" d="M194.353,239.341l.371-1.186a.931.931,0,0,0-.046-.684,5.565,5.565,0,0,0-.972-1.5,1.465,1.465,0,0,0-1.778-.288,2.6,2.6,0,0,0-.462.9,3,3,0,0,0-.091,1.059c.032.08.788,1.163.876,1.258A20.279,20.279,0,0,0,194.353,239.341Z" fill="#eee"/>
          </g>
          <path id="Path_98885" data-name="Path 98885" d="M155.42,277.054c1.472,8.042,2.528,18.013,2.528,18.013s-2.457,19.973.305,37.367c.121.823.406,2.559,1.462,3.239a3.956,3.956,0,0,0,3.412-.02c.05-.03.1-.051.152-.081,4.122-2.254,3.686-5.179,4.285-7.1-.01-7.737-.823-26.776.822-30.96l1.473-16.875-.538-12.064H154.557v.041l-.071-.041S153.226,271.815,155.42,277.054Z" fill="#3a3a3a"/>
          <path id="Path_98886" data-name="Path 98886" d="M159.928,277.379c1.391,4.569,3.178,16.5,3.554,19.415,0,0-1.371,22.978-.2,38.778,4.122-2.254,3.686-5.179,4.285-7.1-.01-7.737-.823-26.776.822-30.96l1.473-16.875-.538-12.064H159.166A22.373,22.373,0,0,0,159.928,277.379Z" fill="#2d2d2d"/>
          <path id="Path_98887" data-name="Path 98887" d="M160.872,272.556a23.671,23.671,0,0,0,3.189,7.717c.284.426.538.863.782,1.3.05.2.771,2.9,1.665,6.529s1.98,8.174,2.752,12.043c-.427,4.853-1.625,21.851.66,36.574a2.7,2.7,0,0,0,1.939,2.194,4.837,4.837,0,0,0,1.625.172,4.071,4.071,0,0,0,1.36-.325c2.417-1.015,4.163-4.884,4.163-4.884s.061-24.451,1.331-30.868a28.714,28.714,0,0,0,.446-3.706c.234-3.93.66-11.1.793-14.094a123.325,123.325,0,0,0,.091-12.906l-12.094.152Z" fill="#3a3a3a"/>
          <path id="Path_98888" data-name="Path 98888" d="M169.574,272.454c.061.721.1,1.2.1,1.2a30.36,30.36,0,0,0,1.655,7.615c1.544,4.569,3.073,15.4,3.236,19.465.162,3.737-1.825,21.547-1.083,38.352a4.071,4.071,0,0,0,1.36-.325c2.417-1.015,4.163-4.884,4.163-4.884s.061-24.451,1.331-30.868a28.714,28.714,0,0,0,.446-3.706c.234-3.93.66-11.1.793-14.094a123.325,123.325,0,0,0,.091-12.906Z" fill="#2d2d2d"/>
          <path id="Path_98889" data-name="Path 98889" d="M153.054,238.448c1.949,5.92,3.046,15.648,1.868,19.71a73.541,73.541,0,0,0-1.868,9.818c1.107,3.047,11.423,9.647,17.18,10.154a8.644,8.644,0,0,0,2.112-.081c5.067-.751,9.819-5.249,9.819-5.249s-1.1-16.673-1.777-27.335a61.412,61.412,0,0,0-2.162-13.667,16.227,16.227,0,0,0-.549-1.605,23.98,23.98,0,0,0-4.742-3.686.169.169,0,0,1-.05-.02c-1.554-1.036-3.321-2.132-5.1-3.178h-.01c-2.366-1.4-4.752-2.711-6.661-3.666-.223-.112-.437-.213-.64-.305a15.184,15.184,0,0,0-2.934-1.2c-2.711-.507-6.346.924-7.443,5.839S151.114,232.518,153.054,238.448Z" fill="#fbc006"/>
          <path id="Path_98890" data-name="Path 98890" d="M172.956,258.086c.345,4.549-.346,15.9-.61,19.963,5.067-.751,9.819-5.249,9.819-5.249s-1.1-16.673-1.777-27.335a61.412,61.412,0,0,0-2.162-13.667c-.549-.63-.9-1.026-.9-1.026h-6.681s-3.473.711-2.214,8.621C169.706,247.3,172.539,252.5,172.956,258.086Z" fill="#f99c08"/>
          <path id="Path_98891" data-name="Path 98891" d="M203.5,206.747" fill="#cbcbcb"/>
          <path id="Path_98892" data-name="Path 98892" d="M160.436,221.836c1.015,1.391,4.657,3.4,6.333,3.758a14.914,14.914,0,0,0,3.821.162,4.862,4.862,0,0,1,2.295.731.169.169,0,0,0,.05.02.034.034,0,0,0,.021.01L171.961,225l-1.158-.741s-1.7-.619-2.071-.792a4.321,4.321,0,0,0-.945-.162h-.01c-1-.122-2.447-.224-2.67-.254a32.343,32.343,0,0,1-3.047-1.909c-.061-.041-.578-.894-.944-1.5-.223-.112-.437-.213-.64-.305A1.939,1.939,0,0,0,160.436,221.836Z" fill="#fbc006"/>
          <path id="Path_98893" data-name="Path 98893" d="M156.709,209.225c.569,3.392,3.442,8.722,4.894,9.21a8.552,8.552,0,0,0,2.4.457,2.287,2.287,0,0,0,2.356-1.869,10.9,10.9,0,0,1,.984-3.066c1.016-1.879,2.346-2.864,3.016-2.508s.6,1.553.6,1.553l.437-.01s.041-.386.1-.9.1-1.157.132-1.655a5.759,5.759,0,0,1,1.168-3.513,13.907,13.907,0,0,0,1.625-2.995,5.494,5.494,0,0,0,.406-2.681v-.01a5.557,5.557,0,0,0-2.346-4.417c-3.284-2.4-10.154,2.061-12.692,4.193a8.738,8.738,0,0,0-2.843,4.042v.01A8.714,8.714,0,0,0,156.709,209.225Z" fill="#713e23"/>
          <path id="Path_98894" data-name="Path 98894" d="M160.907,219.176l.629-.585a14.613,14.613,0,0,0,9.519,4.7,8.124,8.124,0,0,1,1.906,3.235l-.865-.559a3.849,3.849,0,0,0-1.5-.583c-.34-.054-1.092-.091-1.092-.091-3.391-.047-6.766-2.414-8.531-3.876A1.487,1.487,0,0,1,160.907,219.176Z" fill="#fff"/>
          <path id="Path_98895" data-name="Path 98895" fill="#381e1e"/>
          <path id="Path_98896" data-name="Path 98896" fill="#381e1e"/>
          <path id="Path_98897" data-name="Path 98897" d="M176.256,331.713a1.714,1.714,0,0,1-.214.308C176.126,331.909,176.2,331.8,176.256,331.713Z" fill="#474747"/>
          <path id="Path_98898" data-name="Path 98898" d="M175.931,332.18c.045-.048.071-.108.111-.159-.065.085-.135.174-.223.271A1.073,1.073,0,0,0,175.931,332.18Z" fill="#474747"/>
          <path id="Path_98899" data-name="Path 98899" d="M169.909,236.306c.64,3.737,7.768,14.612,8.063,15.048a52.307,52.307,0,0,0,3.564,5.087h.01a6.6,6.6,0,0,0,2.214,2.082,2.309,2.309,0,0,0,.284.071,3.833,3.833,0,0,0,4.5-2.508,78.966,78.966,0,0,0,3.717-8.123,75.449,75.449,0,0,0,2.122-8.266,2.5,2.5,0,0,0-.254-1.827c-.031-.041-.051-.092-.081-.132-.4-.66-.945-1.4-1.432-1.483-.894-.132-1.066.1-1.066.1s-1.635,2.63-2.935,4.66a38.4,38.4,0,0,0-2.589,5.484c-.122.345-.2.548-.2.548-2.356-5.473-5.433-12.195-6.682-15.008a5.076,5.076,0,0,0-8.5-1.269,1.1,1.1,0,0,1-.1.122,2.031,2.031,0,0,0-.335.68l-.01-.01-.02.02C170.052,231.737,169.31,232.813,169.909,236.306Z" fill="#fbc006"/>
          <path id="Path_98900" data-name="Path 98900" d="M156.709,209.225c.569,3.392,3.442,8.722,4.894,9.21a8.552,8.552,0,0,0,2.4.457,2.287,2.287,0,0,0,2.356-1.869,10.9,10.9,0,0,1,.984-3.066c1.016-1.879,2.346-2.864,3.016-2.508s.6,1.553.6,1.553l.437-.01s.041-.386.1-.9.1-1.157.132-1.655a5.759,5.759,0,0,1,1.168-3.513,13.907,13.907,0,0,0,1.625-2.995,5.494,5.494,0,0,0,.406-2.681,15,15,0,0,1-10.7,8.8c-7.981,1.675-7.23-4.661-7.179-4.986A8.714,8.714,0,0,0,156.709,209.225Z" fill="#442312"/>
          <path id="Path_98901" data-name="Path 98901" d="M186.024,246.5c-.122.345-.2.548-.2.548a7.4,7.4,0,0,1,.64,3.3A4.153,4.153,0,0,0,186.024,246.5Z" fill="#f99c08"/>
          <path id="Path_98902" data-name="Path 98902" d="M170.174,231.584l.03-.01s-.244,3.117,2.711,8.316,9.25,17.646,12.358,17.3c1.637-.181,5.249-7.87,6.6-11.464a60.232,60.232,0,0,0,2.173-7.991c.03.04.05.091.081.132a2.5,2.5,0,0,1,.254,1.827,75.449,75.449,0,0,1-2.122,8.266,78.966,78.966,0,0,1-3.717,8.123,3.834,3.834,0,0,1-4.5,2.494v.014a2.309,2.309,0,0,1-.284-.071,6.6,6.6,0,0,1-2.214-2.082h-.01a52.307,52.307,0,0,1-3.564-5.087c-.295-.436-7.423-11.311-8.063-15.048C169.31,232.813,170.052,231.737,170.174,231.584Z" fill="#f99c08"/>
        </g>
      </g>
    </g>
    <rect id="Rectangle_8242" data-name="Rectangle 8242" width="505" height="332" transform="translate(180 16057)" fill="none"/>
  </g>
</svg>
