<svg xmlns="http://www.w3.org/2000/svg" width="104.825" height="90" viewBox="0 0 104.825 90">
  <g id="t4-i3" transform="translate(-337.217 1111.892)">
    <rect id="Rectangle_8066" data-name="Rectangle 8066" width="103.436" height="88.61" rx="15.327" transform="translate(337.911 -1111.197)" fill="#cecece"/>
    <g id="Group_91177" data-name="Group 91177" transform="translate(337.911 -1111.197)">
      <path id="Path_136667" data-name="Path 136667" d="M343.347-1028.879v-74.414a7.1,7.1,0,0,1,7.1-7.1h-4.631a7.1,7.1,0,0,0-7.1,7.1v74.414a7.1,7.1,0,0,0,7.1,7.1h4.631A7.1,7.1,0,0,1,343.347-1028.879Z" transform="translate(-338.716 1110.391)" fill="#afafaf"/>
    </g>
    <g id="Group_91178" data-name="Group 91178" transform="translate(429.617 -1111.197)">
      <path id="Path_136668" data-name="Path 136668" d="M543.833-1028.879v-74.414a7.1,7.1,0,0,0-7.1-7.1h4.631a7.1,7.1,0,0,1,7.1,7.1v74.414a7.1,7.1,0,0,1-7.1,7.1h-4.631A7.1,7.1,0,0,0,543.833-1028.879Z" transform="translate(-536.734 1110.391)" fill="#e2e2e2"/>
    </g>
    <g id="Group_91179" data-name="Group 91179" transform="translate(337.217 -1111.892)">
      <path id="Path_136669" data-name="Path 136669" d="M434.249-1021.892H345.01a7.8,7.8,0,0,1-7.793-7.793V-1104.1a7.8,7.8,0,0,1,7.793-7.793h89.239a7.8,7.8,0,0,1,7.793,7.793v74.414A7.8,7.8,0,0,1,434.249-1021.892ZM345.01-1110.5a6.411,6.411,0,0,0-6.4,6.4v74.414a6.411,6.411,0,0,0,6.4,6.4h89.239a6.411,6.411,0,0,0,6.4-6.4V-1104.1a6.411,6.411,0,0,0-6.4-6.4Z" transform="translate(-337.217 1111.892)" fill="#12263f"/>
    </g>
    <path id="Path_136670" data-name="Path 136670" d="M442.152-1103.293a7.1,7.1,0,0,0-7.1-7.1H345.815a7.1,7.1,0,0,0-7.1,7.1v12.353H442.152Z" transform="translate(-0.805 -0.806)" fill="#ffca28"/>
    <g id="Group_91180" data-name="Group 91180" transform="translate(337.911 -1111.197)">
      <path id="Path_136671" data-name="Path 136671" d="M350.446-1110.391h-4.631a7.1,7.1,0,0,0-7.1,7.1v12.353h4.631v-12.353A7.1,7.1,0,0,1,350.446-1110.391Z" transform="translate(-338.716 1110.391)" fill="#ffa726"/>
    </g>
    <g id="Group_91181" data-name="Group 91181" transform="translate(429.617 -1111.197)">
      <path id="Path_136672" data-name="Path 136672" d="M536.734-1110.391h4.631a7.1,7.1,0,0,1,7.1,7.1v12.353h-4.631v-12.353A7.1,7.1,0,0,0,536.734-1110.391Z" transform="translate(-536.734 1110.391)" fill="#ffd34d"/>
    </g>
    <g id="Group_91182" data-name="Group 91182" transform="translate(337.217 -1111.892)">
      <path id="Path_136673" data-name="Path 136673" d="M441.347-1091.052H337.912a.7.7,0,0,1-.695-.695V-1104.1a7.8,7.8,0,0,1,7.793-7.793h89.239a7.8,7.8,0,0,1,7.793,7.793v12.352A.7.7,0,0,1,441.347-1091.052Zm-102.741-1.389H440.653V-1104.1a6.411,6.411,0,0,0-6.4-6.4H345.01a6.411,6.411,0,0,0-6.4,6.4Z" transform="translate(-337.217 1111.892)" fill="#12263f"/>
    </g>
    <g id="Group_91183" data-name="Group 91183" transform="translate(347.341 -1104.713)">
      <circle id="Ellipse_4225" data-name="Ellipse 4225" cx="3.242" cy="3.242" r="3.242" transform="translate(0 0)" fill="#039be5"/>
      <circle id="Ellipse_4226" data-name="Ellipse 4226" cx="3.242" cy="3.242" r="3.242" transform="translate(12.487 0)" fill="#039be5"/>
      <circle id="Ellipse_4227" data-name="Ellipse 4227" cx="3.242" cy="3.242" r="3.242" transform="translate(24.974 0)" fill="#039be5"/>
    </g>
    <g id="Group_91187" data-name="Group 91187" transform="translate(346.646 -1105.408)">
      <g id="Group_91184" data-name="Group 91184" transform="translate(0 0)">
        <path id="Path_136674" data-name="Path 136674" d="M361.513-1090.019a3.941,3.941,0,0,1-3.937-3.937,3.941,3.941,0,0,1,3.937-3.937,3.941,3.941,0,0,1,3.937,3.937A3.941,3.941,0,0,1,361.513-1090.019Zm0-6.484a2.55,2.55,0,0,0-2.547,2.547,2.55,2.55,0,0,0,2.547,2.547,2.55,2.55,0,0,0,2.547-2.547A2.55,2.55,0,0,0,361.513-1096.5Z" transform="translate(-357.576 1097.892)" fill="#12263f"/>
      </g>
      <g id="Group_91185" data-name="Group 91185" transform="translate(12.487 0)">
        <path id="Path_136675" data-name="Path 136675" d="M388.476-1090.019a3.941,3.941,0,0,1-3.937-3.937,3.941,3.941,0,0,1,3.937-3.937,3.941,3.941,0,0,1,3.937,3.937A3.941,3.941,0,0,1,388.476-1090.019Zm0-6.484a2.55,2.55,0,0,0-2.547,2.547,2.55,2.55,0,0,0,2.547,2.547,2.55,2.55,0,0,0,2.547-2.547A2.55,2.55,0,0,0,388.476-1096.5Z" transform="translate(-384.539 1097.892)" fill="#12263f"/>
      </g>
      <g id="Group_91186" data-name="Group 91186" transform="translate(24.974 0)">
        <path id="Path_136676" data-name="Path 136676" d="M415.438-1090.019a3.941,3.941,0,0,1-3.937-3.937,3.941,3.941,0,0,1,3.937-3.937,3.941,3.941,0,0,1,3.936,3.937A3.941,3.941,0,0,1,415.438-1090.019Zm0-6.484a2.55,2.55,0,0,0-2.547,2.547,2.55,2.55,0,0,0,2.547,2.547,2.55,2.55,0,0,0,2.547-2.547A2.55,2.55,0,0,0,415.438-1096.5Z" transform="translate(-411.501 1097.892)" fill="#12263f"/>
      </g>
    </g>
    <rect id="Rectangle_8067" data-name="Rectangle 8067" width="45.96" height="4.94" rx="2.47" transform="translate(385.958 -1103.729)" fill="#039be5"/>
    <g id="Group_91188" data-name="Group 91188" transform="translate(385.263 -1104.424)">
      <path id="Path_136677" data-name="Path 136677" d="M485.146-1089.437h-41.02a3.168,3.168,0,0,1-3.164-3.165,3.168,3.168,0,0,1,3.164-3.165h41.02a3.168,3.168,0,0,1,3.164,3.165A3.168,3.168,0,0,1,485.146-1089.437Zm-41.02-4.94a1.778,1.778,0,0,0-1.775,1.776,1.777,1.777,0,0,0,1.775,1.775h41.02a1.777,1.777,0,0,0,1.775-1.775,1.778,1.778,0,0,0-1.775-1.776Z" transform="translate(-440.962 1095.767)" fill="#12263f"/>
    </g>
    <g id="Group_91193" data-name="Group 91193" transform="translate(346.002 -1086.375)">
      <g id="Group_91189" data-name="Group 91189" transform="translate(0 0)">
        <path id="Path_136678" data-name="Path 136678" d="M400.868-1055.4H356.882a.7.7,0,0,1-.695-.695.694.694,0,0,1,.695-.695h43.987a.7.7,0,0,1,.695.695A.7.7,0,0,1,400.868-1055.4Z" transform="translate(-356.187 1056.794)" fill="#12263f"/>
      </g>
      <g id="Group_91190" data-name="Group 91190" transform="translate(53.403 0)">
        <path id="Path_136679" data-name="Path 136679" d="M482.691-1055.4h-10.5a.7.7,0,0,1-.695-.695.7.7,0,0,1,.695-.695h10.5a.7.7,0,0,1,.695.695A.7.7,0,0,1,482.691-1055.4Z" transform="translate(-471.499 1056.794)" fill="#12263f"/>
      </g>
      <g id="Group_91191" data-name="Group 91191" transform="translate(0 7.487)">
        <path id="Path_136680" data-name="Path 136680" d="M383.077-1039.239h-26.2a.694.694,0,0,1-.695-.695.694.694,0,0,1,.695-.695h26.2a.7.7,0,0,1,.695.695A.694.694,0,0,1,383.077-1039.239Z" transform="translate(-356.187 1040.628)" fill="#12263f"/>
      </g>
      <g id="Group_91192" data-name="Group 91192" transform="translate(31.457 7.487)">
        <path id="Path_136681" data-name="Path 136681" d="M446.752-1039.239H424.806a.694.694,0,0,1-.695-.695.7.7,0,0,1,.695-.695h21.946a.7.7,0,0,1,.695.695A.7.7,0,0,1,446.752-1039.239Z" transform="translate(-424.111 1040.628)" fill="#12263f"/>
      </g>
    </g>
    <g id="Group_91198" data-name="Group 91198" transform="translate(346.002 -1036.842)">
      <g id="Group_91194" data-name="Group 91194">
        <path id="Path_136682" data-name="Path 136682" d="M400.868-948.45H356.882a.694.694,0,0,1-.695-.695.7.7,0,0,1,.695-.695h43.987a.7.7,0,0,1,.695.695A.7.7,0,0,1,400.868-948.45Z" transform="translate(-356.187 949.839)" fill="#12263f"/>
      </g>
      <g id="Group_91195" data-name="Group 91195" transform="translate(53.403)">
        <path id="Path_136683" data-name="Path 136683" d="M482.691-948.45h-10.5a.7.7,0,0,1-.695-.695.7.7,0,0,1,.695-.695h10.5a.7.7,0,0,1,.695.695A.7.7,0,0,1,482.691-948.45Z" transform="translate(-471.499 949.839)" fill="#12263f"/>
      </g>
      <g id="Group_91196" data-name="Group 91196" transform="translate(0 7.487)">
        <path id="Path_136684" data-name="Path 136684" d="M383.077-932.283h-26.2a.694.694,0,0,1-.695-.695.7.7,0,0,1,.695-.695h26.2a.7.7,0,0,1,.695.695A.7.7,0,0,1,383.077-932.283Z" transform="translate(-356.187 933.672)" fill="#12263f"/>
      </g>
      <g id="Group_91197" data-name="Group 91197" transform="translate(31.457 7.487)">
        <path id="Path_136685" data-name="Path 136685" d="M446.752-932.283H424.806a.7.7,0,0,1-.695-.695.7.7,0,0,1,.695-.695h21.946a.7.7,0,0,1,.695.695A.7.7,0,0,1,446.752-932.283Z" transform="translate(-424.111 933.672)" fill="#12263f"/>
      </g>
    </g>
    <g id="Group_91199" data-name="Group 91199" transform="translate(350.974 -1074.558)">
      <path id="Path_136686" data-name="Path 136686" d="M370.611-987.957a3.756,3.756,0,0,1,1.5.3,3.811,3.811,0,0,1,1.2.807,3.682,3.682,0,0,1,.8,1.2,3.807,3.807,0,0,1,.289,1.48,3.691,3.691,0,0,1-.289,1.451,3.708,3.708,0,0,1-.8,1.191,3.812,3.812,0,0,1-1.2.807,3.75,3.75,0,0,1-1.5.3,3.519,3.519,0,0,1-1.441-.3,3.757,3.757,0,0,1-1.172-.807,3.782,3.782,0,0,1-.788-1.191,3.69,3.69,0,0,1-.288-1.451,3.806,3.806,0,0,1,.288-1.48,3.755,3.755,0,0,1,.788-1.2,3.756,3.756,0,0,1,1.172-.807A3.525,3.525,0,0,1,370.611-987.957Z" transform="translate(-366.921 1008.02)" fill="#4dd0e1"/>
      <path id="Path_136687" data-name="Path 136687" d="M420.75-1001.515a5.267,5.267,0,0,1-.74,2.854,5.858,5.858,0,0,1-1.96,1.921,8.966,8.966,0,0,1-2.767,1.076,14.838,14.838,0,0,1-3.161.336,33.8,33.8,0,0,1-3.882-.2,25.863,25.863,0,0,1-3.267-.586v-4.228a18.087,18.087,0,0,0,3.6,1.086,18.468,18.468,0,0,0,3.392.336,5.177,5.177,0,0,0,2.757-.586,1.757,1.757,0,0,0,.913-1.528,1.706,1.706,0,0,0-.192-.807,1.989,1.989,0,0,0-.721-.7,8.086,8.086,0,0,0-1.489-.692q-.961-.356-2.518-.8a16.4,16.4,0,0,1-2.527-.913,6.519,6.519,0,0,1-1.8-1.2,4.486,4.486,0,0,1-1.067-1.6,5.891,5.891,0,0,1-.356-2.143,4.891,4.891,0,0,1,.538-2.248,5.349,5.349,0,0,1,1.6-1.854,8.2,8.2,0,0,1,2.662-1.259,13.483,13.483,0,0,1,3.728-.461,24.624,24.624,0,0,1,3.267.192q1.422.192,2.517.423v3.824a20.043,20.043,0,0,0-3.142-.759,19.563,19.563,0,0,0-2.912-.221,4.51,4.51,0,0,0-2.316.519,1.6,1.6,0,0,0-.874,1.441,1.738,1.738,0,0,0,.173.788,1.842,1.842,0,0,0,.682.673,8.281,8.281,0,0,0,1.422.682q.913.356,2.412.778a18.437,18.437,0,0,1,2.844,1.028,6.727,6.727,0,0,1,1.855,1.239,4.074,4.074,0,0,1,1.009,1.576A6.123,6.123,0,0,1,420.75-1001.515Z" transform="translate(-387.35 1022.924)" fill="#4dd0e1"/>
      <path id="Path_136688" data-name="Path 136688" d="M461.233-988.1v-6.419l.211-3.8a11.006,11.006,0,0,1-1.143,1.23,7,7,0,0,1-1.326.961,6.618,6.618,0,0,1-1.566.624,7.2,7.2,0,0,1-1.826.221,6.628,6.628,0,0,1-3.075-.692,6.27,6.27,0,0,1-2.258-1.97,9.409,9.409,0,0,1-1.393-3.1,16.007,16.007,0,0,1-.48-4.074,13.586,13.586,0,0,1,.634-4.257,9.052,9.052,0,0,1,1.893-3.315,8.438,8.438,0,0,1,3.142-2.142,11.719,11.719,0,0,1,4.4-.759q.481,0,1.057.057t1.153.144q.577.087,1.105.212t.932.259l3.228-.711V-988.1Zm-7.937-17.238a14.738,14.738,0,0,0,.221,2.758,5.878,5.878,0,0,0,.653,1.874,2.755,2.755,0,0,0,1.067,1.067,3.031,3.031,0,0,0,1.442.336,3.369,3.369,0,0,0,2.267-.961,16.583,16.583,0,0,0,2.287-2.633v-8.533a7.272,7.272,0,0,0-1.374-.346,10.117,10.117,0,0,0-1.643-.134,4.413,4.413,0,0,0-2.037.461,4.5,4.5,0,0,0-1.547,1.307,6.144,6.144,0,0,0-.99,2.066A10.038,10.038,0,0,0,453.3-1005.334Z" transform="translate(-410.653 1022.879)" fill="#4dd0e1"/>
      <path id="Path_136689" data-name="Path 136689" d="M504.152-1027.627h-5.515v-3.651h10.32v23.5h5.631v3.651H497.964v-3.651h6.188Z" transform="translate(-437.275 1031.278)" fill="#4dd0e1"/>
    </g>
    <g id="Group_91204" data-name="Group 91204" transform="translate(350.279 -1075.253)">
      <g id="Group_91200" data-name="Group 91200" transform="translate(0 20.064)">
        <path id="Path_136690" data-name="Path 136690" d="M369.805-980.533a4.23,4.23,0,0,1-1.722-.357,4.469,4.469,0,0,1-1.387-.956,4.5,4.5,0,0,1-.932-1.407,4.409,4.409,0,0,1-.343-1.721,4.525,4.525,0,0,1,.341-1.746,4.468,4.468,0,0,1,.934-1.421,4.457,4.457,0,0,1,1.387-.955,4.489,4.489,0,0,1,3.5,0,4.5,4.5,0,0,1,1.417.954,4.389,4.389,0,0,1,.948,1.425,4.523,4.523,0,0,1,.341,1.747,4.4,4.4,0,0,1-.343,1.721,4.4,4.4,0,0,1-.947,1.412,4.507,4.507,0,0,1-1.417.954A4.459,4.459,0,0,1,369.805-980.533Zm0-7.533a2.794,2.794,0,0,0-1.159.239,3.07,3.07,0,0,0-.958.658,3.078,3.078,0,0,0-.643.982,3.141,3.141,0,0,0-.235,1.212,3.028,3.028,0,0,0,.233,1.181,3.119,3.119,0,0,0,.644.975,3.075,3.075,0,0,0,.958.658,2.8,2.8,0,0,0,1.16.239,3.077,3.077,0,0,0,1.224-.241,3.13,3.13,0,0,0,.984-.66,3.035,3.035,0,0,0,.649-.971,3.017,3.017,0,0,0,.233-1.18,3.133,3.133,0,0,0-.234-1.212,3,3,0,0,0-.648-.977,3.129,3.129,0,0,0-.984-.66A3.075,3.075,0,0,0,369.805-988.066Z" transform="translate(-365.421 989.453)" fill="#12263f"/>
      </g>
      <g id="Group_91201" data-name="Group 91201" transform="translate(17.623 7.207)">
        <path id="Path_136691" data-name="Path 136691" d="M411.316-995.438a34.544,34.544,0,0,1-3.962-.207,26.567,26.567,0,0,1-3.355-.6.694.694,0,0,1-.526-.674v-4.228a.7.7,0,0,1,.309-.578.692.692,0,0,1,.652-.064,17.446,17.446,0,0,0,3.465,1.044,17.858,17.858,0,0,0,3.264.325,4.576,4.576,0,0,0,2.383-.476,1.052,1.052,0,0,0,.593-.943,1.008,1.008,0,0,0-.112-.483,1.314,1.314,0,0,0-.478-.439,7.429,7.429,0,0,0-1.358-.627c-.621-.23-1.45-.492-2.466-.781a17.129,17.129,0,0,1-2.632-.952,7.228,7.228,0,0,1-1.986-1.332,5.188,5.188,0,0,1-1.229-1.85,6.6,6.6,0,0,1-.4-2.395,5.6,5.6,0,0,1,.613-2.563,6.067,6.067,0,0,1,1.808-2.1,8.955,8.955,0,0,1,2.885-1.37,14.259,14.259,0,0,1,3.921-.488,25.474,25.474,0,0,1,3.36.2c.96.13,1.824.275,2.568.432a.694.694,0,0,1,.552.679v3.824a.7.7,0,0,1-.285.562.7.7,0,0,1-.622.1,19.491,19.491,0,0,0-3.033-.734,19.007,19.007,0,0,0-2.808-.213,3.865,3.865,0,0,0-1.961.421.9.9,0,0,0-.534.844,1.041,1.041,0,0,0,.1.477,1.182,1.182,0,0,0,.436.4,7.657,7.657,0,0,0,1.3.62c.583.227,1.373.482,2.348.757a19.266,19.266,0,0,1,2.954,1.069,7.432,7.432,0,0,1,2.044,1.372,4.784,4.784,0,0,1,1.178,1.842,6.843,6.843,0,0,1,.346,2.246,5.974,5.974,0,0,1-.846,3.222,6.581,6.581,0,0,1-2.189,2.147,9.7,9.7,0,0,1-2.98,1.161A15.61,15.61,0,0,1,411.316-995.438Zm-6.454-2.032a25.98,25.98,0,0,0,2.652.445,33.248,33.248,0,0,0,3.8.2,14.2,14.2,0,0,0,3.014-.32,8.323,8.323,0,0,0,2.555-.991,5.2,5.2,0,0,0,1.731-1.7,4.615,4.615,0,0,0,.634-2.485,5.463,5.463,0,0,0-.269-1.79,3.357,3.357,0,0,0-.841-1.309,6.082,6.082,0,0,0-1.664-1.106,17.878,17.878,0,0,0-2.736-.988c-1.016-.286-1.849-.555-2.474-.8a8.887,8.887,0,0,1-1.545-.745,2.485,2.485,0,0,1-.929-.947,2.427,2.427,0,0,1-.246-1.1,2.292,2.292,0,0,1,1.215-2.039,5.2,5.2,0,0,1,2.67-.616,20.344,20.344,0,0,1,3.014.229,19.513,19.513,0,0,1,2.345.512v-2.32c-.578-.109-1.22-.211-1.916-.3a24.1,24.1,0,0,0-3.174-.186,12.881,12.881,0,0,0-3.536.433,7.594,7.594,0,0,0-2.439,1.148,4.688,4.688,0,0,0-1.4,1.614,4.16,4.16,0,0,0-.462,1.933,5.226,5.226,0,0,0,.308,1.89,3.82,3.82,0,0,0,.9,1.359,5.851,5.851,0,0,0,1.607,1.07,15.708,15.708,0,0,0,2.419.872c1.053.3,1.917.573,2.571.815a8.653,8.653,0,0,1,1.621.758,2.622,2.622,0,0,1,.962.964,2.4,2.4,0,0,1,.272,1.13,2.435,2.435,0,0,1-1.232,2.112,5.767,5.767,0,0,1-3.133.7,19.247,19.247,0,0,1-3.519-.348,18.426,18.426,0,0,1-2.781-.756Z" transform="translate(-403.473 1017.217)" fill="#12263f"/>
      </g>
      <g id="Group_91202" data-name="Group 91202" transform="translate(37.724 7.245)">
        <path id="Path_136692" data-name="Path 136692" d="M465.117-988.206h-4.689a.7.7,0,0,1-.695-.695v-6.419l.108-1.952a7.723,7.723,0,0,1-1.331.943,7.322,7.322,0,0,1-1.731.69,7.917,7.917,0,0,1-2,.244,7.348,7.348,0,0,1-3.393-.769,7,7,0,0,1-2.505-2.184,10.137,10.137,0,0,1-1.5-3.33,16.765,16.765,0,0,1-.5-4.251,14.327,14.327,0,0,1,.669-4.473,9.779,9.779,0,0,1,2.039-3.566,9.159,9.159,0,0,1,3.4-2.319,12.457,12.457,0,0,1,4.66-.81c.342,0,.721.02,1.126.061s.791.089,1.187.148.792.135,1.162.222c.293.069.563.142.806.217l3.045-.671a.694.694,0,0,1,.584.137.693.693,0,0,1,.26.541V-988.9A.7.7,0,0,1,465.117-988.206Zm-3.994-.695h0Zm0-.695h3.3v-25.98l-2.385.525a.7.7,0,0,1-.369-.019c-.25-.083-.543-.165-.872-.242s-.685-.146-1.048-.2-.746-.1-1.119-.14-.692-.054-.988-.054a11.094,11.094,0,0,0-4.141.709,7.792,7.792,0,0,0-2.888,1.966,8.4,8.4,0,0,0-1.746,3.064,12.947,12.947,0,0,0-.6,4.039,15.413,15.413,0,0,0,.457,3.9,8.757,8.757,0,0,0,1.287,2.876,5.609,5.609,0,0,0,2.01,1.756,5.973,5.973,0,0,0,2.757.615,6.534,6.534,0,0,0,1.65-.2,5.94,5.94,0,0,0,1.4-.559,6.325,6.325,0,0,0,1.194-.866,10.292,10.292,0,0,0,1.072-1.153.7.7,0,0,1,.791-.215.7.7,0,0,1,.446.687l-.212,3.805Zm-5.249-9.815a3.734,3.734,0,0,1-1.767-.417,3.438,3.438,0,0,1-1.339-1.327,6.569,6.569,0,0,1-.738-2.1,15.515,15.515,0,0,1-.234-2.89,10.781,10.781,0,0,1,.372-2.928,6.87,6.87,0,0,1,1.1-2.3,5.219,5.219,0,0,1,1.784-1.5,5.121,5.121,0,0,1,2.353-.537,10.844,10.844,0,0,1,1.756.144,7.957,7.957,0,0,1,1.508.382.7.7,0,0,1,.448.649v8.533a.7.7,0,0,1-.132.407,17.353,17.353,0,0,1-2.387,2.744A4.056,4.056,0,0,1,455.874-999.41Zm1.537-12.607a3.739,3.739,0,0,0-1.721.385,3.828,3.828,0,0,0-1.311,1.109,5.5,5.5,0,0,0-.874,1.835,9.389,9.389,0,0,0-.32,2.549,14.142,14.142,0,0,0,.208,2.626,5.209,5.209,0,0,0,.569,1.651,2.053,2.053,0,0,0,.795.807,2.319,2.319,0,0,0,1.116.256,2.679,2.679,0,0,0,1.8-.785,15.513,15.513,0,0,0,2.055-2.341v-7.8q-.353-.094-.792-.167A9.431,9.431,0,0,0,457.411-1012.016Z" transform="translate(-446.877 1017.134)" fill="#12263f"/>
      </g>
      <g id="Group_91203" data-name="Group 91203" transform="translate(60.689 0)">
        <path id="Path_136693" data-name="Path 136693" d="M513.781-1004.234H497.159a.7.7,0,0,1-.695-.695v-3.651a.7.7,0,0,1,.695-.695h5.493v-18.462h-4.821a.7.7,0,0,1-.695-.695v-3.651a.7.7,0,0,1,.695-.695h10.32a.7.7,0,0,1,.695.695v22.808h4.936a.694.694,0,0,1,.695.695v3.651A.694.694,0,0,1,513.781-1004.234Zm-15.928-1.389h15.233v-2.262h-4.936a.7.7,0,0,1-.695-.695v-22.808h-8.93v2.262h4.821a.7.7,0,0,1,.695.695v19.852a.7.7,0,0,1-.695.695h-5.493Z" transform="translate(-496.464 1032.778)" fill="#12263f"/>
      </g>
    </g>
  </g>
</svg>
