<svg xmlns="http://www.w3.org/2000/svg" width="400" height="240" viewBox="0 0 400 240">
  <g id="t4-i2" transform="translate(-1020 -707)">
    <rect id="Rectangle_7791" data-name="Rectangle 7791" width="400" height="240" transform="translate(1020 707)" fill="none"/>
    <g id="Group_91175" data-name="Group 91175" transform="translate(763.288 1779.989)">
      <rect id="Rectangle_8062" data-name="Rectangle 8062" width="83.79" height="59.202" rx="5" transform="translate(414.4 -919.89)" fill="#4dd0e1"/>
      <g id="Group_91121" data-name="Group 91121" transform="translate(412.552 -921.739)">
        <path id="Path_136611" data-name="Path 136611" d="M469.446-887.342H397.978a8.019,8.019,0,0,1-8.009-8.009v-46.88a8.019,8.019,0,0,1,8.009-8.009h71.468a8.019,8.019,0,0,1,8.009,8.009v46.88A8.019,8.019,0,0,1,469.446-887.342Zm-71.468-59.2a4.318,4.318,0,0,0-4.313,4.313v46.88a4.318,4.318,0,0,0,4.313,4.313h71.468a4.319,4.319,0,0,0,4.313-4.313v-46.88a4.319,4.319,0,0,0-4.313-4.313Z" transform="translate(-389.969 950.241)" fill="#12263f"/>
      </g>
      <g id="Group_91122" data-name="Group 91122" transform="translate(454.447 -997.3)">
        <path id="Path_136612" data-name="Path 136612" d="M425.817-933.054a1.848,1.848,0,0,1-1.848-1.848v-74.812a1.848,1.848,0,0,1,1.848-1.848,1.848,1.848,0,0,1,1.848,1.848V-934.9A1.848,1.848,0,0,1,425.817-933.054Z" transform="translate(-423.969 1011.563)" fill="#12263f"/>
      </g>
      <g id="Group_91130" data-name="Group 91130" transform="translate(428.016 -912.393)">
        <g id="Group_91123" data-name="Group 91123">
          <path id="Path_136613" data-name="Path 136613" d="M404.367-925.817a1.843,1.843,0,0,1-1.307-.541,1.847,1.847,0,0,1,0-2.614l5.264-5.265L403.06-939.5a1.847,1.847,0,0,1,0-2.614,1.847,1.847,0,0,1,2.614,0l6.571,6.571a1.847,1.847,0,0,1,0,2.613l-6.571,6.573A1.842,1.842,0,0,1,404.367-925.817Z" transform="translate(-402.519 942.656)" fill="#12263f"/>
        </g>
        <g id="Group_91124" data-name="Group 91124" transform="translate(9.581 13.143)">
          <path id="Path_136614" data-name="Path 136614" d="M455.423-928.293H412.142a1.848,1.848,0,0,1-1.848-1.848,1.849,1.849,0,0,1,1.848-1.848h43.281a1.849,1.849,0,0,1,1.848,1.848A1.848,1.848,0,0,1,455.423-928.293Z" transform="translate(-410.294 931.99)" fill="#12263f"/>
        </g>
        <g id="Group_91125" data-name="Group 91125" transform="translate(0.001 21.394)">
          <path id="Path_136615" data-name="Path 136615" d="M433.663-921.6h-29.3a1.848,1.848,0,0,1-1.848-1.848,1.847,1.847,0,0,1,1.848-1.848h29.3a1.848,1.848,0,0,1,1.848,1.848A1.849,1.849,0,0,1,433.663-921.6Z" transform="translate(-402.519 925.294)" fill="#12263f"/>
        </g>
        <g id="Group_91126" data-name="Group 91126" transform="translate(0.001 29.644)">
          <path id="Path_136616" data-name="Path 136616" d="M419.955-914.9H404.367a1.847,1.847,0,0,1-1.848-1.848,1.848,1.848,0,0,1,1.848-1.848h15.587a1.849,1.849,0,0,1,1.848,1.848A1.848,1.848,0,0,1,419.955-914.9Z" transform="translate(-402.519 918.599)" fill="#12263f"/>
        </g>
        <g id="Group_91127" data-name="Group 91127" transform="translate(0.001 37.895)">
          <path id="Path_136617" data-name="Path 136617" d="M457.229-908.206H404.367a1.848,1.848,0,0,1-1.848-1.848,1.847,1.847,0,0,1,1.848-1.848h52.862a1.848,1.848,0,0,1,1.848,1.848A1.849,1.849,0,0,1,457.229-908.206Z" transform="translate(-402.519 911.903)" fill="#12263f"/>
        </g>
        <g id="Group_91128" data-name="Group 91128" transform="translate(42.234 21.394)">
          <path id="Path_136618" data-name="Path 136618" d="M449.27-921.6H438.642a1.849,1.849,0,0,1-1.848-1.848,1.848,1.848,0,0,1,1.848-1.848H449.27a1.848,1.848,0,0,1,1.848,1.848A1.849,1.849,0,0,1,449.27-921.6Z" transform="translate(-436.794 925.294)" fill="#12263f"/>
        </g>
        <g id="Group_91129" data-name="Group 91129" transform="translate(25.607 29.644)">
          <path id="Path_136619" data-name="Path 136619" d="M452.4-914.9H425.148a1.848,1.848,0,0,1-1.848-1.848,1.849,1.849,0,0,1,1.848-1.848H452.4a1.849,1.849,0,0,1,1.848,1.848A1.848,1.848,0,0,1,452.4-914.9Z" transform="translate(-423.3 918.599)" fill="#12263f"/>
        </g>
      </g>
      <rect id="Rectangle_8063" data-name="Rectangle 8063" width="83.79" height="59.202" rx="5" transform="translate(294.561 -919.89)" fill="#4dd0e1"/>
      <g id="Group_91131" data-name="Group 91131" transform="translate(294.56 -919.89)">
        <path id="Path_136620" data-name="Path 136620" d="M306.534-895.7v-46.88a6.162,6.162,0,0,1,6.161-6.161H300.373a6.162,6.162,0,0,0-6.161,6.161v46.88a6.162,6.162,0,0,0,6.161,6.161H312.7A6.162,6.162,0,0,1,306.534-895.7Z" transform="translate(-294.212 948.741)" fill="#039be5"/>
      </g>
      <g id="Group_91132" data-name="Group 91132" transform="translate(292.712 -921.739)">
        <path id="Path_136621" data-name="Path 136621" d="M372.189-887.342H300.721a8.019,8.019,0,0,1-8.009-8.009v-46.88a8.019,8.019,0,0,1,8.009-8.009h71.468a8.019,8.019,0,0,1,8.009,8.009v46.88A8.019,8.019,0,0,1,372.189-887.342Zm-71.468-59.2a4.319,4.319,0,0,0-4.313,4.313v46.88a4.319,4.319,0,0,0,4.313,4.313h71.468a4.318,4.318,0,0,0,4.313-4.313v-46.88a4.318,4.318,0,0,0-4.313-4.313Z" transform="translate(-292.712 950.241)" fill="#12263f"/>
      </g>
      <g id="Group_91140" data-name="Group 91140" transform="translate(308.176 -912.393)">
        <g id="Group_91133" data-name="Group 91133" transform="translate(0.001)">
          <path id="Path_136622" data-name="Path 136622" d="M307.11-925.817a1.84,1.84,0,0,1-1.306-.541,1.847,1.847,0,0,1,0-2.614l5.265-5.265L305.8-939.5a1.847,1.847,0,0,1,0-2.614,1.846,1.846,0,0,1,2.613,0l6.571,6.571a1.847,1.847,0,0,1,0,2.613l-6.571,6.573A1.843,1.843,0,0,1,307.11-925.817Z" transform="translate(-305.262 942.657)" fill="#12263f"/>
        </g>
        <g id="Group_91134" data-name="Group 91134" transform="translate(9.58 13.144)">
          <path id="Path_136623" data-name="Path 136623" d="M358.166-928.293H314.885a1.848,1.848,0,0,1-1.848-1.848,1.849,1.849,0,0,1,1.848-1.848h43.281a1.849,1.849,0,0,1,1.848,1.848A1.848,1.848,0,0,1,358.166-928.293Z" transform="translate(-313.037 931.99)" fill="#12263f"/>
        </g>
        <g id="Group_91135" data-name="Group 91135" transform="translate(0 21.395)">
          <path id="Path_136624" data-name="Path 136624" d="M336.406-921.6h-29.3a1.849,1.849,0,0,1-1.848-1.848,1.848,1.848,0,0,1,1.848-1.848h29.3a1.848,1.848,0,0,1,1.848,1.848A1.849,1.849,0,0,1,336.406-921.6Z" transform="translate(-305.262 925.294)" fill="#12263f"/>
        </g>
        <g id="Group_91136" data-name="Group 91136" transform="translate(0 29.644)">
          <path id="Path_136625" data-name="Path 136625" d="M322.7-914.9H307.11a1.848,1.848,0,0,1-1.848-1.848,1.849,1.849,0,0,1,1.848-1.848H322.7a1.849,1.849,0,0,1,1.848,1.848A1.848,1.848,0,0,1,322.7-914.9Z" transform="translate(-305.262 918.599)" fill="#12263f"/>
        </g>
        <g id="Group_91137" data-name="Group 91137" transform="translate(0 37.895)">
          <path id="Path_136626" data-name="Path 136626" d="M359.972-908.206H307.11a1.849,1.849,0,0,1-1.848-1.848,1.848,1.848,0,0,1,1.848-1.848h52.862a1.848,1.848,0,0,1,1.848,1.848A1.849,1.849,0,0,1,359.972-908.206Z" transform="translate(-305.262 911.903)" fill="#12263f"/>
        </g>
        <g id="Group_91138" data-name="Group 91138" transform="translate(42.234 21.395)">
          <path id="Path_136627" data-name="Path 136627" d="M352.013-921.6H341.385a1.849,1.849,0,0,1-1.848-1.848,1.848,1.848,0,0,1,1.848-1.848h10.628a1.848,1.848,0,0,1,1.848,1.848A1.849,1.849,0,0,1,352.013-921.6Z" transform="translate(-339.537 925.294)" fill="#12263f"/>
        </g>
        <g id="Group_91139" data-name="Group 91139" transform="translate(25.608 29.644)">
          <path id="Path_136628" data-name="Path 136628" d="M355.146-914.9H327.892a1.848,1.848,0,0,1-1.848-1.848,1.849,1.849,0,0,1,1.848-1.848h27.254a1.849,1.849,0,0,1,1.848,1.848A1.848,1.848,0,0,1,355.146-914.9Z" transform="translate(-326.044 918.599)" fill="#12263f"/>
        </g>
      </g>
      <rect id="Rectangle_8064" data-name="Rectangle 8064" width="83.79" height="59.202" rx="5" transform="translate(534.239 -919.89)" fill="#4dd0e1"/>
      <g id="Group_91141" data-name="Group 91141" transform="translate(599.547 -919.89)">
        <path id="Path_136629" data-name="Path 136629" d="M547.886-895.7v-46.88a6.162,6.162,0,0,0-6.161-6.161h12.322a6.162,6.162,0,0,1,6.161,6.161v46.88a6.162,6.162,0,0,1-6.161,6.161H541.725A6.162,6.162,0,0,0,547.886-895.7Z" transform="translate(-541.725 948.741)" fill="#7cd5e1"/>
      </g>
      <g id="Group_91142" data-name="Group 91142" transform="translate(532.392 -921.739)">
        <path id="Path_136630" data-name="Path 136630" d="M566.7-887.342H495.234a8.019,8.019,0,0,1-8.009-8.009v-46.88a8.019,8.019,0,0,1,8.009-8.009H566.7a8.019,8.019,0,0,1,8.009,8.009v46.88A8.019,8.019,0,0,1,566.7-887.342Zm-71.468-59.2a4.318,4.318,0,0,0-4.313,4.313v46.88a4.318,4.318,0,0,0,4.313,4.313H566.7a4.319,4.319,0,0,0,4.313-4.313v-46.88a4.319,4.319,0,0,0-4.313-4.313Z" transform="translate(-487.225 950.241)" fill="#12263f"/>
      </g>
      <g id="Group_91150" data-name="Group 91150" transform="translate(547.854 -912.393)">
        <g id="Group_91143" data-name="Group 91143" transform="translate(0.001)">
          <path id="Path_136631" data-name="Path 136631" d="M501.622-925.817a1.842,1.842,0,0,1-1.306-.541,1.847,1.847,0,0,1,0-2.614l5.264-5.265-5.264-5.265a1.847,1.847,0,0,1,0-2.614,1.847,1.847,0,0,1,2.614,0l6.571,6.571a1.847,1.847,0,0,1,0,2.613l-6.571,6.573A1.843,1.843,0,0,1,501.622-925.817Z" transform="translate(-499.775 942.656)" fill="#12263f"/>
        </g>
        <g id="Group_91144" data-name="Group 91144" transform="translate(9.582 13.143)">
          <path id="Path_136632" data-name="Path 136632" d="M552.679-928.293H509.4a1.848,1.848,0,0,1-1.848-1.848,1.849,1.849,0,0,1,1.848-1.848h43.281a1.849,1.849,0,0,1,1.848,1.848A1.848,1.848,0,0,1,552.679-928.293Z" transform="translate(-507.55 931.99)" fill="#12263f"/>
        </g>
        <g id="Group_91145" data-name="Group 91145" transform="translate(0 21.394)">
          <path id="Path_136633" data-name="Path 136633" d="M530.919-921.6h-29.3a1.849,1.849,0,0,1-1.848-1.848,1.848,1.848,0,0,1,1.848-1.848h29.3a1.848,1.848,0,0,1,1.848,1.848A1.849,1.849,0,0,1,530.919-921.6Z" transform="translate(-499.774 925.294)" fill="#12263f"/>
        </g>
        <g id="Group_91146" data-name="Group 91146" transform="translate(0 29.644)">
          <path id="Path_136634" data-name="Path 136634" d="M517.211-914.9H501.622a1.848,1.848,0,0,1-1.848-1.848,1.849,1.849,0,0,1,1.848-1.848h15.589a1.849,1.849,0,0,1,1.848,1.848A1.848,1.848,0,0,1,517.211-914.9Z" transform="translate(-499.774 918.599)" fill="#12263f"/>
        </g>
        <g id="Group_91147" data-name="Group 91147" transform="translate(0 37.895)">
          <path id="Path_136635" data-name="Path 136635" d="M554.485-908.206H501.622a1.849,1.849,0,0,1-1.848-1.848,1.848,1.848,0,0,1,1.848-1.848h52.863a1.848,1.848,0,0,1,1.848,1.848A1.849,1.849,0,0,1,554.485-908.206Z" transform="translate(-499.774 911.903)" fill="#12263f"/>
        </g>
        <g id="Group_91148" data-name="Group 91148" transform="translate(42.235 21.394)">
          <path id="Path_136636" data-name="Path 136636" d="M546.526-921.6H535.9a1.849,1.849,0,0,1-1.848-1.848,1.848,1.848,0,0,1,1.848-1.848h10.628a1.848,1.848,0,0,1,1.848,1.848A1.849,1.849,0,0,1,546.526-921.6Z" transform="translate(-534.05 925.294)" fill="#12263f"/>
        </g>
        <g id="Group_91149" data-name="Group 91149" transform="translate(25.609 29.644)">
          <path id="Path_136637" data-name="Path 136637" d="M549.659-914.9H522.405a1.848,1.848,0,0,1-1.848-1.848,1.849,1.849,0,0,1,1.848-1.848h27.254a1.849,1.849,0,0,1,1.848,1.848A1.848,1.848,0,0,1,549.659-914.9Z" transform="translate(-520.557 918.599)" fill="#12263f"/>
        </g>
      </g>
      <g id="Group_91151" data-name="Group 91151" transform="translate(334.607 -1019.647)">
        <path id="Path_136638" data-name="Path 136638" d="M328.56-928.709a1.849,1.849,0,0,1-1.848-1.848v-91.132a8.018,8.018,0,0,1,8.009-8.009h24.425a1.848,1.848,0,0,1,1.848,1.848,1.849,1.849,0,0,1-1.848,1.848H334.721a4.317,4.317,0,0,0-4.313,4.313v91.132A1.849,1.849,0,0,1,328.56-928.709Z" transform="translate(-326.712 1029.699)" fill="#12263f"/>
      </g>
      <g id="Group_91152" data-name="Group 91152" transform="translate(543.7 -1019.647)">
        <path id="Path_136639" data-name="Path 136639" d="M528.837-928.709a1.848,1.848,0,0,1-1.848-1.848v-91.132a4.318,4.318,0,0,0-4.313-4.313H498.25a1.849,1.849,0,0,1-1.848-1.848,1.848,1.848,0,0,1,1.848-1.848h24.426a8.019,8.019,0,0,1,8.009,8.009v91.132A1.849,1.849,0,0,1,528.837-928.709Z" transform="translate(-496.402 1029.699)" fill="#12263f"/>
      </g>
      <g id="Group_91158" data-name="Group 91158" transform="translate(308.209 -850.207)">
        <g id="Group_91155" data-name="Group 91155" transform="translate(0 13.521)">
          <g id="Group_91153" data-name="Group 91153">
            <path id="Path_136640" data-name="Path 136640" d="M329.321-877.519H307.137a1.847,1.847,0,0,1-1.848-1.848,1.848,1.848,0,0,1,1.848-1.848h22.183a1.849,1.849,0,0,1,1.848,1.848A1.848,1.848,0,0,1,329.321-877.519Z" transform="translate(-305.289 881.216)" fill="#12263f"/>
          </g>
          <g id="Group_91154" data-name="Group 91154" transform="translate(270.292)">
            <path id="Path_136641" data-name="Path 136641" d="M548.677-877.519H526.494a1.848,1.848,0,0,1-1.848-1.848,1.848,1.848,0,0,1,1.848-1.848h22.182a1.848,1.848,0,0,1,1.848,1.848A1.848,1.848,0,0,1,548.677-877.519Z" transform="translate(-524.646 881.216)" fill="#12263f"/>
          </g>
        </g>
        <g id="Group_91156" data-name="Group 91156" transform="translate(34.748 13.521)">
          <path id="Path_136642" data-name="Path 136642" d="M558.316-877.519H335.337a1.848,1.848,0,0,1-1.848-1.848,1.849,1.849,0,0,1,1.848-1.848H558.316a1.849,1.849,0,0,1,1.848,1.848A1.848,1.848,0,0,1,558.316-877.519Z" transform="translate(-333.489 881.216)" fill="#12263f"/>
        </g>
        <g id="Group_91157" data-name="Group 91157">
          <path id="Path_136643" data-name="Path 136643" d="M599.612-888.492H307.137a1.847,1.847,0,0,1-1.848-1.848,1.847,1.847,0,0,1,1.848-1.848H599.612a1.847,1.847,0,0,1,1.848,1.848A1.847,1.847,0,0,1,599.612-888.492Z" transform="translate(-305.289 892.189)" fill="#12263f"/>
        </g>
      </g>
      <rect id="Rectangle_8065" data-name="Rectangle 8065" width="203.167" height="99.116" rx="5.92" transform="translate(354.712 -1071.141)" fill="#cecece"/>
      <g id="Group_91159" data-name="Group 91159" transform="translate(354.712 -1071.141)">
        <path id="Path_136644" data-name="Path 136644" d="M355.35-979.668v-84.527a7.316,7.316,0,0,1,7.295-7.295H350.323a7.316,7.316,0,0,0-7.295,7.295v84.527a7.316,7.316,0,0,0,7.295,7.295h12.322A7.316,7.316,0,0,1,355.35-979.668Z" transform="translate(-343.028 1071.489)" fill="#afafaf"/>
      </g>
      <g id="Group_91160" data-name="Group 91160" transform="translate(538.262 -1071.141)">
        <path id="Path_136645" data-name="Path 136645" d="M499.284-979.668v-84.527a7.316,7.316,0,0,0-7.295-7.295h12.322a7.316,7.316,0,0,1,7.295,7.295v84.527a7.316,7.316,0,0,1-7.295,7.295H491.989A7.316,7.316,0,0,0,499.284-979.668Z" transform="translate(-491.989 1071.489)" fill="#e2e2e2"/>
      </g>
      <g id="Group_91161" data-name="Group 91161" transform="translate(352.863 -1072.989)">
        <path id="Path_136646" data-name="Path 136646" d="M539.249-970.177H350.671a9.153,9.153,0,0,1-9.143-9.143v-84.527a9.152,9.152,0,0,1,9.143-9.143H539.249a9.152,9.152,0,0,1,9.143,9.143v84.527A9.153,9.153,0,0,1,539.249-970.177Zm-188.578-99.116a5.453,5.453,0,0,0-5.446,5.446v84.527a5.453,5.453,0,0,0,5.446,5.446H539.249a5.452,5.452,0,0,0,5.446-5.446v-84.527a5.452,5.452,0,0,0-5.446-5.446Z" transform="translate(-341.528 1072.989)" fill="#12263f"/>
      </g>
      <g id="Group_91162" data-name="Group 91162" transform="translate(354.712 -1071.141)">
        <path id="Path_136647" data-name="Path 136647" d="M546.195-1064.191a7.32,7.32,0,0,0-7.3-7.3H350.328a7.32,7.32,0,0,0-7.3,7.3v16.786H546.195Z" transform="translate(-343.028 1071.489)" fill="#ffca28"/>
      </g>
      <g id="Group_91163" data-name="Group 91163" transform="translate(354.712 -1071.141)">
        <path id="Path_136648" data-name="Path 136648" d="M362.65-1071.489H350.328a7.32,7.32,0,0,0-7.3,7.3v16.786H355.35v-16.786A7.32,7.32,0,0,1,362.65-1071.489Z" transform="translate(-343.028 1071.489)" fill="#ffa726"/>
      </g>
      <g id="Group_91164" data-name="Group 91164" transform="translate(538.257 -1071.141)">
        <path id="Path_136649" data-name="Path 136649" d="M491.985-1071.489h12.322a7.32,7.32,0,0,1,7.3,7.3v16.786H499.285v-16.786A7.32,7.32,0,0,0,491.985-1071.489Z" transform="translate(-491.985 1071.489)" fill="#ffd34d"/>
      </g>
      <g id="Group_91166" data-name="Group 91166" transform="translate(352.863 -1072.989)">
        <g id="Group_91165" data-name="Group 91165">
          <path id="Path_136650" data-name="Path 136650" d="M546.543-1045.208H343.376a1.848,1.848,0,0,1-1.848-1.848v-16.785a9.158,9.158,0,0,1,9.148-9.148H539.244a9.158,9.158,0,0,1,9.148,9.148v16.785A1.848,1.848,0,0,1,546.543-1045.208Zm-201.319-3.7h199.47v-14.937a5.457,5.457,0,0,0-5.451-5.451H350.676a5.457,5.457,0,0,0-5.451,5.451Z" transform="translate(-341.528 1072.989)" fill="#12263f"/>
        </g>
      </g>
      <g id="Group_91172" data-name="Group 91172" transform="translate(362.988 -1065.984)">
        <g id="Group_91167" data-name="Group 91167" transform="translate(1.848 1.849)">
          <circle id="Ellipse_4222" data-name="Ellipse 4222" cx="5.037" cy="5.037" r="5.037" fill="#4dd0e1"/>
          <circle id="Ellipse_4223" data-name="Ellipse 4223" cx="5.037" cy="5.037" r="5.037" transform="translate(15.438)" fill="#4dd0e1"/>
          <circle id="Ellipse_4224" data-name="Ellipse 4224" cx="5.037" cy="5.037" r="5.037" transform="translate(30.875)" fill="#4dd0e1"/>
        </g>
        <g id="Group_91171" data-name="Group 91171">
          <g id="Group_91168" data-name="Group 91168">
            <path id="Path_136651" data-name="Path 136651" d="M356.629-1053.533a6.893,6.893,0,0,1-6.884-6.885,6.893,6.893,0,0,1,6.884-6.885,6.894,6.894,0,0,1,6.886,6.885A6.894,6.894,0,0,1,356.629-1053.533Zm0-10.074a3.192,3.192,0,0,0-3.188,3.189,3.192,3.192,0,0,0,3.188,3.189,3.193,3.193,0,0,0,3.189-3.189A3.193,3.193,0,0,0,356.629-1063.607Z" transform="translate(-349.745 1067.304)" fill="#12263f"/>
          </g>
          <g id="Group_91169" data-name="Group 91169" transform="translate(15.437)">
            <path id="Path_136652" data-name="Path 136652" d="M369.157-1053.533a6.893,6.893,0,0,1-6.884-6.885,6.893,6.893,0,0,1,6.884-6.885,6.894,6.894,0,0,1,6.886,6.885A6.894,6.894,0,0,1,369.157-1053.533Zm0-10.074a3.192,3.192,0,0,0-3.188,3.189,3.193,3.193,0,0,0,3.188,3.189,3.193,3.193,0,0,0,3.189-3.189A3.193,3.193,0,0,0,369.157-1063.607Z" transform="translate(-362.273 1067.304)" fill="#12263f"/>
          </g>
          <g id="Group_91170" data-name="Group 91170" transform="translate(30.875)">
            <path id="Path_136653" data-name="Path 136653" d="M381.688-1053.533a6.894,6.894,0,0,1-6.886-6.885,6.894,6.894,0,0,1,6.886-6.885,6.893,6.893,0,0,1,6.884,6.885A6.893,6.893,0,0,1,381.688-1053.533Zm0-10.074a3.193,3.193,0,0,0-3.189,3.189,3.193,3.193,0,0,0,3.189,3.189,3.193,3.193,0,0,0,3.188-3.189A3.192,3.192,0,0,0,381.688-1063.607Z" transform="translate(-374.802 1067.304)" fill="#12263f"/>
          </g>
        </g>
      </g>
      <g id="Group_91173" data-name="Group 91173" transform="translate(491.873 -1060.947)">
        <path id="Path_136654" data-name="Path 136654" d="M503.851-1059.519H456.19a1.849,1.849,0,0,1-1.848-1.848,1.848,1.848,0,0,1,1.848-1.848h47.66a1.847,1.847,0,0,1,1.848,1.848A1.848,1.848,0,0,1,503.851-1059.519Z" transform="translate(-454.342 1063.216)" fill="#12263f"/>
      </g>
      <g id="Group_91174" data-name="Group 91174" transform="translate(367.041 -1023.714)">
        <path id="Path_136655" data-name="Path 136655" d="M362.075-1011.709l-9.041-8.561,9.041-8.547,2.094,2.382-6.654,6.135,6.654,6.209Z" transform="translate(-353.034 1033.971)" fill="#12263f"/>
        <path id="Path_136656" data-name="Path 136656" d="M368.144-1007.96h-3.179l9.362-24.538h3.193Z" transform="translate(-350.264 1033.117)" fill="#12263f"/>
        <path id="Path_136657" data-name="Path 136657" d="M381.795-1028.067v5.457h6.627v3.045h-6.627v8.064h-3.353v-19.7H388.8v3.135Z" transform="translate(-347.134 1033.417)" fill="#12263f"/>
        <path id="Path_136658" data-name="Path 136658" d="M393.461-1027.642v9.978a3.5,3.5,0,0,0,.415,1.891,1.4,1.4,0,0,0,1.261.641,2.232,2.232,0,0,0,1.577-.761,12.963,12.963,0,0,0,1.6-2.058v-9.691h3.273v15.314h-2.829l-.081-2.261a12.462,12.462,0,0,1-.871,1.071,5.128,5.128,0,0,1-.96.821,4.388,4.388,0,0,1-1.126.527,4.555,4.555,0,0,1-1.348.188,4.117,4.117,0,0,1-1.831-.384,3.526,3.526,0,0,1-1.307-1.093,4.948,4.948,0,0,1-.785-1.7,8.6,8.6,0,0,1-.261-2.208v-10.279Z" transform="translate(-344.407 1034.244)" fill="#12263f"/>
        <path id="Path_136659" data-name="Path 136659" d="M410.6-1012.266v-9.978q0-2.517-1.663-2.517a2.249,2.249,0,0,0-1.59.754,12.692,12.692,0,0,0-1.6,2.049v9.693h-3.273v-15.314h2.83l.08,2.261a10.282,10.282,0,0,1,.865-1.071,5.194,5.194,0,0,1,.972-.822,4.387,4.387,0,0,1,1.127-.52,4.748,4.748,0,0,1,1.354-.18,4.075,4.075,0,0,1,1.825.385,3.583,3.583,0,0,1,1.3,1.084,4.876,4.876,0,0,1,.784,1.688,8.6,8.6,0,0,1,.262,2.208v10.28Z" transform="translate(-341.555 1034.182)" fill="#12263f"/>
        <path id="Path_136660" data-name="Path 136660" d="M425.765-1012.87a9.4,9.4,0,0,1-2,.648,10.779,10.779,0,0,1-2.159.211,8.039,8.039,0,0,1-2.912-.5,5.712,5.712,0,0,1-2.186-1.476,6.582,6.582,0,0,1-1.375-2.427,10.729,10.729,0,0,1-.476-3.345,10.159,10.159,0,0,1,.516-3.332,7.436,7.436,0,0,1,1.455-2.547,6.381,6.381,0,0,1,2.26-1.628,7.333,7.333,0,0,1,2.945-.573,13.179,13.179,0,0,1,2.233.159,11.174,11.174,0,0,1,1.63.4v3.572a7.585,7.585,0,0,0-1.8-.723,7.22,7.22,0,0,0-1.845-.256,3.734,3.734,0,0,0-1.636.346,3.465,3.465,0,0,0-1.221.965,4.351,4.351,0,0,0-.758,1.5,6.812,6.812,0,0,0-.261,1.937,6.4,6.4,0,0,0,.282,1.974,4.316,4.316,0,0,0,.8,1.485,3.475,3.475,0,0,0,1.241.935,3.9,3.9,0,0,0,1.609.324,6.551,6.551,0,0,0,.906-.068,7.881,7.881,0,0,0,.953-.2q.477-.128.939-.293a8.519,8.519,0,0,0,.865-.362Z" transform="translate(-338.724 1034.199)" fill="#12263f"/>
        <path id="Path_136661" data-name="Path 136661" d="M438.424-1011.555a18.139,18.139,0,0,1-1.784.361,11.328,11.328,0,0,1-1.7.135,7.482,7.482,0,0,1-2.314-.317,3.907,3.907,0,0,1-1.61-.965,3.93,3.93,0,0,1-.939-1.65,8.36,8.36,0,0,1-.3-2.389v-7.476h-3.662v-2.864h3.662v-3.92l3.353-.98v4.9h5.3v2.864h-5.3v7.2a3.128,3.128,0,0,0,.536,1.983,2.178,2.178,0,0,0,1.8.67,8.147,8.147,0,0,0,1.57-.15,13.73,13.73,0,0,0,1.395-.347Z" transform="translate(-336.065 1033.321)" fill="#12263f"/>
        <path id="Path_136662" data-name="Path 136662" d="M443.624-1023.534h-3.851v-2.864h7.2v12.45h3.931v2.864H439.3v-2.864h4.32Zm3.621-7.054a2.692,2.692,0,0,1-.161.935,2.353,2.353,0,0,1-.45.76,2.151,2.151,0,0,1-.676.513,1.917,1.917,0,0,1-.845.188,1.955,1.955,0,0,1-.852-.188,2.13,2.13,0,0,1-.685-.513,2.35,2.35,0,0,1-.449-.76,2.692,2.692,0,0,1-.161-.935,2.682,2.682,0,0,1,.161-.934,2.433,2.433,0,0,1,.449-.769,2.1,2.1,0,0,1,.685-.52,1.953,1.953,0,0,1,.852-.188,1.915,1.915,0,0,1,.845.188,2.118,2.118,0,0,1,.676.52,2.436,2.436,0,0,1,.45.769A2.682,2.682,0,0,1,447.246-1030.589Z" transform="translate(-333.002 1033)" fill="#12263f"/>
        <path id="Path_136663" data-name="Path 136663" d="M463.939-1020.043a11.32,11.32,0,0,1-.456,3.308,7.608,7.608,0,0,1-1.315,2.57,5.869,5.869,0,0,1-2.106,1.657,6.6,6.6,0,0,1-2.844.588,6.994,6.994,0,0,1-2.71-.5,5.266,5.266,0,0,1-2.026-1.485,6.808,6.808,0,0,1-1.274-2.472,12.178,12.178,0,0,1-.442-3.46,11.135,11.135,0,0,1,.463-3.316,7.44,7.44,0,0,1,1.327-2.547,5.93,5.93,0,0,1,2.113-1.635,6.6,6.6,0,0,1,2.817-.581,6.938,6.938,0,0,1,2.723.5,5.288,5.288,0,0,1,2.025,1.5,6.8,6.8,0,0,1,1.268,2.465A11.971,11.971,0,0,1,463.939-1020.043Zm-3.407.09a6.5,6.5,0,0,0-.8-3.58,2.646,2.646,0,0,0-2.354-1.2,2.708,2.708,0,0,0-1.463.377,2.985,2.985,0,0,0-.992,1.031,4.934,4.934,0,0,0-.57,1.53,9.207,9.207,0,0,0-.181,1.869,6.241,6.241,0,0,0,.859,3.609,2.722,2.722,0,0,0,2.347,1.214,2.673,2.673,0,0,0,1.422-.37,2.813,2.813,0,0,0,.978-1.024,5.288,5.288,0,0,0,.564-1.545A9.312,9.312,0,0,0,460.532-1019.953Z" transform="translate(-330.34 1034.182)" fill="#12263f"/>
        <path id="Path_136664" data-name="Path 136664" d="M471.883-1012.266v-9.978q0-2.517-1.664-2.517a2.249,2.249,0,0,0-1.59.754,12.692,12.692,0,0,0-1.6,2.049v9.693h-3.273v-15.314h2.83l.08,2.261a10.3,10.3,0,0,1,.865-1.071,5.2,5.2,0,0,1,.972-.822,4.388,4.388,0,0,1,1.128-.52,4.747,4.747,0,0,1,1.354-.18,4.074,4.074,0,0,1,1.825.385,3.584,3.584,0,0,1,1.3,1.084,4.877,4.877,0,0,1,.784,1.688,8.6,8.6,0,0,1,.262,2.208v10.28Z" transform="translate(-327.324 1034.182)" fill="#12263f"/>
        <path id="Path_136665" data-name="Path 136665" d="M487.209-1016.773a4.529,4.529,0,0,1-.518,2.239,4.363,4.363,0,0,1-1.368,1.507,5.879,5.879,0,0,1-1.931.844,9.262,9.262,0,0,1-2.207.264,21.131,21.131,0,0,1-2.71-.158,16.342,16.342,0,0,1-2.281-.46v-3.316a11.624,11.624,0,0,0,2.515.851,11.586,11.586,0,0,0,2.368.264,3.3,3.3,0,0,0,1.925-.46,1.414,1.414,0,0,0,.637-1.2,1.471,1.471,0,0,0-.134-.633,1.5,1.5,0,0,0-.5-.55,5.329,5.329,0,0,0-1.04-.542q-.671-.279-1.757-.626a10.633,10.633,0,0,1-1.763-.716,4.538,4.538,0,0,1-1.254-.943,3.559,3.559,0,0,1-.744-1.258,5.109,5.109,0,0,1-.249-1.681,4.223,4.223,0,0,1,.376-1.763,4.1,4.1,0,0,1,1.12-1.455,5.5,5.5,0,0,1,1.858-.987,8.463,8.463,0,0,1,2.6-.361,15.255,15.255,0,0,1,2.28.151q.993.151,1.757.331v3a12.757,12.757,0,0,0-2.193-.6,12.164,12.164,0,0,0-2.032-.174,2.875,2.875,0,0,0-1.617.408,1.286,1.286,0,0,0-.61,1.13,1.514,1.514,0,0,0,.121.619,1.372,1.372,0,0,0,.477.527,5.559,5.559,0,0,0,.992.535,17.8,17.8,0,0,0,1.683.611,11.947,11.947,0,0,1,1.985.806,4.679,4.679,0,0,1,1.3.972,3.265,3.265,0,0,1,.7,1.236A5.352,5.352,0,0,1,487.209-1016.773Z" transform="translate(-324.435 1034.182)" fill="#12263f"/>
        <path id="Path_136666" data-name="Path 136666" d="M490.958-1028.817,500-1020.27l-9.041,8.561-2.08-2.382,6.64-6.149-6.64-6.2Z" transform="translate(-321.491 1033.971)" fill="#12263f"/>
      </g>
    </g>
  </g>
</svg>
