<svg xmlns="http://www.w3.org/2000/svg" width="295" height="150" viewBox="0 0 295 150">
  <g id="t4-i23" transform="translate(-180 -14916)">
    <rect id="Rectangle_8112" data-name="Rectangle 8112" width="295" height="150" rx="10" transform="translate(180 14916)" fill="#e3edf8"/>
    <g id="Group_91306" data-name="Group 91306" transform="translate(-7.008 16103.568)">
      <rect id="Rectangle_8113" data-name="Rectangle 8113" width="116.483" height="80.276" rx="13.665" transform="translate(276.613 -1153.128)" fill="#cecece"/>
      <g id="Group_91274" data-name="Group 91274" transform="translate(276.613 -1153.128)">
        <path id="Path_136756" data-name="Path 136756" d="M286.871-1061.195v-65.757a7.269,7.269,0,0,1,7.26-7.26h-5.313a7.269,7.269,0,0,0-7.26,7.26v65.757a7.268,7.268,0,0,0,7.26,7.26h5.313A7.268,7.268,0,0,1,286.871-1061.195Z" transform="translate(-281.558 1134.211)" fill="#afafaf"/>
      </g>
      <g id="Group_91275" data-name="Group 91275" transform="translate(380.524 -1153.128)">
        <path id="Path_136757" data-name="Path 136757" d="M484.414-1061.195v-65.757a7.268,7.268,0,0,0-7.26-7.26h5.313a7.268,7.268,0,0,1,7.26,7.26v65.757a7.268,7.268,0,0,1-7.26,7.26h-5.313A7.268,7.268,0,0,0,484.414-1061.195Z" transform="translate(-477.154 1134.211)" fill="#e2e2e2"/>
      </g>
      <g id="Group_91276" data-name="Group 91276" transform="translate(275.816 -1153.925)">
        <path id="Path_136758" data-name="Path 136758" d="M390.079-1053.842H288.115a8.065,8.065,0,0,1-8.056-8.056v-65.757a8.065,8.065,0,0,1,8.056-8.057H390.079a8.065,8.065,0,0,1,8.056,8.057v65.757A8.065,8.065,0,0,1,390.079-1053.842Zm-101.964-80.276a6.47,6.47,0,0,0-6.462,6.463v65.757a6.47,6.47,0,0,0,6.462,6.463H390.079a6.47,6.47,0,0,0,6.462-6.463v-65.757a6.47,6.47,0,0,0-6.462-6.463Z" transform="translate(-280.059 1135.711)" fill="#12263f"/>
      </g>
      <rect id="Rectangle_8114" data-name="Rectangle 8114" width="107.548" height="64.966" rx="5.256" transform="translate(281.08 -1148.661)" fill="#63bce7"/>
      <g id="Group_91277" data-name="Group 91277" transform="translate(281.081 -1148.661)">
        <path id="Path_136759" data-name="Path 136759" d="M295.281-1063.628v-59.382a2.8,2.8,0,0,1,2.792-2.792H292.76a2.8,2.8,0,0,0-2.792,2.792v59.382a2.8,2.8,0,0,0,2.792,2.792h5.313A2.8,2.8,0,0,1,295.281-1063.628Z" transform="translate(-289.968 1125.802)" fill="#039be5"/>
      </g>
      <g id="Group_91278" data-name="Group 91278" transform="translate(380.524 -1148.661)">
        <path id="Path_136760" data-name="Path 136760" d="M479.946-1063.628v-59.382a2.8,2.8,0,0,0-2.792-2.792h5.313a2.8,2.8,0,0,1,2.792,2.792v59.382a2.8,2.8,0,0,1-2.792,2.792h-5.313A2.8,2.8,0,0,0,479.946-1063.628Z" transform="translate(-477.154 1125.802)" fill="#7cd5e1"/>
      </g>
      <g id="Group_91279" data-name="Group 91279" transform="translate(280.284 -1149.458)">
        <path id="Path_136761" data-name="Path 136761" d="M394.021-1060.742H292.057a3.593,3.593,0,0,1-3.589-3.589v-59.382a3.593,3.593,0,0,1,3.589-3.589H394.021a3.593,3.593,0,0,1,3.589,3.589v59.382A3.593,3.593,0,0,1,394.021-1060.742Zm-101.964-64.966a2,2,0,0,0-1.995,2v59.382a2,2,0,0,0,1.995,2H394.021a2,2,0,0,0,1.995-2v-59.382a2,2,0,0,0-1.995-2Z" transform="translate(-288.468 1127.302)" fill="#12263f"/>
      </g>
      <rect id="Rectangle_8115" data-name="Rectangle 8115" width="40.579" height="4.886" transform="translate(314.565 -1061.081)" fill="#9e9e9e"/>
      <g id="Group_91280" data-name="Group 91280" transform="translate(314.565 -1061.081)">
        <rect id="Rectangle_8116" data-name="Rectangle 8116" width="5.313" height="4.886" transform="translate(0 0)" fill="#12263f"/>
      </g>
      <rect id="Rectangle_8117" data-name="Rectangle 8117" width="29.038" height="11.772" transform="translate(320.336 -1072.852)" fill="#cecece"/>
      <g id="Group_91281" data-name="Group 91281" transform="translate(320.336 -1072.852)">
        <rect id="Rectangle_8118" data-name="Rectangle 8118" width="5.313" height="11.772" transform="translate(0 0)" fill="#afafaf"/>
      </g>
      <g id="Group_91282" data-name="Group 91282" transform="translate(313.768 -1061.878)">
        <path id="Path_136762" data-name="Path 136762" d="M392.873-955.967H352.294a.8.8,0,0,1-.8-.8v-4.886a.8.8,0,0,1,.8-.8h40.579a.8.8,0,0,1,.8.8v4.886A.8.8,0,0,1,392.873-955.967Zm-39.782-1.594h38.985v-3.292H353.091Z" transform="translate(-351.497 962.447)" fill="#12263f"/>
      </g>
      <g id="Group_91283" data-name="Group 91283" transform="translate(319.539 -1073.649)">
        <path id="Path_136763" data-name="Path 136763" d="M392.194-971.24H363.156a.8.8,0,0,1-.8-.8v-11.772a.8.8,0,0,1,.8-.8h29.038a.8.8,0,0,1,.8.8v11.772A.8.8,0,0,1,392.194-971.24Zm-28.241-1.594H391.4v-10.178H363.953Z" transform="translate(-362.359 984.605)" fill="#12263f"/>
      </g>
      <g id="Group_91285" data-name="Group 91285" transform="translate(331.667 -1081.461)">
        <circle id="Ellipse_4236" data-name="Ellipse 4236" cx="2.391" cy="2.391" r="2.391" transform="translate(0.797 0.797)" fill="#9e9e9e"/>
        <g id="Group_91284" data-name="Group 91284" transform="translate(0)">
          <path id="Path_136764" data-name="Path 136764" d="M388.376-992.934a3.191,3.191,0,0,1-3.188-3.187,3.191,3.191,0,0,1,3.188-3.188,3.191,3.191,0,0,1,3.188,3.188A3.191,3.191,0,0,1,388.376-992.934Zm0-4.781a1.6,1.6,0,0,0-1.594,1.594,1.6,1.6,0,0,0,1.594,1.594,1.6,1.6,0,0,0,1.594-1.594A1.6,1.6,0,0,0,388.376-997.715Z" transform="translate(-385.188 999.309)" fill="#12263f"/>
        </g>
      </g>
      <g id="Group_91291" data-name="Group 91291" transform="translate(271.008 -1056.992)">
        <g id="Group_91288" data-name="Group 91288" transform="translate(0 5.83)">
          <g id="Group_91286" data-name="Group 91286">
            <path id="Path_136765" data-name="Path 136765" d="M281.37-940.682H271.8a.8.8,0,0,1-.8-.8.8.8,0,0,1,.8-.8h9.565a.8.8,0,0,1,.8.8A.8.8,0,0,1,281.37-940.682Z" transform="translate(-271.008 942.276)" fill="#12263f"/>
          </g>
          <g id="Group_91287" data-name="Group 91287" transform="translate(116.534)">
            <path id="Path_136766" data-name="Path 136766" d="M500.727-940.682h-9.565a.8.8,0,0,1-.8-.8.8.8,0,0,1,.8-.8h9.565a.8.8,0,0,1,.8.8A.8.8,0,0,1,500.727-940.682Z" transform="translate(-490.365 942.276)" fill="#12263f"/>
          </g>
        </g>
        <g id="Group_91289" data-name="Group 91289" transform="translate(14.982 5.83)">
          <path id="Path_136767" data-name="Path 136767" d="M396.141-940.682H300.006a.8.8,0,0,1-.8-.8.8.8,0,0,1,.8-.8h96.135a.8.8,0,0,1,.8.8A.8.8,0,0,1,396.141-940.682Z" transform="translate(-299.209 942.276)" fill="#12263f"/>
        </g>
        <g id="Group_91290" data-name="Group 91290" transform="translate(0 0)">
          <path id="Path_136768" data-name="Path 136768" d="M397.9-951.656H271.8a.8.8,0,0,1-.8-.8.8.8,0,0,1,.8-.8H397.9a.8.8,0,0,1,.8.8A.8.8,0,0,1,397.9-951.656Z" transform="translate(-271.008 953.25)" fill="#12263f"/>
        </g>
      </g>
      <rect id="Rectangle_8119" data-name="Rectangle 8119" width="82.071" height="70.308" rx="10.6" transform="translate(293.819 -1173.771)" fill="#cecece"/>
      <g id="Group_91292" data-name="Group 91292" transform="translate(293.819 -1173.771)">
        <path id="Path_136769" data-name="Path 136769" d="M319.259-1108.391v-59.045a5.632,5.632,0,0,1,5.631-5.631h-5.313a5.632,5.632,0,0,0-5.631,5.631v59.045a5.631,5.631,0,0,0,5.631,5.631h5.313A5.631,5.631,0,0,1,319.259-1108.391Z" transform="translate(-313.946 1173.068)" fill="#afafaf"/>
      </g>
      <g id="Group_91293" data-name="Group 91293" transform="translate(364.946 -1173.771)">
        <path id="Path_136770" data-name="Path 136770" d="M453.462-1108.391v-59.045a5.632,5.632,0,0,0-5.631-5.631h5.313a5.632,5.632,0,0,1,5.631,5.631v59.045a5.631,5.631,0,0,1-5.631,5.631h-5.313A5.631,5.631,0,0,0,453.462-1108.391Z" transform="translate(-447.831 1173.068)" fill="#e2e2e2"/>
      </g>
      <g id="Group_91294" data-name="Group 91294" transform="translate(293.022 -1174.568)">
        <path id="Path_136771" data-name="Path 136771" d="M389.682-1102.666H318.874a6.435,6.435,0,0,1-6.428-6.428v-59.045a6.436,6.436,0,0,1,6.428-6.428h70.808a6.436,6.436,0,0,1,6.428,6.428v59.045A6.435,6.435,0,0,1,389.682-1102.666Zm-70.808-70.308a4.84,4.84,0,0,0-4.834,4.834v59.045a4.84,4.84,0,0,0,4.834,4.834h70.808a4.84,4.84,0,0,0,4.834-4.834v-59.045a4.84,4.84,0,0,0-4.834-4.834Z" transform="translate(-312.446 1174.568)" fill="#12263f"/>
      </g>
      <path id="Path_136772" data-name="Path 136772" d="M396.017-1167.436a5.632,5.632,0,0,0-5.632-5.632H319.578a5.633,5.633,0,0,0-5.632,5.632v9.8h82.071Z" transform="translate(-20.127 -0.703)" fill="#ffca28"/>
      <g id="Group_91295" data-name="Group 91295" transform="translate(293.819 -1173.771)">
        <path id="Path_136773" data-name="Path 136773" d="M324.891-1173.068h-5.313a5.633,5.633,0,0,0-5.632,5.632v9.8h5.313v-9.8A5.633,5.633,0,0,1,324.891-1173.068Z" transform="translate(-313.946 1173.068)" fill="#f87023"/>
      </g>
      <g id="Group_91296" data-name="Group 91296" transform="translate(364.946 -1173.771)">
        <path id="Path_136774" data-name="Path 136774" d="M447.83-1173.068h5.313a5.632,5.632,0,0,1,5.632,5.632v9.8h-5.313v-9.8A5.632,5.632,0,0,0,447.83-1173.068Z" transform="translate(-447.83 1173.068)" fill="#f8d323"/>
      </g>
      <g id="Group_91297" data-name="Group 91297" transform="translate(301.301 -1168.626)">
        <circle id="Ellipse_4237" data-name="Ellipse 4237" cx="2.572" cy="2.572" r="2.572" transform="translate(0 0)" fill="#039be5"/>
        <circle id="Ellipse_4238" data-name="Ellipse 4238" cx="2.572" cy="2.572" r="2.572" transform="translate(9.908 0)" fill="#039be5"/>
        <circle id="Ellipse_4239" data-name="Ellipse 4239" cx="2.572" cy="2.572" r="2.572" transform="translate(19.815 0)" fill="#039be5"/>
      </g>
      <g id="Group_91301" data-name="Group 91301" transform="translate(300.504 -1169.423)">
        <g id="Group_91298" data-name="Group 91298" transform="translate(0 0)">
          <path id="Path_136775" data-name="Path 136775" d="M329.9-1158.146a3.372,3.372,0,0,1-3.369-3.369,3.373,3.373,0,0,1,3.369-3.369,3.373,3.373,0,0,1,3.369,3.369A3.372,3.372,0,0,1,329.9-1158.146Zm0-5.144a1.777,1.777,0,0,0-1.775,1.775,1.777,1.777,0,0,0,1.775,1.775,1.777,1.777,0,0,0,1.775-1.775A1.777,1.777,0,0,0,329.9-1163.29Z" transform="translate(-326.529 1164.884)" fill="#12263f"/>
        </g>
        <g id="Group_91299" data-name="Group 91299" transform="translate(9.908 0)">
          <path id="Path_136776" data-name="Path 136776" d="M348.548-1158.146a3.372,3.372,0,0,1-3.369-3.369,3.372,3.372,0,0,1,3.369-3.369,3.372,3.372,0,0,1,3.369,3.369A3.372,3.372,0,0,1,348.548-1158.146Zm0-5.144a1.777,1.777,0,0,0-1.775,1.775,1.777,1.777,0,0,0,1.775,1.775,1.777,1.777,0,0,0,1.775-1.775A1.777,1.777,0,0,0,348.548-1163.29Z" transform="translate(-345.179 1164.884)" fill="#12263f"/>
        </g>
        <g id="Group_91300" data-name="Group 91300" transform="translate(19.815 0)">
          <path id="Path_136777" data-name="Path 136777" d="M367.2-1158.146a3.372,3.372,0,0,1-3.369-3.369,3.373,3.373,0,0,1,3.369-3.369,3.373,3.373,0,0,1,3.369,3.369A3.372,3.372,0,0,1,367.2-1158.146Zm0-5.144a1.777,1.777,0,0,0-1.775,1.775,1.777,1.777,0,0,0,1.775,1.775,1.777,1.777,0,0,0,1.775-1.775A1.777,1.777,0,0,0,367.2-1163.29Z" transform="translate(-363.828 1164.884)" fill="#12263f"/>
        </g>
      </g>
      <rect id="Rectangle_8120" data-name="Rectangle 8120" width="36.467" height="3.92" rx="1.96" transform="translate(331.942 -1167.846)" fill="#039be5"/>
      <g id="Group_91302" data-name="Group 91302" transform="translate(331.144 -1168.643)">
        <path id="Path_136778" data-name="Path 136778" d="M419.509-1157.9H386.962a2.76,2.76,0,0,1-2.757-2.757,2.76,2.76,0,0,1,2.757-2.757h32.547a2.76,2.76,0,0,1,2.757,2.757A2.76,2.76,0,0,1,419.509-1157.9Zm-32.547-3.92a1.164,1.164,0,0,0-1.163,1.163,1.165,1.165,0,0,0,1.163,1.163h32.547a1.165,1.165,0,0,0,1.163-1.163,1.165,1.165,0,0,0-1.163-1.163Z" transform="translate(-384.205 1163.415)" fill="#12263f"/>
      </g>
      <g id="Group_91303" data-name="Group 91303" transform="translate(293.022 -1174.568)">
        <path id="Path_136779" data-name="Path 136779" d="M395.314-1157.541H313.243a.8.8,0,0,1-.8-.8v-9.8a6.437,6.437,0,0,1,6.429-6.429h70.806a6.437,6.437,0,0,1,6.429,6.429v9.8A.8.8,0,0,1,395.314-1157.541Zm-81.274-1.594h80.477v-9a4.841,4.841,0,0,0-4.835-4.835H318.875a4.841,4.841,0,0,0-4.835,4.835Z" transform="translate(-312.446 1174.568)" fill="#12263f"/>
      </g>
      <rect id="Rectangle_8121" data-name="Rectangle 8121" width="69.234" height="25.534" rx="12.767" transform="translate(300.237 -1116.23)" fill="#ffca28"/>
      <g id="Group_91304" data-name="Group 91304" transform="translate(299.44 -1117.027)">
        <path id="Path_136780" data-name="Path 136780" d="M381.791-1039.129h-43.7a13.579,13.579,0,0,1-13.565-13.564,13.58,13.58,0,0,1,13.565-13.564h43.7a13.58,13.58,0,0,1,13.565,13.564A13.579,13.579,0,0,1,381.791-1039.129Zm-43.7-25.534a11.984,11.984,0,0,0-11.971,11.97,11.984,11.984,0,0,0,11.971,11.97h43.7a11.984,11.984,0,0,0,11.971-11.97,11.984,11.984,0,0,0-11.971-11.97Z" transform="translate(-324.527 1066.257)" fill="#12263f"/>
      </g>
      <rect id="Rectangle_8122" data-name="Rectangle 8122" width="4.174" height="4.174" transform="translate(302.271 -1151.027)" fill="#12263f"/>
      <rect id="Rectangle_8123" data-name="Rectangle 8123" width="36.847" height="4.174" transform="translate(309.606 -1151.027)" fill="#12263f"/>
      <rect id="Rectangle_8124" data-name="Rectangle 8124" width="6.649" height="4.174" transform="translate(349.539 -1151.027)" fill="#12263f"/>
      <rect id="Rectangle_8125" data-name="Rectangle 8125" width="4.174" height="4.174" transform="translate(302.271 -1142.538)" fill="#12263f"/>
      <rect id="Rectangle_8126" data-name="Rectangle 8126" width="29.439" height="4.174" transform="translate(309.606 -1142.538)" fill="#12263f"/>
      <rect id="Rectangle_8127" data-name="Rectangle 8127" width="13.999" height="4.174" transform="translate(342.19 -1142.538)" fill="#12263f"/>
      <rect id="Rectangle_8128" data-name="Rectangle 8128" width="4.174" height="4.174" transform="translate(302.271 -1134.048)" fill="#12263f"/>
      <rect id="Rectangle_8129" data-name="Rectangle 8129" width="14.719" height="4.174" transform="translate(309.606 -1134.048)" fill="#12263f"/>
      <rect id="Rectangle_8130" data-name="Rectangle 8130" width="25.901" height="4.174" transform="translate(330.288 -1134.048)" fill="#12263f"/>
      <rect id="Rectangle_8131" data-name="Rectangle 8131" width="4.174" height="4.174" transform="translate(302.271 -1125.559)" fill="#12263f"/>
      <rect id="Rectangle_8132" data-name="Rectangle 8132" width="8.607" height="4.174" transform="translate(309.606 -1125.559)" fill="#12263f"/>
      <rect id="Rectangle_8133" data-name="Rectangle 8133" width="34.895" height="4.174" transform="translate(321.294 -1125.559)" fill="#12263f"/>
      <g id="Group_91305" data-name="Group 91305" transform="translate(305.116 -1108.237)">
        <path id="Path_136781" data-name="Path 136781" d="M338.9-1044.231v-1.433h3.283v4.922a5.925,5.925,0,0,1-1.327.438,7.538,7.538,0,0,1-1.5.141,4.756,4.756,0,0,1-1.727-.3,3.409,3.409,0,0,1-1.3-.883,3.942,3.942,0,0,1-.823-1.455,6.435,6.435,0,0,1-.286-2.012,6.567,6.567,0,0,1,.3-2.062,4.211,4.211,0,0,1,.876-1.543,3.743,3.743,0,0,1,1.412-.964,5.154,5.154,0,0,1,1.91-.332,6.955,6.955,0,0,1,1.239.109,10.679,10.679,0,0,1,1.2.293v1.716A6.258,6.258,0,0,0,341-1048a5.219,5.219,0,0,0-1.274-.159,2.746,2.746,0,0,0-1.147.226,2.241,2.241,0,0,0-.833.642,2.86,2.86,0,0,0-.508,1.024,5,5,0,0,0-.173,1.37,5.962,5.962,0,0,0,.134,1.324,2.7,2.7,0,0,0,.434,1,1.951,1.951,0,0,0,.773.632,2.73,2.73,0,0,0,1.151.219c.108,0,.2,0,.283-.01a2.036,2.036,0,0,0,.226-.032c.071-.014.138-.031.2-.049s.131-.04.2-.064v-2.358Z" transform="translate(-335.21 1049.71)" fill="#12263f"/>
        <path id="Path_136782" data-name="Path 136782" d="M355.919-1040.189l-1.3-2.965a1.407,1.407,0,0,0-.512-.639,1.379,1.379,0,0,0-.773-.215H353v3.82h-1.737v-9.228h2.69a6.744,6.744,0,0,1,1.384.131,2.876,2.876,0,0,1,1.059.434,2.014,2.014,0,0,1,.675.791,2.722,2.722,0,0,1,.236,1.193,2.562,2.562,0,0,1-.148.9,2.019,2.019,0,0,1-.417.682,2.106,2.106,0,0,1-.639.462,2.958,2.958,0,0,1-.809.247,1.153,1.153,0,0,1,.621.385,3.835,3.835,0,0,1,.565.907l1.476,3.092Zm-.43-6.51a1.1,1.1,0,0,0-.431-.974,2.285,2.285,0,0,0-1.292-.3H353v2.606h.706a2.908,2.908,0,0,0,.731-.085,1.645,1.645,0,0,0,.562-.254,1.161,1.161,0,0,0,.36-.42A1.253,1.253,0,0,0,355.488-1046.7Z" transform="translate(-342.736 1049.573)" fill="#12263f"/>
        <path id="Path_136783" data-name="Path 136783" d="M372.437-1044.979a7.107,7.107,0,0,1-.293,2.168,4.2,4.2,0,0,1-.8,1.5,3.179,3.179,0,0,1-1.2.869,3.834,3.834,0,0,1-1.473.283,3.221,3.221,0,0,1-2.74-1.211,5.755,5.755,0,0,1-.917-3.52,7.111,7.111,0,0,1,.293-2.168,4.2,4.2,0,0,1,.8-1.5,3.182,3.182,0,0,1,1.2-.869,3.843,3.843,0,0,1,1.472-.283,3.225,3.225,0,0,1,2.74,1.208A5.749,5.749,0,0,1,372.437-1044.979Zm-1.836.085a5.289,5.289,0,0,0-.438-2.443,1.513,1.513,0,0,0-1.44-.8,1.657,1.657,0,0,0-.855.208,1.62,1.62,0,0,0-.582.611,3.107,3.107,0,0,0-.335.992,7.7,7.7,0,0,0-.106,1.352,5.248,5.248,0,0,0,.441,2.443,1.514,1.514,0,0,0,1.437.8,1.677,1.677,0,0,0,.858-.208,1.588,1.588,0,0,0,.582-.611,3.161,3.161,0,0,0,.332-.992A7.71,7.71,0,0,0,370.6-1044.894Z" transform="translate(-349.178 1049.71)" fill="#12263f"/>
        <path id="Path_136784" data-name="Path 136784" d="M387.361-1043.585a4.63,4.63,0,0,1-.236,1.55,2.949,2.949,0,0,1-.678,1.112,2.823,2.823,0,0,1-1.077.67,4.231,4.231,0,0,1-1.426.226,4.56,4.56,0,0,1-1.525-.226,2.547,2.547,0,0,1-1.031-.649,2.513,2.513,0,0,1-.572-1.031,4.89,4.89,0,0,1-.176-1.363v-6.122h1.737v6.016a3.779,3.779,0,0,0,.081.826,1.474,1.474,0,0,0,.283.61,1.253,1.253,0,0,0,.5.378,1.979,1.979,0,0,0,.763.128,2.116,2.116,0,0,0,.727-.109,1.129,1.129,0,0,0,.494-.353,1.629,1.629,0,0,0,.3-.625,3.737,3.737,0,0,0,.1-.925v-5.945h1.737Z" transform="translate(-356.505 1049.573)" fill="#12263f"/>
        <path id="Path_136785" data-name="Path 136785" d="M402.647-1046.48a3.608,3.608,0,0,1-.24,1.331,2.874,2.874,0,0,1-.713,1.056,3.268,3.268,0,0,1-1.179.692,4.954,4.954,0,0,1-1.638.247h-.882v2.965h-1.751v-9.228h2.7a5.87,5.87,0,0,1,1.585.194,3.264,3.264,0,0,1,1.158.568,2.425,2.425,0,0,1,.713.922A3.049,3.049,0,0,1,402.647-1046.48Zm-1.822.12a1.83,1.83,0,0,0-.116-.667,1.319,1.319,0,0,0-.353-.512,1.6,1.6,0,0,0-.6-.325,2.859,2.859,0,0,0-.854-.113h-.911v3.382h.967a2.367,2.367,0,0,0,.8-.123,1.57,1.57,0,0,0,.583-.357,1.545,1.545,0,0,0,.36-.558A2.034,2.034,0,0,0,400.825-1046.36Z" transform="translate(-363.819 1049.573)" fill="#12263f"/>
        <path id="Path_136786" data-name="Path 136786" d="M419.11-1040.189v-9.228h2.98a4.132,4.132,0,0,1,2.361.55,1.9,1.9,0,0,1,.787,1.667,2.821,2.821,0,0,1-.081.674,2.128,2.128,0,0,1-.251.6,2,2,0,0,1-.424.487,1.9,1.9,0,0,1-.6.332,2.135,2.135,0,0,1,.66.222,1.957,1.957,0,0,1,.551.431,1.985,1.985,0,0,1,.374.625,2.235,2.235,0,0,1,.138.8,2.483,2.483,0,0,1-.946,2.122,4.5,4.5,0,0,1-2.733.71Zm4.321-6.708a1.259,1.259,0,0,0-.085-.473.859.859,0,0,0-.271-.36,1.343,1.343,0,0,0-.48-.229,2.686,2.686,0,0,0-.71-.081h-1.052v2.443h1.052a2.179,2.179,0,0,0,.717-.1,1.291,1.291,0,0,0,.48-.282,1.044,1.044,0,0,0,.268-.413A1.511,1.511,0,0,0,423.431-1046.9Zm-1.384,5.289a2.283,2.283,0,0,0,.73-.106,1.519,1.519,0,0,0,.526-.293,1.237,1.237,0,0,0,.321-.441,1.353,1.353,0,0,0,.109-.543,1.11,1.11,0,0,0-.448-.939,2.273,2.273,0,0,0-1.373-.339h-1.08v2.662Z" transform="translate(-374.538 1049.573)" fill="#12263f"/>
        <path id="Path_136787" data-name="Path 136787" d="M437.26-1043.458v3.269H435.5v-3.255l-3-5.973h1.927l1.356,2.852.622,1.4.621-1.44,1.419-2.81h1.85Z" transform="translate(-380.811 1049.573)" fill="#12263f"/>
      </g>
    </g>
  </g>
</svg>
