<svg xmlns="http://www.w3.org/2000/svg" width="295" height="150" viewBox="0 0 295 150">
  <g id="t4-i17" transform="translate(-180 -12129)">
    <rect id="Rectangle_8090" data-name="Rectangle 8090" width="295" height="150" rx="10" transform="translate(180 12129)" fill="#e3edf8"/>
    <g id="t4-i17-2" data-name="t4-i17" transform="translate(-7.008 13316.568)">
      <rect id="Rectangle_8091" data-name="Rectangle 8091" width="116.483" height="80.276" rx="13.665" transform="translate(276.613 -1153.128)" fill="#cecece"/>
      <g id="Group_91240" data-name="Group 91240" transform="translate(276.613 -1153.128)">
        <path id="Path_136726" data-name="Path 136726" d="M286.871-1061.195v-65.757a7.269,7.269,0,0,1,7.26-7.26h-5.313a7.269,7.269,0,0,0-7.26,7.26v65.757a7.268,7.268,0,0,0,7.26,7.26h5.313A7.268,7.268,0,0,1,286.871-1061.195Z" transform="translate(-281.558 1134.211)" fill="#afafaf"/>
      </g>
      <g id="Group_91241" data-name="Group 91241" transform="translate(380.524 -1153.128)">
        <path id="Path_136727" data-name="Path 136727" d="M484.414-1061.195v-65.757a7.268,7.268,0,0,0-7.26-7.26h5.313a7.268,7.268,0,0,1,7.26,7.26v65.757a7.268,7.268,0,0,1-7.26,7.26h-5.313A7.268,7.268,0,0,0,484.414-1061.195Z" transform="translate(-477.154 1134.211)" fill="#e2e2e2"/>
      </g>
      <g id="Group_91242" data-name="Group 91242" transform="translate(275.816 -1153.925)">
        <path id="Path_136728" data-name="Path 136728" d="M390.079-1053.842H288.115a8.065,8.065,0,0,1-8.056-8.056v-65.757a8.065,8.065,0,0,1,8.056-8.057H390.079a8.065,8.065,0,0,1,8.056,8.057v65.757A8.065,8.065,0,0,1,390.079-1053.842Zm-101.964-80.276a6.47,6.47,0,0,0-6.462,6.463v65.757a6.47,6.47,0,0,0,6.462,6.463H390.079a6.47,6.47,0,0,0,6.462-6.463v-65.757a6.47,6.47,0,0,0-6.462-6.463Z" transform="translate(-280.059 1135.711)" fill="#12263f"/>
      </g>
      <rect id="Rectangle_8092" data-name="Rectangle 8092" width="107.548" height="64.966" rx="5.256" transform="translate(281.08 -1148.661)" fill="#63bce7"/>
      <g id="Group_91243" data-name="Group 91243" transform="translate(281.081 -1148.661)">
        <path id="Path_136729" data-name="Path 136729" d="M295.281-1063.628v-59.382a2.8,2.8,0,0,1,2.792-2.792H292.76a2.8,2.8,0,0,0-2.792,2.792v59.382a2.8,2.8,0,0,0,2.792,2.792h5.313A2.8,2.8,0,0,1,295.281-1063.628Z" transform="translate(-289.968 1125.802)" fill="#039be5"/>
      </g>
      <g id="Group_91244" data-name="Group 91244" transform="translate(380.524 -1148.661)">
        <path id="Path_136730" data-name="Path 136730" d="M479.946-1063.628v-59.382a2.8,2.8,0,0,0-2.792-2.792h5.313a2.8,2.8,0,0,1,2.792,2.792v59.382a2.8,2.8,0,0,1-2.792,2.792h-5.313A2.8,2.8,0,0,0,479.946-1063.628Z" transform="translate(-477.154 1125.802)" fill="#7cd5e1"/>
      </g>
      <g id="Group_91245" data-name="Group 91245" transform="translate(280.284 -1149.458)">
        <path id="Path_136731" data-name="Path 136731" d="M394.021-1060.742H292.057a3.593,3.593,0,0,1-3.589-3.589v-59.382a3.593,3.593,0,0,1,3.589-3.589H394.021a3.593,3.593,0,0,1,3.589,3.589v59.382A3.593,3.593,0,0,1,394.021-1060.742Zm-101.964-64.966a2,2,0,0,0-1.995,2v59.382a2,2,0,0,0,1.995,2H394.021a2,2,0,0,0,1.995-2v-59.382a2,2,0,0,0-1.995-2Z" transform="translate(-288.468 1127.302)" fill="#12263f"/>
      </g>
      <rect id="Rectangle_8093" data-name="Rectangle 8093" width="40.579" height="4.886" transform="translate(314.565 -1061.081)" fill="#9e9e9e"/>
      <g id="Group_91246" data-name="Group 91246" transform="translate(314.565 -1061.081)">
        <rect id="Rectangle_8094" data-name="Rectangle 8094" width="5.313" height="4.886" transform="translate(0 0)" fill="#12263f"/>
      </g>
      <rect id="Rectangle_8095" data-name="Rectangle 8095" width="29.038" height="11.772" transform="translate(320.336 -1072.852)" fill="#cecece"/>
      <g id="Group_91247" data-name="Group 91247" transform="translate(320.336 -1072.852)">
        <rect id="Rectangle_8096" data-name="Rectangle 8096" width="5.313" height="11.772" transform="translate(0 0)" fill="#afafaf"/>
      </g>
      <g id="Group_91248" data-name="Group 91248" transform="translate(313.768 -1061.878)">
        <path id="Path_136732" data-name="Path 136732" d="M392.873-955.967H352.294a.8.8,0,0,1-.8-.8v-4.886a.8.8,0,0,1,.8-.8h40.579a.8.8,0,0,1,.8.8v4.886A.8.8,0,0,1,392.873-955.967Zm-39.782-1.594h38.985v-3.292H353.091Z" transform="translate(-351.497 962.447)" fill="#12263f"/>
      </g>
      <g id="Group_91249" data-name="Group 91249" transform="translate(319.539 -1073.649)">
        <path id="Path_136733" data-name="Path 136733" d="M392.194-971.24H363.156a.8.8,0,0,1-.8-.8v-11.772a.8.8,0,0,1,.8-.8h29.038a.8.8,0,0,1,.8.8v11.772A.8.8,0,0,1,392.194-971.24Zm-28.241-1.594H391.4v-10.178H363.953Z" transform="translate(-362.359 984.605)" fill="#12263f"/>
      </g>
      <g id="Group_91251" data-name="Group 91251" transform="translate(331.667 -1081.461)">
        <circle id="Ellipse_4232" data-name="Ellipse 4232" cx="2.391" cy="2.391" r="2.391" transform="translate(0.797 0.797)" fill="#9e9e9e"/>
        <g id="Group_91250" data-name="Group 91250" transform="translate(0)">
          <path id="Path_136734" data-name="Path 136734" d="M388.376-992.934a3.191,3.191,0,0,1-3.188-3.187,3.191,3.191,0,0,1,3.188-3.188,3.191,3.191,0,0,1,3.188,3.188A3.191,3.191,0,0,1,388.376-992.934Zm0-4.781a1.6,1.6,0,0,0-1.594,1.594,1.6,1.6,0,0,0,1.594,1.594,1.6,1.6,0,0,0,1.594-1.594A1.6,1.6,0,0,0,388.376-997.715Z" transform="translate(-385.188 999.309)" fill="#12263f"/>
        </g>
      </g>
      <g id="Group_91257" data-name="Group 91257" transform="translate(271.008 -1056.992)">
        <g id="Group_91254" data-name="Group 91254" transform="translate(0 5.83)">
          <g id="Group_91252" data-name="Group 91252">
            <path id="Path_136735" data-name="Path 136735" d="M281.37-940.682H271.8a.8.8,0,0,1-.8-.8.8.8,0,0,1,.8-.8h9.565a.8.8,0,0,1,.8.8A.8.8,0,0,1,281.37-940.682Z" transform="translate(-271.008 942.276)" fill="#12263f"/>
          </g>
          <g id="Group_91253" data-name="Group 91253" transform="translate(116.534)">
            <path id="Path_136736" data-name="Path 136736" d="M500.727-940.682h-9.565a.8.8,0,0,1-.8-.8.8.8,0,0,1,.8-.8h9.565a.8.8,0,0,1,.8.8A.8.8,0,0,1,500.727-940.682Z" transform="translate(-490.365 942.276)" fill="#12263f"/>
          </g>
        </g>
        <g id="Group_91255" data-name="Group 91255" transform="translate(14.982 5.83)">
          <path id="Path_136737" data-name="Path 136737" d="M396.141-940.682H300.006a.8.8,0,0,1-.8-.8.8.8,0,0,1,.8-.8h96.135a.8.8,0,0,1,.8.8A.8.8,0,0,1,396.141-940.682Z" transform="translate(-299.209 942.276)" fill="#12263f"/>
        </g>
        <g id="Group_91256" data-name="Group 91256" transform="translate(0 0)">
          <path id="Path_136738" data-name="Path 136738" d="M397.9-951.656H271.8a.8.8,0,0,1-.8-.8.8.8,0,0,1,.8-.8H397.9a.8.8,0,0,1,.8.8A.8.8,0,0,1,397.9-951.656Z" transform="translate(-271.008 953.25)" fill="#12263f"/>
        </g>
      </g>
      <rect id="Rectangle_8097" data-name="Rectangle 8097" width="82.071" height="70.308" rx="10.6" transform="translate(293.819 -1173.771)" fill="#cecece"/>
      <g id="Group_91258" data-name="Group 91258" transform="translate(293.819 -1173.771)">
        <path id="Path_136739" data-name="Path 136739" d="M319.259-1108.391v-59.045a5.632,5.632,0,0,1,5.631-5.631h-5.313a5.632,5.632,0,0,0-5.631,5.631v59.045a5.631,5.631,0,0,0,5.631,5.631h5.313A5.631,5.631,0,0,1,319.259-1108.391Z" transform="translate(-313.946 1173.068)" fill="#afafaf"/>
      </g>
      <g id="Group_91259" data-name="Group 91259" transform="translate(364.946 -1173.771)">
        <path id="Path_136740" data-name="Path 136740" d="M453.462-1108.391v-59.045a5.632,5.632,0,0,0-5.631-5.631h5.313a5.632,5.632,0,0,1,5.631,5.631v59.045a5.631,5.631,0,0,1-5.631,5.631h-5.313A5.631,5.631,0,0,0,453.462-1108.391Z" transform="translate(-447.831 1173.068)" fill="#e2e2e2"/>
      </g>
      <g id="Group_91260" data-name="Group 91260" transform="translate(293.022 -1174.568)">
        <path id="Path_136741" data-name="Path 136741" d="M389.682-1102.666H318.874a6.435,6.435,0,0,1-6.428-6.428v-59.045a6.436,6.436,0,0,1,6.428-6.428h70.808a6.436,6.436,0,0,1,6.428,6.428v59.045A6.435,6.435,0,0,1,389.682-1102.666Zm-70.808-70.308a4.84,4.84,0,0,0-4.834,4.834v59.045a4.84,4.84,0,0,0,4.834,4.834h70.808a4.84,4.84,0,0,0,4.834-4.834v-59.045a4.84,4.84,0,0,0-4.834-4.834Z" transform="translate(-312.446 1174.568)" fill="#12263f"/>
      </g>
      <path id="Path_136742" data-name="Path 136742" d="M396.017-1167.436a5.632,5.632,0,0,0-5.632-5.632H319.578a5.633,5.633,0,0,0-5.632,5.632v9.8h82.071Z" transform="translate(-20.127 -0.703)" fill="#ffca28"/>
      <g id="Group_91261" data-name="Group 91261" transform="translate(293.819 -1173.771)">
        <path id="Path_136743" data-name="Path 136743" d="M324.891-1173.068h-5.313a5.633,5.633,0,0,0-5.632,5.632v9.8h5.313v-9.8A5.633,5.633,0,0,1,324.891-1173.068Z" transform="translate(-313.946 1173.068)" fill="#f87023"/>
      </g>
      <g id="Group_91262" data-name="Group 91262" transform="translate(364.946 -1173.771)">
        <path id="Path_136744" data-name="Path 136744" d="M447.83-1173.068h5.313a5.632,5.632,0,0,1,5.632,5.632v9.8h-5.313v-9.8A5.632,5.632,0,0,0,447.83-1173.068Z" transform="translate(-447.83 1173.068)" fill="#f8d323"/>
      </g>
      <g id="Group_91263" data-name="Group 91263" transform="translate(301.301 -1168.626)">
        <circle id="Ellipse_4233" data-name="Ellipse 4233" cx="2.572" cy="2.572" r="2.572" transform="translate(0 0)" fill="#039be5"/>
        <circle id="Ellipse_4234" data-name="Ellipse 4234" cx="2.572" cy="2.572" r="2.572" transform="translate(9.908 0)" fill="#039be5"/>
        <circle id="Ellipse_4235" data-name="Ellipse 4235" cx="2.572" cy="2.572" r="2.572" transform="translate(19.815 0)" fill="#039be5"/>
      </g>
      <g id="Group_91267" data-name="Group 91267" transform="translate(300.504 -1169.423)">
        <g id="Group_91264" data-name="Group 91264" transform="translate(0 0)">
          <path id="Path_136745" data-name="Path 136745" d="M329.9-1158.146a3.372,3.372,0,0,1-3.369-3.369,3.373,3.373,0,0,1,3.369-3.369,3.373,3.373,0,0,1,3.369,3.369A3.372,3.372,0,0,1,329.9-1158.146Zm0-5.144a1.777,1.777,0,0,0-1.775,1.775,1.777,1.777,0,0,0,1.775,1.775,1.777,1.777,0,0,0,1.775-1.775A1.777,1.777,0,0,0,329.9-1163.29Z" transform="translate(-326.529 1164.884)" fill="#12263f"/>
        </g>
        <g id="Group_91265" data-name="Group 91265" transform="translate(9.908 0)">
          <path id="Path_136746" data-name="Path 136746" d="M348.548-1158.146a3.372,3.372,0,0,1-3.369-3.369,3.372,3.372,0,0,1,3.369-3.369,3.372,3.372,0,0,1,3.369,3.369A3.372,3.372,0,0,1,348.548-1158.146Zm0-5.144a1.777,1.777,0,0,0-1.775,1.775,1.777,1.777,0,0,0,1.775,1.775,1.777,1.777,0,0,0,1.775-1.775A1.777,1.777,0,0,0,348.548-1163.29Z" transform="translate(-345.179 1164.884)" fill="#12263f"/>
        </g>
        <g id="Group_91266" data-name="Group 91266" transform="translate(19.815 0)">
          <path id="Path_136747" data-name="Path 136747" d="M367.2-1158.146a3.372,3.372,0,0,1-3.369-3.369,3.373,3.373,0,0,1,3.369-3.369,3.373,3.373,0,0,1,3.369,3.369A3.372,3.372,0,0,1,367.2-1158.146Zm0-5.144a1.777,1.777,0,0,0-1.775,1.775,1.777,1.777,0,0,0,1.775,1.775,1.777,1.777,0,0,0,1.775-1.775A1.777,1.777,0,0,0,367.2-1163.29Z" transform="translate(-363.828 1164.884)" fill="#12263f"/>
        </g>
      </g>
      <rect id="Rectangle_8098" data-name="Rectangle 8098" width="36.467" height="3.92" rx="1.96" transform="translate(331.942 -1167.846)" fill="#039be5"/>
      <g id="Group_91268" data-name="Group 91268" transform="translate(331.144 -1168.643)">
        <path id="Path_136748" data-name="Path 136748" d="M419.509-1157.9H386.962a2.76,2.76,0,0,1-2.757-2.757,2.76,2.76,0,0,1,2.757-2.757h32.547a2.76,2.76,0,0,1,2.757,2.757A2.76,2.76,0,0,1,419.509-1157.9Zm-32.547-3.92a1.164,1.164,0,0,0-1.163,1.163,1.165,1.165,0,0,0,1.163,1.163h32.547a1.165,1.165,0,0,0,1.163-1.163,1.165,1.165,0,0,0-1.163-1.163Z" transform="translate(-384.205 1163.415)" fill="#12263f"/>
      </g>
      <g id="Group_91269" data-name="Group 91269" transform="translate(293.022 -1174.568)">
        <path id="Path_136749" data-name="Path 136749" d="M395.314-1157.541H313.243a.8.8,0,0,1-.8-.8v-9.8a6.437,6.437,0,0,1,6.429-6.429h70.806a6.437,6.437,0,0,1,6.429,6.429v9.8A.8.8,0,0,1,395.314-1157.541Zm-81.274-1.594h80.477v-9a4.841,4.841,0,0,0-4.835-4.835H318.875a4.841,4.841,0,0,0-4.835,4.835Z" transform="translate(-312.446 1174.568)" fill="#12263f"/>
      </g>
      <rect id="Rectangle_8099" data-name="Rectangle 8099" width="69.234" height="25.534" rx="12.767" transform="translate(300.237 -1116.23)" fill="#ffca28"/>
      <g id="Group_91270" data-name="Group 91270" transform="translate(299.44 -1117.027)">
        <path id="Path_136750" data-name="Path 136750" d="M381.791-1039.129h-43.7a13.579,13.579,0,0,1-13.565-13.564,13.58,13.58,0,0,1,13.565-13.564h43.7a13.58,13.58,0,0,1,13.565,13.564A13.579,13.579,0,0,1,381.791-1039.129Zm-43.7-25.534a11.984,11.984,0,0,0-11.971,11.97,11.984,11.984,0,0,0,11.971,11.97h43.7a11.984,11.984,0,0,0,11.971-11.97,11.984,11.984,0,0,0-11.971-11.97Z" transform="translate(-324.527 1066.257)" fill="#12263f"/>
      </g>
      <rect id="Rectangle_8100" data-name="Rectangle 8100" width="4.174" height="4.174" transform="translate(302.271 -1151.027)" fill="#12263f"/>
      <rect id="Rectangle_8101" data-name="Rectangle 8101" width="36.847" height="4.174" transform="translate(309.606 -1151.027)" fill="#12263f"/>
      <rect id="Rectangle_8102" data-name="Rectangle 8102" width="6.649" height="4.174" transform="translate(349.539 -1151.027)" fill="#12263f"/>
      <rect id="Rectangle_8103" data-name="Rectangle 8103" width="4.174" height="4.174" transform="translate(302.271 -1142.538)" fill="#12263f"/>
      <rect id="Rectangle_8104" data-name="Rectangle 8104" width="29.439" height="4.174" transform="translate(309.606 -1142.538)" fill="#12263f"/>
      <rect id="Rectangle_8105" data-name="Rectangle 8105" width="13.999" height="4.174" transform="translate(342.19 -1142.538)" fill="#12263f"/>
      <rect id="Rectangle_8106" data-name="Rectangle 8106" width="4.174" height="4.174" transform="translate(302.271 -1134.048)" fill="#12263f"/>
      <rect id="Rectangle_8107" data-name="Rectangle 8107" width="14.719" height="4.174" transform="translate(309.606 -1134.048)" fill="#12263f"/>
      <rect id="Rectangle_8108" data-name="Rectangle 8108" width="25.901" height="4.174" transform="translate(330.288 -1134.048)" fill="#12263f"/>
      <rect id="Rectangle_8109" data-name="Rectangle 8109" width="4.174" height="4.174" transform="translate(302.271 -1125.559)" fill="#12263f"/>
      <rect id="Rectangle_8110" data-name="Rectangle 8110" width="8.607" height="4.174" transform="translate(309.606 -1125.559)" fill="#12263f"/>
      <rect id="Rectangle_8111" data-name="Rectangle 8111" width="34.895" height="4.174" transform="translate(321.294 -1125.559)" fill="#12263f"/>
      <g id="Group_91271" data-name="Group 91271" transform="translate(315.161 -1108.169)">
        <path id="Path_136751" data-name="Path 136751" d="M361.225-1040.171h-2.081l-.929-2.9-.338-1.181-.324,1.21-.915,2.873h-1.994l-.526-9.412h1.563l.223,6.034.057,1.649.425-1.469,1.037-3.349h1.116l1.094,3.55.353,1.253.029-1.469.237-6.2h1.505Z" transform="translate(-354.118 1049.583)" fill="#12263f"/>
        <path id="Path_136752" data-name="Path 136752" d="M375.189-1040.171v-4.1h-3.2v4.1h-1.771v-9.412h1.771v3.78h3.2v-3.78h1.771v9.412Z" transform="translate(-361.666 1049.583)" fill="#12263f"/>
        <path id="Path_136753" data-name="Path 136753" d="M386.689-1040.171v-9.412h5.667v1.5h-3.867v2.34h3.687v1.462h-3.687v2.614h3.867v1.5Z" transform="translate(-369.385 1049.583)" fill="#12263f"/>
        <path id="Path_136754" data-name="Path 136754" d="M405.951-1040.171l-1.325-3.025a1.438,1.438,0,0,0-.522-.652,1.408,1.408,0,0,0-.788-.219h-.338v3.9h-1.772v-9.412h2.743a6.884,6.884,0,0,1,1.412.133,2.927,2.927,0,0,1,1.08.443,2.056,2.056,0,0,1,.688.806,2.774,2.774,0,0,1,.241,1.217,2.612,2.612,0,0,1-.151.922,2.056,2.056,0,0,1-.425.695,2.154,2.154,0,0,1-.651.472,3.037,3.037,0,0,1-.824.252,1.179,1.179,0,0,1,.634.392,3.941,3.941,0,0,1,.576.925l1.505,3.154Zm-.439-6.639a1.121,1.121,0,0,0-.439-.994,2.337,2.337,0,0,0-1.318-.3h-.778v2.657h.72a3,3,0,0,0,.745-.086,1.677,1.677,0,0,0,.572-.259,1.188,1.188,0,0,0,.368-.429A1.283,1.283,0,0,0,405.511-1046.81Z" transform="translate(-376.19 1049.583)" fill="#12263f"/>
        <path id="Path_136755" data-name="Path 136755" d="M417.213-1040.171v-9.412h5.667v1.5h-3.867v2.34H422.7v1.462h-3.687v2.614h3.867v1.5Z" transform="translate(-383.693 1049.583)" fill="#12263f"/>
      </g>
    </g>
  </g>
</svg>
