<svg xmlns="http://www.w3.org/2000/svg" width="295" height="150" viewBox="0 0 295 150">
  <g id="t4-i1" transform="translate(-181 -406)">
    <rect id="Rectangle_8201" data-name="Rectangle 8201" width="295" height="150" rx="10" transform="translate(181 406)" fill="#e3edf8"/>
    <g id="Group_96291" data-name="Group 96291" transform="translate(-149.919 1129.091)">
      <g id="Group_96214" data-name="Group 96214" transform="translate(420.523 -688.651)">
        <rect id="Rectangle_8202" data-name="Rectangle 8202" width="116.484" height="80.276" rx="13.665" transform="translate(0 0)" fill="#cecece"/>
      </g>
      <g id="Group_96216" data-name="Group 96216" transform="translate(420.523 -688.651)">
        <g id="Group_96215" data-name="Group 96215" transform="translate(0 0)">
          <path id="Path_141552" data-name="Path 141552" d="M430.781-596.718v-65.757a7.268,7.268,0,0,1,7.26-7.259h-5.313a7.268,7.268,0,0,0-7.26,7.259v65.757a7.268,7.268,0,0,0,7.26,7.26h5.313A7.268,7.268,0,0,1,430.781-596.718Z" transform="translate(-425.468 669.734)" fill="#afafaf"/>
        </g>
      </g>
      <g id="Group_96218" data-name="Group 96218" transform="translate(524.435 -688.651)">
        <g id="Group_96217" data-name="Group 96217" transform="translate(0 0)">
          <path id="Path_141553" data-name="Path 141553" d="M628.324-596.718v-65.757a7.268,7.268,0,0,0-7.26-7.259h5.313a7.268,7.268,0,0,1,7.26,7.259v65.757a7.268,7.268,0,0,1-7.26,7.26h-5.312A7.268,7.268,0,0,0,628.324-596.718Z" transform="translate(-621.064 669.734)" fill="#e2e2e2"/>
        </g>
      </g>
      <g id="Group_96220" data-name="Group 96220" transform="translate(419.727 -689.448)">
        <g id="Group_96219" data-name="Group 96219" transform="translate(0 0)">
          <path id="Path_141554" data-name="Path 141554" d="M533.99-589.364H432.025a8.066,8.066,0,0,1-8.056-8.057v-65.757a8.065,8.065,0,0,1,8.056-8.056H533.99a8.065,8.065,0,0,1,8.057,8.056v65.757A8.066,8.066,0,0,1,533.99-589.364ZM432.025-669.64a6.47,6.47,0,0,0-6.462,6.462v65.757a6.47,6.47,0,0,0,6.462,6.463H533.99a6.47,6.47,0,0,0,6.463-6.463v-65.757a6.47,6.47,0,0,0-6.463-6.462Z" transform="translate(-423.969 671.234)" fill="#12263f"/>
        </g>
      </g>
      <g id="Group_96221" data-name="Group 96221" transform="translate(424.991 -684.184)">
        <rect id="Rectangle_8203" data-name="Rectangle 8203" width="107.549" height="64.966" rx="5.256" transform="translate(0 0)" fill="#4dd0e1"/>
      </g>
      <g id="Group_96223" data-name="Group 96223" transform="translate(424.991 -684.184)">
        <g id="Group_96222" data-name="Group 96222" transform="translate(0 0)">
          <path id="Path_141555" data-name="Path 141555" d="M439.191-599.151v-59.382a2.8,2.8,0,0,1,2.792-2.792H436.67a2.8,2.8,0,0,0-2.792,2.792v59.382a2.8,2.8,0,0,0,2.792,2.792h5.313A2.8,2.8,0,0,1,439.191-599.151Z" transform="translate(-433.878 661.326)" fill="#7cd5e1"/>
        </g>
      </g>
      <g id="Group_96225" data-name="Group 96225" transform="translate(524.435 -684.184)">
        <g id="Group_96224" data-name="Group 96224" transform="translate(0 0)">
          <path id="Path_141556" data-name="Path 141556" d="M623.856-599.151v-59.382a2.8,2.8,0,0,0-2.792-2.792h5.313a2.8,2.8,0,0,1,2.792,2.792v59.382a2.8,2.8,0,0,1-2.792,2.792h-5.312A2.8,2.8,0,0,0,623.856-599.151Z" transform="translate(-621.064 661.326)" fill="#7cd5e1"/>
        </g>
      </g>
      <g id="Group_96227" data-name="Group 96227" transform="translate(424.194 -684.981)">
        <g id="Group_96226" data-name="Group 96226" transform="translate(0 0)">
          <path id="Path_141557" data-name="Path 141557" d="M537.931-596.266H435.967a3.593,3.593,0,0,1-3.589-3.589v-59.382a3.593,3.593,0,0,1,3.589-3.589H537.931a3.593,3.593,0,0,1,3.589,3.589v59.382A3.593,3.593,0,0,1,537.931-596.266ZM435.967-661.232a2,2,0,0,0-1.995,2v59.382a2,2,0,0,0,1.995,1.995H537.931a2,2,0,0,0,1.995-1.995v-59.382a2,2,0,0,0-1.995-2Z" transform="translate(-432.378 662.826)" fill="#12263f"/>
        </g>
      </g>
      <g id="Group_96228" data-name="Group 96228" transform="translate(458.476 -596.604)">
        <rect id="Rectangle_8204" data-name="Rectangle 8204" width="40.579" height="4.886" fill="#9e9e9e"/>
      </g>
      <g id="Group_96230" data-name="Group 96230" transform="translate(458.476 -596.604)">
        <g id="Group_96229" data-name="Group 96229">
          <rect id="Rectangle_8205" data-name="Rectangle 8205" width="5.313" height="4.886" fill="#12263f"/>
        </g>
      </g>
      <g id="Group_96231" data-name="Group 96231" transform="translate(464.246 -608.375)">
        <rect id="Rectangle_8206" data-name="Rectangle 8206" width="29.038" height="11.772" transform="translate(0 0)" fill="#cecece"/>
      </g>
      <g id="Group_96233" data-name="Group 96233" transform="translate(464.246 -608.375)">
        <g id="Group_96232" data-name="Group 96232" transform="translate(0 0)">
          <rect id="Rectangle_8207" data-name="Rectangle 8207" width="5.313" height="11.772" fill="#afafaf"/>
        </g>
      </g>
      <g id="Group_96235" data-name="Group 96235" transform="translate(457.679 -597.4)">
        <g id="Group_96234" data-name="Group 96234" transform="translate(0)">
          <path id="Path_141558" data-name="Path 141558" d="M536.783-491.49H496.2a.8.8,0,0,1-.8-.8v-4.886a.8.8,0,0,1,.8-.8h40.579a.8.8,0,0,1,.8.8v4.886A.8.8,0,0,1,536.783-491.49ZM497-493.084h38.985v-3.292H497Z" transform="translate(-495.407 497.97)" fill="#12263f"/>
        </g>
      </g>
      <g id="Group_96237" data-name="Group 96237" transform="translate(463.45 -609.172)">
        <g id="Group_96236" data-name="Group 96236">
          <path id="Path_141559" data-name="Path 141559" d="M536.1-506.763H507.067a.8.8,0,0,1-.8-.8v-11.772a.8.8,0,0,1,.8-.8H536.1a.8.8,0,0,1,.8.8v11.772A.8.8,0,0,1,536.1-506.763Zm-28.241-1.594h27.444v-10.178H507.864Z" transform="translate(-506.27 520.128)" fill="#12263f"/>
        </g>
      </g>
      <g id="Group_96241" data-name="Group 96241" transform="translate(475.578 -616.984)">
        <g id="Group_96238" data-name="Group 96238" transform="translate(0.797 0.797)">
          <circle id="Ellipse_4249" data-name="Ellipse 4249" cx="2.391" cy="2.391" r="2.391" fill="#9e9e9e"/>
        </g>
        <g id="Group_96240" data-name="Group 96240" transform="translate(0)">
          <g id="Group_96239" data-name="Group 96239">
            <path id="Path_141560" data-name="Path 141560" d="M532.287-528.458a3.191,3.191,0,0,1-3.188-3.188,3.191,3.191,0,0,1,3.188-3.187,3.191,3.191,0,0,1,3.188,3.188A3.191,3.191,0,0,1,532.287-528.458Zm0-4.781a1.6,1.6,0,0,0-1.594,1.594,1.6,1.6,0,0,0,1.594,1.594,1.6,1.6,0,0,0,1.594-1.594A1.6,1.6,0,0,0,532.287-533.239Z" transform="translate(-529.099 534.833)" fill="#12263f"/>
          </g>
        </g>
      </g>
      <g id="Group_96251" data-name="Group 96251" transform="translate(414.919 -592.514)">
        <g id="Group_96246" data-name="Group 96246" transform="translate(0 5.829)">
          <g id="Group_96243" data-name="Group 96243">
            <g id="Group_96242" data-name="Group 96242">
              <path id="Path_141561" data-name="Path 141561" d="M425.28-476.206h-9.564a.8.8,0,0,1-.8-.8.8.8,0,0,1,.8-.8h9.564a.8.8,0,0,1,.8.8A.8.8,0,0,1,425.28-476.206Z" transform="translate(-414.919 477.8)" fill="#12263f"/>
            </g>
          </g>
          <g id="Group_96245" data-name="Group 96245" transform="translate(116.534)">
            <g id="Group_96244" data-name="Group 96244">
              <path id="Path_141562" data-name="Path 141562" d="M644.636-476.206h-9.564a.8.8,0,0,1-.8-.8.8.8,0,0,1,.8-.8h9.564a.8.8,0,0,1,.8.8A.8.8,0,0,1,644.636-476.206Z" transform="translate(-634.275 477.8)" fill="#12263f"/>
            </g>
          </g>
        </g>
        <g id="Group_96248" data-name="Group 96248" transform="translate(14.981 5.829)">
          <g id="Group_96247" data-name="Group 96247">
            <path id="Path_141563" data-name="Path 141563" d="M540.052-476.206H443.916a.8.8,0,0,1-.8-.8.8.8,0,0,1,.8-.8h96.136a.8.8,0,0,1,.8.8A.8.8,0,0,1,540.052-476.206Z" transform="translate(-443.119 477.8)" fill="#12263f"/>
          </g>
        </g>
        <g id="Group_96250" data-name="Group 96250" transform="translate(0 0)">
          <g id="Group_96249" data-name="Group 96249">
            <path id="Path_141564" data-name="Path 141564" d="M541.815-487.179h-126.1a.8.8,0,0,1-.8-.8.8.8,0,0,1,.8-.8h126.1a.8.8,0,0,1,.8.8A.8.8,0,0,1,541.815-487.179Z" transform="translate(-414.919 488.773)" fill="#12263f"/>
          </g>
        </g>
      </g>
      <g id="Group_96252" data-name="Group 96252" transform="translate(437.73 -709.294)">
        <rect id="Rectangle_8208" data-name="Rectangle 8208" width="82.071" height="70.308" rx="10.6" transform="translate(0 0)" fill="#cecece"/>
      </g>
      <g id="Group_96254" data-name="Group 96254" transform="translate(437.73 -709.294)">
        <g id="Group_96253" data-name="Group 96253" transform="translate(0)">
          <path id="Path_141565" data-name="Path 141565" d="M463.169-643.915V-702.96a5.631,5.631,0,0,1,5.631-5.631h-5.313a5.631,5.631,0,0,0-5.631,5.631v59.045a5.631,5.631,0,0,0,5.631,5.631H468.8A5.631,5.631,0,0,1,463.169-643.915Z" transform="translate(-457.856 708.591)" fill="#afafaf"/>
        </g>
      </g>
      <g id="Group_96256" data-name="Group 96256" transform="translate(508.857 -709.294)">
        <g id="Group_96255" data-name="Group 96255">
          <path id="Path_141566" data-name="Path 141566" d="M597.372-643.915V-702.96a5.631,5.631,0,0,0-5.631-5.631h5.313a5.631,5.631,0,0,1,5.631,5.631v59.045a5.631,5.631,0,0,1-5.631,5.631h-5.313A5.631,5.631,0,0,0,597.372-643.915Z" transform="translate(-591.741 708.591)" fill="#e2e2e2"/>
        </g>
      </g>
      <g id="Group_96258" data-name="Group 96258" transform="translate(436.933 -710.091)">
        <g id="Group_96257" data-name="Group 96257" transform="translate(0)">
          <path id="Path_141567" data-name="Path 141567" d="M533.593-638.19H462.784a6.435,6.435,0,0,1-6.428-6.428v-59.045a6.435,6.435,0,0,1,6.428-6.428h70.809a6.435,6.435,0,0,1,6.428,6.428v59.045A6.435,6.435,0,0,1,533.593-638.19ZM462.784-708.5a4.84,4.84,0,0,0-4.834,4.834v59.045a4.84,4.84,0,0,0,4.834,4.834h70.809a4.84,4.84,0,0,0,4.834-4.834v-59.045a4.84,4.84,0,0,0-4.834-4.834Z" transform="translate(-456.356 710.091)" fill="#12263f"/>
        </g>
      </g>
      <g id="Group_96259" data-name="Group 96259" transform="translate(437.73 -709.294)">
        <path id="Path_141568" data-name="Path 141568" d="M539.927-702.959a5.632,5.632,0,0,0-5.632-5.632H463.488a5.632,5.632,0,0,0-5.632,5.632v9.8h82.071Z" transform="translate(-457.856 708.591)" fill="#ffca28"/>
      </g>
      <g id="Group_96261" data-name="Group 96261" transform="translate(437.73 -709.295)">
        <g id="Group_96260" data-name="Group 96260" transform="translate(0)">
          <path id="Path_141569" data-name="Path 141569" d="M468.8-708.592h-5.313a5.633,5.633,0,0,0-5.632,5.632v9.8h5.313v-9.8A5.633,5.633,0,0,1,468.8-708.592Z" transform="translate(-457.856 708.592)" fill="#ffa726"/>
        </g>
      </g>
      <g id="Group_96263" data-name="Group 96263" transform="translate(508.856 -709.295)">
        <g id="Group_96262" data-name="Group 96262">
          <path id="Path_141570" data-name="Path 141570" d="M591.74-708.592h5.313a5.632,5.632,0,0,1,5.632,5.632v9.8h-5.313v-9.8A5.632,5.632,0,0,0,591.74-708.592Z" transform="translate(-591.74 708.592)" fill="#ffd34d"/>
        </g>
      </g>
      <g id="Group_96278" data-name="Group 96278" transform="translate(444.414 -704.947)">
        <g id="Group_96267" data-name="Group 96267" transform="translate(0.797 0.797)">
          <g id="Group_96264" data-name="Group 96264">
            <circle id="Ellipse_4250" data-name="Ellipse 4250" cx="2.572" cy="2.572" r="2.572" fill="#039be5"/>
          </g>
          <g id="Group_96265" data-name="Group 96265" transform="translate(9.908)">
            <circle id="Ellipse_4251" data-name="Ellipse 4251" cx="2.572" cy="2.572" r="2.572" fill="#039be5"/>
          </g>
          <g id="Group_96266" data-name="Group 96266" transform="translate(19.815)">
            <circle id="Ellipse_4252" data-name="Ellipse 4252" cx="2.572" cy="2.572" r="2.572" fill="#039be5"/>
          </g>
        </g>
        <g id="Group_96274" data-name="Group 96274" transform="translate(0)">
          <g id="Group_96269" data-name="Group 96269">
            <g id="Group_96268" data-name="Group 96268">
              <path id="Path_141571" data-name="Path 141571" d="M473.808-693.67a3.374,3.374,0,0,1-3.37-3.369,3.373,3.373,0,0,1,3.37-3.369,3.373,3.373,0,0,1,3.369,3.369A3.373,3.373,0,0,1,473.808-693.67Zm0-5.145a1.778,1.778,0,0,0-1.776,1.775,1.778,1.778,0,0,0,1.776,1.776,1.777,1.777,0,0,0,1.775-1.776A1.777,1.777,0,0,0,473.808-698.814Z" transform="translate(-470.438 700.408)" fill="#12263f"/>
            </g>
          </g>
          <g id="Group_96271" data-name="Group 96271" transform="translate(9.908)">
            <g id="Group_96270" data-name="Group 96270">
              <path id="Path_141572" data-name="Path 141572" d="M492.458-693.67a3.373,3.373,0,0,1-3.369-3.369,3.373,3.373,0,0,1,3.369-3.369,3.373,3.373,0,0,1,3.369,3.369A3.373,3.373,0,0,1,492.458-693.67Zm0-5.145a1.777,1.777,0,0,0-1.775,1.775,1.777,1.777,0,0,0,1.775,1.776,1.777,1.777,0,0,0,1.775-1.776A1.777,1.777,0,0,0,492.458-698.814Z" transform="translate(-489.089 700.408)" fill="#12263f"/>
            </g>
          </g>
          <g id="Group_96273" data-name="Group 96273" transform="translate(19.816)">
            <g id="Group_96272" data-name="Group 96272">
              <path id="Path_141573" data-name="Path 141573" d="M511.107-693.67a3.373,3.373,0,0,1-3.369-3.369,3.373,3.373,0,0,1,3.369-3.369,3.373,3.373,0,0,1,3.369,3.369A3.373,3.373,0,0,1,511.107-693.67Zm0-5.145a1.777,1.777,0,0,0-1.775,1.775,1.777,1.777,0,0,0,1.775,1.776,1.777,1.777,0,0,0,1.775-1.776A1.777,1.777,0,0,0,511.107-698.814Z" transform="translate(-507.738 700.408)" fill="#12263f"/>
            </g>
          </g>
        </g>
        <g id="Group_96275" data-name="Group 96275" transform="translate(31.439 1.578)">
          <rect id="Rectangle_8209" data-name="Rectangle 8209" width="36.467" height="3.92" rx="1.96" fill="#039be5"/>
        </g>
        <g id="Group_96277" data-name="Group 96277" transform="translate(30.641 0.781)">
          <g id="Group_96276" data-name="Group 96276">
            <path id="Path_141574" data-name="Path 141574" d="M563.419-693.425H530.872a2.76,2.76,0,0,1-2.757-2.757,2.76,2.76,0,0,1,2.757-2.757h32.547a2.76,2.76,0,0,1,2.757,2.757A2.76,2.76,0,0,1,563.419-693.425Zm-32.547-3.92a1.165,1.165,0,0,0-1.163,1.163,1.165,1.165,0,0,0,1.163,1.163h32.547a1.165,1.165,0,0,0,1.163-1.163,1.165,1.165,0,0,0-1.163-1.163Z" transform="translate(-528.115 698.938)" fill="#12263f"/>
          </g>
        </g>
      </g>
      <g id="Group_96280" data-name="Group 96280" transform="translate(436.933 -710.091)">
        <g id="Group_96279" data-name="Group 96279" transform="translate(0)">
          <path id="Path_141575" data-name="Path 141575" d="M539.224-693.064H457.153a.8.8,0,0,1-.8-.8v-9.8a6.436,6.436,0,0,1,6.429-6.429h70.806a6.436,6.436,0,0,1,6.429,6.429v9.8A.8.8,0,0,1,539.224-693.064Zm-81.274-1.594h80.477v-9a4.841,4.841,0,0,0-4.836-4.835H462.785a4.841,4.841,0,0,0-4.836,4.835Z" transform="translate(-456.356 710.091)" fill="#12263f"/>
        </g>
      </g>
      <g id="Group_96287" data-name="Group 96287" transform="translate(463.522 -654.23)">
        <g id="Group_96281" data-name="Group 96281" transform="translate(0.797 0.798)">
          <path id="Path_141576" data-name="Path 141576" d="M511.81-585.157c.111.308.235.605.372.9L509.42-581.5l5.431,5.431,2.762-2.762c.294.137.593.262.9.372v3.907h7.679v-3.907c.3-.11.6-.235.9-.372l2.762,2.762,5.431-5.431-2.762-2.762c.137-.293.261-.59.372-.9H536.8v-7.678h-3.907c-.111-.306-.235-.6-.372-.9l2.762-2.762-5.431-5.431-2.762,2.765c-.294-.137-.593-.265-.9-.375v-3.9h-7.679v3.9c-.3.111-.6.239-.9.375l-2.762-2.765L509.42-596.5l2.762,2.762c-.137.294-.261.593-.372.9h-3.9v7.678Z" transform="translate(-507.905 603.441)" fill="#ffca28"/>
        </g>
        <g id="Group_96282" data-name="Group 96282" transform="translate(10.354 10.354)">
          <circle id="Ellipse_4253" data-name="Ellipse 4253" cx="4.89" cy="4.89" r="4.89" fill="#039be5"/>
        </g>
        <g id="Group_96284" data-name="Group 96284" transform="translate(0)">
          <g id="Group_96283" data-name="Group 96283">
            <path id="Path_141577" data-name="Path 141577" d="M525.488-574.456h-7.679a.8.8,0,0,1-.8-.8v-3.253l-2.3,2.3a.821.821,0,0,1-1.127,0l-5.431-5.431a.8.8,0,0,1,0-1.127l2.3-2.3H507.2a.8.8,0,0,1-.8-.8v-7.679a.8.8,0,0,1,.8-.8h3.253l-2.3-2.3a.8.8,0,0,1,0-1.127l5.431-5.431a.8.8,0,0,1,.563-.233h0a.8.8,0,0,1,.564.233l2.3,2.3v-3.253a.8.8,0,0,1,.8-.8h7.679a.8.8,0,0,1,.8.8v3.253l2.3-2.3a.821.821,0,0,1,1.127,0l5.431,5.431a.8.8,0,0,1,0,1.127l-2.3,2.3H536.1a.8.8,0,0,1,.8.8v7.679a.8.8,0,0,1-.8.8h-3.253l2.3,2.3a.8.8,0,0,1,0,1.127l-5.431,5.431a.8.8,0,0,1-.563.233h0a.8.8,0,0,1-.564-.233l-2.3-2.3v3.253A.8.8,0,0,1,525.488-574.456Zm-6.882-1.594h6.086v-3.108a.8.8,0,0,1,.524-.749c.268-.1.54-.211.834-.348a.8.8,0,0,1,.9.159l2.2,2.2,4.3-4.3-2.2-2.2a.8.8,0,0,1-.159-.9c.135-.291.249-.563.347-.834a.8.8,0,0,1,.749-.524H535.3v-6.086H532.19a.8.8,0,0,1-.749-.524c-.1-.271-.212-.543-.347-.834a.8.8,0,0,1,.159-.9l2.2-2.2-4.3-4.3-2.2,2.2a.8.8,0,0,1-.9.159c-.293-.137-.566-.251-.834-.348a.8.8,0,0,1-.524-.749v-3.108h-6.086v3.108a.8.8,0,0,1-.524.749c-.268.1-.54.211-.833.348a.8.8,0,0,1-.9-.159l-2.2-2.2-4.3,4.3,2.2,2.2a.8.8,0,0,1,.158.9c-.135.291-.249.563-.347.834a.8.8,0,0,1-.749.524H508v6.086h3.108a.8.8,0,0,1,.749.524c.1.271.212.543.347.834a.8.8,0,0,1-.158.9l-2.2,2.2,4.3,4.3,2.2-2.2a.8.8,0,0,1,.9-.159c.293.137.566.25.833.348a.8.8,0,0,1,.524.749Z" transform="translate(-506.405 604.943)" fill="#12263f"/>
          </g>
        </g>
        <g id="Group_96286" data-name="Group 96286" transform="translate(9.557 9.557)">
          <g id="Group_96285" data-name="Group 96285">
            <path id="Path_141578" data-name="Path 141578" d="M530.082-575.58a5.693,5.693,0,0,1-5.687-5.687,5.693,5.693,0,0,1,5.687-5.687,5.693,5.693,0,0,1,5.687,5.687A5.693,5.693,0,0,1,530.082-575.58Zm0-9.78a4.1,4.1,0,0,0-4.093,4.093,4.1,4.1,0,0,0,4.093,4.093,4.1,4.1,0,0,0,4.093-4.093A4.1,4.1,0,0,0,530.082-585.36Z" transform="translate(-524.395 586.954)" fill="#12263f"/>
          </g>
        </g>
      </g>
      <g id="Group_96288" data-name="Group 96288" transform="translate(447.333 -684.184)">
        <rect id="Rectangle_8210" data-name="Rectangle 8210" width="62.865" height="24.905" rx="5" transform="translate(0 0)" fill="#ffca28"/>
      </g>
      <g id="Group_96290" data-name="Group 96290" transform="translate(446.536 -684.981)">
        <g id="Group_96289" data-name="Group 96289" transform="translate(0 0)">
          <path id="Path_141579" data-name="Path 141579" d="M535.438-636.327H477.885a3.457,3.457,0,0,1-3.453-3.453v-19.593a3.457,3.457,0,0,1,3.453-3.453h57.553a3.457,3.457,0,0,1,3.453,3.453v19.593A3.457,3.457,0,0,1,535.438-636.327Zm-57.553-24.905a1.862,1.862,0,0,0-1.859,1.859v19.593a1.861,1.861,0,0,0,1.859,1.859h57.553a1.862,1.862,0,0,0,1.859-1.859v-19.593a1.862,1.862,0,0,0-1.859-1.859Z" transform="translate(-474.432 662.826)" fill="#12263f"/>
        </g>
      </g>
      <path id="Feature_One" data-name="Feature One" d="M499.98-636.958v-15.778h4.76a5.051,5.051,0,0,1,4,1.837,7,7,0,0,1,1.58,4.73v2.654a6.975,6.975,0,0,1-1.58,4.725,5.057,5.057,0,0,1-4,1.831Zm3.083-13.319v10.859h1.5a2.211,2.211,0,0,0,1.985-1.121,5.583,5.583,0,0,0,.7-2.978V-646.2a5.534,5.534,0,0,0-.7-2.961,2.212,2.212,0,0,0-1.985-1.117Zm13.307-2.46,2.824,11.585h.065l2.856-11.585h4.014v15.778h-3.062v-4.584l.261-6.134-.065-.011-3.009,10.729H518.21L515.235-647.6l-.065.011.271,6.047v4.584H512.38v-15.778Zm15.168,13.319h5.756v2.46h-8.839v-15.779h3.083Z" transform="translate(-39.872 -26.884)" fill="#12263f"/>
    </g>
  </g>
</svg>
