<svg id="t4-ic2" xmlns="http://www.w3.org/2000/svg" xmlns:xlink="http://www.w3.org/1999/xlink" width="48.931" height="48.931" viewBox="0 0 48.931 48.931">
  <defs>
    <clipPath id="clip-path">
      <rect id="Rectangle_2098" data-name="Rectangle 2098" width="48.931" height="48.931" fill="#ffa726"/>
    </clipPath>
  </defs>
  <g id="Group_4526" data-name="Group 4526" transform="translate(0)">
    <g id="Group_4525" data-name="Group 4525" clip-path="url(#clip-path)">
      <path id="Path_1186" data-name="Path 1186" d="M1482.634,446.587a19.338,19.338,0,0,0,14.009-5.939,2.139,2.139,0,0,0,.534-2.058,2.1,2.1,0,0,0-1.459-1.485,8.028,8.028,0,0,1,2.208-15.747h.14a2.139,2.139,0,0,0,1.86-1.009,2.105,2.105,0,0,0,.093-2.088,19.5,19.5,0,1,0-17.385,28.325Zm-12.714-32.216a17.984,17.984,0,0,1,28.735,4.583.586.586,0,0,1-.026.584.613.613,0,0,1-.538.291h-.165a9.558,9.558,0,0,0-2.627,18.747.574.574,0,0,1,.4.411.623.623,0,0,1-.156.6,17.975,17.975,0,1,1-25.624-25.214Zm0,0" transform="translate(-1451.32 -399.95)" fill="#ffa726"/>
      <path id="Path_1187" data-name="Path 1187" d="M1372.69,360.392v4.022a.772.772,0,0,0,.021.178c-1.6,8.961-2.1,14.792-.874,25.142.243,2.05.556,4.124.93,6.164a.764.764,0,0,0,.752.627h4.363a.765.765,0,0,0,.752-.627c.374-2.04.687-4.113.93-6.164a74.7,74.7,0,0,0-.759-25.388v-3.954A5.348,5.348,0,0,0,1381.1,356a6.724,6.724,0,0,0-1.753-4.363,3.261,3.261,0,0,1-.58-3.04.765.765,0,0,0-.81-1,7.874,7.874,0,0,0-6.62,4.542,9.949,9.949,0,0,0-.94,3.864,5.348,5.348,0,0,0,2.294,4.388Zm5.357,29.161c-.215,1.809-.484,3.637-.8,5.442h-3.085c-.319-1.805-.589-3.633-.8-5.442a72.182,72.182,0,0,1,.8-24.375h3.241a72.962,72.962,0,0,1,.646,24.375Zm-.77-25.9h-3.058v-2.517a5.339,5.339,0,0,0,3.058,0Zm-4.56-10.853a6.177,6.177,0,0,1,4.384-3.5,4.286,4.286,0,0,0,1.165,3.43,5.231,5.231,0,0,1,1.305,3.284,3.827,3.827,0,0,1-3.5,3.807,3.048,3.048,0,0,1-.983-2.28,2.564,2.564,0,0,1,1.076-1.648l-.82-1.291a4.1,4.1,0,0,0-1.772,2.75,3.684,3.684,0,0,0,.363,2.024,3.826,3.826,0,0,1-2-3.36,8.423,8.423,0,0,1,.792-3.21Zm0,0" transform="translate(-1370.396 -347.594)" fill="#ffa726"/>
    </g>
  </g>
  <path id="Path_1188" data-name="Path 1188" d="M1631.454,455.711a3.058,3.058,0,1,0-3.058-3.058,3.058,3.058,0,0,0,3.058,3.058Zm0-4.587a1.529,1.529,0,1,1-1.529,1.529,1.529,1.529,0,0,1,1.529-1.529Zm0,0" transform="translate(-1595.521 -436.598)" fill="#ffa726"/>
  <path id="Path_1189" data-name="Path 1189" d="M1553.454,461.711a3.058,3.058,0,1,0-3.058-3.058,3.058,3.058,0,0,0,3.058,3.058Zm0-4.587a1.529,1.529,0,1,1-1.529,1.529,1.528,1.528,0,0,1,1.529-1.529Zm0,0" transform="translate(-1527.46 -441.833)" fill="#ffa726"/>
  <path id="Path_1190" data-name="Path 1190" d="M1508.512,512.653a3.058,3.058,0,1,0-3.058,3.058,3.058,3.058,0,0,0,3.058-3.058Zm-4.587,0a1.529,1.529,0,1,1,1.529,1.529,1.528,1.528,0,0,1-1.529-1.529Zm0,0" transform="translate(-1485.576 -488.952)" fill="#ffa726"/>
  <path id="Path_1191" data-name="Path 1191" d="M1517.454,581.711a3.058,3.058,0,1,0-3.058-3.058,3.058,3.058,0,0,0,3.058,3.058Zm0-4.587a1.529,1.529,0,1,1-1.529,1.529,1.528,1.528,0,0,1,1.529-1.529Zm0,0" transform="translate(-1496.047 -546.542)" fill="#ffa726"/>
  <path id="Path_1192" data-name="Path 1192" d="M1565.454,623.595a3.058,3.058,0,1,0,3.058,3.058,3.058,3.058,0,0,0-3.058-3.058Zm0,4.587a1.529,1.529,0,1,1,1.529-1.529,1.528,1.528,0,0,1-1.529,1.529Zm0,0" transform="translate(-1537.931 -588.426)" fill="#ffa726"/>
  <path id="Path_1193" data-name="Path 1193" d="M1628.4,638.653a3.058,3.058,0,1,0,3.058-3.058,3.058,3.058,0,0,0-3.058,3.058Zm4.587,0a1.529,1.529,0,1,1-1.529-1.529,1.528,1.528,0,0,1,1.529,1.529Zm0,0" transform="translate(-1595.521 -598.897)" fill="#ffa726"/>
  <path id="Path_1194" data-name="Path 1194" d="M1580.4,520.182a4.587,4.587,0,1,0,4.587-4.587,4.586,4.586,0,0,0-4.587,4.587Zm4.587-3.058a3.058,3.058,0,1,1-3.058,3.058,3.058,3.058,0,0,1,3.058-3.058Zm0,0" transform="translate(-1553.637 -494.188)" fill="#ffa726"/>
  <path id="Path_1195" data-name="Path 1195" d="M1399.566,544.511l-.742-.184-.742-.185a21.154,21.154,0,0,0-.012,7.956l1.508-.251a20.088,20.088,0,0,1-.012-7.336Zm0,0" transform="translate(-1394.237 -519.097)" fill="#ffa726"/>
  <path id="Path_1196" data-name="Path 1196" d="M1457.454,677.711a3.058,3.058,0,1,0-3.058-3.058,3.058,3.058,0,0,0,3.058,3.058Zm0-4.587a1.529,1.529,0,1,1-1.529,1.529,1.528,1.528,0,0,1,1.529-1.529Zm0,0" transform="translate(-1443.692 -630.31)" fill="#ffa726"/>
  <path id="Path_1197" data-name="Path 1197" d="M1468.763,364.728l2.194,1.2,1.2,2.194a.764.764,0,0,0,1.341,0l1.2-2.194,2.194-1.2a.765.765,0,0,0,0-1.342l-2.194-1.2-1.2-2.194a.764.764,0,0,0-1.341,0l-1.2,2.194-2.194,1.2a.764.764,0,0,0,0,1.341Zm3.124-1.307a.763.763,0,0,0,.3-.3l.636-1.164.637,1.164a.766.766,0,0,0,.3.3l1.164.637-1.164.636a.767.767,0,0,0-.3.3l-.637,1.163-.636-1.163a.764.764,0,0,0-.3-.3l-1.163-.636Zm0,0" transform="translate(-1455.881 -358.066)" fill="#ffa726"/>
  <rect id="Rectangle_2099" data-name="Rectangle 2099" width="1.529" height="1.529" transform="translate(26.759 3.823)" fill="#ffa726"/>
  <rect id="Rectangle_2100" data-name="Rectangle 2100" width="1.529" height="1.529" transform="translate(4.587 35.934)" fill="#ffa726"/>
</svg>
