<svg xmlns="http://www.w3.org/2000/svg" width="505" height="335" viewBox="0 0 505 335">
  <g id="t5-i8" transform="translate(-285 -6146)">
    <rect id="Rectangle_8200" data-name="Rectangle 8200" width="505" height="335" transform="translate(285 6146)" fill="rgba(77,208,225,0.25)"/>
    <path id="Rectangle_8200_-_Outline" data-name="Rectangle 8200 - Outline" d="M2,2V333H503V2H2M0,0H505V335H0Z" transform="translate(285 6146)" fill="#4dd0e1"/>
    <g id="t5-i8-2" data-name="t5-i8" transform="translate(575.758 8178.477)">
      <path id="Path_141548" data-name="Path 141548" d="M-37.924-1931.984A101.369,101.369,0,0,1,38.8-1966.977a101.609,101.609,0,0,1,101.609,101.609A101.609,101.609,0,0,1,38.8-1763.759a101.369,101.369,0,0,1-76.724-34.993,101.215,101.215,0,0,0,24.884-66.616A101.215,101.215,0,0,0-37.924-1931.984Z" fill="#039be5"/>
      <path id="Path_141551" data-name="Path 141551" d="M24.885,0c4.529,0,24.885,29.825,24.885,66.616s-19.877,66.616-24.885,66.616S0,103.407,0,66.616,20.356,0,24.885,0Z" transform="translate(-62.809 -1931.984)" fill="#ffa726"/>
      <g id="Group_96211" data-name="Group 96211">
        <path id="Path_141549" data-name="Path 141549" d="M38.8-1762.259a103.117,103.117,0,0,1-77.857-35.509,1.5,1.5,0,0,1,0-1.968,100.053,100.053,0,0,0,24.517-65.632A100.051,100.051,0,0,0-39.057-1931a1.5,1.5,0,0,1,0-1.968A103.114,103.114,0,0,1,38.8-1968.477a103.226,103.226,0,0,1,103.109,103.109A103.226,103.226,0,0,1,38.8-1762.259Zm-74.737-36.506A100.117,100.117,0,0,0,38.8-1765.259a100.223,100.223,0,0,0,100.109-100.109A100.223,100.223,0,0,0,38.8-1965.477a100.116,100.116,0,0,0-74.737,33.505,103.058,103.058,0,0,1,24.4,66.6A103.053,103.053,0,0,1-35.937-1798.765Z" fill="#12263f"/>
      </g>
      <g id="Group_96212" data-name="Group 96212">
        <path id="Path_141550" data-name="Path 141550" d="M-114.649-1762.259a103.226,103.226,0,0,1-103.109-103.109,103.226,103.226,0,0,1,103.109-103.109,103.112,103.112,0,0,1,77.857,35.509,1.5,1.5,0,0,1,0,1.968,100.051,100.051,0,0,0-24.517,65.632,100.053,100.053,0,0,0,24.517,65.632,1.5,1.5,0,0,1,0,1.968A103.116,103.116,0,0,1-114.649-1762.259Zm0-203.218a100.223,100.223,0,0,0-100.109,100.109,100.223,100.223,0,0,0,100.109,100.109,100.117,100.117,0,0,0,74.737-33.506,103.053,103.053,0,0,1-24.4-66.6,103.058,103.058,0,0,1,24.4-66.6A100.116,100.116,0,0,0-114.649-1965.477Z" fill="#12263f"/>
      </g>
      <text id="Empleados" transform="translate(-184.367 -1860.108)" fill="#12263f" font-size="18" font-family="Roboto-Medium, Roboto" font-weight="500"><tspan x="0" y="0">Empleados</tspan></text>
      <text id="Áreas" transform="translate(40.234 -1860.108)" fill="#12263f" font-size="18" font-family="Roboto-Medium, Roboto" font-weight="500"><tspan x="0" y="0">Áreas</tspan></text>
    </g>
  </g>
</svg>
