<svg xmlns="http://www.w3.org/2000/svg" width="355.798" height="204" viewBox="0 0 355.798 204">
  <g id="t5-i4" transform="translate(217.758 1968.477)">
    <text id="Empleados" transform="translate(-184.726 -1862.09)" fill="#12263f" font-size="17" font-family="Roboto-Medium, Roboto" font-weight="500"><tspan x="0" y="0">Empleados</tspan></text>
    <path id="Path_141543" data-name="Path 141543" d="M24.617,0C28.5,0,49.234,29.5,49.234,65.9s-20.99,65.9-24.617,65.9S0,102.295,0,65.9,20.734,0,24.617,0Z" transform="translate(-64.476 -1932.377)" fill="#ffa726"/>
    <text id="Áreas" transform="translate(37.459 -1862.09)" fill="#12263f" font-size="17" font-family="Roboto-Medium, Roboto" font-weight="500"><tspan x="0" y="0">Áreas</tspan></text>
    <g id="Group_96205" data-name="Group 96205" transform="translate(-41.343 -1968.477)">
      <path id="Path_141541" data-name="Path 141541" d="M37.959-1764.477a102.008,102.008,0,0,1-77.02-35.127,1.485,1.485,0,0,1,0-1.947,98.977,98.977,0,0,0,24.253-64.926A98.975,98.975,0,0,0-39.061-1931.4a1.485,1.485,0,0,1,0-1.947,102,102,0,0,1,77.02-35.127,102.116,102.116,0,0,1,102,102A102.116,102.116,0,0,1,37.959-1764.477Zm-73.933-36.113a99.04,99.04,0,0,0,73.933,33.146,99.145,99.145,0,0,0,99.032-99.032,99.145,99.145,0,0,0-99.032-99.032,99.039,99.039,0,0,0-73.933,33.145,101.95,101.95,0,0,1,24.135,65.888A101.945,101.945,0,0,1-35.975-1800.59Z" transform="translate(39.424 1968.477)" fill="#12263f"/>
    </g>
    <g id="Group_96206" data-name="Group 96206" transform="translate(-217.758 -1968.477)">
      <path id="Path_141542" data-name="Path 141542" d="M-115.758-1764.477a102.116,102.116,0,0,1-102-102,102.116,102.116,0,0,1,102-102,102,102,0,0,1,77.02,35.127,1.485,1.485,0,0,1,0,1.947,98.975,98.975,0,0,0-24.253,64.926,98.977,98.977,0,0,0,24.253,64.926,1.485,1.485,0,0,1,0,1.947A102.006,102.006,0,0,1-115.758-1764.477Zm0-201.032a99.145,99.145,0,0,0-99.032,99.032,99.145,99.145,0,0,0,99.032,99.032,99.04,99.04,0,0,0,73.933-33.146,101.945,101.945,0,0,1-24.135-65.887,101.95,101.95,0,0,1,24.135-65.888A99.039,99.039,0,0,0-115.758-1965.509Z" transform="translate(217.758 1968.477)" fill="#12263f"/>
    </g>
  </g>
</svg>
