<svg xmlns="http://www.w3.org/2000/svg" width="505" height="342" viewBox="0 0 505 342">
  <g id="t5-i7" transform="translate(-285 -5397)">
    <rect id="Rectangle_8199" data-name="Rectangle 8199" width="505" height="342" transform="translate(285 5397)" fill="rgba(77,208,225,0.25)"/>
    <path id="Rectangle_8199_-_Outline" data-name="Rectangle 8199 - Outline" d="M2,2V340H503V2H2M0,0H505V342H0Z" transform="translate(285 5397)" fill="#4dd0e1"/>
    <g id="t5-i7-2" data-name="t5-i7" transform="translate(577.758 7434.477)">
      <path id="Path_141544" data-name="Path 141544" d="M-39.842-1932.36a100.283,100.283,0,0,0-75.9-34.617,100.516,100.516,0,0,0-100.516,100.516,100.516,100.516,0,0,0,100.516,100.516,100.282,100.282,0,0,0,75.9-34.616,100.122,100.122,0,0,1-24.617-65.9A100.122,100.122,0,0,1-39.842-1932.36Z" transform="translate(-0.016 -0.016)" fill="#ffd34d"/>
      <text id="Empleados" transform="translate(-184.726 -1862.09)" fill="#12263f" font-size="17" font-family="Roboto-Medium, Roboto" font-weight="500"><tspan x="0" y="0">Empleados</tspan></text>
      <path id="Path_141547" data-name="Path 141547" d="M24.617,0c4.455,0,24.617,29.5,24.617,65.9s-20.495,65.9-24.617,65.9S0,102.295,0,65.9,20.162,0,24.617,0Z" transform="translate(-64.476 -1932.377)" fill="#ffa726"/>
      <text id="Áreas" transform="translate(37.459 -1862.09)" fill="#12263f" font-size="17" font-family="Roboto-Medium, Roboto" font-weight="500"><tspan x="0" y="0">Áreas</tspan></text>
      <g id="Group_96208" data-name="Group 96208" transform="translate(-41.343 -1968.477)">
        <path id="Path_141545" data-name="Path 141545" d="M37.959-1764.477a102.008,102.008,0,0,1-77.02-35.127,1.485,1.485,0,0,1,0-1.947,98.977,98.977,0,0,0,24.253-64.926A98.975,98.975,0,0,0-39.061-1931.4a1.485,1.485,0,0,1,0-1.947,102,102,0,0,1,77.02-35.127,102.116,102.116,0,0,1,102,102A102.116,102.116,0,0,1,37.959-1764.477Zm-73.933-36.113a99.04,99.04,0,0,0,73.933,33.146,99.145,99.145,0,0,0,99.032-99.032,99.145,99.145,0,0,0-99.032-99.032,99.039,99.039,0,0,0-73.933,33.145,101.95,101.95,0,0,1,24.135,65.888A101.945,101.945,0,0,1-35.975-1800.59Z" transform="translate(39.424 1968.477)" fill="#12263f"/>
      </g>
      <g id="Group_96209" data-name="Group 96209" transform="translate(-217.758 -1968.477)">
        <path id="Path_141546" data-name="Path 141546" d="M-115.758-1764.477a102.116,102.116,0,0,1-102-102,102.116,102.116,0,0,1,102-102,102,102,0,0,1,77.02,35.127,1.485,1.485,0,0,1,0,1.947,98.975,98.975,0,0,0-24.253,64.926,98.977,98.977,0,0,0,24.253,64.926,1.485,1.485,0,0,1,0,1.947A102.006,102.006,0,0,1-115.758-1764.477Zm0-201.032a99.145,99.145,0,0,0-99.032,99.032,99.145,99.145,0,0,0,99.032,99.032,99.04,99.04,0,0,0,73.933-33.146,101.945,101.945,0,0,1-24.135-65.887,101.95,101.95,0,0,1,24.135-65.888A99.039,99.039,0,0,0-115.758-1965.509Z" transform="translate(217.758 1968.477)" fill="#12263f"/>
      </g>
    </g>
  </g>
</svg>
