<svg xmlns="http://www.w3.org/2000/svg" width="295" height="150" viewBox="0 0 295 150">
  <g id="t5-i2" transform="translate(-180 -2737)">
    <rect id="Rectangle_8134" data-name="Rectangle 8134" width="295" height="150" rx="10" transform="translate(180 2737)" fill="#e3edf8"/>
    <g id="Group_91339" data-name="Group 91339" transform="translate(-7.008 3924.568)">
      <rect id="Rectangle_8135" data-name="Rectangle 8135" width="116.483" height="80.276" rx="13.665" transform="translate(276.613 -1153.128)" fill="#cecece"/>
      <g id="Group_91307" data-name="Group 91307" transform="translate(276.613 -1153.128)">
        <path id="Path_136788" data-name="Path 136788" d="M286.871-1061.195v-65.757a7.269,7.269,0,0,1,7.26-7.26h-5.313a7.269,7.269,0,0,0-7.26,7.26v65.757a7.268,7.268,0,0,0,7.26,7.26h5.313A7.268,7.268,0,0,1,286.871-1061.195Z" transform="translate(-281.558 1134.211)" fill="#afafaf"/>
      </g>
      <g id="Group_91308" data-name="Group 91308" transform="translate(380.524 -1153.128)">
        <path id="Path_136789" data-name="Path 136789" d="M484.414-1061.195v-65.757a7.268,7.268,0,0,0-7.26-7.26h5.313a7.268,7.268,0,0,1,7.26,7.26v65.757a7.268,7.268,0,0,1-7.26,7.26h-5.313A7.268,7.268,0,0,0,484.414-1061.195Z" transform="translate(-477.154 1134.211)" fill="#e2e2e2"/>
      </g>
      <g id="Group_91309" data-name="Group 91309" transform="translate(274.223 -1153.925)">
        <path id="Path_136790" data-name="Path 136790" d="M387.079-1053.842H285.115a8.065,8.065,0,0,1-8.056-8.056v-65.757a8.065,8.065,0,0,1,8.056-8.057H387.079a8.065,8.065,0,0,1,8.056,8.057v65.757A8.065,8.065,0,0,1,387.079-1053.842Zm-101.964-80.276a6.47,6.47,0,0,0-6.462,6.463v65.757a6.47,6.47,0,0,0,6.462,6.463H387.079a6.47,6.47,0,0,0,6.462-6.463v-65.757a6.47,6.47,0,0,0-6.462-6.463Z" transform="translate(-277.059 1135.711)" fill="#12263f"/>
      </g>
      <rect id="Rectangle_8136" data-name="Rectangle 8136" width="107.548" height="64.966" rx="5.256" transform="translate(281.08 -1148.661)" fill="#63bce7"/>
      <g id="Group_91310" data-name="Group 91310" transform="translate(281.081 -1148.661)">
        <path id="Path_136791" data-name="Path 136791" d="M295.281-1063.628v-59.382a2.8,2.8,0,0,1,2.792-2.792H292.76a2.8,2.8,0,0,0-2.792,2.792v59.382a2.8,2.8,0,0,0,2.792,2.792h5.313A2.8,2.8,0,0,1,295.281-1063.628Z" transform="translate(-289.968 1125.802)" fill="#039be5"/>
      </g>
      <g id="Group_91311" data-name="Group 91311" transform="translate(380.524 -1148.661)">
        <path id="Path_136792" data-name="Path 136792" d="M479.946-1063.628v-59.382a2.8,2.8,0,0,0-2.792-2.792h5.313a2.8,2.8,0,0,1,2.792,2.792v59.382a2.8,2.8,0,0,1-2.792,2.792h-5.313A2.8,2.8,0,0,0,479.946-1063.628Z" transform="translate(-477.154 1125.802)" fill="#7cd5e1"/>
      </g>
      <g id="Group_91312" data-name="Group 91312" transform="translate(280.284 -1149.458)">
        <path id="Path_136793" data-name="Path 136793" d="M394.021-1060.742H292.057a3.593,3.593,0,0,1-3.589-3.589v-59.382a3.593,3.593,0,0,1,3.589-3.589H394.021a3.593,3.593,0,0,1,3.589,3.589v59.382A3.593,3.593,0,0,1,394.021-1060.742Zm-101.964-64.966a2,2,0,0,0-1.995,2v59.382a2,2,0,0,0,1.995,2H394.021a2,2,0,0,0,1.995-2v-59.382a2,2,0,0,0-1.995-2Z" transform="translate(-288.468 1127.302)" fill="#12263f"/>
      </g>
      <rect id="Rectangle_8137" data-name="Rectangle 8137" width="40.579" height="4.886" transform="translate(314.565 -1061.081)" fill="#9e9e9e"/>
      <g id="Group_91313" data-name="Group 91313" transform="translate(314.565 -1061.081)">
        <rect id="Rectangle_8138" data-name="Rectangle 8138" width="5.313" height="4.886" transform="translate(0 0)" fill="#12263f"/>
      </g>
      <rect id="Rectangle_8139" data-name="Rectangle 8139" width="29.038" height="11.772" transform="translate(320.336 -1072.852)" fill="#cecece"/>
      <g id="Group_91314" data-name="Group 91314" transform="translate(320.336 -1072.852)">
        <rect id="Rectangle_8140" data-name="Rectangle 8140" width="5.313" height="11.772" transform="translate(0 0)" fill="#afafaf"/>
      </g>
      <g id="Group_91315" data-name="Group 91315" transform="translate(313.768 -1061.878)">
        <path id="Path_136794" data-name="Path 136794" d="M392.873-955.967H352.294a.8.8,0,0,1-.8-.8v-4.886a.8.8,0,0,1,.8-.8h40.579a.8.8,0,0,1,.8.8v4.886A.8.8,0,0,1,392.873-955.967Zm-39.782-1.594h38.985v-3.292H353.091Z" transform="translate(-351.497 962.447)" fill="#12263f"/>
      </g>
      <g id="Group_91316" data-name="Group 91316" transform="translate(319.539 -1073.649)">
        <path id="Path_136795" data-name="Path 136795" d="M392.194-971.24H363.156a.8.8,0,0,1-.8-.8v-11.772a.8.8,0,0,1,.8-.8h29.038a.8.8,0,0,1,.8.8v11.772A.8.8,0,0,1,392.194-971.24Zm-28.241-1.594H391.4v-10.178H363.953Z" transform="translate(-362.359 984.605)" fill="#12263f"/>
      </g>
      <g id="Group_91318" data-name="Group 91318" transform="translate(331.667 -1081.461)">
        <circle id="Ellipse_4240" data-name="Ellipse 4240" cx="2.391" cy="2.391" r="2.391" transform="translate(0.797 0.797)" fill="#9e9e9e"/>
        <g id="Group_91317" data-name="Group 91317" transform="translate(0)">
          <path id="Path_136796" data-name="Path 136796" d="M388.376-992.934a3.191,3.191,0,0,1-3.188-3.187,3.191,3.191,0,0,1,3.188-3.188,3.191,3.191,0,0,1,3.188,3.188A3.191,3.191,0,0,1,388.376-992.934Zm0-4.781a1.6,1.6,0,0,0-1.594,1.594,1.6,1.6,0,0,0,1.594,1.594,1.6,1.6,0,0,0,1.594-1.594A1.6,1.6,0,0,0,388.376-997.715Z" transform="translate(-385.188 999.309)" fill="#12263f"/>
        </g>
      </g>
      <g id="Group_91324" data-name="Group 91324" transform="translate(271.008 -1056.992)">
        <g id="Group_91321" data-name="Group 91321" transform="translate(0 5.83)">
          <g id="Group_91319" data-name="Group 91319">
            <path id="Path_136797" data-name="Path 136797" d="M281.37-940.682H271.8a.8.8,0,0,1-.8-.8.8.8,0,0,1,.8-.8h9.565a.8.8,0,0,1,.8.8A.8.8,0,0,1,281.37-940.682Z" transform="translate(-271.008 942.276)" fill="#12263f"/>
          </g>
          <g id="Group_91320" data-name="Group 91320" transform="translate(116.534)">
            <path id="Path_136798" data-name="Path 136798" d="M500.727-940.682h-9.565a.8.8,0,0,1-.8-.8.8.8,0,0,1,.8-.8h9.565a.8.8,0,0,1,.8.8A.8.8,0,0,1,500.727-940.682Z" transform="translate(-490.365 942.276)" fill="#12263f"/>
          </g>
        </g>
        <g id="Group_91322" data-name="Group 91322" transform="translate(14.982 5.83)">
          <path id="Path_136799" data-name="Path 136799" d="M396.141-940.682H300.006a.8.8,0,0,1-.8-.8.8.8,0,0,1,.8-.8h96.135a.8.8,0,0,1,.8.8A.8.8,0,0,1,396.141-940.682Z" transform="translate(-299.209 942.276)" fill="#12263f"/>
        </g>
        <g id="Group_91323" data-name="Group 91323" transform="translate(0 0)">
          <path id="Path_136800" data-name="Path 136800" d="M397.9-951.656H271.8a.8.8,0,0,1-.8-.8.8.8,0,0,1,.8-.8H397.9a.8.8,0,0,1,.8.8A.8.8,0,0,1,397.9-951.656Z" transform="translate(-271.008 953.25)" fill="#12263f"/>
        </g>
      </g>
      <rect id="Rectangle_8141" data-name="Rectangle 8141" width="82.071" height="70.308" rx="10.6" transform="translate(293.819 -1173.771)" fill="#cecece"/>
      <g id="Group_91325" data-name="Group 91325" transform="translate(293.819 -1173.771)">
        <path id="Path_136801" data-name="Path 136801" d="M319.259-1108.391v-59.045a5.632,5.632,0,0,1,5.631-5.631h-5.313a5.632,5.632,0,0,0-5.631,5.631v59.045a5.631,5.631,0,0,0,5.631,5.631h5.313A5.631,5.631,0,0,1,319.259-1108.391Z" transform="translate(-313.946 1173.068)" fill="#afafaf"/>
      </g>
      <g id="Group_91326" data-name="Group 91326" transform="translate(364.946 -1173.771)">
        <path id="Path_136802" data-name="Path 136802" d="M453.462-1108.391v-59.045a5.632,5.632,0,0,0-5.631-5.631h5.313a5.632,5.632,0,0,1,5.631,5.631v59.045a5.631,5.631,0,0,1-5.631,5.631h-5.313A5.631,5.631,0,0,0,453.462-1108.391Z" transform="translate(-447.831 1173.068)" fill="#e2e2e2"/>
      </g>
      <g id="Group_91327" data-name="Group 91327" transform="translate(293.022 -1174.568)">
        <path id="Path_136803" data-name="Path 136803" d="M389.682-1102.666H318.874a6.435,6.435,0,0,1-6.428-6.428v-59.045a6.436,6.436,0,0,1,6.428-6.428h70.808a6.436,6.436,0,0,1,6.428,6.428v59.045A6.435,6.435,0,0,1,389.682-1102.666Zm-70.808-70.308a4.84,4.84,0,0,0-4.834,4.834v59.045a4.84,4.84,0,0,0,4.834,4.834h70.808a4.84,4.84,0,0,0,4.834-4.834v-59.045a4.84,4.84,0,0,0-4.834-4.834Z" transform="translate(-312.446 1174.568)" fill="#12263f"/>
      </g>
      <path id="Path_136804" data-name="Path 136804" d="M396.017-1167.436a5.632,5.632,0,0,0-5.632-5.632H319.578a5.633,5.633,0,0,0-5.632,5.632v9.8h82.071Z" transform="translate(-20.127 -0.703)" fill="#ffca28"/>
      <g id="Group_91328" data-name="Group 91328" transform="translate(293.819 -1173.771)">
        <path id="Path_136805" data-name="Path 136805" d="M324.891-1173.068h-5.313a5.633,5.633,0,0,0-5.632,5.632v9.8h5.313v-9.8A5.633,5.633,0,0,1,324.891-1173.068Z" transform="translate(-313.946 1173.068)" fill="#f87023"/>
      </g>
      <g id="Group_91329" data-name="Group 91329" transform="translate(364.946 -1173.771)">
        <path id="Path_136806" data-name="Path 136806" d="M447.83-1173.068h5.313a5.632,5.632,0,0,1,5.632,5.632v9.8h-5.313v-9.8A5.632,5.632,0,0,0,447.83-1173.068Z" transform="translate(-447.83 1173.068)" fill="#f8d323"/>
      </g>
      <g id="Group_91330" data-name="Group 91330" transform="translate(301.301 -1168.626)">
        <circle id="Ellipse_4241" data-name="Ellipse 4241" cx="2.572" cy="2.572" r="2.572" transform="translate(0 0)" fill="#039be5"/>
        <circle id="Ellipse_4242" data-name="Ellipse 4242" cx="2.572" cy="2.572" r="2.572" transform="translate(9.908 0)" fill="#039be5"/>
        <circle id="Ellipse_4243" data-name="Ellipse 4243" cx="2.572" cy="2.572" r="2.572" transform="translate(19.815 0)" fill="#039be5"/>
      </g>
      <g id="Group_91334" data-name="Group 91334" transform="translate(300.504 -1169.423)">
        <g id="Group_91331" data-name="Group 91331" transform="translate(0 0)">
          <path id="Path_136807" data-name="Path 136807" d="M329.9-1158.146a3.372,3.372,0,0,1-3.369-3.369,3.373,3.373,0,0,1,3.369-3.369,3.373,3.373,0,0,1,3.369,3.369A3.372,3.372,0,0,1,329.9-1158.146Zm0-5.144a1.777,1.777,0,0,0-1.775,1.775,1.777,1.777,0,0,0,1.775,1.775,1.777,1.777,0,0,0,1.775-1.775A1.777,1.777,0,0,0,329.9-1163.29Z" transform="translate(-326.529 1164.884)" fill="#12263f"/>
        </g>
        <g id="Group_91332" data-name="Group 91332" transform="translate(9.908 0)">
          <path id="Path_136808" data-name="Path 136808" d="M348.548-1158.146a3.372,3.372,0,0,1-3.369-3.369,3.372,3.372,0,0,1,3.369-3.369,3.372,3.372,0,0,1,3.369,3.369A3.372,3.372,0,0,1,348.548-1158.146Zm0-5.144a1.777,1.777,0,0,0-1.775,1.775,1.777,1.777,0,0,0,1.775,1.775,1.777,1.777,0,0,0,1.775-1.775A1.777,1.777,0,0,0,348.548-1163.29Z" transform="translate(-345.179 1164.884)" fill="#12263f"/>
        </g>
        <g id="Group_91333" data-name="Group 91333" transform="translate(19.815 0)">
          <path id="Path_136809" data-name="Path 136809" d="M367.2-1158.146a3.372,3.372,0,0,1-3.369-3.369,3.373,3.373,0,0,1,3.369-3.369,3.373,3.373,0,0,1,3.369,3.369A3.372,3.372,0,0,1,367.2-1158.146Zm0-5.144a1.777,1.777,0,0,0-1.775,1.775,1.777,1.777,0,0,0,1.775,1.775,1.777,1.777,0,0,0,1.775-1.775A1.777,1.777,0,0,0,367.2-1163.29Z" transform="translate(-363.828 1164.884)" fill="#12263f"/>
        </g>
      </g>
      <rect id="Rectangle_8142" data-name="Rectangle 8142" width="36.467" height="3.92" rx="1.96" transform="translate(331.942 -1167.846)" fill="#039be5"/>
      <g id="Group_91335" data-name="Group 91335" transform="translate(331.144 -1168.643)">
        <path id="Path_136810" data-name="Path 136810" d="M419.509-1157.9H386.962a2.76,2.76,0,0,1-2.757-2.757,2.76,2.76,0,0,1,2.757-2.757h32.547a2.76,2.76,0,0,1,2.757,2.757A2.76,2.76,0,0,1,419.509-1157.9Zm-32.547-3.92a1.164,1.164,0,0,0-1.163,1.163,1.165,1.165,0,0,0,1.163,1.163h32.547a1.165,1.165,0,0,0,1.163-1.163,1.165,1.165,0,0,0-1.163-1.163Z" transform="translate(-384.205 1163.415)" fill="#12263f"/>
      </g>
      <g id="Group_91336" data-name="Group 91336" transform="translate(293.022 -1174.568)">
        <path id="Path_136811" data-name="Path 136811" d="M395.314-1157.541H313.243a.8.8,0,0,1-.8-.8v-9.8a6.437,6.437,0,0,1,6.429-6.429h70.806a6.437,6.437,0,0,1,6.429,6.429v9.8A.8.8,0,0,1,395.314-1157.541Zm-81.274-1.594h80.477v-9a4.841,4.841,0,0,0-4.835-4.835H318.875a4.841,4.841,0,0,0-4.835,4.835Z" transform="translate(-312.446 1174.568)" fill="#12263f"/>
      </g>
      <rect id="Rectangle_8143" data-name="Rectangle 8143" width="69.234" height="25.534" rx="12.767" transform="translate(300.237 -1116.23)" fill="#ffca28"/>
      <g id="Group_91337" data-name="Group 91337" transform="translate(299.44 -1117.027)">
        <path id="Path_136812" data-name="Path 136812" d="M381.791-1039.129h-43.7a13.579,13.579,0,0,1-13.565-13.564,13.58,13.58,0,0,1,13.565-13.564h43.7a13.58,13.58,0,0,1,13.565,13.564A13.579,13.579,0,0,1,381.791-1039.129Zm-43.7-25.534a11.984,11.984,0,0,0-11.971,11.97,11.984,11.984,0,0,0,11.971,11.97h43.7a11.984,11.984,0,0,0,11.971-11.97,11.984,11.984,0,0,0-11.971-11.97Z" transform="translate(-324.527 1066.257)" fill="#12263f"/>
      </g>
      <rect id="Rectangle_8144" data-name="Rectangle 8144" width="4.174" height="4.174" transform="translate(302.271 -1151.027)" fill="#12263f"/>
      <rect id="Rectangle_8145" data-name="Rectangle 8145" width="36.847" height="4.174" transform="translate(309.606 -1151.027)" fill="#12263f"/>
      <rect id="Rectangle_8146" data-name="Rectangle 8146" width="6.649" height="4.174" transform="translate(349.539 -1151.027)" fill="#12263f"/>
      <rect id="Rectangle_8147" data-name="Rectangle 8147" width="4.174" height="4.174" transform="translate(302.271 -1142.538)" fill="#12263f"/>
      <rect id="Rectangle_8148" data-name="Rectangle 8148" width="29.439" height="4.174" transform="translate(309.606 -1142.538)" fill="#12263f"/>
      <rect id="Rectangle_8149" data-name="Rectangle 8149" width="13.999" height="4.174" transform="translate(342.19 -1142.538)" fill="#12263f"/>
      <rect id="Rectangle_8150" data-name="Rectangle 8150" width="4.174" height="4.174" transform="translate(302.271 -1134.048)" fill="#12263f"/>
      <rect id="Rectangle_8151" data-name="Rectangle 8151" width="14.719" height="4.174" transform="translate(309.606 -1134.048)" fill="#12263f"/>
      <rect id="Rectangle_8152" data-name="Rectangle 8152" width="25.901" height="4.174" transform="translate(330.288 -1134.048)" fill="#12263f"/>
      <rect id="Rectangle_8153" data-name="Rectangle 8153" width="4.174" height="4.174" transform="translate(302.271 -1125.559)" fill="#12263f"/>
      <rect id="Rectangle_8154" data-name="Rectangle 8154" width="8.607" height="4.174" transform="translate(309.606 -1125.559)" fill="#12263f"/>
      <rect id="Rectangle_8155" data-name="Rectangle 8155" width="34.895" height="4.174" transform="translate(321.294 -1125.559)" fill="#12263f"/>
      <g id="Group_91338" data-name="Group 91338" transform="translate(305.647 -1107.288)">
        <path id="Path_136813" data-name="Path 136813" d="M336.211-1046.554v-1.137h4.673v1.137h-1.629v5.11h1.629v1.149h-4.673v-1.149h1.629v-5.11Z" transform="translate(-336.211 1047.815)" fill="#12263f"/>
        <path id="Path_136814" data-name="Path 136814" d="M351.262-1040.3l-1.98-4.414-.407-.95v5.364h-1.268v-7.4h1.709l2.02,4.442.357.866v-5.308h1.268v7.4Z" transform="translate(-341.553 1047.815)" fill="#12263f"/>
        <path id="Path_136815" data-name="Path 136815" d="M363.255-1040.3l-1.981-4.414-.407-.95v5.364H359.6v-7.4h1.708l2.02,4.442.356.866v-5.308h1.267v7.4Z" transform="translate(-347.174 1047.815)" fill="#12263f"/>
        <path id="Path_136816" data-name="Path 136816" d="M372.551-1040.3v-7.4H377v1.177h-3.038v1.839h2.9v1.149h-2.9v2.054H377v1.177Z" transform="translate(-353.245 1047.815)" fill="#12263f"/>
        <path id="Path_136817" data-name="Path 136817" d="M387.687-1040.3l-1.041-2.376a1.127,1.127,0,0,0-.41-.512,1.1,1.1,0,0,0-.619-.173h-.266v3.061h-1.392v-7.4h2.156a5.377,5.377,0,0,1,1.109.105,2.294,2.294,0,0,1,.849.348,1.615,1.615,0,0,1,.54.633,2.176,2.176,0,0,1,.19.956,2.057,2.057,0,0,1-.119.725,1.612,1.612,0,0,1-.334.546,1.682,1.682,0,0,1-.512.371,2.374,2.374,0,0,1-.648.2.925.925,0,0,1,.5.308,3.087,3.087,0,0,1,.453.727l1.183,2.478Zm-.345-5.217a.879.879,0,0,0-.345-.781,1.835,1.835,0,0,0-1.035-.237h-.611v2.088h.566a2.346,2.346,0,0,0,.585-.068,1.312,1.312,0,0,0,.45-.2.935.935,0,0,0,.288-.337A1,1,0,0,0,387.342-1045.512Z" transform="translate(-358.592 1047.815)" fill="#12263f"/>
        <path id="Path_136818" data-name="Path 136818" d="M405.092-1042.508a2.647,2.647,0,0,1-.164.95,1.989,1.989,0,0,1-.481.735,2.152,2.152,0,0,1-.786.473,3.263,3.263,0,0,1-1.092.167,3.578,3.578,0,0,1-.882-.107,3.446,3.446,0,0,1-.741-.272v-1.346a1.933,1.933,0,0,0,.331.22,2.814,2.814,0,0,0,.4.178,2.911,2.911,0,0,0,.441.119,2.427,2.427,0,0,0,.447.042,1.207,1.207,0,0,0,.388-.068.918.918,0,0,0,.359-.226,1.209,1.209,0,0,0,.26-.416,1.735,1.735,0,0,0,.1-.636v-3.847H401v-1.149h4.091Z" transform="translate(-366.554 1047.815)" fill="#12263f"/>
        <path id="Path_136819" data-name="Path 136819" d="M417.451-1044.134a5.7,5.7,0,0,1-.235,1.737,3.362,3.362,0,0,1-.645,1.2,2.554,2.554,0,0,1-.962.7,3.074,3.074,0,0,1-1.18.226,2.581,2.581,0,0,1-2.2-.971,4.609,4.609,0,0,1-.736-2.82,5.711,5.711,0,0,1,.235-1.737,3.37,3.37,0,0,1,.645-1.2,2.551,2.551,0,0,1,.962-.7,3.08,3.08,0,0,1,1.18-.226,2.584,2.584,0,0,1,2.2.967A4.609,4.609,0,0,1,417.451-1044.134Zm-1.471.068a4.23,4.23,0,0,0-.351-1.958,1.211,1.211,0,0,0-1.154-.645,1.323,1.323,0,0,0-.685.167,1.3,1.3,0,0,0-.467.489,2.494,2.494,0,0,0-.269.8,6.2,6.2,0,0,0-.084,1.083,4.206,4.206,0,0,0,.353,1.958,1.214,1.214,0,0,0,1.152.645,1.338,1.338,0,0,0,.687-.167,1.268,1.268,0,0,0,.466-.489,2.524,2.524,0,0,0,.266-.795A6.153,6.153,0,0,0,415.98-1044.066Z" transform="translate(-371.501 1047.925)" fill="#12263f"/>
        <path id="Path_136820" data-name="Path 136820" d="M424.7-1046.554v-1.137h4.673v1.137h-1.629v5.11h1.629v1.149H424.7v-1.149h1.629v-5.11Z" transform="translate(-377.687 1047.815)" fill="#12263f"/>
        <path id="Path_136821" data-name="Path 136821" d="M439.746-1040.3l-1.98-4.414-.407-.95v5.364h-1.268v-7.4H437.8l2.02,4.442.356.866v-5.308h1.268v7.4Z" transform="translate(-383.029 1047.815)" fill="#12263f"/>
      </g>
    </g>
  </g>
</svg>
